<svg width="299" height="51" viewBox="0 0 299 51" fill="none" xmlns="http://www.w3.org/2000/svg">
<rect x="26" y="26" width="248" height="13" fill="#A844AE"/>
<path d="M54.0972 13.824V34H59.5399V13.824H66.9585V9.248H46.6785V13.824H54.0972ZM77.4972 23.1147H69.4892C69.5123 22.768 69.5816 22.3751 69.6972 21.936C69.8359 21.4969 70.0554 21.0809 70.3559 20.688C70.6794 20.2951 71.0954 19.9716 71.6039 19.7173C72.1354 19.44 72.7941 19.3013 73.5799 19.3013C74.7816 19.3013 75.6714 19.6249 76.2492 20.272C76.8501 20.9191 77.2661 21.8667 77.4972 23.1147ZM69.4892 26.2347H82.4199C82.5123 24.848 82.3968 23.5191 82.0732 22.248C81.7496 20.9769 81.2181 19.8444 80.4785 18.8507C79.7621 17.8569 78.8376 17.0711 77.7052 16.4933C76.5728 15.8924 75.2439 15.592 73.7185 15.592C72.355 15.592 71.107 15.8347 69.9745 16.32C68.8652 16.8053 67.9061 17.4756 67.0972 18.3307C66.2883 19.1627 65.6643 20.1564 65.2252 21.312C64.7861 22.4676 64.5665 23.7156 64.5665 25.056C64.5665 26.4427 64.7745 27.7138 65.1905 28.8693C65.6296 30.0249 66.2421 31.0187 67.0279 31.8507C67.8136 32.6827 68.7728 33.3298 69.9052 33.792C71.0376 34.2311 72.3088 34.4507 73.7185 34.4507C75.7523 34.4507 77.4856 33.9884 78.9185 33.064C80.3514 32.1396 81.4145 30.6027 82.1079 28.4533H77.7745C77.6128 29.008 77.1736 29.5396 76.4572 30.048C75.7408 30.5333 74.8856 30.776 73.8919 30.776C72.5052 30.776 71.4421 30.4178 70.7025 29.7013C69.963 28.9849 69.5585 27.8293 69.4892 26.2347ZM89.1528 28.176H84.4728C84.519 29.3778 84.7848 30.3831 85.2701 31.192C85.7786 31.9778 86.4141 32.6133 87.1768 33.0987C87.9626 33.584 88.8523 33.9307 89.8461 34.1387C90.8399 34.3467 91.8568 34.4507 92.8968 34.4507C93.9137 34.4507 94.9074 34.3467 95.8781 34.1387C96.8719 33.9538 97.7501 33.6187 98.5128 33.1333C99.2754 32.648 99.8879 32.0124 100.35 31.2267C100.835 30.4178 101.078 29.424 101.078 28.2453C101.078 27.4133 100.916 26.72 100.593 26.1653C100.269 25.5876 99.8417 25.1138 99.3101 24.744C98.7786 24.3511 98.1661 24.0391 97.4728 23.808C96.8026 23.5769 96.1092 23.3804 95.3928 23.2187C94.6994 23.0569 94.0177 22.9067 93.3474 22.768C92.6772 22.6293 92.0763 22.4791 91.5448 22.3173C91.0363 22.1324 90.6203 21.9013 90.2968 21.624C89.9732 21.3467 89.8114 20.9884 89.8114 20.5493C89.8114 20.1796 89.9039 19.8907 90.0888 19.6827C90.2737 19.4516 90.4932 19.2782 90.7474 19.1627C91.0248 19.0471 91.3252 18.9778 91.6488 18.9547C91.9723 18.9084 92.2728 18.8853 92.5501 18.8853C93.4283 18.8853 94.191 19.0587 94.8381 19.4053C95.4852 19.7289 95.8434 20.3644 95.9128 21.312H100.593C100.5 20.2027 100.211 19.2898 99.7261 18.5733C99.2639 17.8338 98.6746 17.2444 97.9581 16.8053C97.2417 16.3662 96.4212 16.0542 95.4968 15.8693C94.5954 15.6844 93.6594 15.592 92.6888 15.592C91.7181 15.592 90.7706 15.6844 89.8461 15.8693C88.9217 16.0311 88.0897 16.3316 87.3501 16.7707C86.6106 17.1867 86.0097 17.7644 85.5474 18.504C85.1083 19.2436 84.8888 20.1911 84.8888 21.3467C84.8888 22.1324 85.0506 22.8027 85.3741 23.3573C85.6977 23.8889 86.1252 24.3396 86.6568 24.7093C87.1883 25.056 87.7892 25.3449 88.4594 25.576C89.1528 25.784 89.8577 25.9689 90.5741 26.1307C92.3306 26.5004 93.6941 26.8702 94.6648 27.24C95.6586 27.6098 96.1554 28.1644 96.1554 28.904C96.1554 29.3431 96.0514 29.7129 95.8434 30.0133C95.6354 30.2907 95.3697 30.5218 95.0461 30.7067C94.7457 30.8684 94.399 30.9956 94.0061 31.088C93.6363 31.1573 93.2781 31.192 92.9314 31.192C92.4461 31.192 91.9723 31.1342 91.5101 31.0187C91.071 30.9031 90.6781 30.7298 90.3314 30.4987C89.9848 30.2444 89.6959 29.9324 89.4648 29.5627C89.2568 29.1698 89.1528 28.7076 89.1528 28.176ZM110.199 16.0773V10.704H105.277V16.0773H102.295V19.3707H105.277V29.944C105.277 30.8453 105.427 31.5733 105.727 32.128C106.028 32.6827 106.432 33.1102 106.941 33.4107C107.472 33.7111 108.073 33.9076 108.743 34C109.437 34.1156 110.165 34.1733 110.927 34.1733C111.413 34.1733 111.909 34.1618 112.418 34.1387C112.926 34.1156 113.389 34.0693 113.805 34V30.1867C113.573 30.2329 113.331 30.2676 113.077 30.2907C112.822 30.3138 112.557 30.3253 112.279 30.3253C111.447 30.3253 110.893 30.1867 110.615 29.9093C110.338 29.632 110.199 29.0773 110.199 28.2453V19.3707H113.805V16.0773H110.199ZM121.208 13.304V9.248H116.285V13.304H121.208ZM116.285 16.0773V34H121.208V16.0773H116.285ZM125.223 16.0773V34H130.146V23.6C130.146 22.7218 130.273 22.0169 130.527 21.4853C130.781 20.9307 131.082 20.5147 131.428 20.2373C131.798 19.9369 132.168 19.7404 132.538 19.648C132.93 19.5324 133.242 19.4747 133.474 19.4747C134.259 19.4747 134.849 19.6133 135.242 19.8907C135.658 20.1449 135.946 20.4916 136.108 20.9307C136.293 21.3698 136.397 21.8551 136.42 22.3867C136.443 22.8951 136.455 23.4151 136.455 23.9467V34H141.378V24.016C141.378 23.4613 141.412 22.9182 141.482 22.3867C141.574 21.832 141.736 21.3467 141.967 20.9307C142.221 20.4916 142.556 20.1449 142.972 19.8907C143.411 19.6133 143.978 19.4747 144.671 19.4747C145.364 19.4747 145.907 19.5902 146.3 19.8213C146.716 20.0524 147.028 20.3644 147.236 20.7573C147.444 21.1502 147.571 21.6124 147.618 22.144C147.664 22.6756 147.687 23.2418 147.687 23.8427V34H152.61V22.0053C152.61 20.8498 152.448 19.8676 152.124 19.0587C151.801 18.2267 151.35 17.5564 150.772 17.048C150.194 16.5396 149.501 16.1698 148.692 15.9387C147.883 15.7076 147.005 15.592 146.058 15.592C144.81 15.592 143.723 15.8924 142.799 16.4933C141.898 17.0942 141.181 17.7876 140.65 18.5733C140.164 17.464 139.448 16.6898 138.5 16.2507C137.576 15.8116 136.547 15.592 135.415 15.592C134.236 15.592 133.185 15.8462 132.26 16.3547C131.359 16.8631 130.585 17.5796 129.938 18.504H129.868V16.0773H125.223ZM160.869 25.056C160.869 24.3396 160.938 23.6347 161.077 22.9413C161.216 22.248 161.447 21.6356 161.77 21.104C162.117 20.5724 162.568 20.1449 163.122 19.8213C163.677 19.4747 164.37 19.3013 165.202 19.3013C166.034 19.3013 166.728 19.4747 167.282 19.8213C167.86 20.1449 168.311 20.5724 168.634 21.104C168.981 21.6356 169.224 22.248 169.362 22.9413C169.501 23.6347 169.57 24.3396 169.57 25.056C169.57 25.7724 169.501 26.4773 169.362 27.1707C169.224 27.8409 168.981 28.4533 168.634 29.008C168.311 29.5396 167.86 29.9671 167.282 30.2907C166.728 30.6142 166.034 30.776 165.202 30.776C164.37 30.776 163.677 30.6142 163.122 30.2907C162.568 29.9671 162.117 29.5396 161.77 29.008C161.447 28.4533 161.216 27.8409 161.077 27.1707C160.938 26.4773 160.869 25.7724 160.869 25.056ZM155.946 25.056C155.946 26.4889 156.166 27.7831 156.605 28.9387C157.044 30.0942 157.668 31.088 158.477 31.92C159.286 32.7289 160.256 33.3529 161.389 33.792C162.521 34.2311 163.792 34.4507 165.202 34.4507C166.612 34.4507 167.883 34.2311 169.016 33.792C170.171 33.3529 171.153 32.7289 171.962 31.92C172.771 31.088 173.395 30.0942 173.834 28.9387C174.273 27.7831 174.493 26.4889 174.493 25.056C174.493 23.6231 174.273 22.3289 173.834 21.1733C173.395 19.9947 172.771 19.0009 171.962 18.192C171.153 17.36 170.171 16.7244 169.016 16.2853C167.883 15.8231 166.612 15.592 165.202 15.592C163.792 15.592 162.521 15.8231 161.389 16.2853C160.256 16.7244 159.286 17.36 158.477 18.192C157.668 19.0009 157.044 19.9947 156.605 21.1733C156.166 22.3289 155.946 23.6231 155.946 25.056ZM177.694 16.0773V34H182.616V24.6053C182.616 22.7796 182.917 21.4738 183.518 20.688C184.118 19.8791 185.089 19.4747 186.43 19.4747C187.608 19.4747 188.429 19.8444 188.891 20.584C189.353 21.3004 189.584 22.3982 189.584 23.8773V34H194.507V22.976C194.507 21.8667 194.403 20.8613 194.195 19.96C194.01 19.0356 193.675 18.2613 193.19 17.6373C192.704 16.9902 192.034 16.4933 191.179 16.1467C190.347 15.7769 189.272 15.592 187.955 15.592C186.915 15.592 185.898 15.8347 184.904 16.32C183.91 16.7822 183.102 17.5333 182.478 18.5733H182.374V16.0773H177.694ZM203.304 13.304V9.248H198.382V13.304H203.304ZM198.382 16.0773V34H203.304V16.0773H198.382ZM206.973 21.5893C207.042 20.4338 207.331 19.4747 207.839 18.712C208.348 17.9493 208.995 17.3369 209.781 16.8747C210.566 16.4124 211.445 16.0889 212.415 15.904C213.409 15.696 214.403 15.592 215.397 15.592C216.298 15.592 217.211 15.6613 218.135 15.8C219.06 15.9156 219.903 16.1582 220.666 16.528C221.429 16.8978 222.053 17.4178 222.538 18.088C223.023 18.7351 223.266 19.6018 223.266 20.688V30.0133C223.266 30.8222 223.312 31.5964 223.405 32.336C223.497 33.0756 223.659 33.6302 223.89 34H218.898C218.805 33.7227 218.725 33.4453 218.655 33.168C218.609 32.8676 218.574 32.5671 218.551 32.2667C217.765 33.0756 216.841 33.6418 215.778 33.9653C214.715 34.2889 213.629 34.4507 212.519 34.4507C211.664 34.4507 210.867 34.3467 210.127 34.1387C209.388 33.9307 208.741 33.6071 208.186 33.168C207.631 32.7289 207.192 32.1742 206.869 31.504C206.568 30.8338 206.418 30.0364 206.418 29.112C206.418 28.0951 206.591 27.2631 206.938 26.616C207.308 25.9458 207.77 25.4142 208.325 25.0213C208.902 24.6284 209.549 24.3396 210.266 24.1547C211.005 23.9467 211.745 23.7849 212.485 23.6693C213.224 23.5538 213.952 23.4613 214.669 23.392C215.385 23.3227 216.021 23.2187 216.575 23.08C217.13 22.9413 217.569 22.7449 217.893 22.4907C218.216 22.2133 218.366 21.8204 218.343 21.312C218.343 20.7804 218.251 20.3644 218.066 20.064C217.904 19.7404 217.673 19.4978 217.373 19.336C217.095 19.1511 216.76 19.0356 216.367 18.9893C215.997 18.92 215.593 18.8853 215.154 18.8853C214.183 18.8853 213.421 19.0933 212.866 19.5093C212.311 19.9253 211.988 20.6187 211.895 21.5893H206.973ZM218.343 25.2293C218.135 25.4142 217.869 25.5644 217.546 25.68C217.245 25.7724 216.91 25.8533 216.541 25.9227C216.194 25.992 215.824 26.0498 215.431 26.096C215.038 26.1422 214.645 26.2 214.253 26.2693C213.883 26.3387 213.513 26.4311 213.143 26.5467C212.797 26.6622 212.485 26.824 212.207 27.032C211.953 27.2169 211.745 27.4596 211.583 27.76C211.421 28.0604 211.341 28.4418 211.341 28.904C211.341 29.3431 211.421 29.7129 211.583 30.0133C211.745 30.3138 211.965 30.5564 212.242 30.7413C212.519 30.9031 212.843 31.0187 213.213 31.088C213.582 31.1573 213.964 31.192 214.357 31.192C215.327 31.192 216.078 31.0302 216.61 30.7067C217.141 30.3831 217.534 30.0018 217.789 29.5627C218.043 29.1004 218.193 28.6382 218.239 28.176C218.309 27.7138 218.343 27.344 218.343 27.0667V25.2293ZM227.226 9.248V34H232.148V9.248H227.226ZM239.838 28.176H235.158C235.204 29.3778 235.47 30.3831 235.955 31.192C236.463 31.9778 237.099 32.6133 237.862 33.0987C238.647 33.584 239.537 33.9307 240.531 34.1387C241.525 34.3467 242.542 34.4507 243.582 34.4507C244.599 34.4507 245.592 34.3467 246.563 34.1387C247.557 33.9538 248.435 33.6187 249.198 33.1333C249.96 32.648 250.573 32.0124 251.035 31.2267C251.52 30.4178 251.763 29.424 251.763 28.2453C251.763 27.4133 251.601 26.72 251.278 26.1653C250.954 25.5876 250.527 25.1138 249.995 24.744C249.463 24.3511 248.851 24.0391 248.158 23.808C247.487 23.5769 246.794 23.3804 246.078 23.2187C245.384 23.0569 244.703 22.9067 244.032 22.768C243.362 22.6293 242.761 22.4791 242.23 22.3173C241.721 22.1324 241.305 21.9013 240.982 21.624C240.658 21.3467 240.496 20.9884 240.496 20.5493C240.496 20.1796 240.589 19.8907 240.774 19.6827C240.959 19.4516 241.178 19.2782 241.432 19.1627C241.71 19.0471 242.01 18.9778 242.334 18.9547C242.657 18.9084 242.958 18.8853 243.235 18.8853C244.113 18.8853 244.876 19.0587 245.523 19.4053C246.17 19.7289 246.528 20.3644 246.598 21.312H251.278C251.185 20.2027 250.896 19.2898 250.411 18.5733C249.949 17.8338 249.359 17.2444 248.643 16.8053C247.927 16.3662 247.106 16.0542 246.182 15.8693C245.28 15.6844 244.344 15.592 243.374 15.592C242.403 15.592 241.455 15.6844 240.531 15.8693C239.607 16.0311 238.775 16.3316 238.035 16.7707C237.295 17.1867 236.695 17.7644 236.232 18.504C235.793 19.2436 235.574 20.1911 235.574 21.3467C235.574 22.1324 235.735 22.8027 236.059 23.3573C236.383 23.8889 236.81 24.3396 237.342 24.7093C237.873 25.056 238.474 25.3449 239.144 25.576C239.838 25.784 240.543 25.9689 241.259 26.1307C243.015 26.5004 244.379 26.8702 245.35 27.24C246.343 27.6098 246.84 28.1644 246.84 28.904C246.84 29.3431 246.736 29.7129 246.528 30.0133C246.32 30.2907 246.055 30.5218 245.731 30.7067C245.431 30.8684 245.084 30.9956 244.691 31.088C244.321 31.1573 243.963 31.192 243.616 31.192C243.131 31.192 242.657 31.1342 242.195 31.0187C241.756 30.9031 241.363 30.7298 241.016 30.4987C240.67 30.2444 240.381 29.9324 240.15 29.5627C239.942 29.1698 239.838 28.7076 239.838 28.176Z" fill="white"/>
<path d="M54.0972 13.824H54.3472V13.574H54.0972V13.824ZM54.0972 34H53.8472V34.25H54.0972V34ZM59.5399 34V34.25H59.7899V34H59.5399ZM59.5399 13.824V13.574H59.2899V13.824H59.5399ZM66.9585 13.824V14.074H67.2085V13.824H66.9585ZM66.9585 9.248H67.2085V8.998H66.9585V9.248ZM46.6785 9.248V8.998H46.4285V9.248H46.6785ZM46.6785 13.824H46.4285V14.074H46.6785V13.824ZM53.8472 13.824V34H54.3472V13.824H53.8472ZM54.0972 34.25H59.5399V33.75H54.0972V34.25ZM59.7899 34V13.824H59.2899V34H59.7899ZM59.5399 14.074H66.9585V13.574H59.5399V14.074ZM67.2085 13.824V9.248H66.7085V13.824H67.2085ZM66.9585 8.998H46.6785V9.498H66.9585V8.998ZM46.4285 9.248V13.824H46.9285V9.248H46.4285ZM46.6785 14.074H54.0972V13.574H46.6785V14.074ZM77.4972 23.1147V23.3647H77.7977L77.743 23.0691L77.4972 23.1147ZM69.4892 23.1147L69.2397 23.098L69.222 23.3647H69.4892V23.1147ZM69.6972 21.936L69.4585 21.8606L69.4554 21.8724L69.6972 21.936ZM70.3559 20.688L70.1628 20.529L70.1573 20.5361L70.3559 20.688ZM71.6039 19.7173L71.7157 19.941L71.7195 19.939L71.6039 19.7173ZM76.2492 20.272L76.0627 20.4385L76.066 20.4421L76.2492 20.272ZM69.4892 26.2347V25.9847H69.2281L69.2394 26.2455L69.4892 26.2347ZM82.4199 26.2347V26.4847H82.6538L82.6693 26.2513L82.4199 26.2347ZM80.4785 18.8507L80.2757 18.9969L80.278 18.9999L80.4785 18.8507ZM77.7052 16.4933L77.588 16.7142L77.5916 16.716L77.7052 16.4933ZM69.9745 16.32L69.876 16.0902L69.8743 16.091L69.9745 16.32ZM67.0972 18.3307L67.2765 18.505L67.2788 18.5025L67.0972 18.3307ZM65.2252 21.312L64.9915 21.2232L64.9915 21.2232L65.2252 21.312ZM65.1905 28.8693L64.9553 28.954L64.9568 28.9581L65.1905 28.8693ZM69.9052 33.792L69.8107 34.0235L69.8148 34.0251L69.9052 33.792ZM78.9185 33.064L79.0541 33.2741L79.0541 33.2741L78.9185 33.064ZM82.1079 28.4533L82.3458 28.5301L82.4512 28.2033H82.1079V28.4533ZM77.7745 28.4533V28.2033H77.587L77.5345 28.3833L77.7745 28.4533ZM76.4572 30.048L76.5974 30.255L76.6019 30.2519L76.4572 30.048ZM70.7025 29.7013L70.8765 29.5218L70.8765 29.5218L70.7025 29.7013ZM77.4972 22.8647H69.4892V23.3647H77.4972V22.8647ZM69.7386 23.1313C69.7604 22.8045 69.8263 22.4277 69.939 21.9996L69.4554 21.8724C69.337 22.3225 69.2642 22.7315 69.2397 23.098L69.7386 23.1313ZM69.9356 22.0113C70.0649 21.6018 70.2703 21.2114 70.5545 20.8399L70.1573 20.5361C69.8405 20.9503 69.6068 21.392 69.4588 21.8607L69.9356 22.0113ZM70.5488 20.8469C70.8477 20.484 71.2348 20.1814 71.7157 19.9409L71.4921 19.4937C70.956 19.7618 70.5111 20.1062 70.1629 20.5291L70.5488 20.8469ZM71.7195 19.939C72.206 19.6851 72.8223 19.5513 73.5799 19.5513V19.0513C72.7659 19.0513 72.0648 19.1948 71.4882 19.4957L71.7195 19.939ZM73.5799 19.5513C74.7389 19.5513 75.5485 19.8626 76.0627 20.4385L76.4357 20.1055C75.7943 19.3872 74.8244 19.0513 73.5799 19.0513V19.5513ZM76.066 20.4421C76.6234 21.0424 77.0253 21.9395 77.2514 23.1602L77.743 23.0691C77.5069 21.7939 77.0767 20.7958 76.4324 20.1019L76.066 20.4421ZM69.4892 26.4847H82.4199V25.9847H69.4892V26.4847ZM82.6693 26.2513C82.7634 24.8399 82.6459 23.4845 82.3155 22.1863L81.8309 22.3097C82.1476 23.5537 82.2612 24.8561 82.1704 26.218L82.6693 26.2513ZM82.3155 22.1863C81.9843 20.8855 81.4393 19.7229 80.6791 18.7014L80.278 18.9999C80.9969 19.966 81.5149 21.0683 81.8309 22.3097L82.3155 22.1863ZM80.6813 18.7045C79.9408 17.6772 78.9853 16.8658 77.8188 16.2706L77.5916 16.716C78.69 17.2765 79.5834 18.0365 80.2757 18.9969L80.6813 18.7045ZM77.8224 16.2725C76.6476 15.6491 75.277 15.342 73.7185 15.342V15.842C75.2107 15.842 76.4979 16.1358 77.588 16.7142L77.8224 16.2725ZM73.7185 15.342C72.3247 15.342 71.0428 15.5902 69.876 16.0902L70.073 16.5498C71.1712 16.0791 72.3852 15.842 73.7185 15.842V15.342ZM69.8743 16.091C68.7352 16.5893 67.7482 17.2787 66.9156 18.1589L67.2788 18.5025C68.064 17.6724 68.9952 17.0213 70.0747 16.549L69.8743 16.091ZM66.9179 18.1564C66.0837 19.0144 65.4419 20.0378 64.9915 21.2232L65.4589 21.4008C65.8867 20.275 66.4929 19.3109 67.2764 18.5049L66.9179 18.1564ZM64.9915 21.2232C64.5407 22.4094 64.3165 23.6878 64.3165 25.056H64.8165C64.8165 23.7433 65.0314 22.5257 65.4589 21.4008L64.9915 21.2232ZM64.3165 25.056C64.3165 26.4678 64.5284 27.768 64.9553 28.954L65.4258 28.7847C65.0207 27.6595 64.8165 26.4175 64.8165 25.056H64.3165ZM64.9568 28.9581C65.4067 30.142 66.036 31.1645 66.8461 32.0223L67.2096 31.679C66.4482 30.8728 65.8526 29.9078 65.4242 28.7805L64.9568 28.9581ZM66.8461 32.0223C67.658 32.882 68.6476 33.5487 69.8107 34.0235L69.9997 33.5605C68.8979 33.1109 67.9692 32.4833 67.2096 31.679L66.8461 32.0223ZM69.8148 34.0251C70.9803 34.477 72.2827 34.7007 73.7185 34.7007V34.2007C72.3348 34.2007 71.095 33.9852 69.9956 33.5589L69.8148 34.0251ZM73.7185 34.7007C75.791 34.7007 77.5735 34.2292 79.0541 33.2741L78.783 32.8539C77.3977 33.7476 75.7136 34.2007 73.7185 34.2007V34.7007ZM79.0541 33.2741C80.5492 32.3095 81.6405 30.7164 82.3458 28.5301L81.8699 28.3766C81.1885 30.4889 80.1536 31.9697 78.783 32.8539L79.0541 33.2741ZM82.1079 28.2033H77.7745V28.7033H82.1079V28.2033ZM77.5345 28.3833C77.3949 28.8621 77.0058 29.3521 76.3125 29.8441L76.6019 30.2519C77.3415 29.727 77.8306 29.1539 78.0145 28.5233L77.5345 28.3833ZM76.317 29.841C75.6478 30.2943 74.8433 30.526 73.8919 30.526V31.026C74.928 31.026 75.8337 30.7723 76.5974 30.255L76.317 29.841ZM73.8919 30.526C72.5471 30.526 71.5551 30.1792 70.8765 29.5218L70.5286 29.8809C71.3291 30.6564 72.4633 31.026 73.8919 31.026V30.526ZM70.8765 29.5218C70.2025 28.8689 69.807 27.7886 69.739 26.2238L69.2394 26.2455C69.3101 27.8701 69.7234 29.1009 70.5286 29.8809L70.8765 29.5218ZM89.1528 28.176H89.4028V27.926H89.1528V28.176ZM84.4728 28.176V27.926H84.213L84.223 28.1856L84.4728 28.176ZM85.2701 31.192L85.0556 31.3207L85.0602 31.3278L85.2701 31.192ZM87.1768 33.0987L87.0425 33.3096L87.0454 33.3114L87.1768 33.0987ZM89.8461 34.1387L89.8973 33.894L89.8973 33.894L89.8461 34.1387ZM95.8781 34.1387L95.8324 33.8928L95.8257 33.8942L95.8781 34.1387ZM98.5128 33.1333L98.647 33.3442L98.647 33.3442L98.5128 33.1333ZM100.35 31.2267L100.136 31.098L100.135 31.0999L100.35 31.2267ZM100.593 26.1653L100.375 26.2875L100.377 26.2913L100.593 26.1653ZM99.3101 24.744L99.1615 24.9451L99.1673 24.9492L99.3101 24.744ZM97.4728 23.808L97.3913 24.0444L97.3937 24.0452L97.4728 23.808ZM95.3928 23.2187L95.336 23.4621L95.3377 23.4625L95.3928 23.2187ZM93.3474 22.768L93.2968 23.0128L93.2968 23.0128L93.3474 22.768ZM91.5448 22.3173L91.4592 22.5526L91.472 22.5565L91.5448 22.3173ZM90.0888 19.6827L90.2759 19.849L90.284 19.8388L90.0888 19.6827ZM90.7474 19.1627L90.6512 18.9318L90.644 18.9351L90.7474 19.1627ZM91.6488 18.9547L91.6666 19.204L91.6754 19.2034L91.6841 19.2022L91.6488 18.9547ZM94.8381 19.4053L94.72 19.6258L94.7263 19.6289L94.8381 19.4053ZM95.9128 21.312L95.6634 21.3302L95.6804 21.562H95.9128V21.312ZM100.593 21.312V21.562H100.864L100.842 21.2912L100.593 21.312ZM99.7261 18.5733L99.514 18.7059L99.5191 18.7135L99.7261 18.5733ZM97.9581 16.8053L97.8275 17.0185L97.8275 17.0185L97.9581 16.8053ZM95.4968 15.8693L95.4465 16.1142L95.4478 16.1145L95.4968 15.8693ZM89.8461 15.8693L89.8892 16.1157L89.8951 16.1145L89.8461 15.8693ZM87.3501 16.7707L87.4727 16.9886L87.4777 16.9856L87.3501 16.7707ZM85.5474 18.504L85.3354 18.3715L85.3325 18.3764L85.5474 18.504ZM85.3741 23.3573L85.1581 23.4833L85.1606 23.4873L85.3741 23.3573ZM86.6568 24.7093L86.5139 24.9147L86.5202 24.9187L86.6568 24.7093ZM88.4594 25.576L88.3779 25.8125L88.3876 25.8155L88.4594 25.576ZM90.5741 26.1307L90.519 26.3746L90.5226 26.3753L90.5741 26.1307ZM94.6648 27.24L94.5758 27.4736L94.5776 27.4743L94.6648 27.24ZM95.8434 30.0133L96.0436 30.1634L96.049 30.1556L95.8434 30.0133ZM95.0461 30.7067L95.1647 30.9269L95.1701 30.9237L95.0461 30.7067ZM94.0061 31.088L94.0522 31.334L94.0634 31.3314L94.0061 31.088ZM91.5101 31.0187L91.4465 31.2605L91.4495 31.2612L91.5101 31.0187ZM90.3314 30.4987L90.1835 30.7005L90.1928 30.7067L90.3314 30.4987ZM89.4648 29.5627L89.2438 29.6796L89.248 29.6876L89.2528 29.6952L89.4648 29.5627ZM89.1528 27.926H84.4728V28.426H89.1528V27.926ZM84.223 28.1856C84.2704 29.4181 84.5436 30.4671 85.0557 31.3206L85.4845 31.0634C85.0259 30.2991 84.7676 29.3374 84.7226 28.1664L84.223 28.1856ZM85.0602 31.3278C85.5875 32.1427 86.2485 32.8043 87.0426 33.3096L87.311 32.8878C86.5797 32.4224 85.9696 31.8129 85.48 31.0562L85.0602 31.3278ZM87.0454 33.3114C87.8582 33.8134 88.7756 34.17 89.7949 34.3834L89.8973 33.894C88.9291 33.6913 88.0669 33.3546 87.3082 32.886L87.0454 33.3114ZM89.7949 34.3834C90.8059 34.595 91.84 34.7007 92.8968 34.7007V34.2007C91.8736 34.2007 90.8739 34.0984 89.8973 33.894L89.7949 34.3834ZM92.8968 34.7007C93.9308 34.7007 94.9422 34.5949 95.9305 34.3831L95.8257 33.8942C94.8727 34.0984 93.8965 34.2007 92.8968 34.2007V34.7007ZM95.9238 34.3844C96.9454 34.1944 97.8543 33.8487 98.647 33.3442L98.3786 32.9224C97.6459 33.3887 96.7984 33.7132 95.8324 33.8929L95.9238 34.3844ZM98.647 33.3442C99.4433 32.8375 100.084 32.173 100.566 31.3534L100.135 31.0999C99.6923 31.8519 99.1076 32.4585 98.3786 32.9224L98.647 33.3442ZM100.564 31.3553C101.078 30.4989 101.328 29.4581 101.328 28.2453H100.828C100.828 29.3899 100.593 30.3366 100.136 31.098L100.564 31.3553ZM101.328 28.2453C101.328 27.3819 101.16 26.642 100.809 26.0394L100.377 26.2913C100.672 26.798 100.828 27.4448 100.828 28.2453H101.328ZM100.811 26.0432C100.469 25.4331 100.016 24.9307 99.4529 24.5388L99.1673 24.9492C99.6671 25.2969 100.069 25.742 100.375 26.2875L100.811 26.0432ZM99.4587 24.543C98.9039 24.1329 98.2675 23.8094 97.5518 23.5708L97.3937 24.0452C98.0647 24.2688 98.6532 24.5693 99.1615 24.945L99.4587 24.543ZM97.5543 23.5717C96.8751 23.3375 96.1729 23.1385 95.4478 22.9748L95.3377 23.4625C96.0455 23.6224 96.73 23.8163 97.3913 24.0443L97.5543 23.5717ZM95.4496 22.9752C94.7543 22.813 94.0705 22.6623 93.3981 22.5232L93.2968 23.0128C93.9649 23.151 94.6446 23.3008 95.336 23.4621L95.4496 22.9752ZM93.3981 22.5232C92.7337 22.3857 92.1404 22.2373 91.6176 22.0782L91.472 22.5565C92.0123 22.7209 92.6207 22.8729 93.2968 23.0128L93.3981 22.5232ZM91.6302 22.0824C91.1427 21.9051 90.755 21.6875 90.4595 21.4342L90.1341 21.8138C90.4857 22.1152 90.9299 22.3598 91.4593 22.5523L91.6302 22.0824ZM90.4595 21.4342C90.1932 21.206 90.0614 20.918 90.0614 20.5493H89.5614C89.5614 21.0589 89.7532 21.4874 90.1341 21.8138L90.4595 21.4342ZM90.0614 20.5493C90.0614 20.2203 90.1432 19.9977 90.2756 19.8488L89.9019 19.5166C89.6646 19.7836 89.5614 20.1388 89.5614 20.5493H90.0614ZM90.284 19.8388C90.4458 19.6365 90.6346 19.4886 90.8509 19.3903L90.644 18.9351C90.3519 19.0679 90.1015 19.2666 89.8936 19.5265L90.284 19.8388ZM90.8436 19.3934C91.0941 19.2891 91.3678 19.2254 91.6666 19.204L91.631 18.7053C91.2826 18.7302 90.9555 18.8052 90.6513 18.9319L90.8436 19.3934ZM91.6841 19.2022C91.998 19.1573 92.2865 19.1353 92.5501 19.1353V18.6353C92.2591 18.6353 91.9467 18.6596 91.6134 18.7072L91.6841 19.2022ZM92.5501 19.1353C93.3952 19.1353 94.1157 19.302 94.7201 19.6257L94.9562 19.185C94.2663 18.8154 93.4615 18.6353 92.5501 18.6353V19.1353ZM94.7263 19.6289C95.27 19.9008 95.5983 20.4393 95.6634 21.3302L96.1621 21.2938C96.0886 20.2896 95.7004 19.557 94.9499 19.1817L94.7263 19.6289ZM95.9128 21.562H100.593V21.062H95.9128V21.562ZM100.842 21.2912C100.747 20.1511 100.448 19.1939 99.9331 18.4331L99.5191 18.7135C99.9745 19.3857 100.254 20.2542 100.344 21.3328L100.842 21.2912ZM99.9381 18.4408C99.4562 17.6697 98.8395 17.0523 98.0888 16.5922L97.8275 17.0185C98.5097 17.4366 99.0716 17.9978 99.5141 18.7058L99.9381 18.4408ZM98.0888 16.5922C97.3443 16.1359 96.4956 15.8142 95.5458 15.6242L95.4478 16.1145C96.3468 16.2943 97.139 16.5965 97.8275 17.0185L98.0888 16.5922ZM95.547 15.6244C94.6283 15.436 93.6754 15.342 92.6888 15.342V15.842C93.6435 15.842 94.5626 15.9329 95.4465 16.1142L95.547 15.6244ZM92.6888 15.342C91.7021 15.342 90.7381 15.436 89.7971 15.6242L89.8951 16.1145C90.803 15.9329 91.7341 15.842 92.6888 15.842V15.342ZM89.803 15.6231C88.8515 15.7896 87.9904 16.0998 87.2225 16.5557L87.4777 16.9856C88.189 16.5633 88.9919 16.2726 89.8892 16.1156L89.803 15.6231ZM87.2275 16.5528C86.4505 16.9899 85.8192 17.5975 85.3354 18.3715L85.7594 18.6365C86.2001 17.9314 86.7707 17.3834 87.4727 16.9886L87.2275 16.5528ZM85.3325 18.3764C84.8639 19.1656 84.6388 20.1611 84.6388 21.3467H85.1388C85.1388 20.2211 85.3528 19.3215 85.7624 18.6316L85.3325 18.3764ZM84.6388 21.3467C84.6388 22.1668 84.8078 22.8827 85.1582 23.4833L85.5901 23.2314C85.2933 22.7226 85.1388 22.098 85.1388 21.3467H84.6388ZM85.1606 23.4873C85.503 24.0498 85.9551 24.5257 86.514 24.9146L86.7995 24.5041C86.2954 24.1534 85.8924 23.728 85.5877 23.2273L85.1606 23.4873ZM86.5202 24.9187C87.0708 25.2778 87.6906 25.5753 88.3779 25.8123L88.5409 25.3397C87.8879 25.1145 87.3058 24.8342 86.7933 24.4999L86.5202 24.9187ZM88.3876 25.8155C89.0866 26.0251 89.797 26.2115 90.519 26.3745L90.6292 25.8868C89.9183 25.7263 89.219 25.5429 88.5313 25.3365L88.3876 25.8155ZM90.5226 26.3753C92.274 26.744 93.623 27.1106 94.5758 27.4736L94.7538 27.0064C93.7653 26.6298 92.3871 26.2569 90.6256 25.886L90.5226 26.3753ZM94.5776 27.4743C95.0516 27.6507 95.3842 27.8631 95.5966 28.1001C95.8043 28.332 95.9054 28.5963 95.9054 28.904H96.4054C96.4054 28.4722 96.2582 28.0894 95.969 27.7665C95.6845 27.4489 95.2718 27.1991 94.752 27.0057L94.5776 27.4743ZM95.9054 28.904C95.9054 29.3027 95.8115 29.6202 95.6379 29.871L96.049 30.1556C96.2914 29.8055 96.4054 29.3835 96.4054 28.904H95.9054ZM95.6434 29.8633C95.4574 30.1114 95.2182 30.3204 94.9221 30.4896L95.1701 30.9237C95.5211 30.7232 95.8135 30.47 96.0434 30.1633L95.6434 29.8633ZM94.9276 30.4865C94.6496 30.6362 94.3242 30.7563 93.9489 30.8446L94.0634 31.3314C94.4738 31.2348 94.8417 31.1007 95.1646 30.9268L94.9276 30.4865ZM93.96 30.8423C93.6042 30.909 93.2614 30.942 92.9314 30.942V31.442C93.2948 31.442 93.6685 31.4057 94.0522 31.3337L93.96 30.8423ZM92.9314 30.942C92.4662 30.942 92.0128 30.8866 91.5707 30.7761L91.4495 31.2612C91.9319 31.3818 92.4261 31.442 92.9314 31.442V30.942ZM91.5737 30.7769C91.1589 30.6677 90.7918 30.5051 90.4701 30.2907L90.1928 30.7067C90.5644 30.9544 90.9831 31.1385 91.4465 31.2604L91.5737 30.7769ZM90.4793 30.2971C90.1586 30.0619 89.8913 29.7734 89.6768 29.4302L89.2528 29.6952C89.5005 30.0914 89.811 30.427 90.1836 30.7003L90.4793 30.2971ZM89.6857 29.4457C89.5002 29.0953 89.4028 28.6747 89.4028 28.176H88.9028C88.9028 28.7404 89.0134 29.2443 89.2438 29.6796L89.6857 29.4457ZM110.199 16.0773H109.949V16.3273H110.199V16.0773ZM110.199 10.704H110.449V10.454H110.199V10.704ZM105.277 10.704V10.454H105.027V10.704H105.277ZM105.277 16.0773V16.3273H105.527V16.0773H105.277ZM102.295 16.0773V15.8273H102.045V16.0773H102.295ZM102.295 19.3707H102.045V19.6207H102.295V19.3707ZM105.277 19.3707H105.527V19.1207H105.277V19.3707ZM105.727 32.128L105.507 32.2471L105.507 32.2471L105.727 32.128ZM106.941 33.4107L106.813 33.6259L106.818 33.6283L106.941 33.4107ZM108.743 34L108.784 33.7533L108.777 33.7523L108.743 34ZM112.418 34.1387L112.407 33.8889L112.407 33.8889L112.418 34.1387ZM113.805 34L113.846 34.2466L114.055 34.2118V34H113.805ZM113.805 30.1867H114.055V29.8817L113.756 29.9415L113.805 30.1867ZM113.077 30.2907L113.054 30.0417L113.054 30.0417L113.077 30.2907ZM110.615 29.9093L110.438 30.0861L110.438 30.0861L110.615 29.9093ZM110.199 19.3707V19.1207H109.949V19.3707H110.199ZM113.805 19.3707V19.6207H114.055V19.3707H113.805ZM113.805 16.0773H114.055V15.8273H113.805V16.0773ZM110.449 16.0773V10.704H109.949V16.0773H110.449ZM110.199 10.454H105.277V10.954H110.199V10.454ZM105.027 10.704V16.0773H105.527V10.704H105.027ZM105.277 15.8273H102.295V16.3273H105.277V15.8273ZM102.045 16.0773V19.3707H102.545V16.0773H102.045ZM102.295 19.6207H105.277V19.1207H102.295V19.6207ZM105.027 19.3707V29.944H105.527V19.3707H105.027ZM105.027 29.944C105.027 30.8702 105.18 31.6435 105.507 32.2471L105.947 32.0089C105.673 31.5031 105.527 30.8205 105.527 29.944H105.027ZM105.507 32.2471C105.828 32.8388 106.263 33.3008 106.813 33.6259L107.068 33.1954C106.601 32.9196 106.227 32.5266 105.947 32.0089L105.507 32.2471ZM106.818 33.6283C107.379 33.9459 108.011 34.1514 108.709 34.2477L108.777 33.7523C108.135 33.6637 107.565 33.4764 107.064 33.193L106.818 33.6283ZM108.702 34.2466C109.41 34.3646 110.152 34.4233 110.927 34.4233V33.9233C110.177 33.9233 109.463 33.8665 108.784 33.7534L108.702 34.2466ZM110.927 34.4233C111.417 34.4233 111.917 34.4117 112.429 34.3884L112.407 33.8889C111.902 33.9119 111.409 33.9233 110.927 33.9233V34.4233ZM112.429 34.3884C112.946 34.3649 113.418 34.3179 113.846 34.2466L113.763 33.7534C113.359 33.8208 112.907 33.8662 112.407 33.8889L112.429 34.3884ZM114.055 34V30.1867H113.555V34H114.055ZM113.756 29.9415C113.534 29.9859 113.3 30.0193 113.054 30.0417L113.099 30.5396C113.362 30.5158 113.613 30.4799 113.854 30.4318L113.756 29.9415ZM113.054 30.0417C112.808 30.0641 112.55 30.0753 112.279 30.0753V30.5753C112.563 30.5753 112.837 30.5635 113.099 30.5396L113.054 30.0417ZM112.279 30.0753C111.875 30.0753 111.551 30.0415 111.3 29.9788C111.048 29.9157 110.887 29.8278 110.792 29.7326L110.438 30.0861C110.621 30.2682 110.876 30.3883 111.179 30.4639C111.483 30.5398 111.851 30.5753 112.279 30.5753V30.0753ZM110.792 29.7326C110.697 29.6374 110.609 29.477 110.546 29.2247C110.483 28.9739 110.449 28.6493 110.449 28.2453H109.949C109.949 28.6734 109.985 29.0421 110.061 29.346C110.136 29.6484 110.256 29.904 110.438 30.0861L110.792 29.7326ZM110.449 28.2453V19.3707H109.949V28.2453H110.449ZM110.199 19.6207H113.805V19.1207H110.199V19.6207ZM114.055 19.3707V16.0773H113.555V19.3707H114.055ZM113.805 15.8273H110.199V16.3273H113.805V15.8273ZM121.208 13.304V13.554H121.458V13.304H121.208ZM121.208 9.248H121.458V8.998H121.208V9.248ZM116.285 9.248V8.998H116.035V9.248H116.285ZM116.285 13.304H116.035V13.554H116.285V13.304ZM116.285 16.0773V15.8273H116.035V16.0773H116.285ZM116.285 34H116.035V34.25H116.285V34ZM121.208 34V34.25H121.458V34H121.208ZM121.208 16.0773H121.458V15.8273H121.208V16.0773ZM121.458 13.304V9.248H120.958V13.304H121.458ZM121.208 8.998H116.285V9.498H121.208V8.998ZM116.035 9.248V13.304H116.535V9.248H116.035ZM116.285 13.554H121.208V13.054H116.285V13.554ZM116.035 16.0773V34H116.535V16.0773H116.035ZM116.285 34.25H121.208V33.75H116.285V34.25ZM121.458 34V16.0773H120.958V34H121.458ZM121.208 15.8273H116.285V16.3273H121.208V15.8273ZM125.223 16.0773V15.8273H124.973V16.0773H125.223ZM125.223 34H124.973V34.25H125.223V34ZM130.146 34V34.25H130.396V34H130.146ZM130.527 21.4853L130.752 21.5932L130.754 21.5895L130.527 21.4853ZM131.428 20.2373L131.584 20.4326L131.586 20.4314L131.428 20.2373ZM132.538 19.648L132.598 19.8907L132.608 19.8878L132.538 19.648ZM135.242 19.8907L135.097 20.0949L135.104 20.0997L135.111 20.104L135.242 19.8907ZM136.108 20.9307L135.873 21.0172L135.878 21.0277L136.108 20.9307ZM136.42 22.3867L136.17 22.3975L136.17 22.398L136.42 22.3867ZM136.455 34H136.205V34.25H136.455V34ZM141.378 34V34.25H141.628V34H141.378ZM141.482 22.3867L141.235 22.3455L141.234 22.3543L141.482 22.3867ZM141.967 20.9307L141.751 20.8054L141.748 20.8093L141.967 20.9307ZM142.972 19.8907L143.103 20.104L143.106 20.102L142.972 19.8907ZM146.3 19.8213L146.173 20.0369L146.179 20.0399L146.3 19.8213ZM147.236 20.7573L147.457 20.6404L147.457 20.6404L147.236 20.7573ZM147.618 22.144L147.867 22.1223L147.867 22.1223L147.618 22.144ZM147.687 34H147.437V34.25H147.687V34ZM152.61 34V34.25H152.86V34H152.61ZM152.124 19.0587L151.891 19.1493L151.892 19.1515L152.124 19.0587ZM150.772 17.048L150.607 17.2357L150.607 17.2357L150.772 17.048ZM148.692 15.9387L148.624 16.179L148.624 16.179L148.692 15.9387ZM142.799 16.4933L142.663 16.2837L142.66 16.2853L142.799 16.4933ZM140.65 18.5733L140.421 18.6735L140.602 19.0892L140.857 18.7134L140.65 18.5733ZM138.5 16.2507L138.393 16.4765L138.395 16.4775L138.5 16.2507ZM132.26 16.3547L132.14 16.1356L132.137 16.1369L132.26 16.3547ZM129.938 18.504V18.754H130.068L130.142 18.6474L129.938 18.504ZM129.868 18.504H129.618V18.754H129.868V18.504ZM129.868 16.0773H130.118V15.8273H129.868V16.0773ZM124.973 16.0773V34H125.473V16.0773H124.973ZM125.223 34.25H130.146V33.75H125.223V34.25ZM130.396 34V23.6H129.896V34H130.396ZM130.396 23.6C130.396 22.7424 130.52 22.0787 130.752 21.5932L130.301 21.3775C130.025 21.9551 129.896 22.7012 129.896 23.6H130.396ZM130.754 21.5895C130.998 21.0577 131.277 20.6781 131.584 20.4325L131.272 20.0421C130.886 20.3512 130.564 20.8036 130.3 21.3812L130.754 21.5895ZM131.586 20.4314C131.934 20.1484 132.272 19.9722 132.598 19.8905L132.477 19.4055C132.064 19.5087 131.662 19.7254 131.271 20.0433L131.586 20.4314ZM132.608 19.8878C132.993 19.7747 133.278 19.7247 133.474 19.7247V19.2247C133.207 19.2247 132.868 19.2902 132.467 19.4082L132.608 19.8878ZM133.474 19.7247C134.238 19.7247 134.766 19.8609 135.097 20.0949L135.386 19.6864C134.932 19.3658 134.281 19.2247 133.474 19.2247V19.7247ZM135.111 20.104C135.481 20.3302 135.732 20.6331 135.874 21.0171L136.343 20.8442C136.161 20.35 135.834 19.9596 135.372 19.6773L135.111 20.104ZM135.878 21.0277C136.05 21.4364 136.148 21.8922 136.17 22.3975L136.67 22.3758C136.646 21.8181 136.536 21.3031 136.339 20.8337L135.878 21.0277ZM136.17 22.398C136.193 22.9025 136.205 23.4187 136.205 23.9467H136.705C136.705 23.4115 136.693 22.8877 136.67 22.3753L136.17 22.398ZM136.205 23.9467V34H136.705V23.9467H136.205ZM136.455 34.25H141.378V33.75H136.455V34.25ZM141.628 34V24.016H141.128V34H141.628ZM141.628 24.016C141.628 23.4718 141.662 22.9395 141.729 22.419L141.234 22.3543C141.163 22.897 141.128 23.4509 141.128 24.016H141.628ZM141.728 22.4278C141.817 21.8963 141.97 21.439 142.185 21.0521L141.748 20.8093C141.501 21.2543 141.331 21.7677 141.235 22.3456L141.728 22.4278ZM142.183 21.0559C142.417 20.6514 142.724 20.3356 143.103 20.104L142.842 19.6773C142.389 19.9542 142.025 20.3318 141.751 20.8054L142.183 21.0559ZM143.106 20.102C143.494 19.8571 144.009 19.7247 144.671 19.7247V19.2247C143.946 19.2247 143.329 19.3696 142.839 19.6793L143.106 20.102ZM144.671 19.7247C145.341 19.7247 145.834 19.8371 146.173 20.0368L146.427 19.6058C145.981 19.3433 145.387 19.2247 144.671 19.2247V19.7247ZM146.179 20.0399C146.556 20.2492 146.832 20.5272 147.015 20.8743L147.457 20.6404C147.225 20.2016 146.877 19.8557 146.422 19.6028L146.179 20.0399ZM147.015 20.8743C147.205 21.2323 147.325 21.6609 147.369 22.1657L147.867 22.1223C147.818 21.564 147.684 21.0681 147.457 20.6404L147.015 20.8743ZM147.369 22.1657C147.414 22.6892 147.437 23.2481 147.437 23.8427H147.937C147.937 23.2354 147.914 22.6619 147.867 22.1223L147.369 22.1657ZM147.437 23.8427V34H147.937V23.8427H147.437ZM147.687 34.25H152.61V33.75H147.687V34.25ZM152.86 34V22.0053H152.36V34H152.86ZM152.86 22.0053C152.86 20.8278 152.695 19.8122 152.356 18.9658L151.892 19.1515C152.201 19.923 152.36 20.8718 152.36 22.0053H152.86ZM152.357 18.9681C152.021 18.1047 151.55 17.3992 150.937 16.8603L150.607 17.2357C151.15 17.7137 151.58 18.3486 151.891 19.1493L152.357 18.9681ZM150.937 16.8603C150.329 16.3252 149.602 15.9386 148.761 15.6983L148.624 16.179C149.4 16.4009 150.06 16.754 150.607 17.2357L150.937 16.8603ZM148.761 15.6983C147.927 15.46 147.025 15.342 146.058 15.342V15.842C146.985 15.842 147.84 15.9551 148.624 16.179L148.761 15.6983ZM146.058 15.342C144.768 15.342 143.633 15.6531 142.663 16.2837L142.935 16.7029C143.814 16.1318 144.851 15.842 146.058 15.842V15.342ZM142.66 16.2853C141.736 16.9017 140.995 17.6171 140.442 18.4333L140.857 18.7134C141.368 17.958 142.059 17.2868 142.938 16.7013L142.66 16.2853ZM140.879 18.4731C140.373 17.3173 139.617 16.4926 138.605 16.0238L138.395 16.4775C139.279 16.8869 139.956 17.6107 140.421 18.6735L140.879 18.4731ZM138.607 16.0248C137.646 15.5682 136.58 15.342 135.415 15.342V15.842C136.514 15.842 137.505 16.0549 138.393 16.4765L138.607 16.0248ZM135.415 15.342C134.199 15.342 133.105 15.6046 132.14 16.1356L132.381 16.5737C133.264 16.0879 134.273 15.842 135.415 15.842V15.342ZM132.137 16.1369C131.201 16.6653 130.399 17.4084 129.733 18.3606L130.142 18.6474C130.77 17.7507 131.517 17.0609 132.383 16.5724L132.137 16.1369ZM129.938 18.254H129.868V18.754H129.938V18.254ZM130.118 18.504V16.0773H129.618V18.504H130.118ZM129.868 15.8273H125.223V16.3273H129.868V15.8273ZM161.77 21.104L161.561 20.9674L161.557 20.974L161.77 21.104ZM163.122 19.8213L163.248 20.0374L163.255 20.0333L163.122 19.8213ZM167.282 19.8213L167.15 20.0336L167.16 20.0395L167.282 19.8213ZM168.634 21.104L168.421 21.234L168.425 21.2406L168.634 21.104ZM169.362 22.9413L169.117 22.9904L169.117 22.9904L169.362 22.9413ZM169.362 27.1707L169.607 27.2213L169.607 27.2197L169.362 27.1707ZM168.634 29.008L168.422 28.8755L168.421 28.878L168.634 29.008ZM167.282 30.2907L167.16 30.0725L167.156 30.0747L167.282 30.2907ZM163.122 30.2907L162.996 30.5066L162.996 30.5066L163.122 30.2907ZM161.77 29.008L161.554 29.1341L161.561 29.1446L161.77 29.008ZM161.077 27.1707L160.832 27.2197L160.832 27.2213L161.077 27.1707ZM156.605 28.9387L156.839 28.8499L156.839 28.8499L156.605 28.9387ZM158.477 31.92L158.298 32.0943L158.3 32.0968L158.477 31.92ZM161.389 33.792L161.299 34.0251L161.299 34.0251L161.389 33.792ZM169.016 33.792L168.927 33.5583L168.925 33.5589L169.016 33.792ZM171.962 31.92L172.139 32.0968L172.141 32.0943L171.962 31.92ZM173.834 28.9387L173.601 28.8499L173.601 28.8499L173.834 28.9387ZM173.834 21.1733L173.6 21.2606L173.601 21.2621L173.834 21.1733ZM171.962 18.192L171.783 18.3663L171.785 18.3688L171.962 18.192ZM169.016 16.2853L168.921 16.5169L168.927 16.519L169.016 16.2853ZM161.389 16.2853L161.479 16.5185L161.483 16.5168L161.389 16.2853ZM158.477 18.192L158.654 18.3688L158.656 18.3663L158.477 18.192ZM156.605 21.1733L156.839 21.2621L156.839 21.2606L156.605 21.1733ZM161.119 25.056C161.119 24.3558 161.187 23.6673 161.322 22.9904L160.832 22.8923C160.69 23.602 160.619 24.3233 160.619 25.056H161.119ZM161.322 22.9904C161.456 22.3218 161.677 21.7375 161.984 21.234L161.557 20.974C161.216 21.5337 160.975 22.1742 160.832 22.8923L161.322 22.9904ZM161.98 21.2406C162.305 20.742 162.727 20.3415 163.248 20.0373L162.996 19.6054C162.408 19.9483 161.929 20.4029 161.561 20.9674L161.98 21.2406ZM163.255 20.0333C163.76 19.7174 164.404 19.5513 165.202 19.5513V19.0513C164.336 19.0513 163.594 19.2319 162.99 19.6093L163.255 20.0333ZM165.202 19.5513C166 19.5513 166.644 19.7174 167.15 20.0333L167.415 19.6093C166.811 19.2319 166.068 19.0513 165.202 19.0513V19.5513ZM167.16 20.0395C167.703 20.3434 168.121 20.7416 168.421 21.234L168.848 20.974C168.5 20.4033 168.017 19.9464 167.404 19.6032L167.16 20.0395ZM168.425 21.2406C168.752 21.7426 168.984 22.3247 169.117 22.9904L169.607 22.8923C169.463 22.1713 169.21 21.5285 168.844 20.9674L168.425 21.2406ZM169.117 22.9904C169.252 23.6673 169.32 24.3558 169.32 25.056H169.82C169.82 24.3233 169.749 23.602 169.607 22.8923L169.117 22.9904ZM169.32 25.056C169.32 25.7562 169.252 26.4447 169.117 27.1216L169.607 27.2197C169.749 26.51 169.82 25.7887 169.82 25.056H169.32ZM169.117 27.12C168.984 27.7626 168.752 28.3471 168.422 28.8755L168.846 29.1405C169.209 28.5596 169.463 27.9192 169.607 27.2213L169.117 27.12ZM168.421 28.878C168.121 29.3704 167.703 29.7686 167.16 30.0725L167.404 30.5088C168.017 30.1656 168.5 29.7087 168.848 29.138L168.421 28.878ZM167.156 30.0747C166.65 30.3703 166.003 30.526 165.202 30.526V31.026C166.066 31.026 166.806 30.8581 167.408 30.5066L167.156 30.0747ZM165.202 30.526C164.402 30.526 163.755 30.3703 163.248 30.0747L162.996 30.5066C163.599 30.8581 164.339 31.026 165.202 31.026V30.526ZM163.248 30.0747C162.727 29.7705 162.305 29.37 161.98 28.8714L161.561 29.1446C161.929 29.7091 162.408 30.1637 162.996 30.5066L163.248 30.0747ZM161.986 28.882C161.677 28.3522 161.455 27.7655 161.322 27.12L160.832 27.2213C160.976 27.9163 161.216 28.5544 161.554 29.134L161.986 28.882ZM161.322 27.1216C161.187 26.4447 161.119 25.7562 161.119 25.056H160.619C160.619 25.7887 160.69 26.51 160.832 27.2197L161.322 27.1216ZM155.696 25.056C155.696 26.5145 155.92 27.8394 156.371 29.0275L156.839 28.8499C156.412 27.7268 156.196 26.4633 156.196 25.056H155.696ZM156.371 29.0275C156.822 30.2128 157.463 31.2362 158.298 32.0943L158.656 31.7457C157.873 30.9398 157.266 29.9756 156.839 28.8499L156.371 29.0275ZM158.3 32.0968C159.135 32.9317 160.136 33.5742 161.299 34.0251L161.479 33.5589C160.377 33.1316 159.437 32.526 158.654 31.7432L158.3 32.0968ZM161.299 34.0251C162.464 34.477 163.766 34.7007 165.202 34.7007V34.2007C163.818 34.2007 162.579 33.9852 161.479 33.5589L161.299 34.0251ZM165.202 34.7007C166.638 34.7007 167.94 34.477 169.106 34.0251L168.925 33.5589C167.826 33.9852 166.586 34.2007 165.202 34.2007V34.7007ZM169.104 34.0257C170.29 33.5751 171.303 32.9326 172.139 32.0968L171.785 31.7432C171.004 32.5252 170.052 33.1307 168.927 33.5583L169.104 34.0257ZM172.141 32.0943C172.976 31.2362 173.618 30.2128 174.068 29.0275L173.601 28.8499C173.173 29.9756 172.567 30.9398 171.783 31.7457L172.141 32.0943ZM174.068 29.0275C174.519 27.8394 174.743 26.5145 174.743 25.056H174.243C174.243 26.4633 174.027 27.7268 173.601 28.8499L174.068 29.0275ZM174.743 25.056C174.743 23.5975 174.519 22.2726 174.068 21.0845L173.601 21.2621C174.027 22.3852 174.243 23.6487 174.243 25.056H174.743ZM174.069 21.0861C173.618 19.8772 172.976 18.8519 172.139 18.0152L171.785 18.3688C172.567 19.1499 173.172 20.1122 173.6 21.2606L174.069 21.0861ZM172.141 18.0177C171.306 17.1579 170.292 16.5029 169.104 16.0516L168.927 16.519C170.05 16.946 171.001 17.5621 171.783 18.3663L172.141 18.0177ZM169.11 16.0539C167.943 15.5777 166.64 15.342 165.202 15.342V15.842C166.585 15.842 167.823 16.0685 168.921 16.5168L169.11 16.0539ZM165.202 15.342C163.765 15.342 162.461 15.5777 161.294 16.0539L161.483 16.5168C162.582 16.0685 163.82 15.842 165.202 15.842V15.342ZM161.299 16.0522C160.134 16.5037 159.133 17.1588 158.298 18.0177L158.656 18.3663C159.439 17.5612 160.379 16.9452 161.479 16.5184L161.299 16.0522ZM158.3 18.0152C157.463 18.8519 156.821 19.8772 156.371 21.0861L156.839 21.2606C157.267 20.1122 157.873 19.1499 158.654 18.3688L158.3 18.0152ZM156.371 21.0845C155.92 22.2726 155.696 23.5975 155.696 25.056H156.196C156.196 23.6487 156.412 22.3852 156.839 21.2621L156.371 21.0845ZM177.694 16.0773V15.8273H177.444V16.0773H177.694ZM177.694 34H177.444V34.25H177.694V34ZM182.616 34V34.25H182.866V34H182.616ZM183.518 20.688L183.716 20.8399L183.718 20.8371L183.518 20.688ZM188.891 20.584L188.679 20.7165L188.681 20.7195L188.891 20.584ZM189.584 34H189.334V34.25H189.584V34ZM194.507 34V34.25H194.757V34H194.507ZM194.195 19.96L193.95 20.009L193.951 20.0162L194.195 19.96ZM193.19 17.6373L192.99 17.7874L192.992 17.7908L193.19 17.6373ZM191.179 16.1467L191.077 16.3752L191.085 16.3783L191.179 16.1467ZM184.904 16.32L185.01 16.5467L185.014 16.5446L184.904 16.32ZM182.478 18.5733V18.8233H182.619L182.692 18.702L182.478 18.5733ZM182.374 18.5733H182.124V18.8233H182.374V18.5733ZM182.374 16.0773H182.624V15.8273H182.374V16.0773ZM177.444 16.0773V34H177.944V16.0773H177.444ZM177.694 34.25H182.616V33.75H177.694V34.25ZM182.866 34V24.6053H182.366V34H182.866ZM182.866 24.6053C182.866 22.794 183.167 21.5582 183.716 20.8399L183.319 20.5361C182.667 21.3894 182.366 22.7651 182.366 24.6053H182.866ZM183.718 20.8371C184.257 20.1115 185.14 19.7247 186.43 19.7247V19.2247C185.038 19.2247 183.98 19.6468 183.317 20.5389L183.718 20.8371ZM186.43 19.7247C187.556 19.7247 188.278 20.0747 188.679 20.7165L189.103 20.4515C188.58 19.6142 187.661 19.2247 186.43 19.2247V19.7247ZM188.681 20.7195C189.104 21.3756 189.334 22.4152 189.334 23.8773H189.834C189.834 22.3812 189.602 21.2253 189.101 20.4485L188.681 20.7195ZM189.334 23.8773V34H189.834V23.8773H189.334ZM189.584 34.25H194.507V33.75H189.584V34.25ZM194.757 34V22.976H194.257V34H194.757ZM194.757 22.976C194.757 21.8514 194.652 20.8268 194.439 19.9038L193.951 20.0162C194.154 20.8959 194.257 21.882 194.257 22.976H194.757ZM194.44 19.911C194.249 18.9557 193.9 18.1438 193.387 17.4838L192.992 17.7908C193.45 18.3788 193.771 19.1154 193.95 20.009L194.44 19.911ZM193.39 17.4873C192.873 16.799 192.164 16.2763 191.273 15.915L191.085 16.3783C191.904 16.7104 192.535 17.1815 192.99 17.7873L193.39 17.4873ZM191.28 15.9182C190.406 15.5294 189.293 15.342 187.955 15.342V15.842C189.252 15.842 190.288 16.0244 191.077 16.3751L191.28 15.9182ZM187.955 15.342C186.875 15.342 185.82 15.5944 184.795 16.0954L185.014 16.5446C185.976 16.0749 186.955 15.842 187.955 15.842V15.342ZM184.799 16.0933C183.755 16.5788 182.91 17.3666 182.263 18.4447L182.692 18.702C183.293 17.7 184.066 16.9856 185.01 16.5467L184.799 16.0933ZM182.478 18.3233H182.374V18.8233H182.478V18.3233ZM182.624 18.5733V16.0773H182.124V18.5733H182.624ZM182.374 15.8273H177.694V16.3273H182.374V15.8273ZM203.304 13.304V13.554H203.554V13.304H203.304ZM203.304 9.248H203.554V8.998H203.304V9.248ZM198.382 9.248V8.998H198.132V9.248H198.382ZM198.382 13.304H198.132V13.554H198.382V13.304ZM198.382 16.0773V15.8273H198.132V16.0773H198.382ZM198.382 34H198.132V34.25H198.382V34ZM203.304 34V34.25H203.554V34H203.304ZM203.304 16.0773H203.554V15.8273H203.304V16.0773ZM203.554 13.304V9.248H203.054V13.304H203.554ZM203.304 8.998H198.382V9.498H203.304V8.998ZM198.132 9.248V13.304H198.632V9.248H198.132ZM198.382 13.554H203.304V13.054H198.382V13.554ZM198.132 16.0773V34H198.632V16.0773H198.132ZM198.382 34.25H203.304V33.75H198.382V34.25ZM203.554 34V16.0773H203.054V34H203.554ZM203.304 15.8273H198.382V16.3273H203.304V15.8273ZM206.973 21.5893L206.723 21.5744L206.707 21.8393H206.973V21.5893ZM207.839 18.712L208.047 18.8507L208.047 18.8507L207.839 18.712ZM209.781 16.8747L209.907 17.0901L209.907 17.0901L209.781 16.8747ZM212.415 15.904L212.462 16.1496L212.466 16.1487L212.415 15.904ZM218.135 15.8L218.098 16.0473L218.104 16.0481L218.135 15.8ZM220.666 16.528L220.557 16.753L220.557 16.753L220.666 16.528ZM222.538 18.088L222.335 18.2346L222.338 18.238L222.538 18.088ZM223.405 32.336L223.157 32.367L223.405 32.336ZM223.89 34V34.25H224.341L224.102 33.8675L223.89 34ZM218.898 34L218.661 34.0791L218.718 34.25H218.898V34ZM218.655 33.168L218.408 33.206L218.41 33.2174L218.413 33.2286L218.655 33.168ZM218.551 32.2667L218.801 32.2475L218.758 31.695L218.372 32.0925L218.551 32.2667ZM215.778 33.9653L215.851 34.2045L215.778 33.9653ZM210.127 34.1387L210.195 33.898L210.195 33.898L210.127 34.1387ZM208.186 33.168L208.031 33.364L208.031 33.364L208.186 33.168ZM206.869 31.504L206.64 31.6063L206.643 31.6127L206.869 31.504ZM206.938 26.616L206.719 26.4952L206.718 26.4979L206.938 26.616ZM208.325 25.0213L208.184 24.8146L208.18 24.8173L208.325 25.0213ZM210.266 24.1547L210.328 24.3968L210.334 24.3953L210.266 24.1547ZM212.485 23.6693L212.523 23.9163L212.523 23.9163L212.485 23.6693ZM214.669 23.392L214.645 23.1432L214.645 23.1432L214.669 23.392ZM216.575 23.08L216.515 22.8375L216.515 22.8375L216.575 23.08ZM217.893 22.4907L218.047 22.6874L218.055 22.6805L217.893 22.4907ZM218.343 21.312H218.093L218.094 21.3234L218.343 21.312ZM218.066 20.064L217.842 20.1758L217.847 20.1856L217.853 20.195L218.066 20.064ZM217.373 19.336L217.234 19.544L217.244 19.5505L217.254 19.5561L217.373 19.336ZM216.367 18.9893L216.321 19.235L216.33 19.2366L216.338 19.2376L216.367 18.9893ZM211.895 21.5893V21.8393H212.123L212.144 21.613L211.895 21.5893ZM218.343 25.2293H218.593V24.6726L218.177 25.0425L218.343 25.2293ZM217.546 25.68L217.62 25.9192L217.63 25.9154L217.546 25.68ZM216.541 25.9227L216.495 25.6769L216.492 25.6775L216.541 25.9227ZM215.431 26.096L215.402 25.8477L215.402 25.8477L215.431 26.096ZM214.253 26.2693L214.209 26.0231L214.207 26.0236L214.253 26.2693ZM213.143 26.5467L213.069 26.308L213.064 26.3095L213.143 26.5467ZM212.207 27.032L212.354 27.2342L212.357 27.232L212.207 27.032ZM211.583 30.0133L211.363 30.1319L211.363 30.1319L211.583 30.0133ZM212.242 30.7413L212.103 30.9493L212.109 30.9535L212.116 30.9573L212.242 30.7413ZM213.213 31.088L213.259 30.8423L213.259 30.8423L213.213 31.088ZM216.61 30.7067L216.48 30.4931L216.48 30.4931L216.61 30.7067ZM217.789 29.5627L218.005 29.688L218.008 29.6831L217.789 29.5627ZM218.239 28.176L217.992 28.1389L217.991 28.1511L218.239 28.176ZM207.222 21.6043C207.29 20.4815 207.569 19.568 208.047 18.8507L207.631 18.5733C207.093 19.3813 206.794 20.3861 206.723 21.5744L207.222 21.6043ZM208.047 18.8507C208.535 18.1192 209.154 17.5331 209.907 17.0901L209.654 16.6592C208.835 17.1407 208.161 17.7794 207.631 18.5733L208.047 18.8507ZM209.907 17.0901C210.666 16.6437 211.517 16.3296 212.462 16.1496L212.368 15.6584C211.372 15.8482 210.466 16.1812 209.654 16.6592L209.907 17.0901ZM212.466 16.1487C213.444 15.9441 214.42 15.842 215.397 15.842V15.342C214.385 15.342 213.374 15.4479 212.364 15.6593L212.466 16.1487ZM215.397 15.842C216.285 15.842 217.186 15.9103 218.098 16.0472L218.172 15.5528C217.236 15.4123 216.311 15.342 215.397 15.342V15.842ZM218.104 16.0481C219.004 16.1606 219.821 16.3962 220.557 16.753L220.775 16.303C219.985 15.9202 219.115 15.6705 218.166 15.5519L218.104 16.0481ZM220.557 16.753C221.283 17.1052 221.875 17.5987 222.335 18.2346L222.74 17.9414C222.23 17.2369 221.574 16.6904 220.775 16.303L220.557 16.753ZM222.338 18.238C222.781 18.8291 223.016 19.6375 223.016 20.688H223.516C223.516 19.5661 223.265 18.6411 222.738 17.938L222.338 18.238ZM223.016 20.688V30.0133H223.516V20.688H223.016ZM223.016 30.0133C223.016 30.8317 223.063 31.6163 223.157 32.367L223.653 32.305C223.562 31.5765 223.516 30.8127 223.516 30.0133H223.016ZM223.157 32.367C223.251 33.1205 223.418 33.7174 223.678 34.1325L224.102 33.8675C223.899 33.543 223.743 33.0306 223.653 32.305L223.157 32.367ZM223.89 33.75H218.898V34.25H223.89V33.75ZM219.135 33.9209C219.045 33.6495 218.966 33.3784 218.898 33.1074L218.413 33.2286C218.484 33.5123 218.566 33.7958 218.661 34.0791L219.135 33.9209ZM218.902 33.13C218.857 32.8357 218.823 32.5416 218.801 32.2475L218.302 32.2858C218.326 32.5926 218.361 32.8994 218.408 33.206L218.902 33.13ZM218.372 32.0925C217.615 32.8715 216.727 33.4151 215.705 33.7262L215.851 34.2045C216.955 33.8685 217.916 33.2796 218.731 32.4409L218.372 32.0925ZM215.705 33.7262C214.666 34.0426 213.604 34.2007 212.519 34.2007V34.7007C213.653 34.7007 214.764 34.5352 215.851 34.2045L215.705 33.7262ZM212.519 34.2007C211.684 34.2007 210.91 34.0992 210.195 33.898L210.06 34.3793C210.823 34.5942 211.644 34.7007 212.519 34.7007V34.2007ZM210.195 33.898C209.484 33.6982 208.868 33.3889 208.341 32.972L208.031 33.364C208.613 33.8254 209.291 34.1632 210.06 34.3793L210.195 33.898ZM208.341 32.972C207.818 32.5575 207.402 32.0333 207.094 31.3953L206.643 31.6127C206.983 32.3151 207.445 32.9002 208.031 33.364L208.341 32.972ZM207.097 31.4017C206.814 30.7709 206.668 30.01 206.668 29.112H206.168C206.168 30.0629 206.322 30.8967 206.64 31.6063L207.097 31.4017ZM206.668 29.112C206.668 28.1213 206.837 27.3336 207.158 26.7341L206.718 26.4979C206.345 27.1926 206.168 28.069 206.168 29.112H206.668ZM207.157 26.7368C207.511 26.0954 207.949 25.5938 208.469 25.2253L208.18 24.8173C207.591 25.2346 207.105 25.7962 206.719 26.4952L207.157 26.7368ZM208.465 25.2281C209.018 24.8523 209.638 24.5749 210.328 24.3967L210.203 23.9126C209.461 24.1043 208.787 24.4046 208.184 24.8146L208.465 25.2281ZM210.334 24.3953C211.064 24.1899 211.794 24.0303 212.523 23.9163L212.446 23.4223C211.696 23.5395 210.947 23.7034 210.198 23.914L210.334 24.3953ZM212.523 23.9163C213.258 23.8015 213.981 23.7097 214.693 23.6408L214.645 23.1432C213.923 23.213 213.19 23.3061 212.446 23.4223L212.523 23.9163ZM214.693 23.6408C215.418 23.5706 216.067 23.4649 216.636 23.3225L216.515 22.8375C215.975 22.9725 215.352 23.0747 214.645 23.1432L214.693 23.6408ZM216.636 23.3225C217.212 23.1784 217.687 22.97 218.047 22.6872L217.738 22.2941C217.451 22.5198 217.048 22.7042 216.515 22.8375L216.636 23.3225ZM218.055 22.6805C218.449 22.3431 218.619 21.8693 218.593 21.3006L218.094 21.3234C218.114 21.7716 217.983 22.0836 217.73 22.3009L218.055 22.6805ZM218.593 21.312C218.593 20.756 218.497 20.288 218.279 19.933L217.853 20.195C218.004 20.4409 218.093 20.8049 218.093 21.312H218.593ZM218.29 19.9522C218.106 19.5855 217.84 19.3036 217.491 19.1159L217.254 19.5561C217.506 19.692 217.702 19.8954 217.842 20.1758L218.29 19.9522ZM217.511 19.128C217.196 18.9175 216.821 18.791 216.396 18.741L216.338 19.2376C216.699 19.2801 216.995 19.3847 217.234 19.544L217.511 19.128ZM216.413 18.7436C216.026 18.671 215.606 18.6353 215.154 18.6353V19.1353C215.58 19.1353 215.969 19.169 216.321 19.235L216.413 18.7436ZM215.154 18.6353C214.15 18.6353 213.328 18.8502 212.716 19.3093L213.016 19.7093C213.513 19.3365 214.216 19.1353 215.154 19.1353V18.6353ZM212.716 19.3093C212.085 19.7825 211.743 20.5542 211.646 21.5656L212.144 21.613C212.233 20.6832 212.537 20.0682 213.016 19.7093L212.716 19.3093ZM211.895 21.3393H206.973V21.8393H211.895V21.3393ZM218.177 25.0425C217.998 25.2017 217.762 25.3373 217.462 25.4446L217.63 25.9154C217.977 25.7915 218.272 25.6267 218.509 25.4162L218.177 25.0425ZM217.472 25.4411C217.183 25.5302 216.857 25.609 216.495 25.6769L216.587 26.1684C216.964 26.0976 217.308 26.0146 217.619 25.9189L217.472 25.4411ZM216.492 25.6775C216.152 25.7454 215.789 25.8022 215.402 25.8477L215.46 26.3443C215.859 26.2974 216.236 26.2386 216.59 26.1678L216.492 25.6775ZM215.402 25.8477C215.004 25.8945 214.607 25.953 214.209 26.0231L214.296 26.5155C214.684 26.447 215.072 26.3899 215.46 26.3443L215.402 25.8477ZM214.207 26.0236C213.827 26.0948 213.448 26.1897 213.069 26.308L213.218 26.7853C213.579 26.6726 213.939 26.5825 214.299 26.5151L214.207 26.0236ZM213.064 26.3095C212.693 26.4331 212.357 26.607 212.057 26.832L212.357 27.232C212.612 27.041 212.9 26.8914 213.222 26.7838L213.064 26.3095ZM212.06 26.8298C211.773 27.0386 211.541 27.3109 211.363 27.6415L211.803 27.8785C211.949 27.6082 212.133 27.3952 212.354 27.2342L212.06 26.8298ZM211.363 27.6415C211.176 27.989 211.091 28.4144 211.091 28.904H211.591C211.591 28.4691 211.667 28.1319 211.803 27.8785L211.363 27.6415ZM211.091 28.904C211.091 29.3729 211.177 29.786 211.363 30.1319L211.803 29.8948C211.666 29.6398 211.591 29.3133 211.591 28.904H211.091ZM211.363 30.1319C211.544 30.4675 211.791 30.7412 212.103 30.9493L212.381 30.5333C212.138 30.3717 211.946 30.1601 211.803 29.8948L211.363 30.1319ZM212.116 30.9573C212.422 31.1357 212.773 31.26 213.167 31.3337L213.259 30.8423C212.912 30.7773 212.617 30.6705 212.368 30.5254L212.116 30.9573ZM213.167 31.3337C213.552 31.406 213.949 31.442 214.357 31.442V30.942C213.978 30.942 213.613 30.9086 213.259 30.8423L213.167 31.3337ZM214.357 31.442C215.35 31.442 216.153 31.2774 216.74 30.9202L216.48 30.4931C216.004 30.783 215.305 30.942 214.357 30.942V31.442ZM216.74 30.9202C217.299 30.5798 217.726 30.1706 218.005 29.6879L217.572 29.4374C217.343 29.833 216.984 30.1864 216.48 30.4931L216.74 30.9202ZM218.008 29.6831C218.276 29.1954 218.438 28.7009 218.488 28.2009L217.991 28.1511C217.948 28.5755 217.81 29.0055 217.57 29.4422L218.008 29.6831ZM218.486 28.2131C218.557 27.7457 218.593 27.362 218.593 27.0667H218.093C218.093 27.326 218.061 27.6819 217.992 28.1389L218.486 28.2131ZM218.593 27.0667V25.2293H218.093V27.0667H218.593ZM227.226 9.248V8.998H226.976V9.248H227.226ZM227.226 34H226.976V34.25H227.226V34ZM232.148 34V34.25H232.398V34H232.148ZM232.148 9.248H232.398V8.998H232.148V9.248ZM226.976 9.248V34H227.476V9.248H226.976ZM227.226 34.25H232.148V33.75H227.226V34.25ZM232.398 34V9.248H231.898V34H232.398ZM232.148 8.998H227.226V9.498H232.148V8.998ZM239.838 28.176H240.088V27.926H239.838V28.176ZM235.158 28.176V27.926H234.898L234.908 28.1856L235.158 28.176ZM235.955 31.192L235.741 31.3207L235.745 31.3278L235.955 31.192ZM237.862 33.0987L237.727 33.3096L237.73 33.3114L237.862 33.0987ZM240.531 34.1387L240.582 33.894L240.582 33.894L240.531 34.1387ZM246.563 34.1387L246.517 33.8928L246.511 33.8942L246.563 34.1387ZM249.198 33.1333L249.332 33.3442L249.332 33.3442L249.198 33.1333ZM251.035 31.2267L250.821 31.098L250.82 31.0999L251.035 31.2267ZM251.278 26.1653L251.06 26.2875L251.062 26.2913L251.278 26.1653ZM249.995 24.744L249.846 24.9451L249.852 24.9492L249.995 24.744ZM248.158 23.808L248.076 24.0444L248.079 24.0452L248.158 23.808ZM246.078 23.2187L246.021 23.4621L246.023 23.4625L246.078 23.2187ZM244.032 22.768L243.982 23.0128L243.982 23.0128L244.032 22.768ZM242.23 22.3173L242.144 22.5526L242.157 22.5565L242.23 22.3173ZM240.774 19.6827L240.961 19.849L240.969 19.8388L240.774 19.6827ZM241.432 19.1627L241.336 18.9318L241.329 18.9351L241.432 19.1627ZM242.334 18.9547L242.351 19.204L242.36 19.2034L242.369 19.2022L242.334 18.9547ZM245.523 19.4053L245.405 19.6258L245.411 19.6289L245.523 19.4053ZM246.598 21.312L246.348 21.3302L246.365 21.562H246.598V21.312ZM251.278 21.312V21.562H251.549L251.527 21.2912L251.278 21.312ZM250.411 18.5733L250.199 18.7059L250.204 18.7135L250.411 18.5733ZM248.643 16.8053L248.512 17.0185L248.512 17.0185L248.643 16.8053ZM246.182 15.8693L246.131 16.1142L246.133 16.1145L246.182 15.8693ZM240.531 15.8693L240.574 16.1157L240.58 16.1145L240.531 15.8693ZM238.035 16.7707L238.158 16.9886L238.163 16.9856L238.035 16.7707ZM236.232 18.504L236.02 18.3715L236.017 18.3764L236.232 18.504ZM236.059 23.3573L235.843 23.4833L235.845 23.4873L236.059 23.3573ZM237.342 24.7093L237.199 24.9147L237.205 24.9187L237.342 24.7093ZM239.144 25.576L239.063 25.8125L239.073 25.8155L239.144 25.576ZM241.259 26.1307L241.204 26.3746L241.208 26.3753L241.259 26.1307ZM245.35 27.24L245.261 27.4736L245.262 27.4743L245.35 27.24ZM246.528 30.0133L246.728 30.1634L246.734 30.1556L246.528 30.0133ZM245.731 30.7067L245.85 30.9269L245.855 30.9237L245.731 30.7067ZM244.691 31.088L244.737 31.334L244.748 31.3314L244.691 31.088ZM242.195 31.0187L242.131 31.2605L242.134 31.2612L242.195 31.0187ZM241.016 30.4987L240.868 30.7005L240.878 30.7067L241.016 30.4987ZM240.15 29.5627L239.929 29.6796L239.933 29.6876L239.938 29.6952L240.15 29.5627ZM239.838 27.926H235.158V28.426H239.838V27.926ZM234.908 28.1856C234.955 29.4181 235.229 30.4671 235.741 31.3206L236.169 31.0634C235.711 30.2991 235.453 29.3374 235.407 28.1664L234.908 28.1856ZM235.745 31.3278C236.272 32.1427 236.933 32.8043 237.727 33.3096L237.996 32.8878C237.265 32.4224 236.655 31.8129 236.165 31.0562L235.745 31.3278ZM237.73 33.3114C238.543 33.8134 239.46 34.17 240.48 34.3834L240.582 33.894C239.614 33.6913 238.752 33.3546 237.993 32.886L237.73 33.3114ZM240.48 34.3834C241.491 34.595 242.525 34.7007 243.582 34.7007V34.2007C242.558 34.2007 241.559 34.0984 240.582 33.894L240.48 34.3834ZM243.582 34.7007C244.616 34.7007 245.627 34.5949 246.615 34.3831L246.511 33.8942C245.558 34.0984 244.581 34.2007 243.582 34.2007V34.7007ZM246.609 34.3844C247.63 34.1944 248.539 33.8487 249.332 33.3442L249.063 32.9224C248.331 33.3887 247.483 33.7132 246.517 33.8929L246.609 34.3844ZM249.332 33.3442C250.128 32.8375 250.768 32.173 251.25 31.3534L250.82 31.0999C250.377 31.8519 249.792 32.4585 249.063 32.9224L249.332 33.3442ZM251.249 31.3553C251.763 30.4989 252.013 29.4581 252.013 28.2453H251.513C251.513 29.3899 251.277 30.3366 250.821 31.098L251.249 31.3553ZM252.013 28.2453C252.013 27.3819 251.845 26.642 251.494 26.0394L251.062 26.2913C251.357 26.798 251.513 27.4448 251.513 28.2453H252.013ZM251.496 26.0432C251.154 25.4331 250.701 24.9307 250.138 24.5388L249.852 24.9492C250.352 25.2969 250.754 25.742 251.06 26.2875L251.496 26.0432ZM250.144 24.543C249.589 24.1329 248.952 23.8094 248.237 23.5708L248.079 24.0452C248.75 24.2688 249.338 24.5693 249.846 24.945L250.144 24.543ZM248.239 23.5717C247.56 23.3375 246.858 23.1385 246.133 22.9748L246.023 23.4625C246.73 23.6224 247.415 23.8163 248.076 24.0443L248.239 23.5717ZM246.134 22.9752C245.439 22.813 244.755 22.6623 244.083 22.5232L243.982 23.0128C244.65 23.151 245.33 23.3008 246.021 23.4621L246.134 22.9752ZM244.083 22.5232C243.419 22.3857 242.825 22.2373 242.302 22.0782L242.157 22.5565C242.697 22.7209 243.306 22.8729 243.982 23.0128L244.083 22.5232ZM242.315 22.0824C241.828 21.9051 241.44 21.6875 241.144 21.4342L240.819 21.8138C241.171 22.1152 241.615 22.3598 242.144 22.5523L242.315 22.0824ZM241.144 21.4342C240.878 21.206 240.746 20.918 240.746 20.5493H240.246C240.246 21.0589 240.438 21.4874 240.819 21.8138L241.144 21.4342ZM240.746 20.5493C240.746 20.2203 240.828 19.9977 240.961 19.8488L240.587 19.5166C240.349 19.7836 240.246 20.1388 240.246 20.5493H240.746ZM240.969 19.8388C241.131 19.6365 241.319 19.4886 241.536 19.3903L241.329 18.9351C241.037 19.0679 240.786 19.2666 240.578 19.5265L240.969 19.8388ZM241.528 19.3934C241.779 19.2891 242.053 19.2254 242.351 19.204L242.316 18.7053C241.968 18.7302 241.64 18.8052 241.336 18.9319L241.528 19.3934ZM242.369 19.2022C242.683 19.1573 242.971 19.1353 243.235 19.1353V18.6353C242.944 18.6353 242.632 18.6596 242.298 18.7072L242.369 19.2022ZM243.235 19.1353C244.08 19.1353 244.801 19.302 245.405 19.6257L245.641 19.185C244.951 18.8154 244.146 18.6353 243.235 18.6353V19.1353ZM245.411 19.6289C245.955 19.9008 246.283 20.4393 246.348 21.3302L246.847 21.2938C246.774 20.2896 246.385 19.557 245.635 19.1817L245.411 19.6289ZM246.598 21.562H251.278V21.062H246.598V21.562ZM251.527 21.2912C251.432 20.1511 251.133 19.1939 250.618 18.4331L250.204 18.7135C250.659 19.3857 250.939 20.2542 251.029 21.3328L251.527 21.2912ZM250.623 18.4408C250.141 17.6697 249.524 17.0523 248.774 16.5922L248.512 17.0185C249.195 17.4366 249.757 17.9978 250.199 18.7058L250.623 18.4408ZM248.774 16.5922C248.029 16.1359 247.181 15.8142 246.231 15.6242L246.133 16.1145C247.032 16.2943 247.824 16.5965 248.512 17.0185L248.774 16.5922ZM246.232 15.6244C245.313 15.436 244.36 15.342 243.374 15.342V15.842C244.328 15.842 245.248 15.9329 246.131 16.1142L246.232 15.6244ZM243.374 15.342C242.387 15.342 241.423 15.436 240.482 15.6242L240.58 16.1145C241.488 15.9329 242.419 15.842 243.374 15.842V15.342ZM240.488 15.6231C239.536 15.7896 238.675 16.0998 237.907 16.5557L238.163 16.9856C238.874 16.5633 239.677 16.2726 240.574 16.1156L240.488 15.6231ZM237.912 16.5528C237.135 16.9899 236.504 17.5975 236.02 18.3715L236.444 18.6365C236.885 17.9314 237.456 17.3834 238.158 16.9886L237.912 16.5528ZM236.017 18.3764C235.549 19.1656 235.324 20.1611 235.324 21.3467H235.824C235.824 20.2211 236.038 19.3215 236.447 18.6316L236.017 18.3764ZM235.324 21.3467C235.324 22.1668 235.493 22.8827 235.843 23.4833L236.275 23.2314C235.978 22.7226 235.824 22.098 235.824 21.3467H235.324ZM235.845 23.4873C236.188 24.0498 236.64 24.5257 237.199 24.9146L237.484 24.5041C236.98 24.1534 236.577 23.728 236.273 23.2273L235.845 23.4873ZM237.205 24.9187C237.756 25.2778 238.375 25.5753 239.063 25.8123L239.226 25.3397C238.573 25.1145 237.991 24.8342 237.478 24.4999L237.205 24.9187ZM239.073 25.8155C239.771 26.0251 240.482 26.2115 241.204 26.3745L241.314 25.8868C240.603 25.7263 239.904 25.5429 239.216 25.3365L239.073 25.8155ZM241.208 26.3753C242.959 26.744 244.308 27.1106 245.261 27.4736L245.439 27.0064C244.45 26.6298 243.072 26.2569 241.311 25.886L241.208 26.3753ZM245.262 27.4743C245.736 27.6507 246.069 27.8631 246.281 28.1001C246.489 28.332 246.59 28.5963 246.59 28.904H247.09C247.09 28.4722 246.943 28.0894 246.654 27.7665C246.369 27.4489 245.957 27.1991 245.437 27.0057L245.262 27.4743ZM246.59 28.904C246.59 29.3027 246.496 29.6202 246.323 29.871L246.734 30.1556C246.976 29.8055 247.09 29.3835 247.09 28.904H246.59ZM246.328 29.8633C246.142 30.1114 245.903 30.3204 245.607 30.4896L245.855 30.9237C246.206 30.7232 246.498 30.47 246.728 30.1633L246.328 29.8633ZM245.612 30.4865C245.334 30.6362 245.009 30.7563 244.634 30.8446L244.748 31.3314C245.159 31.2348 245.527 31.1007 245.85 30.9268L245.612 30.4865ZM244.645 30.8423C244.289 30.909 243.946 30.942 243.616 30.942V31.442C243.98 31.442 244.353 31.4057 244.737 31.3337L244.645 30.8423ZM243.616 30.942C243.151 30.942 242.698 30.8866 242.256 30.7761L242.134 31.2612C242.617 31.3818 243.111 31.442 243.616 31.442V30.942ZM242.259 30.7769C241.844 30.6677 241.477 30.5051 241.155 30.2907L240.878 30.7067C241.249 30.9544 241.668 31.1385 242.131 31.2604L242.259 30.7769ZM241.164 30.2971C240.843 30.0619 240.576 29.7734 240.362 29.4302L239.938 29.6952C240.185 30.0914 240.496 30.427 240.869 30.7003L241.164 30.2971ZM240.371 29.4457C240.185 29.0953 240.088 28.6747 240.088 28.176H239.588C239.588 28.7404 239.698 29.2443 239.929 29.6796L240.371 29.4457Z" fill="white"/>
<path d="M45 49L255 49" stroke="#FED307" stroke-width="4"/>
</svg>
