<svg width="172" height="51" viewBox="0 0 172 51" fill="none" xmlns="http://www.w3.org/2000/svg">
<rect x="14" y="26" width="143" height="13" fill="#FED307"/>
<path d="M45.2049 24.432L48.4289 15.3493H48.4982L51.6182 24.432H45.2049ZM45.7249 9.248L36.3649 34H41.8422L43.7836 28.488H53.0396L54.9116 34H60.5622L51.3062 9.248H45.7249ZM75.3154 25.056C75.3154 25.7956 75.2345 26.512 75.0727 27.2053C74.9109 27.8987 74.6567 28.5111 74.31 29.0427C73.9634 29.5742 73.5242 30.0018 72.9927 30.3253C72.4842 30.6258 71.8602 30.776 71.1207 30.776C70.4042 30.776 69.7802 30.6258 69.2487 30.3253C68.7171 30.0018 68.278 29.5742 67.9314 29.0427C67.5847 28.5111 67.3305 27.8987 67.1687 27.2053C67.0069 26.512 66.926 25.7956 66.926 25.056C66.926 24.2933 67.0069 23.5653 67.1687 22.872C67.3305 22.1787 67.5847 21.5662 67.9314 21.0347C68.278 20.5031 68.7171 20.0871 69.2487 19.7867C69.7802 19.4631 70.4042 19.3013 71.1207 19.3013C71.8602 19.3013 72.4842 19.4631 72.9927 19.7867C73.5242 20.0871 73.9634 20.5031 74.31 21.0347C74.6567 21.5662 74.9109 22.1787 75.0727 22.872C75.2345 23.5653 75.3154 24.2933 75.3154 25.056ZM62.1767 9.248V34H66.8567V31.712H66.926C67.4576 32.7058 68.2434 33.4107 69.2834 33.8267C70.3234 34.2427 71.502 34.4507 72.8194 34.4507C73.7207 34.4507 74.6105 34.2658 75.4887 33.896C76.3669 33.5262 77.1527 32.96 77.846 32.1973C78.5625 31.4347 79.1402 30.464 79.5794 29.2853C80.0185 28.0836 80.238 26.6622 80.238 25.0213C80.238 23.3804 80.0185 21.9707 79.5794 20.792C79.1402 19.5902 78.5625 18.608 77.846 17.8453C77.1527 17.0827 76.3669 16.5164 75.4887 16.1467C74.6105 15.7769 73.7207 15.592 72.8194 15.592C71.71 15.592 70.6354 15.8116 69.5954 16.2507C68.5785 16.6667 67.7696 17.3369 67.1687 18.2613H67.0994V9.248H62.1767ZM87.7374 25.056C87.7374 24.3396 87.8067 23.6347 87.9454 22.9413C88.0841 22.248 88.3152 21.6356 88.6387 21.104C88.9854 20.5724 89.4361 20.1449 89.9907 19.8213C90.5454 19.4747 91.2387 19.3013 92.0707 19.3013C92.9027 19.3013 93.5961 19.4747 94.1507 19.8213C94.7285 20.1449 95.1792 20.5724 95.5027 21.104C95.8494 21.6356 96.0921 22.248 96.2307 22.9413C96.3694 23.6347 96.4387 24.3396 96.4387 25.056C96.4387 25.7724 96.3694 26.4773 96.2307 27.1707C96.0921 27.8409 95.8494 28.4533 95.5027 29.008C95.1792 29.5396 94.7285 29.9671 94.1507 30.2907C93.5961 30.6142 92.9027 30.776 92.0707 30.776C91.2387 30.776 90.5454 30.6142 89.9907 30.2907C89.4361 29.9671 88.9854 29.5396 88.6387 29.008C88.3152 28.4533 88.0841 27.8409 87.9454 27.1707C87.8067 26.4773 87.7374 25.7724 87.7374 25.056ZM82.8147 25.056C82.8147 26.4889 83.0343 27.7831 83.4734 28.9387C83.9125 30.0942 84.5365 31.088 85.3454 31.92C86.1543 32.7289 87.1249 33.3529 88.2574 33.792C89.3898 34.2311 90.6609 34.4507 92.0707 34.4507C93.4805 34.4507 94.7516 34.2311 95.8841 33.792C97.0396 33.3529 98.0218 32.7289 98.8307 31.92C99.6396 31.088 100.264 30.0942 100.703 28.9387C101.142 27.7831 101.361 26.4889 101.361 25.056C101.361 23.6231 101.142 22.3289 100.703 21.1733C100.264 19.9947 99.6396 19.0009 98.8307 18.192C98.0218 17.36 97.0396 16.7244 95.8841 16.2853C94.7516 15.8231 93.4805 15.592 92.0707 15.592C90.6609 15.592 89.3898 15.8231 88.2574 16.2853C87.1249 16.7244 86.1543 17.36 85.3454 18.192C84.5365 19.0009 83.9125 19.9947 83.4734 21.1733C83.0343 22.3289 82.8147 23.6231 82.8147 25.056ZM121.375 34V16.0773H116.453V25.472C116.453 27.2978 116.152 28.6151 115.551 29.424C114.951 30.2098 113.98 30.6027 112.639 30.6027C111.461 30.6027 110.64 30.2444 110.178 29.528C109.716 28.7884 109.485 27.6791 109.485 26.2V16.0773H104.562V27.1013C104.562 28.2107 104.655 29.2276 104.839 30.152C105.047 31.0533 105.394 31.8276 105.879 32.4747C106.365 33.0987 107.023 33.584 107.855 33.9307C108.711 34.2773 109.797 34.4507 111.114 34.4507C112.154 34.4507 113.171 34.2196 114.165 33.7573C115.159 33.2951 115.967 32.544 116.591 31.504H116.695V34H121.375ZM131.352 16.0773V10.704H126.429V16.0773H123.448V19.3707H126.429V29.944C126.429 30.8453 126.579 31.5733 126.88 32.128C127.18 32.6827 127.584 33.1102 128.093 33.4107C128.624 33.7111 129.225 33.9076 129.896 34C130.589 34.1156 131.317 34.1733 132.08 34.1733C132.565 34.1733 133.062 34.1618 133.57 34.1387C134.079 34.1156 134.541 34.0693 134.957 34V30.1867C134.726 30.2329 134.483 30.2676 134.229 30.2907C133.975 30.3138 133.709 30.3253 133.432 30.3253C132.6 30.3253 132.045 30.1867 131.768 29.9093C131.49 29.632 131.352 29.0773 131.352 28.2453V19.3707H134.957V16.0773H131.352Z" fill="#412D7E"/>
<path d="M45.2049 24.432L44.9693 24.3484L44.8509 24.682H45.2049V24.432ZM48.4289 15.3493V15.0993H48.2524L48.1933 15.2657L48.4289 15.3493ZM48.4982 15.3493L48.7347 15.2681L48.6767 15.0993H48.4982V15.3493ZM51.6182 24.432V24.682H51.9685L51.8547 24.3508L51.6182 24.432ZM45.7249 9.248V8.998H45.5522L45.4911 9.15957L45.7249 9.248ZM36.3649 34L36.1311 33.9116L36.0031 34.25H36.3649V34ZM41.8422 34V34.25H42.0193L42.0781 34.083L41.8422 34ZM43.7836 28.488V28.238H43.6066L43.5478 28.4049L43.7836 28.488ZM53.0396 28.488L53.2763 28.4076L53.2187 28.238H53.0396V28.488ZM54.9116 34L54.6749 34.0804L54.7325 34.25H54.9116V34ZM60.5622 34V34.25H60.9226L60.7964 33.9124L60.5622 34ZM51.3062 9.248L51.5404 9.16043L51.4797 8.998H51.3062V9.248ZM45.4405 24.5156L48.6645 15.433L48.1933 15.2657L44.9693 24.3484L45.4405 24.5156ZM48.4289 15.5993H48.4982V15.0993H48.4289V15.5993ZM48.2618 15.4306L51.3818 24.5132L51.8547 24.3508L48.7347 15.2681L48.2618 15.4306ZM51.6182 24.182H45.2049V24.682H51.6182V24.182ZM45.4911 9.15957L36.1311 33.9116L36.5988 34.0884L45.9588 9.33642L45.4911 9.15957ZM36.3649 34.25H41.8422V33.75H36.3649V34.25ZM42.0781 34.083L44.0194 28.571L43.5478 28.4049L41.6064 33.917L42.0781 34.083ZM43.7836 28.738H53.0396V28.238H43.7836V28.738ZM52.8029 28.5684L54.6749 34.0804L55.1483 33.9196L53.2763 28.4076L52.8029 28.5684ZM54.9116 34.25H60.5622V33.75H54.9116V34.25ZM60.7964 33.9124L51.5404 9.16043L51.0721 9.33556L60.3281 34.0876L60.7964 33.9124ZM51.3062 8.998H45.7249V9.498H51.3062V8.998ZM74.31 29.0427L74.1006 28.9061L74.1006 28.9061L74.31 29.0427ZM72.9927 30.3253L73.1199 30.5406L73.1227 30.5389L72.9927 30.3253ZM69.2487 30.3253L69.1186 30.539L69.1257 30.543L69.2487 30.3253ZM69.2487 19.7867L69.3718 20.0044L69.3787 20.0002L69.2487 19.7867ZM72.9927 19.7867L72.8583 19.9979L72.8697 20.0043L72.9927 19.7867ZM74.31 21.0347L74.1006 21.1712L74.1006 21.1712L74.31 21.0347ZM62.1767 9.248V8.998H61.9267V9.248H62.1767ZM62.1767 34H61.9267V34.25H62.1767V34ZM66.8567 34V34.25H67.1067V34H66.8567ZM66.8567 31.712V31.462H66.6067V31.712H66.8567ZM66.926 31.712L67.1465 31.5941L67.0758 31.462H66.926V31.712ZM69.2834 33.8267L69.1905 34.0588L69.1905 34.0588L69.2834 33.8267ZM75.4887 33.896L75.5857 34.1264L75.5857 34.1264L75.4887 33.896ZM77.846 32.1973L77.6638 32.0261L77.661 32.0292L77.846 32.1973ZM79.5794 29.2853L79.8136 29.3726L79.8142 29.3711L79.5794 29.2853ZM79.5794 20.792L79.3445 20.8778L79.3451 20.8793L79.5794 20.792ZM77.846 17.8453L77.661 18.0135L77.6638 18.0165L77.846 17.8453ZM75.4887 16.1467L75.5857 15.9163L75.5857 15.9163L75.4887 16.1467ZM69.5954 16.2507L69.69 16.4821L69.6926 16.481L69.5954 16.2507ZM67.1687 18.2613V18.5113H67.3044L67.3783 18.3976L67.1687 18.2613ZM67.0994 18.2613H66.8494V18.5113H67.0994V18.2613ZM67.0994 9.248H67.3494V8.998H67.0994V9.248ZM75.0654 25.056C75.0654 25.7772 74.9865 26.4745 74.8292 27.1485L75.3161 27.2621C75.4824 26.5495 75.5654 25.8139 75.5654 25.056H75.0654ZM74.8292 27.1485C74.6733 27.8169 74.4296 28.4017 74.1006 28.9061L74.5194 29.1792C74.8838 28.6205 75.1486 27.9804 75.3161 27.2621L74.8292 27.1485ZM74.1006 28.9061C73.7739 29.407 73.3617 29.808 72.8627 30.1118L73.1227 30.5389C73.6868 30.1955 74.1528 29.7414 74.5194 29.1792L74.1006 28.9061ZM72.8655 30.1101C72.4042 30.3827 71.8267 30.526 71.1207 30.526V31.026C71.8938 31.026 72.5643 30.8688 73.1199 30.5406L72.8655 30.1101ZM71.1207 30.526C70.4398 30.526 69.8597 30.3835 69.3717 30.1077L69.1257 30.543C69.7008 30.868 70.3687 31.026 71.1207 31.026V30.526ZM69.3787 30.1118C68.8797 29.808 68.4674 29.407 68.1408 28.9061L67.722 29.1792C68.0886 29.7414 68.5546 30.1955 69.1187 30.5389L69.3787 30.1118ZM68.1408 28.9061C67.8118 28.4017 67.5681 27.8169 67.4121 27.1485L66.9252 27.2621C67.0928 27.9804 67.3576 28.6205 67.722 29.1792L68.1408 28.9061ZM67.4121 27.1485C67.2549 26.4745 67.176 25.7772 67.176 25.056H66.676C66.676 25.8139 66.7589 26.5495 66.9252 27.2621L67.4121 27.1485ZM67.176 25.056C67.176 24.3111 67.255 23.6022 67.4121 22.9288L66.9252 22.8152C66.7588 23.5284 66.676 24.2756 66.676 25.056H67.176ZM67.4121 22.9288C67.5681 22.2604 67.8118 21.6756 68.1408 21.1712L67.722 20.8981C67.3576 21.4568 67.0928 22.0969 66.9252 22.8152L67.4121 22.9288ZM68.1408 21.1712C68.4664 20.6719 68.8764 20.2843 69.3717 20.0043L69.1257 19.569C68.5579 19.89 68.0896 20.3344 67.722 20.8981L68.1408 21.1712ZM69.3787 20.0002C69.8654 19.7039 70.443 19.5513 71.1207 19.5513V19.0513C70.3655 19.0513 69.695 19.2223 69.1187 19.5731L69.3787 20.0002ZM71.1207 19.5513C71.8235 19.5513 72.3984 19.7048 72.8585 19.9976L73.1269 19.5757C72.5701 19.2214 71.897 19.0513 71.1207 19.0513V19.5513ZM72.8697 20.0043C73.365 20.2843 73.7749 20.6719 74.1006 21.1712L74.5194 20.8981C74.1518 20.3344 73.6835 19.89 73.1157 19.569L72.8697 20.0043ZM74.1006 21.1712C74.4296 21.6756 74.6733 22.2604 74.8292 22.9288L75.3161 22.8152C75.1486 22.0969 74.8838 21.4568 74.5194 20.8981L74.1006 21.1712ZM74.8292 22.9288C74.9864 23.6022 75.0654 24.3111 75.0654 25.056H75.5654C75.5654 24.2756 75.4826 23.5284 75.3161 22.8152L74.8292 22.9288ZM61.9267 9.248V34H62.4267V9.248H61.9267ZM62.1767 34.25H66.8567V33.75H62.1767V34.25ZM67.1067 34V31.712H66.6067V34H67.1067ZM66.8567 31.962H66.926V31.462H66.8567V31.962ZM66.7056 31.8299C67.2647 32.8752 68.0955 33.6208 69.1905 34.0588L69.3762 33.5945C68.3912 33.2006 67.6504 32.5363 67.1465 31.5941L66.7056 31.8299ZM69.1905 34.0588C70.2647 34.4885 71.4757 34.7007 72.8194 34.7007V34.2007C71.5283 34.2007 70.382 33.9969 69.3762 33.5945L69.1905 34.0588ZM72.8194 34.7007C73.7559 34.7007 74.6786 34.5084 75.5857 34.1264L75.3917 33.6656C74.5424 34.0232 73.6855 34.2007 72.8194 34.2007V34.7007ZM75.5857 34.1264C76.5001 33.7414 77.3153 33.1528 78.031 32.3655L77.661 32.0292C76.9901 32.7672 76.2337 33.311 75.3917 33.6656L75.5857 34.1264ZM78.0282 32.3685C78.7715 31.5772 79.3652 30.5763 79.8136 29.3726L79.3451 29.1981C78.9153 30.3517 78.3534 31.2921 77.6638 32.0262L78.0282 32.3685ZM79.8142 29.3711C80.2657 28.1353 80.488 26.6836 80.488 25.0213H79.988C79.988 26.6408 79.7712 28.0318 79.3445 29.1995L79.8142 29.3711ZM80.488 25.0213C80.488 23.3592 80.2658 21.9184 79.8136 20.7047L79.3451 20.8793C79.7712 22.023 79.988 23.4016 79.988 25.0213H80.488ZM79.8142 20.7062C79.366 19.4796 78.7723 18.4663 78.0282 17.6742L77.6638 18.0165C78.3526 18.7497 78.9145 19.7009 79.3445 20.8778L79.8142 20.7062ZM78.031 17.6772C77.3153 16.8898 76.5001 16.3013 75.5857 15.9163L75.3917 16.3771C76.2337 16.7316 76.9901 17.2755 77.661 18.0135L78.031 17.6772ZM75.5857 15.9163C74.6786 15.5343 73.7559 15.342 72.8194 15.342V15.842C73.6855 15.842 74.5424 16.0195 75.3917 16.3771L75.5857 15.9163ZM72.8194 15.342C71.676 15.342 70.5683 15.5685 69.4981 16.0204L69.6926 16.481C70.7024 16.0546 71.744 15.842 72.8194 15.842V15.342ZM69.5007 16.0193C68.4365 16.4546 67.5876 17.1581 66.9591 18.1251L67.3783 18.3976C67.9516 17.5156 68.7204 16.8787 69.69 16.4821L69.5007 16.0193ZM67.1687 18.0113H67.0994V18.5113H67.1687V18.0113ZM67.3494 18.2613V9.248H66.8494V18.2613H67.3494ZM67.0994 8.998H62.1767V9.498H67.0994V8.998ZM88.6387 21.104L88.4292 20.9674L88.4252 20.974L88.6387 21.104ZM89.9907 19.8213L90.1168 20.0374L90.1232 20.0333L89.9907 19.8213ZM94.1507 19.8213L94.0181 20.0336L94.0286 20.0395L94.1507 19.8213ZM95.5027 21.104L95.2891 21.234L95.2933 21.2406L95.5027 21.104ZM96.2307 22.9413L95.9856 22.9904L95.9856 22.9904L96.2307 22.9413ZM96.2307 27.1707L96.4755 27.2213L96.4759 27.2197L96.2307 27.1707ZM95.5027 29.008L95.2907 28.8755L95.2892 28.878L95.5027 29.008ZM94.1507 30.2907L94.0286 30.0725L94.0248 30.0747L94.1507 30.2907ZM89.9907 30.2907L89.8648 30.5066L89.8648 30.5066L89.9907 30.2907ZM88.6387 29.008L88.4225 29.1341L88.4293 29.1446L88.6387 29.008ZM87.9454 27.1707L87.7002 27.2197L87.7006 27.2213L87.9454 27.1707ZM83.4734 28.9387L83.7071 28.8499L83.7071 28.8499L83.4734 28.9387ZM85.3454 31.92L85.1661 32.0943L85.1686 32.0968L85.3454 31.92ZM88.2574 33.792L88.167 34.0251L88.167 34.0251L88.2574 33.792ZM95.8841 33.792L95.7953 33.5583L95.7937 33.5589L95.8841 33.792ZM98.8307 31.92L99.0075 32.0968L99.01 32.0943L98.8307 31.92ZM100.703 28.9387L100.469 28.8499L100.469 28.8499L100.703 28.9387ZM100.703 21.1733L100.468 21.2606L100.469 21.2621L100.703 21.1733ZM98.8307 18.192L98.6515 18.3663L98.6539 18.3688L98.8307 18.192ZM95.8841 16.2853L95.7896 16.5169L95.7953 16.519L95.8841 16.2853ZM88.2574 16.2853L88.3478 16.5185L88.3519 16.5168L88.2574 16.2853ZM85.3454 18.192L85.5222 18.3688L85.5246 18.3663L85.3454 18.192ZM83.4734 21.1733L83.7071 21.2621L83.7077 21.2606L83.4734 21.1733ZM87.9874 25.056C87.9874 24.3558 88.0551 23.6673 88.1905 22.9904L87.7002 22.8923C87.5583 23.602 87.4874 24.3233 87.4874 25.056H87.9874ZM88.1905 22.9904C88.3242 22.3218 88.5458 21.7375 88.8523 21.234L88.4252 20.974C88.0845 21.5337 87.8439 22.1742 87.7002 22.8923L88.1905 22.9904ZM88.8481 21.2406C89.1733 20.742 89.5952 20.3415 90.1167 20.0373L89.8648 19.6054C89.2769 19.9483 88.7975 20.4029 88.4293 20.9674L88.8481 21.2406ZM90.1232 20.0333C90.6287 19.7174 91.273 19.5513 92.0707 19.5513V19.0513C91.2045 19.0513 90.4621 19.2319 89.8582 19.6093L90.1232 20.0333ZM92.0707 19.5513C92.8685 19.5513 93.5128 19.7174 94.0182 20.0333L94.2832 19.6093C93.6793 19.2319 92.937 19.0513 92.0707 19.0513V19.5513ZM94.0286 20.0395C94.5713 20.3434 94.9894 20.7416 95.2892 21.234L95.7163 20.974C95.3689 20.4033 94.8857 19.9464 94.2729 19.6032L94.0286 20.0395ZM95.2933 21.2406C95.6207 21.7426 95.8524 22.3247 95.9856 22.9904L96.4759 22.8923C96.3317 22.1713 96.078 21.5285 95.7121 20.9674L95.2933 21.2406ZM95.9856 22.9904C96.121 23.6673 96.1887 24.3558 96.1887 25.056H96.6887C96.6887 24.3233 96.6178 23.602 96.4759 22.8923L95.9856 22.9904ZM96.1887 25.056C96.1887 25.7562 96.121 26.4447 95.9856 27.1216L96.4759 27.2197C96.6178 26.51 96.6887 25.7887 96.6887 25.056H96.1887ZM95.9859 27.12C95.853 27.7626 95.621 28.3471 95.2907 28.8755L95.7147 29.1405C96.0778 28.5596 96.3312 27.9192 96.4755 27.2213L95.9859 27.12ZM95.2892 28.878C94.9894 29.3704 94.5713 29.7686 94.0286 30.0725L94.2729 30.5088C94.8857 30.1656 95.3689 29.7087 95.7163 29.138L95.2892 28.878ZM94.0248 30.0747C93.518 30.3703 92.8713 30.526 92.0707 30.526V31.026C92.9342 31.026 93.6741 30.8581 94.2767 30.5066L94.0248 30.0747ZM92.0707 30.526C91.2702 30.526 90.6234 30.3703 90.1167 30.0747L89.8648 30.5066C90.4674 30.8581 91.2073 31.026 92.0707 31.026V30.526ZM90.1167 30.0747C89.5952 29.7705 89.1733 29.37 88.8481 28.8714L88.4293 29.1446C88.7975 29.7091 89.2769 30.1637 89.8648 30.5066L90.1167 30.0747ZM88.8547 28.882C88.5456 28.3522 88.3238 27.7655 88.1902 27.12L87.7006 27.2213C87.8444 27.9163 88.0847 28.5544 88.4228 29.134L88.8547 28.882ZM88.1905 27.1216C88.0551 26.4447 87.9874 25.7562 87.9874 25.056H87.4874C87.4874 25.7887 87.5583 26.51 87.7002 27.2197L88.1905 27.1216ZM82.5647 25.056C82.5647 26.5145 82.7882 27.8394 83.2397 29.0275L83.7071 28.8499C83.2803 27.7268 83.0647 26.4633 83.0647 25.056H82.5647ZM83.2397 29.0275C83.6901 30.2128 84.3319 31.2362 85.1661 32.0943L85.5246 31.7457C84.7411 30.9398 84.1349 29.9756 83.7071 28.8499L83.2397 29.0275ZM85.1686 32.0968C86.0036 32.9317 87.0042 33.5742 88.167 34.0251L88.3478 33.5589C87.2457 33.1316 86.305 32.526 85.5222 31.7432L85.1686 32.0968ZM88.167 34.0251C89.3325 34.477 90.6349 34.7007 92.0707 34.7007V34.2007C90.687 34.2007 89.4472 33.9852 88.3478 33.5589L88.167 34.0251ZM92.0707 34.7007C93.5065 34.7007 94.8089 34.477 95.9744 34.0251L95.7937 33.5589C94.6943 33.9852 93.4545 34.2007 92.0707 34.2007V34.7007ZM95.9729 34.0257C97.1587 33.5751 98.1717 32.9326 99.0075 32.0968L98.6539 31.7432C97.872 32.5252 96.9205 33.1307 95.7953 33.5583L95.9729 34.0257ZM99.01 32.0943C99.8442 31.2362 100.486 30.2128 100.936 29.0275L100.469 28.8499C100.041 29.9756 99.435 30.9398 98.6515 31.7457L99.01 32.0943ZM100.936 29.0275C101.388 27.8394 101.611 26.5145 101.611 25.056H101.111C101.111 26.4633 100.896 27.7268 100.469 28.8499L100.936 29.0275ZM101.611 25.056C101.611 23.5975 101.388 22.2726 100.936 21.0845L100.469 21.2621C100.896 22.3852 101.111 23.6487 101.111 25.056H101.611ZM100.937 21.0861C100.487 19.8772 99.8442 18.8519 99.0075 18.0152L98.6539 18.3688C99.435 19.1499 100.041 20.1122 100.468 21.2606L100.937 21.0861ZM99.01 18.0177C98.174 17.1579 97.1603 16.5029 95.9729 16.0516L95.7953 16.519C96.919 16.946 97.8697 17.5621 98.6515 18.3663L99.01 18.0177ZM95.9785 16.0539C94.8119 15.5777 93.508 15.342 92.0707 15.342V15.842C93.453 15.842 94.6914 16.0685 95.7896 16.5168L95.9785 16.0539ZM92.0707 15.342C90.6334 15.342 89.3296 15.5777 88.1629 16.0539L88.3519 16.5168C89.4501 16.0685 90.6885 15.842 92.0707 15.842V15.342ZM88.167 16.0522C87.0027 16.5037 86.0013 17.1588 85.1661 18.0177L85.5246 18.3663C86.3073 17.5612 87.2472 16.9452 88.3478 16.5184L88.167 16.0522ZM85.1686 18.0152C84.3319 18.8519 83.6895 19.8772 83.2391 21.0861L83.7077 21.2606C84.1355 20.1122 84.7411 19.1499 85.5222 18.3688L85.1686 18.0152ZM83.2397 21.0845C82.7882 22.2726 82.5647 23.5975 82.5647 25.056H83.0647C83.0647 23.6487 83.2803 22.3852 83.7071 21.2621L83.2397 21.0845ZM121.375 34V34.25H121.625V34H121.375ZM121.375 16.0773H121.625V15.8273H121.375V16.0773ZM116.453 16.0773V15.8273H116.203V16.0773H116.453ZM115.551 29.424L115.75 29.5759L115.752 29.5731L115.551 29.424ZM110.178 29.528L109.966 29.6605L109.968 29.6635L110.178 29.528ZM109.485 16.0773H109.735V15.8273H109.485V16.0773ZM104.562 16.0773V15.8273H104.312V16.0773H104.562ZM104.839 30.152L104.594 30.201L104.596 30.2082L104.839 30.152ZM105.879 32.4747L105.679 32.6247L105.682 32.6282L105.879 32.4747ZM107.855 33.9307L107.759 34.1614L107.762 34.1624L107.855 33.9307ZM114.165 33.7573L114.27 33.984L114.27 33.984L114.165 33.7573ZM116.591 31.504V31.254H116.45L116.377 31.3754L116.591 31.504ZM116.695 31.504H116.945V31.254H116.695V31.504ZM116.695 34H116.445V34.25H116.695V34ZM121.625 34V16.0773H121.125V34H121.625ZM121.375 15.8273H116.453V16.3273H121.375V15.8273ZM116.203 16.0773V25.472H116.703V16.0773H116.203ZM116.203 25.472C116.203 27.2823 115.903 28.5321 115.351 29.2749L115.752 29.5731C116.402 28.6981 116.703 27.3133 116.703 25.472H116.203ZM115.353 29.2721C114.815 29.9758 113.932 30.3527 112.639 30.3527V30.8527C114.028 30.8527 115.086 30.4438 115.75 29.5759L115.353 29.2721ZM112.639 30.3527C111.51 30.3527 110.788 30.012 110.388 29.3925L109.968 29.6635C110.493 30.4769 111.412 30.8527 112.639 30.8527V30.3527ZM110.39 29.3955C109.965 28.7146 109.735 27.6612 109.735 26.2H109.235C109.235 27.6971 109.467 28.8623 109.966 29.6605L110.39 29.3955ZM109.735 26.2V16.0773H109.235V26.2H109.735ZM109.485 15.8273H104.562V16.3273H109.485V15.8273ZM104.312 16.0773V27.1013H104.812V16.0773H104.312ZM104.312 27.1013C104.312 28.2243 104.406 29.2579 104.594 30.201L105.085 30.103C104.903 29.1972 104.812 28.197 104.812 27.1013H104.312ZM104.596 30.2082C104.811 31.1386 105.17 31.9459 105.679 32.6247L106.079 32.3247C105.618 31.7092 105.284 30.968 105.083 30.0958L104.596 30.2082ZM105.682 32.6282C106.197 33.2908 106.893 33.8005 107.759 34.1614L107.952 33.6999C107.154 33.3675 106.532 32.9066 106.077 32.3212L105.682 32.6282ZM107.762 34.1624C108.656 34.5251 109.777 34.7007 111.114 34.7007V34.2007C109.816 34.2007 108.765 34.0296 107.949 33.699L107.762 34.1624ZM111.114 34.7007C112.192 34.7007 113.245 34.4608 114.27 33.984L114.059 33.5307C113.097 33.9784 112.116 34.2007 111.114 34.2007V34.7007ZM114.27 33.984C115.314 33.4985 116.159 32.7107 116.806 31.6326L116.377 31.3754C115.776 32.3773 115.003 33.0917 114.059 33.5307L114.27 33.984ZM116.591 31.754H116.695V31.254H116.591V31.754ZM116.445 31.504V34H116.945V31.504H116.445ZM116.695 34.25H121.375V33.75H116.695V34.25ZM131.352 16.0773H131.102V16.3273H131.352V16.0773ZM131.352 10.704H131.602V10.454H131.352V10.704ZM126.429 10.704V10.454H126.179V10.704H126.429ZM126.429 16.0773V16.3273H126.679V16.0773H126.429ZM123.448 16.0773V15.8273H123.198V16.0773H123.448ZM123.448 19.3707H123.198V19.6207H123.448V19.3707ZM126.429 19.3707H126.679V19.1207H126.429V19.3707ZM126.88 32.128L126.66 32.2471L126.66 32.2471L126.88 32.128ZM128.093 33.4107L127.966 33.6259L127.97 33.6283L128.093 33.4107ZM129.896 34L129.937 33.7533L129.93 33.7523L129.896 34ZM133.57 34.1387L133.559 33.8889L133.559 33.8889L133.57 34.1387ZM134.957 34L134.998 34.2466L135.207 34.2118V34H134.957ZM134.957 30.1867H135.207V29.8817L134.908 29.9415L134.957 30.1867ZM134.229 30.2907L134.206 30.0417L134.206 30.0417L134.229 30.2907ZM131.768 29.9093L131.591 30.0861L131.591 30.0861L131.768 29.9093ZM131.352 19.3707V19.1207H131.102V19.3707H131.352ZM134.957 19.3707V19.6207H135.207V19.3707H134.957ZM134.957 16.0773H135.207V15.8273H134.957V16.0773ZM131.602 16.0773V10.704H131.102V16.0773H131.602ZM131.352 10.454H126.429V10.954H131.352V10.454ZM126.179 10.704V16.0773H126.679V10.704H126.179ZM126.429 15.8273H123.448V16.3273H126.429V15.8273ZM123.198 16.0773V19.3707H123.698V16.0773H123.198ZM123.448 19.6207H126.429V19.1207H123.448V19.6207ZM126.179 19.3707V29.944H126.679V19.3707H126.179ZM126.179 29.944C126.179 30.8702 126.333 31.6435 126.66 32.2471L127.099 32.0089C126.825 31.5031 126.679 30.8205 126.679 29.944H126.179ZM126.66 32.2471C126.98 32.8388 127.416 33.3008 127.966 33.6259L128.22 33.1954C127.753 32.9196 127.38 32.5266 127.099 32.0089L126.66 32.2471ZM127.97 33.6283C128.532 33.9459 129.163 34.1514 129.861 34.2477L129.93 33.7523C129.287 33.6637 128.717 33.4764 128.216 33.193L127.97 33.6283ZM129.854 34.2466C130.562 34.3646 131.304 34.4233 132.08 34.4233V33.9233C131.33 33.9233 130.615 33.8665 129.937 33.7534L129.854 34.2466ZM132.08 34.4233C132.569 34.4233 133.07 34.4117 133.582 34.3884L133.559 33.8889C133.054 33.9119 132.561 33.9233 132.08 33.9233V34.4233ZM133.582 34.3884C134.098 34.3649 134.57 34.3179 134.998 34.2466L134.916 33.7534C134.511 33.8208 134.059 33.8662 133.559 33.8889L133.582 34.3884ZM135.207 34V30.1867H134.707V34H135.207ZM134.908 29.9415C134.686 29.9859 134.452 30.0193 134.206 30.0417L134.252 30.5396C134.514 30.5158 134.765 30.4799 135.006 30.4318L134.908 29.9415ZM134.206 30.0417C133.96 30.0641 133.702 30.0753 133.432 30.0753V30.5753C133.716 30.5753 133.989 30.5635 134.252 30.5396L134.206 30.0417ZM133.432 30.0753C133.028 30.0753 132.703 30.0415 132.452 29.9788C132.2 29.9157 132.04 29.8278 131.944 29.7326L131.591 30.0861C131.773 30.2682 132.029 30.3883 132.331 30.4639C132.635 30.5398 133.004 30.5753 133.432 30.5753V30.0753ZM131.944 29.7326C131.849 29.6374 131.761 29.477 131.698 29.2247C131.635 28.9739 131.602 28.6493 131.602 28.2453H131.102C131.102 28.6734 131.137 29.0421 131.213 29.346C131.289 29.6484 131.409 29.904 131.591 30.0861L131.944 29.7326ZM131.602 28.2453V19.3707H131.102V28.2453H131.602ZM131.352 19.6207H134.957V19.1207H131.352V19.6207ZM135.207 19.3707V16.0773H134.707V19.3707H135.207ZM134.957 15.8273H131.352V16.3273H134.957V15.8273Z" fill="#412D7E"/>
<path d="M27 49H144" stroke="#FED307" stroke-width="4"/>
</svg>
