<svg width="54" height="54" viewBox="0 0 54 54" fill="none" xmlns="http://www.w3.org/2000/svg">
<circle cx="27" cy="27" r="27" fill="white"/>
<path d="M29 11C29 9.89543 28.1046 9 27 9C25.8954 9 25 9.89543 25 11L29 11ZM25.5858 43.559C26.3668 44.3401 27.6332 44.3401 28.4142 43.559L41.1421 30.8311C41.9232 30.0501 41.9232 28.7837 41.1421 28.0027C40.3611 27.2216 39.0948 27.2216 38.3137 28.0027L27 39.3164L15.6863 28.0027C14.9052 27.2216 13.6389 27.2216 12.8579 28.0027C12.0768 28.7837 12.0768 30.0501 12.8579 30.8311L25.5858 43.559ZM25 11L25 42.1448L29 42.1448L29 11L25 11Z" fill="#FED307"/>
</svg>
