<svg width="299" height="51" viewBox="0 0 299 51" fill="none" xmlns="http://www.w3.org/2000/svg">
<rect x="14" y="26" width="272" height="13" fill="#A844AE"/>
<path d="M35.8035 17.568H41.0728C40.911 16.1351 40.5182 14.864 39.8942 13.7547C39.2702 12.6453 38.4728 11.7209 37.5022 10.9813C36.5546 10.2187 35.4684 9.64089 34.2435 9.248C33.0417 8.85511 31.759 8.65867 30.3955 8.65867C28.5004 8.65867 26.7902 8.99378 25.2648 9.664C23.7626 10.3342 22.4915 11.2587 21.4515 12.4373C20.4115 13.616 19.6142 15.0027 19.0595 16.5973C18.5048 18.1689 18.2275 19.8791 18.2275 21.728C18.2275 23.5307 18.5048 25.2178 19.0595 26.7893C19.6142 28.3378 20.4115 29.6898 21.4515 30.8453C22.4915 32.0009 23.7626 32.9138 25.2648 33.584C26.7902 34.2311 28.5004 34.5547 30.3955 34.5547C31.9208 34.5547 33.319 34.3236 34.5902 33.8613C35.8613 33.3991 36.9706 32.7289 37.9182 31.8507C38.8657 30.9724 39.6284 29.9093 40.2062 28.6613C40.7839 27.4133 41.1422 26.0151 41.2808 24.4667H36.0115C35.8035 26.1307 35.2257 27.4711 34.2782 28.488C33.3537 29.5049 32.0595 30.0133 30.3955 30.0133C29.1706 30.0133 28.1306 29.7822 27.2755 29.32C26.4204 28.8347 25.727 28.1991 25.1955 27.4133C24.6639 26.6276 24.271 25.7493 24.0168 24.7787C23.7857 23.7849 23.6702 22.768 23.6702 21.728C23.6702 20.6418 23.7857 19.5902 24.0168 18.5733C24.271 17.5564 24.6639 16.6551 25.1955 15.8693C25.727 15.0604 26.4204 14.4249 27.2755 13.9627C28.1306 13.4773 29.1706 13.2347 30.3955 13.2347C31.0657 13.2347 31.7013 13.3502 32.3022 13.5813C32.9262 13.7893 33.4808 14.0898 33.9662 14.4827C34.4515 14.8756 34.8559 15.3378 35.1795 15.8693C35.503 16.3778 35.711 16.944 35.8035 17.568ZM48.8455 25.056C48.8455 24.3396 48.9148 23.6347 49.0535 22.9413C49.1921 22.248 49.4232 21.6356 49.7468 21.104C50.0935 20.5724 50.5441 20.1449 51.0988 19.8213C51.6535 19.4747 52.3468 19.3013 53.1788 19.3013C54.0108 19.3013 54.7041 19.4747 55.2588 19.8213C55.8366 20.1449 56.2872 20.5724 56.6108 21.104C56.9575 21.6356 57.2001 22.248 57.3388 22.9413C57.4775 23.6347 57.5468 24.3396 57.5468 25.056C57.5468 25.7724 57.4775 26.4773 57.3388 27.1707C57.2001 27.8409 56.9575 28.4533 56.6108 29.008C56.2872 29.5396 55.8366 29.9671 55.2588 30.2907C54.7041 30.6142 54.0108 30.776 53.1788 30.776C52.3468 30.776 51.6535 30.6142 51.0988 30.2907C50.5441 29.9671 50.0935 29.5396 49.7468 29.008C49.4232 28.4533 49.1921 27.8409 49.0535 27.1707C48.9148 26.4773 48.8455 25.7724 48.8455 25.056ZM43.9228 25.056C43.9228 26.4889 44.1424 27.7831 44.5815 28.9387C45.0206 30.0942 45.6446 31.088 46.4535 31.92C47.2624 32.7289 48.233 33.3529 49.3655 33.792C50.4979 34.2311 51.769 34.4507 53.1788 34.4507C54.5886 34.4507 55.8597 34.2311 56.9921 33.792C58.1477 33.3529 59.1299 32.7289 59.9388 31.92C60.7477 31.088 61.3717 30.0942 61.8108 28.9387C62.2499 27.7831 62.4695 26.4889 62.4695 25.056C62.4695 23.6231 62.2499 22.3289 61.8108 21.1733C61.3717 19.9947 60.7477 19.0009 59.9388 18.192C59.1299 17.36 58.1477 16.7244 56.9921 16.2853C55.8597 15.8231 54.5886 15.592 53.1788 15.592C51.769 15.592 50.4979 15.8231 49.3655 16.2853C48.233 16.7244 47.2624 17.36 46.4535 18.192C45.6446 19.0009 45.0206 19.9947 44.5815 21.1733C44.1424 22.3289 43.9228 23.6231 43.9228 25.056ZM65.6702 16.0773V34H70.5928V24.6053C70.5928 22.7796 70.8933 21.4738 71.4942 20.688C72.0951 19.8791 73.0657 19.4747 74.4062 19.4747C75.5848 19.4747 76.4053 19.8444 76.8675 20.584C77.3297 21.3004 77.5608 22.3982 77.5608 23.8773V34H82.4835V22.976C82.4835 21.8667 82.3795 20.8613 82.1715 19.96C81.9866 19.0356 81.6515 18.2613 81.1662 17.6373C80.6808 16.9902 80.0106 16.4933 79.1555 16.1467C78.3235 15.7769 77.2488 15.592 75.9315 15.592C74.8915 15.592 73.8746 15.8347 72.8808 16.32C71.8871 16.7822 71.0782 17.5333 70.4542 18.5733H70.3502V16.0773H65.6702ZM87.2943 19.3707V34H92.217V19.3707H95.6143V16.0773H92.217V15.0027C92.217 14.2631 92.3557 13.7431 92.633 13.4427C92.9334 13.1191 93.4188 12.9573 94.089 12.9573C94.713 12.9573 95.3139 12.992 95.8917 13.0613V9.38666C95.4757 9.36355 95.0481 9.34044 94.609 9.31733C94.1699 9.27111 93.7308 9.248 93.2917 9.248C91.281 9.248 89.7788 9.75644 88.785 10.7733C87.7912 11.7902 87.2943 13.096 87.2943 14.6907V16.0773H84.3477V19.3707H87.2943ZM109.828 23.1147H101.82C101.843 22.768 101.912 22.3751 102.028 21.936C102.167 21.4969 102.386 21.0809 102.687 20.688C103.01 20.2951 103.426 19.9716 103.935 19.7173C104.466 19.44 105.125 19.3013 105.911 19.3013C107.112 19.3013 108.002 19.6249 108.58 20.272C109.181 20.9191 109.597 21.8667 109.828 23.1147ZM101.82 26.2347H114.751C114.843 24.848 114.727 23.5191 114.404 22.248C114.08 20.9769 113.549 19.8444 112.809 18.8507C112.093 17.8569 111.168 17.0711 110.036 16.4933C108.903 15.8924 107.575 15.592 106.049 15.592C104.686 15.592 103.438 15.8347 102.305 16.32C101.196 16.8053 100.237 17.4756 99.4279 18.3307C98.619 19.1627 97.995 20.1564 97.5559 21.312C97.1168 22.4676 96.8973 23.7156 96.8973 25.056C96.8973 26.4427 97.1053 27.7138 97.5213 28.8693C97.9604 30.0249 98.5728 31.0187 99.3586 31.8507C100.144 32.6827 101.103 33.3298 102.236 33.792C103.368 34.2311 104.639 34.4507 106.049 34.4507C108.083 34.4507 109.816 33.9884 111.249 33.064C112.682 32.1396 113.745 30.6027 114.439 28.4533H110.105C109.943 29.008 109.504 29.5396 108.788 30.048C108.071 30.5333 107.216 30.776 106.223 30.776C104.836 30.776 103.773 30.4178 103.033 29.7013C102.294 28.9849 101.889 27.8293 101.82 26.2347ZM117.67 16.0773V34H122.593V25.9227C122.593 25.1138 122.674 24.3627 122.836 23.6693C122.997 22.976 123.263 22.3751 123.633 21.8667C124.026 21.3351 124.534 20.9191 125.158 20.6187C125.782 20.3182 126.545 20.168 127.446 20.168C127.747 20.168 128.059 20.1911 128.382 20.2373C128.706 20.2604 128.983 20.2951 129.214 20.3413V15.7653C128.821 15.6498 128.463 15.592 128.14 15.592C127.516 15.592 126.915 15.6844 126.337 15.8693C125.759 16.0542 125.216 16.32 124.708 16.6667C124.199 16.9902 123.748 17.3947 123.356 17.88C122.963 18.3422 122.651 18.8507 122.42 19.4053H122.35V16.0773H117.67ZM142.599 23.1147H134.591C134.614 22.768 134.683 22.3751 134.799 21.936C134.937 21.4969 135.157 21.0809 135.457 20.688C135.781 20.2951 136.197 19.9716 136.705 19.7173C137.237 19.44 137.896 19.3013 138.681 19.3013C139.883 19.3013 140.773 19.6249 141.351 20.272C141.952 20.9191 142.368 21.8667 142.599 23.1147ZM134.591 26.2347H147.521C147.614 24.848 147.498 23.5191 147.175 22.248C146.851 20.9769 146.32 19.8444 145.58 18.8507C144.864 17.8569 143.939 17.0711 142.807 16.4933C141.674 15.8924 140.345 15.592 138.82 15.592C137.457 15.592 136.209 15.8347 135.076 16.32C133.967 16.8053 133.008 17.4756 132.199 18.3307C131.39 19.1627 130.766 20.1564 130.327 21.312C129.888 22.4676 129.668 23.7156 129.668 25.056C129.668 26.4427 129.876 27.7138 130.292 28.8693C130.731 30.0249 131.344 31.0187 132.129 31.8507C132.915 32.6827 133.874 33.3298 135.007 33.792C136.139 34.2311 137.41 34.4507 138.82 34.4507C140.854 34.4507 142.587 33.9884 144.02 33.064C145.453 32.1396 146.516 30.6027 147.209 28.4533H142.876C142.714 29.008 142.275 29.5396 141.559 30.048C140.842 30.5333 139.987 30.776 138.993 30.776C137.607 30.776 136.544 30.4178 135.804 29.7013C135.065 28.9849 134.66 27.8293 134.591 26.2347ZM150.441 16.0773V34H155.364V24.6053C155.364 22.7796 155.664 21.4738 156.265 20.688C156.866 19.8791 157.837 19.4747 159.177 19.4747C160.356 19.4747 161.176 19.8444 161.638 20.584C162.101 21.3004 162.332 22.3982 162.332 23.8773V34H167.254V22.976C167.254 21.8667 167.15 20.8613 166.942 19.96C166.757 19.0356 166.422 18.2613 165.937 17.6373C165.452 16.9902 164.781 16.4933 163.926 16.1467C163.094 15.7769 162.02 15.592 160.702 15.592C159.662 15.592 158.645 15.8347 157.652 16.32C156.658 16.7822 155.849 17.5333 155.225 18.5733H155.121V16.0773H150.441ZM183.193 22.3867H188.012C187.943 21.2311 187.665 20.2373 187.18 19.4053C186.695 18.5502 186.059 17.8453 185.273 17.2907C184.511 16.7129 183.632 16.2853 182.639 16.008C181.668 15.7307 180.651 15.592 179.588 15.592C178.132 15.592 176.838 15.8347 175.705 16.32C174.573 16.8053 173.614 17.4871 172.828 18.3653C172.042 19.2204 171.441 20.2489 171.025 21.4507C170.632 22.6293 170.436 23.912 170.436 25.2987C170.436 26.6391 170.655 27.8756 171.094 29.008C171.534 30.1173 172.146 31.0764 172.932 31.8853C173.718 32.6942 174.665 33.3298 175.775 33.792C176.907 34.2311 178.143 34.4507 179.484 34.4507C181.864 34.4507 183.817 33.8267 185.343 32.5787C186.868 31.3307 187.792 29.5164 188.116 27.136H183.367C183.205 28.2453 182.8 29.1351 182.153 29.8053C181.529 30.4524 180.628 30.776 179.449 30.776C178.687 30.776 178.039 30.6027 177.508 30.256C176.976 29.9093 176.549 29.4702 176.225 28.9387C175.925 28.384 175.705 27.7716 175.567 27.1013C175.428 26.4311 175.359 25.7724 175.359 25.1253C175.359 24.4551 175.428 23.7849 175.567 23.1147C175.705 22.4213 175.936 21.7973 176.26 21.2427C176.607 20.6649 177.046 20.2027 177.577 19.856C178.109 19.4862 178.767 19.3013 179.553 19.3013C181.656 19.3013 182.87 20.3298 183.193 22.3867ZM202.961 23.1147H194.953C194.976 22.768 195.045 22.3751 195.161 21.936C195.299 21.4969 195.519 21.0809 195.819 20.688C196.143 20.2951 196.559 19.9716 197.067 19.7173C197.599 19.44 198.258 19.3013 199.043 19.3013C200.245 19.3013 201.135 19.6249 201.713 20.272C202.314 20.9191 202.73 21.8667 202.961 23.1147ZM194.953 26.2347H207.883C207.976 24.848 207.86 23.5191 207.537 22.248C207.213 20.9769 206.682 19.8444 205.942 18.8507C205.226 17.8569 204.301 17.0711 203.169 16.4933C202.036 15.8924 200.707 15.592 199.182 15.592C197.819 15.592 196.571 15.8347 195.438 16.32C194.329 16.8053 193.37 17.4756 192.561 18.3307C191.752 19.1627 191.128 20.1564 190.689 21.312C190.25 22.4676 190.03 23.7156 190.03 25.056C190.03 26.4427 190.238 27.7138 190.654 28.8693C191.093 30.0249 191.706 31.0187 192.491 31.8507C193.277 32.6827 194.236 33.3298 195.369 33.792C196.501 34.2311 197.772 34.4507 199.182 34.4507C201.216 34.4507 202.949 33.9884 204.382 33.064C205.815 32.1396 206.878 30.6027 207.571 28.4533H203.238C203.076 29.008 202.637 29.5396 201.921 30.048C201.204 30.5333 200.349 30.776 199.355 30.776C197.969 30.776 196.906 30.4178 196.166 29.7013C195.427 28.9849 195.022 27.8293 194.953 26.2347ZM220.971 9.248V34H226.414V9.248H220.971ZM230.675 16.0773V34H235.598V24.6053C235.598 22.7796 235.899 21.4738 236.499 20.688C237.1 19.8791 238.071 19.4747 239.411 19.4747C240.59 19.4747 241.411 19.8444 241.873 20.584C242.335 21.3004 242.566 22.3982 242.566 23.8773V34H247.489V22.976C247.489 21.8667 247.385 20.8613 247.177 19.96C246.992 19.0356 246.657 18.2613 246.171 17.6373C245.686 16.9902 245.016 16.4933 244.161 16.1467C243.329 15.7769 242.254 15.592 240.937 15.592C239.897 15.592 238.88 15.8347 237.886 16.32C236.892 16.7822 236.083 17.5333 235.459 18.5733H235.355V16.0773H230.675ZM252.3 19.3707V34H257.222V19.3707H260.62V16.0773H257.222V15.0027C257.222 14.2631 257.361 13.7431 257.638 13.4427C257.939 13.1191 258.424 12.9573 259.094 12.9573C259.718 12.9573 260.319 12.992 260.897 13.0613V9.38666C260.481 9.36355 260.053 9.34044 259.614 9.31733C259.175 9.27111 258.736 9.248 258.297 9.248C256.286 9.248 254.784 9.75644 253.79 10.7733C252.796 11.7902 252.3 13.096 252.3 14.6907V16.0773H249.353V19.3707H252.3ZM267.137 25.056C267.137 24.3396 267.206 23.6347 267.345 22.9413C267.484 22.248 267.715 21.6356 268.038 21.104C268.385 20.5724 268.836 20.1449 269.39 19.8213C269.945 19.4747 270.638 19.3013 271.47 19.3013C272.302 19.3013 272.996 19.4747 273.55 19.8213C274.128 20.1449 274.579 20.5724 274.902 21.104C275.249 21.6356 275.492 22.248 275.63 22.9413C275.769 23.6347 275.838 24.3396 275.838 25.056C275.838 25.7724 275.769 26.4773 275.63 27.1707C275.492 27.8409 275.249 28.4533 274.902 29.008C274.579 29.5396 274.128 29.9671 273.55 30.2907C272.996 30.6142 272.302 30.776 271.47 30.776C270.638 30.776 269.945 30.6142 269.39 30.2907C268.836 29.9671 268.385 29.5396 268.038 29.008C267.715 28.4533 267.484 27.8409 267.345 27.1707C267.206 26.4773 267.137 25.7724 267.137 25.056ZM262.214 25.056C262.214 26.4889 262.434 27.7831 262.873 28.9387C263.312 30.0942 263.936 31.088 264.745 31.92C265.554 32.7289 266.525 33.3529 267.657 33.792C268.79 34.2311 270.061 34.4507 271.47 34.4507C272.88 34.4507 274.151 34.2311 275.284 33.792C276.439 33.3529 277.422 32.7289 278.23 31.92C279.039 31.088 279.663 30.0942 280.102 28.9387C280.542 27.7831 280.761 26.4889 280.761 25.056C280.761 23.6231 280.542 22.3289 280.102 21.1733C279.663 19.9947 279.039 19.0009 278.23 18.192C277.422 17.36 276.439 16.7244 275.284 16.2853C274.151 15.8231 272.88 15.592 271.47 15.592C270.061 15.592 268.79 15.8231 267.657 16.2853C266.525 16.7244 265.554 17.36 264.745 18.192C263.936 19.0009 263.312 19.9947 262.873 21.1733C262.434 22.3289 262.214 23.6231 262.214 25.056Z" fill="white"/>
<path d="M35.8035 17.568L35.5562 17.6046L35.5878 17.818H35.8035V17.568ZM41.0728 17.568V17.818H41.3526L41.3212 17.54L41.0728 17.568ZM39.8942 13.7547L40.1121 13.6321L40.1121 13.6321L39.8942 13.7547ZM37.5022 10.9813L37.3454 11.1762L37.3506 11.1802L37.5022 10.9813ZM34.2435 9.248L34.1658 9.48563L34.1671 9.48605L34.2435 9.248ZM25.2648 9.664L25.1643 9.43511L25.163 9.43569L25.2648 9.664ZM21.4515 12.4373L21.6389 12.6027L21.6389 12.6027L21.4515 12.4373ZM19.0595 16.5973L19.2952 16.6805L19.2956 16.6795L19.0595 16.5973ZM19.0595 26.7893L18.8237 26.8725L18.8241 26.8736L19.0595 26.7893ZM21.4515 30.8453L21.6373 30.6781L21.6373 30.6781L21.4515 30.8453ZM25.2648 33.584L25.1629 33.8123L25.1672 33.8141L25.2648 33.584ZM34.5902 33.8613L34.6756 34.0963L34.6756 34.0963L34.5902 33.8613ZM37.9182 31.8507L37.7482 31.6673L37.7482 31.6673L37.9182 31.8507ZM40.2062 28.6613L40.433 28.7664L40.433 28.7664L40.2062 28.6613ZM41.2808 24.4667L41.5298 24.489L41.5542 24.2167H41.2808V24.4667ZM36.0115 24.4667V24.2167H35.7908L35.7634 24.4357L36.0115 24.4667ZM34.2782 28.488L34.0952 28.3176L34.0932 28.3198L34.2782 28.488ZM27.2755 29.32L27.1521 29.5375L27.1566 29.5399L27.2755 29.32ZM25.1955 27.4133L24.9884 27.5534L24.9884 27.5534L25.1955 27.4133ZM24.0168 24.7787L23.7732 24.8353L23.775 24.842L24.0168 24.7787ZM24.0168 18.5733L23.7742 18.5127L23.773 18.5179L24.0168 18.5733ZM25.1955 15.8693L25.4026 16.0094L25.4044 16.0066L25.1955 15.8693ZM27.2755 13.9627L27.3944 14.1826L27.3989 14.1801L27.2755 13.9627ZM32.3022 13.5813L32.2123 13.8149L32.2231 13.8185L32.3022 13.5813ZM35.1795 15.8693L34.9659 15.9993L34.9686 16.0036L35.1795 15.8693ZM35.8035 17.818H41.0728V17.318H35.8035V17.818ZM41.3212 17.54C41.1562 16.0782 40.7545 14.7742 40.1121 13.6321L39.6763 13.8772C40.2818 14.9538 40.6659 16.192 40.8244 17.596L41.3212 17.54ZM40.1121 13.6321C39.4721 12.4944 38.6526 11.5436 37.6537 10.7825L37.3506 11.1802C38.2931 11.8982 39.0682 12.7963 39.6763 13.8772L40.1121 13.6321ZM37.6589 10.7866C36.6861 10.0036 35.5723 9.41166 34.3198 9.00994L34.1671 9.48605C35.3645 9.87011 36.4231 10.4338 37.3454 11.1761L37.6589 10.7866ZM34.3212 9.01037C33.0924 8.60867 31.7834 8.40867 30.3955 8.40867V8.90867C31.7347 8.90867 32.991 9.10155 34.1658 9.48562L34.3212 9.01037ZM30.3955 8.40867C28.4705 8.40867 26.7254 8.74918 25.1643 9.43512L25.3654 9.89288C26.855 9.23838 28.5303 8.90867 30.3955 8.90867V8.40867ZM25.163 9.43569C23.6296 10.1198 22.3288 11.0652 21.264 12.2719L21.6389 12.6027C22.6542 11.4522 23.8956 10.5486 25.3667 9.89231L25.163 9.43569ZM21.264 12.2719C20.201 13.4767 19.3879 14.8922 18.8234 16.5152L19.2956 16.6795C19.8404 15.1132 20.622 13.7553 21.6389 12.6027L21.264 12.2719ZM18.8237 16.5141C18.2587 18.1152 17.9775 19.8539 17.9775 21.728H18.4775C18.4775 19.9044 18.751 18.2226 19.2952 16.6805L18.8237 16.5141ZM17.9775 21.728C17.9775 23.5567 18.2589 25.2722 18.8237 26.8725L19.2952 26.7061C18.7507 25.1634 18.4775 23.5046 18.4775 21.728H17.9775ZM18.8241 26.8736C19.3891 28.4509 20.2027 29.8315 21.2657 31.0126L21.6373 30.6781C20.6203 29.5481 19.8392 28.2247 19.2948 26.705L18.8241 26.8736ZM21.2657 31.0126C22.3304 32.1956 23.6307 33.1287 25.163 33.8123L25.3667 33.3557C23.8945 32.6989 22.6526 31.8061 21.6373 30.6781L21.2657 31.0126ZM25.1672 33.8141C26.7275 34.4761 28.4716 34.8047 30.3955 34.8047V34.3047C28.5291 34.3047 26.8528 33.9861 25.3625 33.3539L25.1672 33.8141ZM30.3955 34.8047C31.9463 34.8047 33.3738 34.5696 34.6756 34.0963L34.5047 33.6264C33.2643 34.0775 31.8954 34.3047 30.3955 34.3047V34.8047ZM34.6756 34.0963C35.9765 33.6232 37.115 32.936 38.0881 32.034L37.7482 31.6673C36.8262 32.5218 35.746 33.175 34.5047 33.6264L34.6756 34.0963ZM38.0881 32.034C39.0611 31.1323 39.8425 30.042 40.433 28.7664L39.9793 28.5563C39.4143 29.7767 38.6704 30.8126 37.7482 31.6673L38.0881 32.034ZM40.433 28.7664C41.0244 27.4891 41.3889 26.0624 41.5298 24.489L41.0318 24.4444C40.8954 25.9679 40.5435 27.3376 39.9793 28.5563L40.433 28.7664ZM41.2808 24.2167H36.0115V24.7167H41.2808V24.2167ZM35.7634 24.4357C35.5606 26.0585 35.0001 27.3465 34.0953 28.3176L34.4611 28.6584C35.4513 27.5957 36.0464 26.2028 36.2596 24.4977L35.7634 24.4357ZM34.0932 28.3198C33.2259 29.2738 32.0051 29.7633 30.3955 29.7633V30.2633C32.1138 30.2633 33.4815 29.736 34.4631 28.6562L34.0932 28.3198ZM30.3955 29.7633C29.2015 29.7633 28.2047 29.5381 27.3944 29.1001L27.1566 29.5399C28.0565 30.0264 29.1397 30.2633 30.3955 30.2633V29.7633ZM27.3989 29.1026C26.576 28.6355 25.9118 28.026 25.4026 27.2733L24.9884 27.5534C25.5423 28.3722 26.2648 29.0338 27.1521 29.5374L27.3989 29.1026ZM25.4026 27.2733C24.8877 26.5122 24.5061 25.6602 24.2587 24.7153L23.775 24.842C24.036 25.8384 24.4401 26.7429 24.9884 27.5534L25.4026 27.2733ZM24.2603 24.722C24.0336 23.7472 23.9202 22.7493 23.9202 21.728H23.4202C23.4202 22.7867 23.5378 23.8226 23.7733 24.8353L24.2603 24.722ZM23.9202 21.728C23.9202 20.6596 24.0338 19.6267 24.2606 18.6287L23.773 18.5179C23.5376 19.5537 23.4202 20.6239 23.4202 21.728H23.9202ZM24.2594 18.634C24.5072 17.6425 24.889 16.7686 25.4026 16.0094L24.9884 15.7293C24.4389 16.5416 24.0349 17.4704 23.7743 18.5127L24.2594 18.634ZM25.4044 16.0066C25.9132 15.2325 26.5755 14.6252 27.3944 14.1826L27.1566 13.7427C26.2653 14.2245 25.5409 14.8884 24.9866 15.732L25.4044 16.0066ZM27.3989 14.1801C28.2082 13.7208 29.2034 13.4847 30.3955 13.4847V12.9847C29.1378 12.9847 28.053 13.2339 27.1521 13.7452L27.3989 14.1801ZM30.3955 13.4847C31.0363 13.4847 31.6413 13.595 32.2124 13.8147L32.3919 13.348C31.7612 13.1054 31.0951 12.9847 30.3955 12.9847V13.4847ZM32.2231 13.8185C32.8202 14.0175 33.348 14.3039 33.8089 14.677L34.1235 14.2884C33.6136 13.8756 33.0321 13.5611 32.3812 13.3442L32.2231 13.8185ZM33.8089 14.677C34.272 15.0519 34.6574 15.4924 34.9659 15.9993L35.393 15.7393C35.0545 15.1832 34.631 14.6992 34.1235 14.2884L33.8089 14.677ZM34.9686 16.0036C35.2724 16.481 35.4686 17.0137 35.5562 17.6046L36.0508 17.5314C35.9534 16.8743 35.7337 16.2746 35.3904 15.7351L34.9686 16.0036ZM49.7468 21.104L49.5373 20.9674L49.5333 20.974L49.7468 21.104ZM51.0988 19.8213L51.2248 20.0374L51.2313 20.0333L51.0988 19.8213ZM55.2588 19.8213L55.1261 20.0336L55.1367 20.0395L55.2588 19.8213ZM56.6108 21.104L56.3972 21.234L56.4014 21.2406L56.6108 21.104ZM57.3388 22.9413L57.0937 22.9904L57.0937 22.9904L57.3388 22.9413ZM57.3388 27.1707L57.5836 27.2213L57.5839 27.2197L57.3388 27.1707ZM56.6108 29.008L56.3988 28.8755L56.3973 28.878L56.6108 29.008ZM55.2588 30.2907L55.1366 30.0725L55.1328 30.0747L55.2588 30.2907ZM51.0988 30.2907L50.9728 30.5066L50.9728 30.5066L51.0988 30.2907ZM49.7468 29.008L49.5306 29.1341L49.5374 29.1446L49.7468 29.008ZM49.0535 27.1707L48.8083 27.2197L48.8087 27.2213L49.0535 27.1707ZM44.5815 28.9387L44.8152 28.8499L44.8152 28.8499L44.5815 28.9387ZM46.4535 31.92L46.2742 32.0943L46.2767 32.0968L46.4535 31.92ZM49.3655 33.792L49.2751 34.0251L49.2751 34.0251L49.3655 33.792ZM56.9921 33.792L56.9033 33.5583L56.9018 33.5589L56.9921 33.792ZM59.9388 31.92L60.1156 32.0968L60.1181 32.0943L59.9388 31.92ZM61.8108 28.9387L61.5771 28.8499L61.5771 28.8499L61.8108 28.9387ZM61.8108 21.1733L61.5765 21.2606L61.5771 21.2621L61.8108 21.1733ZM59.9388 18.192L59.7595 18.3663L59.762 18.3688L59.9388 18.192ZM56.9921 16.2853L56.8976 16.5169L56.9033 16.519L56.9921 16.2853ZM49.3655 16.2853L49.4559 16.5185L49.4599 16.5168L49.3655 16.2853ZM46.4535 18.192L46.6303 18.3688L46.6327 18.3663L46.4535 18.192ZM44.5815 21.1733L44.8152 21.2621L44.8157 21.2606L44.5815 21.1733ZM49.0955 25.056C49.0955 24.3558 49.1632 23.6673 49.2986 22.9904L48.8083 22.8923C48.6664 23.602 48.5955 24.3233 48.5955 25.056H49.0955ZM49.2986 22.9904C49.4323 22.3218 49.6539 21.7375 49.9604 21.234L49.5333 20.974C49.1926 21.5337 48.9519 22.1742 48.8083 22.8923L49.2986 22.9904ZM49.9562 21.2406C50.2814 20.742 50.7033 20.3415 51.2248 20.0373L50.9728 19.6054C50.385 19.9483 49.9056 20.4029 49.5374 20.9674L49.9562 21.2406ZM51.2313 20.0333C51.7367 19.7174 52.381 19.5513 53.1788 19.5513V19.0513C52.3126 19.0513 51.5702 19.2319 50.9663 19.6093L51.2313 20.0333ZM53.1788 19.5513C53.9766 19.5513 54.6209 19.7174 55.1263 20.0333L55.3913 19.6093C54.7874 19.2319 54.045 19.0513 53.1788 19.0513V19.5513ZM55.1367 20.0395C55.6794 20.3434 56.0975 20.7416 56.3973 21.234L56.8244 20.974C56.477 20.4033 55.9938 19.9464 55.381 19.6032L55.1367 20.0395ZM56.4014 21.2406C56.7288 21.7426 56.9605 22.3247 57.0937 22.9904L57.5839 22.8923C57.4398 22.1713 57.1861 21.5285 56.8202 20.9674L56.4014 21.2406ZM57.0937 22.9904C57.2291 23.6673 57.2968 24.3558 57.2968 25.056H57.7968C57.7968 24.3233 57.7259 23.602 57.5839 22.8923L57.0937 22.9904ZM57.2968 25.056C57.2968 25.7562 57.2291 26.4447 57.0937 27.1216L57.5839 27.2197C57.7259 26.51 57.7968 25.7887 57.7968 25.056H57.2968ZM57.094 27.12C56.961 27.7626 56.729 28.3471 56.3988 28.8755L56.8228 29.1405C57.1859 28.5596 57.4392 27.9192 57.5836 27.2213L57.094 27.12ZM56.3973 28.878C56.0975 29.3704 55.6794 29.7686 55.1367 30.0725L55.381 30.5088C55.9938 30.1656 56.477 29.7087 56.8244 29.138L56.3973 28.878ZM55.1328 30.0747C54.6261 30.3703 53.9793 30.526 53.1788 30.526V31.026C54.0423 31.026 54.7822 30.8581 55.3848 30.5066L55.1328 30.0747ZM53.1788 30.526C52.3783 30.526 51.7315 30.3703 51.2248 30.0747L50.9728 30.5066C51.5754 30.8581 52.3153 31.026 53.1788 31.026V30.526ZM51.2248 30.0747C50.7033 29.7705 50.2814 29.37 49.9562 28.8714L49.5374 29.1446C49.9056 29.7091 50.385 30.1637 50.9728 30.5066L51.2248 30.0747ZM49.9627 28.882C49.6537 28.3522 49.4318 27.7655 49.2983 27.12L48.8087 27.2213C48.9524 27.9163 49.1928 28.5544 49.5309 29.134L49.9627 28.882ZM49.2986 27.1216C49.1632 26.4447 49.0955 25.7562 49.0955 25.056H48.5955C48.5955 25.7887 48.6664 26.51 48.8083 27.2197L49.2986 27.1216ZM43.6728 25.056C43.6728 26.5145 43.8963 27.8394 44.3478 29.0275L44.8152 28.8499C44.3884 27.7268 44.1728 26.4633 44.1728 25.056H43.6728ZM44.3478 29.0275C44.7982 30.2128 45.44 31.2362 46.2742 32.0943L46.6327 31.7457C45.8492 30.9398 45.243 29.9756 44.8152 28.8499L44.3478 29.0275ZM46.2767 32.0968C47.1117 32.9317 48.1123 33.5742 49.2751 34.0251L49.4559 33.5589C48.3538 33.1316 47.4131 32.526 46.6302 31.7432L46.2767 32.0968ZM49.2751 34.0251C50.4406 34.477 51.743 34.7007 53.1788 34.7007V34.2007C51.795 34.2007 50.5552 33.9852 49.4559 33.5589L49.2751 34.0251ZM53.1788 34.7007C54.6146 34.7007 55.917 34.477 57.0825 34.0251L56.9018 33.5589C55.8024 33.9852 54.5626 34.2007 53.1788 34.2007V34.7007ZM57.0809 34.0257C58.2668 33.5751 59.2798 32.9326 60.1156 32.0968L59.762 31.7432C58.9801 32.5252 58.0286 33.1307 56.9033 33.5583L57.0809 34.0257ZM60.1181 32.0943C60.9523 31.2362 61.5941 30.2128 62.0445 29.0275L61.5771 28.8499C61.1493 29.9756 60.5431 30.9398 59.7596 31.7457L60.1181 32.0943ZM62.0445 29.0275C62.496 27.8394 62.7195 26.5145 62.7195 25.056H62.2195C62.2195 26.4633 62.0039 27.7268 61.5771 28.8499L62.0445 29.0275ZM62.7195 25.056C62.7195 23.5975 62.496 22.2726 62.0445 21.0845L61.5771 21.2621C62.0039 22.3852 62.2195 23.6487 62.2195 25.056H62.7195ZM62.0451 21.0861C61.5947 19.8772 60.9523 18.8519 60.1156 18.0152L59.762 18.3688C60.5431 19.1499 61.1487 20.1122 61.5765 21.2606L62.0451 21.0861ZM60.1181 18.0177C59.2821 17.1579 58.2683 16.5029 57.0809 16.0516L56.9033 16.519C58.027 16.946 58.9778 17.5621 59.7596 18.3663L60.1181 18.0177ZM57.0866 16.0539C55.92 15.5777 54.6161 15.342 53.1788 15.342V15.842C54.5611 15.842 55.7994 16.0685 56.8977 16.5168L57.0866 16.0539ZM53.1788 15.342C51.7415 15.342 50.4377 15.5777 49.271 16.0539L49.4599 16.5168C50.5582 16.0685 51.7965 15.842 53.1788 15.842V15.342ZM49.2751 16.0522C48.1107 16.5037 47.1093 17.1588 46.2742 18.0177L46.6327 18.3663C47.4154 17.5612 48.3553 16.9452 49.4559 16.5184L49.2751 16.0522ZM46.2767 18.0152C45.44 18.8519 44.7976 19.8772 44.3472 21.0861L44.8157 21.2606C45.2436 20.1122 45.8492 19.1499 46.6302 18.3688L46.2767 18.0152ZM44.3478 21.0845C43.8963 22.2726 43.6728 23.5975 43.6728 25.056H44.1728C44.1728 23.6487 44.3884 22.3852 44.8152 21.2621L44.3478 21.0845ZM65.6702 16.0773V15.8273H65.4202V16.0773H65.6702ZM65.6702 34H65.4202V34.25H65.6702V34ZM70.5928 34V34.25H70.8428V34H70.5928ZM71.4942 20.688L71.6928 20.8399L71.6949 20.8371L71.4942 20.688ZM76.8675 20.584L76.6555 20.7165L76.6574 20.7195L76.8675 20.584ZM77.5608 34H77.3108V34.25H77.5608V34ZM82.4835 34V34.25H82.7335V34H82.4835ZM82.1715 19.96L81.9263 20.009L81.9279 20.0162L82.1715 19.96ZM81.1662 17.6373L80.9662 17.7874L80.9688 17.7908L81.1662 17.6373ZM79.1555 16.1467L79.0539 16.3752L79.0616 16.3783L79.1555 16.1467ZM72.8808 16.32L72.9863 16.5467L72.9906 16.5446L72.8808 16.32ZM70.4542 18.5733V18.8233H70.5957L70.6686 18.702L70.4542 18.5733ZM70.3502 18.5733H70.1002V18.8233H70.3502V18.5733ZM70.3502 16.0773H70.6002V15.8273H70.3502V16.0773ZM65.4202 16.0773V34H65.9202V16.0773H65.4202ZM65.6702 34.25H70.5928V33.75H65.6702V34.25ZM70.8428 34V24.6053H70.3428V34H70.8428ZM70.8428 24.6053C70.8428 22.794 71.1435 21.5582 71.6928 20.8399L71.2956 20.5361C70.6431 21.3894 70.3428 22.7651 70.3428 24.6053H70.8428ZM71.6949 20.8371C72.2339 20.1115 73.1164 19.7247 74.4062 19.7247V19.2247C73.015 19.2247 71.9562 19.6468 71.2935 20.5389L71.6949 20.8371ZM74.4062 19.7247C75.5325 19.7247 76.2544 20.0747 76.6555 20.7165L77.0795 20.4515C76.5562 19.6142 75.6372 19.2247 74.4062 19.2247V19.7247ZM76.6574 20.7195C77.0807 21.3756 77.3108 22.4152 77.3108 23.8773H77.8108C77.8108 22.3812 77.5787 21.2253 77.0776 20.4485L76.6574 20.7195ZM77.3108 23.8773V34H77.8108V23.8773H77.3108ZM77.5608 34.25H82.4835V33.75H77.5608V34.25ZM82.7335 34V22.976H82.2335V34H82.7335ZM82.7335 22.976C82.7335 21.8514 82.6281 20.8268 82.4151 19.9038L81.9279 20.0162C82.1309 20.8959 82.2335 21.882 82.2335 22.976H82.7335ZM82.4167 19.911C82.2256 18.9557 81.8768 18.1438 81.3635 17.4838L80.9688 17.7908C81.4262 18.3788 81.7476 19.1154 81.9264 20.009L82.4167 19.911ZM81.3662 17.4873C80.8499 16.799 80.1406 16.2763 79.2494 15.915L79.0616 16.3783C79.8806 16.7104 80.5118 17.1815 80.9662 17.7873L81.3662 17.4873ZM79.257 15.9182C78.3821 15.5294 77.2694 15.342 75.9315 15.342V15.842C77.2283 15.842 78.2649 16.0244 79.054 16.3751L79.257 15.9182ZM75.9315 15.342C74.8511 15.342 73.7969 15.5944 72.7711 16.0954L72.9906 16.5446C73.9524 16.0749 74.9319 15.842 75.9315 15.842V15.342ZM72.7754 16.0933C71.7316 16.5788 70.8867 17.3666 70.2398 18.4447L70.6686 18.702C71.2697 17.7 72.0426 16.9856 72.9863 16.5467L72.7754 16.0933ZM70.4542 18.3233H70.3502V18.8233H70.4542V18.3233ZM70.6002 18.5733V16.0773H70.1002V18.5733H70.6002ZM70.3502 15.8273H65.6702V16.3273H70.3502V15.8273ZM87.2943 19.3707H87.5443V19.1207H87.2943V19.3707ZM87.2943 34H87.0443V34.25H87.2943V34ZM92.217 34V34.25H92.467V34H92.217ZM92.217 19.3707V19.1207H91.967V19.3707H92.217ZM95.6143 19.3707V19.6207H95.8643V19.3707H95.6143ZM95.6143 16.0773H95.8643V15.8273H95.6143V16.0773ZM92.217 16.0773H91.967V16.3273H92.217V16.0773ZM92.633 13.4427L92.4498 13.2726L92.4493 13.2731L92.633 13.4427ZM95.8917 13.0613L95.8619 13.3096L96.1417 13.3431V13.0613H95.8917ZM95.8917 9.38666H96.1417V9.15017L95.9055 9.13705L95.8917 9.38666ZM94.609 9.31733L94.5828 9.5663L94.5959 9.56699L94.609 9.31733ZM88.785 10.7733L88.9638 10.9481L88.9638 10.9481L88.785 10.7733ZM87.2943 16.0773V16.3273H87.5443V16.0773H87.2943ZM84.3477 16.0773V15.8273H84.0977V16.0773H84.3477ZM84.3477 19.3707H84.0977V19.6207H84.3477V19.3707ZM87.0443 19.3707V34H87.5443V19.3707H87.0443ZM87.2943 34.25H92.217V33.75H87.2943V34.25ZM92.467 34V19.3707H91.967V34H92.467ZM92.217 19.6207H95.6143V19.1207H92.217V19.6207ZM95.8643 19.3707V16.0773H95.3643V19.3707H95.8643ZM95.6143 15.8273H92.217V16.3273H95.6143V15.8273ZM92.467 16.0773V15.0027H91.967V16.0773H92.467ZM92.467 15.0027C92.467 14.2802 92.6052 13.8413 92.8167 13.6122L92.4493 13.2731C92.1061 13.6449 91.967 14.246 91.967 15.0027H92.467ZM92.8162 13.6128C93.0495 13.3615 93.4525 13.2073 94.089 13.2073V12.7073C93.3851 12.7073 92.8174 12.8767 92.4498 13.2726L92.8162 13.6128ZM94.089 13.2073C94.7037 13.2073 95.2947 13.2415 95.8619 13.3096L95.9214 12.8131C95.3331 12.7425 94.7222 12.7073 94.089 12.7073V13.2073ZM96.1417 13.0613V9.38666H95.6417V13.0613H96.1417ZM95.9055 9.13705C95.4893 9.11392 95.0615 9.0908 94.6221 9.06768L94.5959 9.56699C95.0347 9.59009 95.462 9.61318 95.8778 9.63628L95.9055 9.13705ZM94.6352 9.06871C94.1874 9.02157 93.7396 8.998 93.2917 8.998V9.498C93.722 9.498 94.1524 9.52065 94.5828 9.56596L94.6352 9.06871ZM93.2917 8.998C91.242 8.998 89.6637 9.51654 88.6062 10.5986L88.9638 10.9481C89.8939 9.99634 91.32 9.498 93.2917 9.498V8.998ZM88.6062 10.5986C87.5611 11.668 87.0443 13.0393 87.0443 14.6907H87.5443C87.5443 13.1527 88.0214 11.9124 88.9638 10.9481L88.6062 10.5986ZM87.0443 14.6907V16.0773H87.5443V14.6907H87.0443ZM87.2943 15.8273H84.3477V16.3273H87.2943V15.8273ZM84.0977 16.0773V19.3707H84.5977V16.0773H84.0977ZM84.3477 19.6207H87.2943V19.1207H84.3477V19.6207ZM109.828 23.1147V23.3647H110.128L110.074 23.0691L109.828 23.1147ZM101.82 23.1147L101.57 23.098L101.553 23.3647H101.82V23.1147ZM102.028 21.936L101.789 21.8606L101.786 21.8724L102.028 21.936ZM102.687 20.688L102.493 20.529L102.488 20.5361L102.687 20.688ZM103.935 19.7173L104.046 19.941L104.05 19.939L103.935 19.7173ZM108.58 20.272L108.393 20.4385L108.397 20.4421L108.58 20.272ZM101.82 26.2347V25.9847H101.559L101.57 26.2455L101.82 26.2347ZM114.751 26.2347V26.4847H114.984L115 26.2513L114.751 26.2347ZM112.809 18.8507L112.606 18.9969L112.609 18.9999L112.809 18.8507ZM110.036 16.4933L109.919 16.7142L109.922 16.716L110.036 16.4933ZM102.305 16.32L102.207 16.0902L102.205 16.091L102.305 16.32ZM99.4279 18.3307L99.6072 18.505L99.6095 18.5025L99.4279 18.3307ZM97.5559 21.312L97.3222 21.2232L97.3222 21.2232L97.5559 21.312ZM97.5213 28.8693L97.286 28.954L97.2876 28.9581L97.5213 28.8693ZM102.236 33.792L102.141 34.0235L102.146 34.0251L102.236 33.792ZM111.249 33.064L111.385 33.2741L111.385 33.2741L111.249 33.064ZM114.439 28.4533L114.677 28.5301L114.782 28.2033H114.439V28.4533ZM110.105 28.4533V28.2033H109.918L109.865 28.3833L110.105 28.4533ZM108.788 30.048L108.928 30.255L108.933 30.2519L108.788 30.048ZM103.033 29.7013L103.207 29.5218L103.207 29.5218L103.033 29.7013ZM109.828 22.8647H101.82V23.3647H109.828V22.8647ZM102.069 23.1313C102.091 22.8045 102.157 22.4277 102.27 21.9996L101.786 21.8724C101.668 22.3225 101.595 22.7315 101.57 23.098L102.069 23.1313ZM102.266 22.0113C102.396 21.6018 102.601 21.2114 102.885 20.8399L102.488 20.5361C102.171 20.9503 101.938 21.392 101.79 21.8607L102.266 22.0113ZM102.88 20.8469C103.178 20.484 103.566 20.1814 104.046 19.9409L103.823 19.4937C103.287 19.7618 102.842 20.1062 102.494 20.5291L102.88 20.8469ZM104.05 19.939C104.537 19.6851 105.153 19.5513 105.911 19.5513V19.0513C105.097 19.0513 104.396 19.1948 103.819 19.4957L104.05 19.939ZM105.911 19.5513C107.07 19.5513 107.879 19.8626 108.393 20.4385L108.766 20.1055C108.125 19.3872 107.155 19.0513 105.911 19.0513V19.5513ZM108.397 20.4421C108.954 21.0424 109.356 21.9395 109.582 23.1602L110.074 23.0691C109.838 21.7939 109.407 20.7958 108.763 20.1019L108.397 20.4421ZM101.82 26.4847H114.751V25.9847H101.82V26.4847ZM115 26.2513C115.094 24.8399 114.977 23.4845 114.646 22.1863L114.162 22.3097C114.478 23.5537 114.592 24.8561 114.501 26.218L115 26.2513ZM114.646 22.1863C114.315 20.8855 113.77 19.7229 113.01 18.7014L112.609 18.9999C113.328 19.966 113.846 21.0683 114.162 22.3097L114.646 22.1863ZM113.012 18.7045C112.271 17.6772 111.316 16.8658 110.15 16.2706L109.922 16.716C111.021 17.2765 111.914 18.0365 112.606 18.9969L113.012 18.7045ZM110.153 16.2725C108.978 15.6491 107.608 15.342 106.049 15.342V15.842C107.541 15.842 108.829 16.1358 109.919 16.7142L110.153 16.2725ZM106.049 15.342C104.655 15.342 103.374 15.5902 102.207 16.0902L102.404 16.5498C103.502 16.0791 104.716 15.842 106.049 15.842V15.342ZM102.205 16.091C101.066 16.5893 100.079 17.2787 99.2463 18.1589L99.6095 18.5025C100.395 17.6724 101.326 17.0213 102.405 16.549L102.205 16.091ZM99.2487 18.1564C98.4145 19.0144 97.7727 20.0378 97.3222 21.2232L97.7896 21.4008C98.2174 20.275 98.8236 19.3109 99.6072 18.5049L99.2487 18.1564ZM97.3222 21.2232C96.8715 22.4094 96.6473 23.6878 96.6473 25.056H97.1473C97.1473 23.7433 97.3622 22.5257 97.7896 21.4008L97.3222 21.2232ZM96.6473 25.056C96.6473 26.4678 96.8591 27.768 97.286 28.954L97.7565 28.7847C97.3514 27.6595 97.1473 26.4175 97.1473 25.056H96.6473ZM97.2876 28.9581C97.7374 30.142 98.3667 31.1645 99.1768 32.0223L99.5403 31.679C98.7789 30.8728 98.1833 29.9078 97.755 28.7805L97.2876 28.9581ZM99.1768 32.0223C99.9888 32.882 100.978 33.5487 102.141 34.0235L102.33 33.5605C101.229 33.1109 100.3 32.4833 99.5403 31.679L99.1768 32.0223ZM102.146 34.0251C103.311 34.477 104.613 34.7007 106.049 34.7007V34.2007C104.666 34.2007 103.426 33.9852 102.326 33.5589L102.146 34.0251ZM106.049 34.7007C108.122 34.7007 109.904 34.2292 111.385 33.2741L111.114 32.8539C109.728 33.7476 108.044 34.2007 106.049 34.2007V34.7007ZM111.385 33.2741C112.88 32.3095 113.971 30.7164 114.677 28.5301L114.201 28.3766C113.519 30.4889 112.484 31.9697 111.114 32.8539L111.385 33.2741ZM114.439 28.2033H110.105V28.7033H114.439V28.2033ZM109.865 28.3833C109.726 28.8621 109.336 29.3521 108.643 29.8441L108.933 30.2519C109.672 29.727 110.161 29.1539 110.345 28.5233L109.865 28.3833ZM108.648 29.841C107.979 30.2943 107.174 30.526 106.223 30.526V31.026C107.259 31.026 108.164 30.7723 108.928 30.255L108.648 29.841ZM106.223 30.526C104.878 30.526 103.886 30.1792 103.207 29.5218L102.859 29.8809C103.66 30.6564 104.794 31.026 106.223 31.026V30.526ZM103.207 29.5218C102.533 28.8689 102.138 27.7886 102.07 26.2238L101.57 26.2455C101.641 27.8701 102.054 29.1009 102.859 29.8809L103.207 29.5218ZM117.67 16.0773V15.8273H117.42V16.0773H117.67ZM117.67 34H117.42V34.25H117.67V34ZM122.593 34V34.25H122.843V34H122.593ZM123.633 21.8667L123.432 21.7181L123.431 21.7196L123.633 21.8667ZM125.158 20.6187L125.267 20.8439L125.267 20.8439L125.158 20.6187ZM128.382 20.2373L128.347 20.4848L128.356 20.4861L128.364 20.4867L128.382 20.2373ZM129.214 20.3413L129.165 20.5865L129.464 20.6463V20.3413H129.214ZM129.214 15.7653H129.464V15.5783L129.285 15.5255L129.214 15.7653ZM126.337 15.8693L126.413 16.1074L126.413 16.1074L126.337 15.8693ZM124.708 16.6667L124.842 16.8777L124.848 16.8732L124.708 16.6667ZM123.356 17.88L123.546 18.042L123.55 18.0373L123.356 17.88ZM122.42 19.4053V19.6553H122.586L122.65 19.5015L122.42 19.4053ZM122.35 19.4053H122.1V19.6553H122.35V19.4053ZM122.35 16.0773H122.6V15.8273H122.35V16.0773ZM117.42 16.0773V34H117.92V16.0773H117.42ZM117.67 34.25H122.593V33.75H117.67V34.25ZM122.843 34V25.9227H122.343V34H122.843ZM122.843 25.9227C122.843 25.1304 122.922 24.3985 123.079 23.7261L122.592 23.6125C122.425 24.3268 122.343 25.0972 122.343 25.9227H122.843ZM123.079 23.7261C123.234 23.061 123.487 22.4918 123.835 22.0137L123.431 21.7196C123.039 22.2584 122.76 22.891 122.592 23.6125L123.079 23.7261ZM123.834 22.0153C124.201 21.518 124.677 21.1276 125.267 20.8439L125.05 20.3934C124.391 20.7106 123.85 21.1522 123.432 21.7181L123.834 22.0153ZM125.267 20.8439C125.848 20.5639 126.572 20.418 127.446 20.418V19.918C126.518 19.918 125.716 20.0725 125.05 20.3934L125.267 20.8439ZM127.446 20.418C127.734 20.418 128.034 20.4401 128.347 20.4848L128.418 19.9898C128.083 19.9421 127.759 19.918 127.446 19.918V20.418ZM128.364 20.4867C128.681 20.5093 128.947 20.5429 129.165 20.5865L129.263 20.0962C129.019 20.0473 128.73 20.0116 128.4 19.988L128.364 20.4867ZM129.464 20.3413V15.7653H128.964V20.3413H129.464ZM129.285 15.5255C128.875 15.4049 128.492 15.342 128.14 15.342V15.842C128.434 15.842 128.768 15.8947 129.144 16.0052L129.285 15.5255ZM128.14 15.342C127.49 15.342 126.864 15.4382 126.261 15.6312L126.413 16.1074C126.965 15.9307 127.541 15.842 128.14 15.842V15.342ZM126.261 15.6312C125.66 15.8236 125.095 16.1001 124.567 16.4601L124.848 16.8732C125.337 16.5399 125.859 16.2849 126.413 16.1074L126.261 15.6312ZM124.573 16.4558C124.041 16.7943 123.57 17.2171 123.161 17.7227L123.55 18.0373C123.926 17.5722 124.357 17.1861 124.842 16.8776L124.573 16.4558ZM123.165 17.7181C122.756 18.1998 122.43 18.7304 122.189 19.3092L122.65 19.5015C122.871 18.9709 123.17 18.4846 123.546 18.0419L123.165 17.7181ZM122.42 19.1553H122.35V19.6553H122.42V19.1553ZM122.6 19.4053V16.0773H122.1V19.4053H122.6ZM122.35 15.8273H117.67V16.3273H122.35V15.8273ZM142.599 23.1147V23.3647H142.899L142.845 23.0691L142.599 23.1147ZM134.591 23.1147L134.341 23.098L134.324 23.3647H134.591V23.1147ZM134.799 21.936L134.56 21.8606L134.557 21.8724L134.799 21.936ZM135.457 20.688L135.264 20.529L135.259 20.5361L135.457 20.688ZM136.705 19.7173L136.817 19.941L136.821 19.939L136.705 19.7173ZM141.351 20.272L141.164 20.4385L141.168 20.4421L141.351 20.272ZM134.591 26.2347V25.9847H134.33L134.341 26.2455L134.591 26.2347ZM147.521 26.2347V26.4847H147.755L147.771 26.2513L147.521 26.2347ZM145.58 18.8507L145.377 18.9969L145.38 18.9999L145.58 18.8507ZM142.807 16.4933L142.69 16.7142L142.693 16.716L142.807 16.4933ZM135.076 16.32L134.978 16.0902L134.976 16.091L135.076 16.32ZM132.199 18.3307L132.378 18.505L132.38 18.5025L132.199 18.3307ZM130.327 21.312L130.093 21.2232L130.093 21.2232L130.327 21.312ZM130.292 28.8693L130.057 28.954L130.058 28.9581L130.292 28.8693ZM135.007 33.792L134.912 34.0235L134.916 34.0251L135.007 33.792ZM144.02 33.064L144.156 33.2741L144.156 33.2741L144.02 33.064ZM147.209 28.4533L147.447 28.5301L147.553 28.2033H147.209V28.4533ZM142.876 28.4533V28.2033H142.689L142.636 28.3833L142.876 28.4533ZM141.559 30.048L141.699 30.255L141.703 30.2519L141.559 30.048ZM135.804 29.7013L135.978 29.5218L135.978 29.5218L135.804 29.7013ZM142.599 22.8647H134.591V23.3647H142.599V22.8647ZM134.84 23.1313C134.862 22.8045 134.928 22.4277 135.041 21.9996L134.557 21.8724C134.439 22.3225 134.366 22.7315 134.341 23.098L134.84 23.1313ZM135.037 22.0113C135.166 21.6018 135.372 21.2114 135.656 20.8399L135.259 20.5361C134.942 20.9503 134.708 21.392 134.56 21.8607L135.037 22.0113ZM135.65 20.8469C135.949 20.484 136.336 20.1814 136.817 19.9409L136.594 19.4937C136.058 19.7618 135.613 20.1062 135.264 20.5291L135.65 20.8469ZM136.821 19.939C137.308 19.6851 137.924 19.5513 138.681 19.5513V19.0513C137.867 19.0513 137.166 19.1948 136.59 19.4957L136.821 19.939ZM138.681 19.5513C139.84 19.5513 140.65 19.8626 141.164 20.4385L141.537 20.1055C140.896 19.3872 139.926 19.0513 138.681 19.0513V19.5513ZM141.168 20.4421C141.725 21.0424 142.127 21.9395 142.353 23.1602L142.845 23.0691C142.608 21.7939 142.178 20.7958 141.534 20.1019L141.168 20.4421ZM134.591 26.4847H147.521V25.9847H134.591V26.4847ZM147.771 26.2513C147.865 24.8399 147.747 23.4845 147.417 22.1863L146.932 22.3097C147.249 23.5537 147.363 24.8561 147.272 26.218L147.771 26.2513ZM147.417 22.1863C147.086 20.8855 146.541 19.7229 145.781 18.7014L145.38 18.9999C146.098 19.966 146.617 21.0683 146.932 22.3097L147.417 22.1863ZM145.783 18.7045C145.042 17.6772 144.087 16.8658 142.92 16.2706L142.693 16.716C143.792 17.2765 144.685 18.0365 145.377 18.9969L145.783 18.7045ZM142.924 16.2725C141.749 15.6491 140.379 15.342 138.82 15.342V15.842C140.312 15.842 141.599 16.1358 142.69 16.7142L142.924 16.2725ZM138.82 15.342C137.426 15.342 136.144 15.5902 134.978 16.0902L135.175 16.5498C136.273 16.0791 137.487 15.842 138.82 15.842V15.342ZM134.976 16.091C133.837 16.5893 132.85 17.2787 132.017 18.1589L132.38 18.5025C133.166 17.6724 134.097 17.0213 135.176 16.549L134.976 16.091ZM132.02 18.1564C131.185 19.0144 130.544 20.0378 130.093 21.2232L130.56 21.4008C130.988 20.275 131.594 19.3109 132.378 18.5049L132.02 18.1564ZM130.093 21.2232C129.642 22.4094 129.418 23.6878 129.418 25.056H129.918C129.918 23.7433 130.133 22.5257 130.56 21.4008L130.093 21.2232ZM129.418 25.056C129.418 26.4678 129.63 27.768 130.057 28.954L130.527 28.7847C130.122 27.6595 129.918 26.4175 129.918 25.056H129.418ZM130.058 28.9581C130.508 30.142 131.138 31.1645 131.948 32.0223L132.311 31.679C131.55 30.8728 130.954 29.9078 130.526 28.7805L130.058 28.9581ZM131.948 32.0223C132.76 32.882 133.749 33.5487 134.912 34.0235L135.101 33.5605C134 33.1109 133.071 32.4833 132.311 31.679L131.948 32.0223ZM134.916 34.0251C136.082 34.477 137.384 34.7007 138.82 34.7007V34.2007C137.436 34.2007 136.197 33.9852 135.097 33.5589L134.916 34.0251ZM138.82 34.7007C140.893 34.7007 142.675 34.2292 144.156 33.2741L143.885 32.8539C142.499 33.7476 140.815 34.2007 138.82 34.2007V34.7007ZM144.156 33.2741C145.651 32.3095 146.742 30.7164 147.447 28.5301L146.972 28.3766C146.29 30.4889 145.255 31.9697 143.885 32.8539L144.156 33.2741ZM147.209 28.2033H142.876V28.7033H147.209V28.2033ZM142.636 28.3833C142.496 28.8621 142.107 29.3521 141.414 29.8441L141.703 30.2519C142.443 29.727 142.932 29.1539 143.116 28.5233L142.636 28.3833ZM141.419 29.841C140.749 30.2943 139.945 30.526 138.993 30.526V31.026C140.03 31.026 140.935 30.7723 141.699 30.255L141.419 29.841ZM138.993 30.526C137.649 30.526 136.657 30.1792 135.978 29.5218L135.63 29.8809C136.431 30.6564 137.565 31.026 138.993 31.026V30.526ZM135.978 29.5218C135.304 28.8689 134.909 27.7886 134.841 26.2238L134.341 26.2455C134.412 27.8701 134.825 29.1009 135.63 29.8809L135.978 29.5218ZM150.441 16.0773V15.8273H150.191V16.0773H150.441ZM150.441 34H150.191V34.25H150.441V34ZM155.364 34V34.25H155.614V34H155.364ZM156.265 20.688L156.464 20.8399L156.466 20.8371L156.265 20.688ZM161.638 20.584L161.426 20.7165L161.428 20.7195L161.638 20.584ZM162.332 34H162.082V34.25H162.332V34ZM167.254 34V34.25H167.504V34H167.254ZM166.942 19.96L166.697 20.009L166.699 20.0162L166.942 19.96ZM165.937 17.6373L165.737 17.7874L165.74 17.7908L165.937 17.6373ZM163.926 16.1467L163.825 16.3752L163.832 16.3783L163.926 16.1467ZM157.652 16.32L157.757 16.5467L157.761 16.5446L157.652 16.32ZM155.225 18.5733V18.8233H155.367L155.439 18.702L155.225 18.5733ZM155.121 18.5733H154.871V18.8233H155.121V18.5733ZM155.121 16.0773H155.371V15.8273H155.121V16.0773ZM150.191 16.0773V34H150.691V16.0773H150.191ZM150.441 34.25H155.364V33.75H150.441V34.25ZM155.614 34V24.6053H155.114V34H155.614ZM155.614 24.6053C155.614 22.794 155.914 21.5582 156.464 20.8399L156.066 20.5361C155.414 21.3894 155.114 22.7651 155.114 24.6053H155.614ZM156.466 20.8371C157.005 20.1115 157.887 19.7247 159.177 19.7247V19.2247C157.786 19.2247 156.727 19.6468 156.064 20.5389L156.466 20.8371ZM159.177 19.7247C160.303 19.7247 161.025 20.0747 161.426 20.7165L161.85 20.4515C161.327 19.6142 160.408 19.2247 159.177 19.2247V19.7247ZM161.428 20.7195C161.852 21.3756 162.082 22.4152 162.082 23.8773H162.582C162.582 22.3812 162.35 21.2253 161.848 20.4485L161.428 20.7195ZM162.082 23.8773V34H162.582V23.8773H162.082ZM162.332 34.25H167.254V33.75H162.332V34.25ZM167.504 34V22.976H167.004V34H167.504ZM167.504 22.976C167.504 21.8514 167.399 20.8268 167.186 19.9038L166.699 20.0162C166.902 20.8959 167.004 21.882 167.004 22.976H167.504ZM167.187 19.911C166.996 18.9557 166.648 18.1438 166.134 17.4838L165.74 17.7908C166.197 18.3788 166.518 19.1154 166.697 20.009L167.187 19.911ZM166.137 17.4873C165.621 16.799 164.911 16.2763 164.02 15.915L163.832 16.3783C164.651 16.7104 165.283 17.1815 165.737 17.7873L166.137 17.4873ZM164.028 15.9182C163.153 15.5294 162.04 15.342 160.702 15.342V15.842C161.999 15.842 163.036 16.0244 163.825 16.3751L164.028 15.9182ZM160.702 15.342C159.622 15.342 158.568 15.5944 157.542 16.0954L157.761 16.5446C158.723 16.0749 159.703 15.842 160.702 15.842V15.342ZM157.546 16.0933C156.502 16.5788 155.657 17.3666 155.011 18.4447L155.439 18.702C156.041 17.7 156.813 16.9856 157.757 16.5467L157.546 16.0933ZM155.225 18.3233H155.121V18.8233H155.225V18.3233ZM155.371 18.5733V16.0773H154.871V18.5733H155.371ZM155.121 15.8273H150.441V16.3273H155.121V15.8273ZM183.193 22.3867L182.946 22.4255L182.979 22.6367H183.193V22.3867ZM188.012 22.3867V22.6367H188.277L188.261 22.3717L188.012 22.3867ZM187.18 19.4053L186.962 19.5287L186.964 19.5313L187.18 19.4053ZM185.273 17.2907L185.122 17.4901L185.129 17.4949L185.273 17.2907ZM182.639 16.008L182.57 16.2484L182.571 16.2488L182.639 16.008ZM175.705 16.32L175.607 16.0902L175.607 16.0902L175.705 16.32ZM172.828 18.3653L173.012 18.5345L173.014 18.532L172.828 18.3653ZM171.025 21.4507L170.789 21.3689L170.788 21.3716L171.025 21.4507ZM171.094 29.008L170.861 29.0984L170.862 29.1L171.094 29.008ZM172.932 31.8853L173.111 31.7111L173.111 31.7111L172.932 31.8853ZM175.775 33.792L175.678 34.0228L175.684 34.0251L175.775 33.792ZM185.343 32.5787L185.501 32.7722L185.501 32.7722L185.343 32.5787ZM188.116 27.136L188.364 27.1697L188.402 26.886H188.116V27.136ZM183.367 27.136V26.886H183.15L183.119 27.0999L183.367 27.136ZM182.153 29.8053L181.973 29.6317L181.973 29.6318L182.153 29.8053ZM177.508 30.256L177.371 30.4654L177.508 30.256ZM176.225 28.9387L176.005 29.0579L176.012 29.0687L176.225 28.9387ZM175.567 27.1013L175.811 27.0507L175.811 27.0507L175.567 27.1013ZM175.567 23.1147L175.811 23.1653L175.812 23.1637L175.567 23.1147ZM176.26 21.2427L176.045 21.114L176.044 21.1167L176.26 21.2427ZM177.577 19.856L177.714 20.0655L177.72 20.0612L177.577 19.856ZM183.193 22.6367H188.012V22.1367H183.193V22.6367ZM188.261 22.3717C188.19 21.1848 187.904 20.1514 187.396 19.2794L186.964 19.5313C187.426 20.3233 187.695 21.2774 187.762 22.4016L188.261 22.3717ZM187.397 19.2819C186.894 18.3955 186.234 17.6628 185.417 17.0864L185.129 17.4949C185.884 18.0279 186.495 18.7049 186.962 19.5287L187.397 19.2819ZM185.424 17.0914C184.635 16.4932 183.727 16.0523 182.706 15.7672L182.571 16.2488C183.537 16.5183 184.387 16.9326 185.122 17.4899L185.424 17.0914ZM182.707 15.7676C181.713 15.4836 180.673 15.342 179.588 15.342V15.842C180.629 15.842 181.623 15.9778 182.57 16.2484L182.707 15.7676ZM179.588 15.342C178.104 15.342 176.775 15.5893 175.607 16.0902L175.804 16.5498C176.9 16.08 178.16 15.842 179.588 15.842V15.342ZM175.607 16.0902C174.442 16.5892 173.453 17.292 172.642 18.1986L173.014 18.532C173.774 17.6822 174.703 17.0214 175.804 16.5498L175.607 16.0902ZM172.644 18.1962C171.833 19.0788 171.215 20.1378 170.789 21.3689L171.261 21.5324C171.667 20.36 172.251 19.362 173.012 18.5345L172.644 18.1962ZM170.788 21.3716C170.386 22.5785 170.186 23.8882 170.186 25.2987H170.686C170.686 23.9358 170.879 22.6801 171.262 21.5297L170.788 21.3716ZM170.186 25.2987C170.186 26.6668 170.41 27.9343 170.861 29.0984L171.328 28.9176C170.901 27.8168 170.686 26.6114 170.686 25.2987H170.186ZM170.862 29.1C171.313 30.2382 171.942 31.2257 172.753 32.0595L173.111 31.7111C172.35 30.9272 171.755 29.9965 171.327 28.916L170.862 29.1ZM172.753 32.0595C173.563 32.8943 174.54 33.5484 175.678 34.0228L175.871 33.5612C174.791 33.1112 173.872 32.4942 173.111 31.7111L172.753 32.0595ZM175.684 34.0251C176.848 34.4765 178.116 34.7007 179.484 34.7007V34.2007C178.171 34.2007 176.966 33.9857 175.865 33.5589L175.684 34.0251ZM179.484 34.7007C181.91 34.7007 183.922 34.0639 185.501 32.7722L185.184 32.3852C183.712 33.5895 181.819 34.2007 179.484 34.2007V34.7007ZM185.501 32.7722C187.085 31.4757 188.033 29.5983 188.364 27.1697L187.868 27.1023C187.551 29.4346 186.65 31.1856 185.184 32.3852L185.501 32.7722ZM188.116 26.886H183.367V27.386H188.116V26.886ZM183.119 27.0999C182.963 28.1682 182.577 29.0063 181.973 29.6317L182.333 29.979C183.023 29.264 183.446 28.3224 183.614 27.1721L183.119 27.0999ZM181.973 29.6318C181.41 30.2162 180.582 30.526 179.449 30.526V31.026C180.674 31.026 181.649 30.6887 182.333 29.9789L181.973 29.6318ZM179.449 30.526C178.725 30.526 178.128 30.3618 177.644 30.0466L177.371 30.4654C177.951 30.8435 178.648 31.026 179.449 31.026V30.526ZM177.644 30.0466C177.143 29.7199 176.742 29.3077 176.439 28.8087L176.012 29.0687C176.355 29.6327 176.809 30.0988 177.371 30.4654L177.644 30.0466ZM176.445 28.8196C176.157 28.2881 175.945 27.699 175.811 27.0507L175.322 27.152C175.465 27.8441 175.692 28.4799 176.005 29.0577L176.445 28.8196ZM175.811 27.0507C175.676 26.3962 175.609 25.7545 175.609 25.1253H175.109C175.109 25.7904 175.18 26.4661 175.322 27.152L175.811 27.0507ZM175.609 25.1253C175.609 24.4725 175.676 23.8192 175.811 23.1653L175.322 23.064C175.18 23.7505 175.109 24.4377 175.109 25.1253H175.609ZM175.812 23.1637C175.945 22.4947 176.167 21.8972 176.476 21.3686L176.044 21.1167C175.705 21.6975 175.465 22.3479 175.321 23.0656L175.812 23.1637ZM176.474 21.3713C176.803 20.8239 177.216 20.3901 177.714 20.0654L177.441 19.6466C176.875 20.0152 176.41 20.5058 176.045 21.114L176.474 21.3713ZM177.72 20.0612C178.201 19.7263 178.807 19.5513 179.553 19.5513V19.0513C178.727 19.0513 178.016 19.2461 177.434 19.6508L177.72 20.0612ZM179.553 19.5513C180.565 19.5513 181.33 19.7983 181.879 20.2634C182.427 20.7282 182.791 21.4377 182.946 22.4255L183.44 22.3478C183.272 21.2788 182.867 20.4456 182.202 19.882C181.538 19.3186 180.645 19.0513 179.553 19.0513V19.5513ZM202.961 23.1147V23.3647H203.261L203.207 23.0691L202.961 23.1147ZM194.953 23.1147L194.703 23.098L194.686 23.3647H194.953V23.1147ZM195.161 21.936L194.922 21.8606L194.919 21.8724L195.161 21.936ZM195.819 20.688L195.626 20.529L195.621 20.5361L195.819 20.688ZM197.067 19.7173L197.179 19.941L197.183 19.939L197.067 19.7173ZM201.713 20.272L201.526 20.4385L201.53 20.4421L201.713 20.272ZM194.953 26.2347V25.9847H194.692L194.703 26.2455L194.953 26.2347ZM207.883 26.2347V26.4847H208.117L208.133 26.2513L207.883 26.2347ZM205.942 18.8507L205.739 18.9969L205.742 18.9999L205.942 18.8507ZM203.169 16.4933L203.052 16.7142L203.055 16.716L203.169 16.4933ZM195.438 16.32L195.34 16.0902L195.338 16.091L195.438 16.32ZM192.561 18.3307L192.74 18.505L192.742 18.5025L192.561 18.3307ZM190.689 21.312L190.455 21.2232L190.455 21.2232L190.689 21.312ZM190.654 28.8693L190.419 28.954L190.42 28.9581L190.654 28.8693ZM195.369 33.792L195.274 34.0235L195.278 34.0251L195.369 33.792ZM204.382 33.064L204.518 33.2741L204.518 33.2741L204.382 33.064ZM207.571 28.4533L207.809 28.5301L207.915 28.2033H207.571V28.4533ZM203.238 28.4533V28.2033H203.051L202.998 28.3833L203.238 28.4533ZM201.921 30.048L202.061 30.255L202.065 30.2519L201.921 30.048ZM196.166 29.7013L196.34 29.5218L196.34 29.5218L196.166 29.7013ZM202.961 22.8647H194.953V23.3647H202.961V22.8647ZM195.202 23.1313C195.224 22.8045 195.29 22.4277 195.403 21.9996L194.919 21.8724C194.801 22.3225 194.728 22.7315 194.703 23.098L195.202 23.1313ZM195.399 22.0113C195.528 21.6018 195.734 21.2114 196.018 20.8399L195.621 20.5361C195.304 20.9503 195.07 21.392 194.922 21.8607L195.399 22.0113ZM196.012 20.8469C196.311 20.484 196.698 20.1814 197.179 19.9409L196.956 19.4937C196.42 19.7618 195.975 20.1062 195.626 20.5291L196.012 20.8469ZM197.183 19.939C197.67 19.6851 198.286 19.5513 199.043 19.5513V19.0513C198.229 19.0513 197.528 19.1948 196.952 19.4957L197.183 19.939ZM199.043 19.5513C200.202 19.5513 201.012 19.8626 201.526 20.4385L201.899 20.1055C201.258 19.3872 200.288 19.0513 199.043 19.0513V19.5513ZM201.53 20.4421C202.087 21.0424 202.489 21.9395 202.715 23.1602L203.207 23.0691C202.97 21.7939 202.54 20.7958 201.896 20.1019L201.53 20.4421ZM194.953 26.4847H207.883V25.9847H194.953V26.4847ZM208.133 26.2513C208.227 24.8399 208.109 23.4845 207.779 22.1863L207.294 22.3097C207.611 23.5537 207.725 24.8561 207.634 26.218L208.133 26.2513ZM207.779 22.1863C207.448 20.8855 206.903 19.7229 206.143 18.7014L205.742 18.9999C206.46 19.966 206.978 21.0683 207.294 22.3097L207.779 22.1863ZM206.145 18.7045C205.404 17.6772 204.449 16.8658 203.282 16.2706L203.055 16.716C204.154 17.2765 205.047 18.0365 205.739 18.9969L206.145 18.7045ZM203.286 16.2725C202.111 15.6491 200.741 15.342 199.182 15.342V15.842C200.674 15.842 201.961 16.1358 203.052 16.7142L203.286 16.2725ZM199.182 15.342C197.788 15.342 196.506 15.5902 195.34 16.0902L195.537 16.5498C196.635 16.0791 197.849 15.842 199.182 15.842V15.342ZM195.338 16.091C194.199 16.5893 193.212 17.2787 192.379 18.1589L192.742 18.5025C193.528 17.6724 194.459 17.0213 195.538 16.549L195.338 16.091ZM192.382 18.1564C191.547 19.0144 190.905 20.0378 190.455 21.2232L190.922 21.4008C191.35 20.275 191.956 19.3109 192.74 18.5049L192.382 18.1564ZM190.455 21.2232C190.004 22.4094 189.78 23.6878 189.78 25.056H190.28C190.28 23.7433 190.495 22.5257 190.922 21.4008L190.455 21.2232ZM189.78 25.056C189.78 26.4678 189.992 27.768 190.419 28.954L190.889 28.7847C190.484 27.6595 190.28 26.4175 190.28 25.056H189.78ZM190.42 28.9581C190.87 30.142 191.5 31.1645 192.31 32.0223L192.673 31.679C191.912 30.8728 191.316 29.9078 190.888 28.7805L190.42 28.9581ZM192.31 32.0223C193.122 32.882 194.111 33.5487 195.274 34.0235L195.463 33.5605C194.361 33.1109 193.433 32.4833 192.673 31.679L192.31 32.0223ZM195.278 34.0251C196.444 34.477 197.746 34.7007 199.182 34.7007V34.2007C197.798 34.2007 196.559 33.9852 195.459 33.5589L195.278 34.0251ZM199.182 34.7007C201.255 34.7007 203.037 34.2292 204.518 33.2741L204.247 32.8539C202.861 33.7476 201.177 34.2007 199.182 34.2007V34.7007ZM204.518 33.2741C206.013 32.3095 207.104 30.7164 207.809 28.5301L207.333 28.3766C206.652 30.4889 205.617 31.9697 204.247 32.8539L204.518 33.2741ZM207.571 28.2033H203.238V28.7033H207.571V28.2033ZM202.998 28.3833C202.858 28.8621 202.469 29.3521 201.776 29.8441L202.065 30.2519C202.805 29.727 203.294 29.1539 203.478 28.5233L202.998 28.3833ZM201.781 29.841C201.111 30.2943 200.307 30.526 199.355 30.526V31.026C200.392 31.026 201.297 30.7723 202.061 30.255L201.781 29.841ZM199.355 30.526C198.011 30.526 197.019 30.1792 196.34 29.5218L195.992 29.8809C196.793 30.6564 197.927 31.026 199.355 31.026V30.526ZM196.34 29.5218C195.666 28.8689 195.271 27.7886 195.203 26.2238L194.703 26.2455C194.774 27.8701 195.187 29.1009 195.992 29.8809L196.34 29.5218ZM220.971 9.248V8.998H220.721V9.248H220.971ZM220.971 34H220.721V34.25H220.971V34ZM226.414 34V34.25H226.664V34H226.414ZM226.414 9.248H226.664V8.998H226.414V9.248ZM220.721 9.248V34H221.221V9.248H220.721ZM220.971 34.25H226.414V33.75H220.971V34.25ZM226.664 34V9.248H226.164V34H226.664ZM226.414 8.998H220.971V9.498H226.414V8.998ZM230.675 16.0773V15.8273H230.425V16.0773H230.675ZM230.675 34H230.425V34.25H230.675V34ZM235.598 34V34.25H235.848V34H235.598ZM236.499 20.688L236.698 20.8399L236.7 20.8371L236.499 20.688ZM241.873 20.584L241.661 20.7165L241.663 20.7195L241.873 20.584ZM242.566 34H242.316V34.25H242.566V34ZM247.489 34V34.25H247.739V34H247.489ZM247.177 19.96L246.931 20.009L246.933 20.0162L247.177 19.96ZM246.171 17.6373L245.971 17.7874L245.974 17.7908L246.171 17.6373ZM244.161 16.1467L244.059 16.3752L244.067 16.3783L244.161 16.1467ZM237.886 16.32L237.992 16.5467L237.996 16.5446L237.886 16.32ZM235.459 18.5733V18.8233H235.601L235.674 18.702L235.459 18.5733ZM235.355 18.5733H235.105V18.8233H235.355V18.5733ZM235.355 16.0773H235.605V15.8273H235.355V16.0773ZM230.425 16.0773V34H230.925V16.0773H230.425ZM230.675 34.25H235.598V33.75H230.675V34.25ZM235.848 34V24.6053H235.348V34H235.848ZM235.848 24.6053C235.848 22.794 236.149 21.5582 236.698 20.8399L236.301 20.5361C235.648 21.3894 235.348 22.7651 235.348 24.6053H235.848ZM236.7 20.8371C237.239 20.1115 238.122 19.7247 239.411 19.7247V19.2247C238.02 19.2247 236.961 19.6468 236.299 20.5389L236.7 20.8371ZM239.411 19.7247C240.538 19.7247 241.26 20.0747 241.661 20.7165L242.085 20.4515C241.561 19.6142 240.642 19.2247 239.411 19.2247V19.7247ZM241.663 20.7195C242.086 21.3756 242.316 22.4152 242.316 23.8773H242.816C242.816 22.3812 242.584 21.2253 242.083 20.4485L241.663 20.7195ZM242.316 23.8773V34H242.816V23.8773H242.316ZM242.566 34.25H247.489V33.75H242.566V34.25ZM247.739 34V22.976H247.239V34H247.739ZM247.739 22.976C247.739 21.8514 247.633 20.8268 247.42 19.9038L246.933 20.0162C247.136 20.8959 247.239 21.882 247.239 22.976H247.739ZM247.422 19.911C247.231 18.9557 246.882 18.1438 246.369 17.4838L245.974 17.7908C246.431 18.3788 246.753 19.1154 246.932 20.009L247.422 19.911ZM246.371 17.4873C245.855 16.799 245.146 16.2763 244.255 15.915L244.067 16.3783C244.886 16.7104 245.517 17.1815 245.971 17.7873L246.371 17.4873ZM244.262 15.9182C243.387 15.5294 242.275 15.342 240.937 15.342V15.842C242.233 15.842 243.27 16.0244 244.059 16.3751L244.262 15.9182ZM240.937 15.342C239.856 15.342 238.802 15.5944 237.776 16.0954L237.996 16.5446C238.958 16.0749 239.937 15.842 240.937 15.842V15.342ZM237.781 16.0933C236.737 16.5788 235.892 17.3666 235.245 18.4447L235.674 18.702C236.275 17.7 237.048 16.9856 237.991 16.5467L237.781 16.0933ZM235.459 18.3233H235.355V18.8233H235.459V18.3233ZM235.605 18.5733V16.0773H235.105V18.5733H235.605ZM235.355 15.8273H230.675V16.3273H235.355V15.8273ZM252.3 19.3707H252.55V19.1207H252.3V19.3707ZM252.3 34H252.05V34.25H252.3V34ZM257.222 34V34.25H257.472V34H257.222ZM257.222 19.3707V19.1207H256.972V19.3707H257.222ZM260.62 19.3707V19.6207H260.87V19.3707H260.62ZM260.62 16.0773H260.87V15.8273H260.62V16.0773ZM257.222 16.0773H256.972V16.3273H257.222V16.0773ZM257.638 13.4427L257.455 13.2726L257.455 13.2731L257.638 13.4427ZM260.897 13.0613L260.867 13.3096L261.147 13.3431V13.0613H260.897ZM260.897 9.38666H261.147V9.15017L260.911 9.13705L260.897 9.38666ZM259.614 9.31733L259.588 9.5663L259.601 9.56699L259.614 9.31733ZM253.79 10.7733L253.969 10.9481L253.969 10.9481L253.79 10.7733ZM252.3 16.0773V16.3273H252.55V16.0773H252.3ZM249.353 16.0773V15.8273H249.103V16.0773H249.353ZM249.353 19.3707H249.103V19.6207H249.353V19.3707ZM252.05 19.3707V34H252.55V19.3707H252.05ZM252.3 34.25H257.222V33.75H252.3V34.25ZM257.472 34V19.3707H256.972V34H257.472ZM257.222 19.6207H260.62V19.1207H257.222V19.6207ZM260.87 19.3707V16.0773H260.37V19.3707H260.87ZM260.62 15.8273H257.222V16.3273H260.62V15.8273ZM257.472 16.0773V15.0027H256.972V16.0773H257.472ZM257.472 15.0027C257.472 14.2802 257.61 13.8413 257.822 13.6122L257.455 13.2731C257.111 13.6449 256.972 14.246 256.972 15.0027H257.472ZM257.821 13.6128C258.055 13.3615 258.458 13.2073 259.094 13.2073V12.7073C258.39 12.7073 257.823 12.8767 257.455 13.2726L257.821 13.6128ZM259.094 13.2073C259.709 13.2073 260.3 13.2415 260.867 13.3096L260.927 12.8131C260.338 12.7425 259.727 12.7073 259.094 12.7073V13.2073ZM261.147 13.0613V9.38666H260.647V13.0613H261.147ZM260.911 9.13705C260.494 9.11392 260.067 9.0908 259.627 9.06768L259.601 9.56699C260.04 9.59009 260.467 9.61318 260.883 9.63628L260.911 9.13705ZM259.64 9.06871C259.193 9.02157 258.745 8.998 258.297 8.998V9.498C258.727 9.498 259.158 9.52065 259.588 9.56596L259.64 9.06871ZM258.297 8.998C256.247 8.998 254.669 9.51654 253.611 10.5986L253.969 10.9481C254.899 9.99634 256.325 9.498 258.297 9.498V8.998ZM253.611 10.5986C252.566 11.668 252.05 13.0393 252.05 14.6907H252.55C252.55 13.1527 253.027 11.9124 253.969 10.9481L253.611 10.5986ZM252.05 14.6907V16.0773H252.55V14.6907H252.05ZM252.3 15.8273H249.353V16.3273H252.3V15.8273ZM249.103 16.0773V19.3707H249.603V16.0773H249.103ZM249.353 19.6207H252.3V19.1207H249.353V19.6207ZM268.038 21.104L267.829 20.9674L267.825 20.974L268.038 21.104ZM269.39 19.8213L269.517 20.0374L269.523 20.0333L269.39 19.8213ZM273.55 19.8213L273.418 20.0336L273.428 20.0395L273.55 19.8213ZM274.902 21.104L274.689 21.234L274.693 21.2406L274.902 21.104ZM275.63 22.9413L275.385 22.9904L275.385 22.9904L275.63 22.9413ZM275.63 27.1707L275.875 27.2213L275.876 27.2197L275.63 27.1707ZM274.902 29.008L274.69 28.8755L274.689 28.878L274.902 29.008ZM273.55 30.2907L273.428 30.0725L273.425 30.0747L273.55 30.2907ZM269.39 30.2907L269.265 30.5066L269.265 30.5066L269.39 30.2907ZM268.038 29.008L267.822 29.1341L267.829 29.1446L268.038 29.008ZM267.345 27.1707L267.1 27.2197L267.1 27.2213L267.345 27.1707ZM262.873 28.9387L263.107 28.8499L263.107 28.8499L262.873 28.9387ZM264.745 31.92L264.566 32.0943L264.568 32.0968L264.745 31.92ZM267.657 33.792L267.567 34.0251L267.567 34.0251L267.657 33.792ZM275.284 33.792L275.195 33.5583L275.193 33.5589L275.284 33.792ZM278.23 31.92L278.407 32.0968L278.41 32.0943L278.23 31.92ZM280.102 28.9387L279.869 28.8499L279.869 28.8499L280.102 28.9387ZM280.102 21.1733L279.868 21.2606L279.869 21.2621L280.102 21.1733ZM278.23 18.192L278.051 18.3663L278.054 18.3688L278.23 18.192ZM275.284 16.2853L275.189 16.5169L275.195 16.519L275.284 16.2853ZM267.657 16.2853L267.748 16.5185L267.752 16.5168L267.657 16.2853ZM264.745 18.192L264.922 18.3688L264.924 18.3663L264.745 18.192ZM262.873 21.1733L263.107 21.2621L263.107 21.2606L262.873 21.1733ZM267.387 25.056C267.387 24.3558 267.455 23.6673 267.59 22.9904L267.1 22.8923C266.958 23.602 266.887 24.3233 266.887 25.056H267.387ZM267.59 22.9904C267.724 22.3218 267.946 21.7375 268.252 21.234L267.825 20.974C267.484 21.5337 267.244 22.1742 267.1 22.8923L267.59 22.9904ZM268.248 21.2406C268.573 20.742 268.995 20.3415 269.516 20.0373L269.265 19.6054C268.677 19.9483 268.197 20.4029 267.829 20.9674L268.248 21.2406ZM269.523 20.0333C270.028 19.7174 270.673 19.5513 271.47 19.5513V19.0513C270.604 19.0513 269.862 19.2319 269.258 19.6093L269.523 20.0333ZM271.47 19.5513C272.268 19.5513 272.913 19.7174 273.418 20.0333L273.683 19.6093C273.079 19.2319 272.337 19.0513 271.47 19.0513V19.5513ZM273.428 20.0395C273.971 20.3434 274.389 20.7416 274.689 21.234L275.116 20.974C274.769 20.4033 274.285 19.9464 273.673 19.6032L273.428 20.0395ZM274.693 21.2406C275.021 21.7426 275.252 22.3247 275.385 22.9904L275.876 22.8923C275.731 22.1713 275.478 21.5285 275.112 20.9674L274.693 21.2406ZM275.385 22.9904C275.521 23.6673 275.588 24.3558 275.588 25.056H276.088C276.088 24.3233 276.018 23.602 275.876 22.8923L275.385 22.9904ZM275.588 25.056C275.588 25.7562 275.521 26.4447 275.385 27.1216L275.876 27.2197C276.018 26.51 276.088 25.7887 276.088 25.056H275.588ZM275.386 27.12C275.253 27.7626 275.021 28.3471 274.69 28.8755L275.114 29.1405C275.478 28.5596 275.731 27.9192 275.875 27.2213L275.386 27.12ZM274.689 28.878C274.389 29.3704 273.971 29.7686 273.428 30.0725L273.673 30.5088C274.285 30.1656 274.769 29.7087 275.116 29.138L274.689 28.878ZM273.425 30.0747C272.918 30.3703 272.271 30.526 271.47 30.526V31.026C272.334 31.026 273.074 30.8581 273.676 30.5066L273.425 30.0747ZM271.47 30.526C270.67 30.526 270.023 30.3703 269.516 30.0747L269.265 30.5066C269.867 30.8581 270.607 31.026 271.47 31.026V30.526ZM269.516 30.0747C268.995 29.7705 268.573 29.37 268.248 28.8714L267.829 29.1446C268.197 29.7091 268.677 30.1637 269.265 30.5066L269.516 30.0747ZM268.254 28.882C267.945 28.3522 267.724 27.7655 267.59 27.12L267.1 27.2213C267.244 27.9163 267.484 28.5544 267.823 29.134L268.254 28.882ZM267.59 27.1216C267.455 26.4447 267.387 25.7562 267.387 25.056H266.887C266.887 25.7887 266.958 26.51 267.1 27.2197L267.59 27.1216ZM261.964 25.056C261.964 26.5145 262.188 27.8394 262.639 29.0275L263.107 28.8499C262.68 27.7268 262.464 26.4633 262.464 25.056H261.964ZM262.639 29.0275C263.09 30.2128 263.732 31.2362 264.566 32.0943L264.924 31.7457C264.141 30.9398 263.535 29.9756 263.107 28.8499L262.639 29.0275ZM264.568 32.0968C265.403 32.9317 266.404 33.5742 267.567 34.0251L267.748 33.5589C266.645 33.1316 265.705 32.526 264.922 31.7432L264.568 32.0968ZM267.567 34.0251C268.732 34.477 270.035 34.7007 271.47 34.7007V34.2007C270.087 34.2007 268.847 33.9852 267.748 33.5589L267.567 34.0251ZM271.47 34.7007C272.906 34.7007 274.209 34.477 275.374 34.0251L275.193 33.5589C274.094 33.9852 272.854 34.2007 271.47 34.2007V34.7007ZM275.373 34.0257C276.559 33.5751 277.571 32.9326 278.407 32.0968L278.054 31.7432C277.272 32.5252 276.32 33.1307 275.195 33.5583L275.373 34.0257ZM278.41 32.0943C279.244 31.2362 279.886 30.2128 280.336 29.0275L279.869 28.8499C279.441 29.9756 278.835 30.9398 278.051 31.7457L278.41 32.0943ZM280.336 29.0275C280.788 27.8394 281.011 26.5145 281.011 25.056H280.511C280.511 26.4633 280.296 27.7268 279.869 28.8499L280.336 29.0275ZM281.011 25.056C281.011 23.5975 280.788 22.2726 280.336 21.0845L279.869 21.2621C280.296 22.3852 280.511 23.6487 280.511 25.056H281.011ZM280.337 21.0861C279.886 19.8772 279.244 18.8519 278.407 18.0152L278.054 18.3688C278.835 19.1499 279.44 20.1122 279.868 21.2606L280.337 21.0861ZM278.41 18.0177C277.574 17.1579 276.56 16.5029 275.373 16.0516L275.195 16.519C276.319 16.946 277.269 17.5621 278.051 18.3663L278.41 18.0177ZM275.378 16.0539C274.212 15.5777 272.908 15.342 271.47 15.342V15.842C272.853 15.842 274.091 16.0685 275.189 16.5168L275.378 16.0539ZM271.47 15.342C270.033 15.342 268.729 15.5777 267.563 16.0539L267.752 16.5168C268.85 16.0685 270.088 15.842 271.47 15.842V15.342ZM267.567 16.0522C266.402 16.5037 265.401 17.1588 264.566 18.0177L264.924 18.3663C265.707 17.5612 266.647 16.9452 267.748 16.5184L267.567 16.0522ZM264.568 18.0152C263.732 18.8519 263.089 19.8772 262.639 21.0861L263.107 21.2606C263.535 20.1122 264.141 19.1499 264.922 18.3688L264.568 18.0152ZM262.639 21.0845C262.188 22.2726 261.964 23.5975 261.964 25.056H262.464C262.464 23.6487 262.68 22.3852 263.107 21.2621L262.639 21.0845Z" fill="white"/>
<path d="M38 49H262" stroke="#FED307" stroke-width="4"/>
</svg>
