<svg width="175" height="51" viewBox="0 0 175 51" fill="none" xmlns="http://www.w3.org/2000/svg">
<rect y="26" width="175" height="13" fill="#68256C"/>
<path d="M6.99226 9.248V34H12.4349V23.3227H22.4536V34H27.8963V9.248H22.4536V18.7467H12.4349V9.248H6.99226ZM37.2289 13.304V9.248H32.3062V13.304H37.2289ZM32.3062 16.0773V34H37.2289V16.0773H32.3062ZM49.4597 29.7707C48.6971 29.7707 48.0615 29.6089 47.5531 29.2853C47.0446 28.9618 46.6286 28.5458 46.3051 28.0373C46.0046 27.5289 45.7851 26.9627 45.6464 26.3387C45.5308 25.6916 45.4731 25.0444 45.4731 24.3973C45.4731 23.7271 45.5424 23.0916 45.6811 22.4907C45.8428 21.8667 46.0855 21.3236 46.4091 20.8613C46.7557 20.376 47.1717 19.9947 47.6571 19.7173C48.1655 19.44 48.7664 19.3013 49.4597 19.3013C50.2686 19.3013 50.9388 19.4516 51.4704 19.752C52.002 20.0524 52.4295 20.4569 52.7531 20.9653C53.0766 21.4738 53.3077 22.0631 53.4464 22.7333C53.5851 23.3804 53.6544 24.0738 53.6544 24.8133C53.6544 25.4604 53.562 26.0844 53.3771 26.6853C53.2153 27.2631 52.9611 27.7831 52.6144 28.2453C52.2677 28.7076 51.8286 29.0773 51.2971 29.3547C50.7655 29.632 50.1531 29.7707 49.4597 29.7707ZM58.3344 32.856V16.0773H53.6544V18.4693H53.5851C52.9842 17.4293 52.2331 16.6898 51.3317 16.2507C50.4535 15.8116 49.4251 15.592 48.2464 15.592C46.9984 15.592 45.8891 15.8347 44.9184 16.32C43.9708 16.8053 43.1735 17.464 42.5264 18.296C41.8793 19.1049 41.3824 20.0524 41.0357 21.1387C40.7122 22.2018 40.5504 23.3111 40.5504 24.4667C40.5504 25.6916 40.6891 26.8587 40.9664 27.968C41.2668 29.0542 41.7291 30.0133 42.3531 30.8453C42.9771 31.6542 43.7744 32.3013 44.7451 32.7867C45.7157 33.2489 46.8713 33.48 48.2117 33.48C49.298 33.48 50.3264 33.2604 51.2971 32.8213C52.2908 32.3591 53.0535 31.6542 53.5851 30.7067H53.6544V33.064C53.6775 34.3351 53.3655 35.3867 52.7184 36.2187C52.0944 37.0507 51.0891 37.4667 49.7024 37.4667C48.8242 37.4667 48.05 37.2818 47.3797 36.912C46.7095 36.5653 46.2588 35.9298 46.0277 35.0053H41.1397C41.2091 36.0222 41.4864 36.8889 41.9717 37.6053C42.4802 38.3449 43.1042 38.9458 43.8437 39.408C44.6064 39.8702 45.4384 40.2053 46.3397 40.4133C47.2642 40.6444 48.1655 40.76 49.0437 40.76C51.1006 40.76 52.7415 40.4827 53.9664 39.928C55.1913 39.3733 56.1273 38.6916 56.7744 37.8827C57.4215 37.0969 57.8375 36.2418 58.0224 35.3173C58.2304 34.3929 58.3344 33.5724 58.3344 32.856ZM62.2978 9.248V34H67.2204V24.6053C67.2204 22.7796 67.5209 21.4738 68.1218 20.688C68.7227 19.8791 69.6933 19.4747 71.0338 19.4747C72.2124 19.4747 73.0329 19.8444 73.4951 20.584C73.9573 21.3004 74.1884 22.3982 74.1884 23.8773V34H79.1111V22.976C79.1111 21.8667 79.0071 20.8613 78.7991 19.96C78.6142 19.0356 78.2791 18.2613 77.7938 17.6373C77.3084 16.9902 76.6382 16.4933 75.7831 16.1467C74.9511 15.7769 73.8764 15.592 72.5591 15.592C71.6347 15.592 70.6871 15.8347 69.7164 16.32C68.7458 16.7822 67.9484 17.5333 67.3244 18.5733H67.2204V9.248H62.2978ZM82.9859 9.248V34H87.9086V9.248H82.9859ZM96.8461 13.304V9.248H91.9234V13.304H96.8461ZM91.9234 16.0773V34H96.8461V16.0773H91.9234ZM109.077 29.7707C108.314 29.7707 107.679 29.6089 107.17 29.2853C106.662 28.9618 106.246 28.5458 105.922 28.0373C105.622 27.5289 105.402 26.9627 105.264 26.3387C105.148 25.6916 105.09 25.0444 105.09 24.3973C105.09 23.7271 105.16 23.0916 105.298 22.4907C105.46 21.8667 105.703 21.3236 106.026 20.8613C106.373 20.376 106.789 19.9947 107.274 19.7173C107.783 19.44 108.384 19.3013 109.077 19.3013C109.886 19.3013 110.556 19.4516 111.088 19.752C111.619 20.0524 112.047 20.4569 112.37 20.9653C112.694 21.4738 112.925 22.0631 113.064 22.7333C113.202 23.3804 113.272 24.0738 113.272 24.8133C113.272 25.4604 113.179 26.0844 112.994 26.6853C112.832 27.2631 112.578 27.7831 112.232 28.2453C111.885 28.7076 111.446 29.0773 110.914 29.3547C110.383 29.632 109.77 29.7707 109.077 29.7707ZM117.952 32.856V16.0773H113.272V18.4693H113.202C112.601 17.4293 111.85 16.6898 110.949 16.2507C110.071 15.8116 109.042 15.592 107.864 15.592C106.616 15.592 105.506 15.8347 104.536 16.32C103.588 16.8053 102.791 17.464 102.144 18.296C101.496 19.1049 101 20.0524 100.653 21.1387C100.329 22.2018 100.168 23.3111 100.168 24.4667C100.168 25.6916 100.306 26.8587 100.584 27.968C100.884 29.0542 101.346 30.0133 101.97 30.8453C102.594 31.6542 103.392 32.3013 104.362 32.7867C105.333 33.2489 106.488 33.48 107.829 33.48C108.915 33.48 109.944 33.2604 110.914 32.8213C111.908 32.3591 112.671 31.6542 113.202 30.7067H113.272V33.064C113.295 34.3351 112.983 35.3867 112.336 36.2187C111.712 37.0507 110.706 37.4667 109.32 37.4667C108.441 37.4667 107.667 37.2818 106.997 36.912C106.327 36.5653 105.876 35.9298 105.645 35.0053H100.757C100.826 36.0222 101.104 36.8889 101.589 37.6053C102.097 38.3449 102.721 38.9458 103.461 39.408C104.224 39.8702 105.056 40.2053 105.957 40.4133C106.881 40.6444 107.783 40.76 108.661 40.76C110.718 40.76 112.359 40.4827 113.584 39.928C114.808 39.3733 115.744 38.6916 116.392 37.8827C117.039 37.0969 117.455 36.2418 117.64 35.3173C117.848 34.3929 117.952 33.5724 117.952 32.856ZM121.915 9.248V34H126.838V24.6053C126.838 22.7796 127.138 21.4738 127.739 20.688C128.34 19.8791 129.311 19.4747 130.651 19.4747C131.83 19.4747 132.65 19.8444 133.112 20.584C133.575 21.3004 133.806 22.3982 133.806 23.8773V34H138.728V22.976C138.728 21.8667 138.624 20.8613 138.416 19.96C138.231 19.0356 137.896 18.2613 137.411 17.6373C136.926 16.9902 136.255 16.4933 135.4 16.1467C134.568 15.7769 133.494 15.592 132.176 15.592C131.252 15.592 130.304 15.8347 129.334 16.32C128.363 16.7822 127.566 17.5333 126.942 18.5733H126.838V9.248H121.915ZM148.704 16.0773V10.704H143.782V16.0773H140.8V19.3707H143.782V29.944C143.782 30.8453 143.932 31.5733 144.232 32.128C144.533 32.6827 144.937 33.1102 145.446 33.4107C145.977 33.7111 146.578 33.9076 147.248 34C147.942 34.1156 148.67 34.1733 149.432 34.1733C149.918 34.1733 150.415 34.1618 150.923 34.1387C151.432 34.1156 151.894 34.0693 152.31 34V30.1867C152.079 30.2329 151.836 30.2676 151.582 30.2907C151.328 30.3138 151.062 30.3253 150.784 30.3253C149.952 30.3253 149.398 30.1867 149.12 29.9093C148.843 29.632 148.704 29.0773 148.704 28.2453V19.3707H152.31V16.0773H148.704ZM158.465 28.176H153.785C153.831 29.3778 154.097 30.3831 154.583 31.192C155.091 31.9778 155.727 32.6133 156.489 33.0987C157.275 33.584 158.165 33.9307 159.159 34.1387C160.152 34.3467 161.169 34.4507 162.209 34.4507C163.226 34.4507 164.22 34.3467 165.191 34.1387C166.184 33.9538 167.063 33.6187 167.825 33.1333C168.588 32.648 169.2 32.0124 169.663 31.2267C170.148 30.4178 170.391 29.424 170.391 28.2453C170.391 27.4133 170.229 26.72 169.905 26.1653C169.582 25.5876 169.154 25.1138 168.623 24.744C168.091 24.3511 167.479 24.0391 166.785 23.808C166.115 23.5769 165.422 23.3804 164.705 23.2187C164.012 23.0569 163.33 22.9067 162.66 22.768C161.99 22.6293 161.389 22.4791 160.857 22.3173C160.349 22.1324 159.933 21.9013 159.609 21.624C159.286 21.3467 159.124 20.9884 159.124 20.5493C159.124 20.1796 159.216 19.8907 159.401 19.6827C159.586 19.4516 159.806 19.2782 160.06 19.1627C160.337 19.0471 160.638 18.9778 160.961 18.9547C161.285 18.9084 161.585 18.8853 161.863 18.8853C162.741 18.8853 163.503 19.0587 164.151 19.4053C164.798 19.7289 165.156 20.3644 165.225 21.312H169.905C169.813 20.2027 169.524 19.2898 169.039 18.5733C168.576 17.8338 167.987 17.2444 167.271 16.8053C166.554 16.3662 165.734 16.0542 164.809 15.8693C163.908 15.6844 162.972 15.592 162.001 15.592C161.031 15.592 160.083 15.6844 159.159 15.8693C158.234 16.0311 157.402 16.3316 156.663 16.7707C155.923 17.1867 155.322 17.7644 154.86 18.504C154.421 19.2436 154.201 20.1911 154.201 21.3467C154.201 22.1324 154.363 22.8027 154.687 23.3573C155.01 23.8889 155.438 24.3396 155.969 24.7093C156.501 25.056 157.102 25.3449 157.772 25.576C158.465 25.784 159.17 25.9689 159.887 26.1307C161.643 26.5004 163.007 26.8702 163.977 27.24C164.971 27.6098 165.468 28.1644 165.468 28.904C165.468 29.3431 165.364 29.7129 165.156 30.0133C164.948 30.2907 164.682 30.5218 164.359 30.7067C164.058 30.8684 163.711 30.9956 163.319 31.088C162.949 31.1573 162.591 31.192 162.244 31.192C161.759 31.192 161.285 31.1342 160.823 31.0187C160.383 30.9031 159.991 30.7298 159.644 30.4987C159.297 30.2444 159.008 29.9324 158.777 29.5627C158.569 29.1698 158.465 28.7076 158.465 28.176Z" fill="white"/>
<path d="M6.99226 9.248V8.998H6.74226V9.248H6.99226ZM6.99226 34H6.74226V34.25H6.99226V34ZM12.4349 34V34.25H12.6849V34H12.4349ZM12.4349 23.3227V23.0727H12.1849V23.3227H12.4349ZM22.4536 23.3227H22.7036V23.0727H22.4536V23.3227ZM22.4536 34H22.2036V34.25H22.4536V34ZM27.8963 34V34.25H28.1463V34H27.8963ZM27.8963 9.248H28.1463V8.998H27.8963V9.248ZM22.4536 9.248V8.998H22.2036V9.248H22.4536ZM22.4536 18.7467V18.9967H22.7036V18.7467H22.4536ZM12.4349 18.7467H12.1849V18.9967H12.4349V18.7467ZM12.4349 9.248H12.6849V8.998H12.4349V9.248ZM6.74226 9.248V34H7.24226V9.248H6.74226ZM6.99226 34.25H12.4349V33.75H6.99226V34.25ZM12.6849 34V23.3227H12.1849V34H12.6849ZM12.4349 23.5727H22.4536V23.0727H12.4349V23.5727ZM22.2036 23.3227V34H22.7036V23.3227H22.2036ZM22.4536 34.25H27.8963V33.75H22.4536V34.25ZM28.1463 34V9.248H27.6463V34H28.1463ZM27.8963 8.998H22.4536V9.498H27.8963V8.998ZM22.2036 9.248V18.7467H22.7036V9.248H22.2036ZM22.4536 18.4967H12.4349V18.9967H22.4536V18.4967ZM12.6849 18.7467V9.248H12.1849V18.7467H12.6849ZM12.4349 8.998H6.99226V9.498H12.4349V8.998ZM37.2289 13.304V13.554H37.4789V13.304H37.2289ZM37.2289 9.248H37.4789V8.998H37.2289V9.248ZM32.3062 9.248V8.998H32.0562V9.248H32.3062ZM32.3062 13.304H32.0562V13.554H32.3062V13.304ZM32.3062 16.0773V15.8273H32.0562V16.0773H32.3062ZM32.3062 34H32.0562V34.25H32.3062V34ZM37.2289 34V34.25H37.4789V34H37.2289ZM37.2289 16.0773H37.4789V15.8273H37.2289V16.0773ZM37.4789 13.304V9.248H36.9789V13.304H37.4789ZM37.2289 8.998H32.3062V9.498H37.2289V8.998ZM32.0562 9.248V13.304H32.5562V9.248H32.0562ZM32.3062 13.554H37.2289V13.054H32.3062V13.554ZM32.0562 16.0773V34H32.5562V16.0773H32.0562ZM32.3062 34.25H37.2289V33.75H32.3062V34.25ZM37.4789 34V16.0773H36.9789V34H37.4789ZM37.2289 15.8273H32.3062V16.3273H37.2289V15.8273ZM47.5531 29.2853L47.4189 29.4962L47.4189 29.4962L47.5531 29.2853ZM46.3051 28.0373L46.0897 28.1646L46.0942 28.1716L46.3051 28.0373ZM45.6464 26.3387L45.4001 26.3827L45.4024 26.3929L45.6464 26.3387ZM45.6811 22.4907L45.439 22.4279L45.4375 22.4345L45.6811 22.4907ZM46.4091 20.8613L46.2056 20.716L46.2043 20.718L46.4091 20.8613ZM47.6571 19.7173L47.5373 19.4978L47.533 19.5003L47.6571 19.7173ZM51.4704 19.752L51.3474 19.9696L51.3474 19.9696L51.4704 19.752ZM53.4464 22.7333L53.2016 22.784L53.202 22.7857L53.4464 22.7333ZM53.3771 26.6853L53.138 26.6118L53.1363 26.6179L53.3771 26.6853ZM52.6144 28.2453L52.4144 28.0953L52.4144 28.0953L52.6144 28.2453ZM51.2971 29.3547L51.4127 29.5763L51.4127 29.5763L51.2971 29.3547ZM58.3344 16.0773H58.5844V15.8273H58.3344V16.0773ZM53.6544 16.0773V15.8273H53.4044V16.0773H53.6544ZM53.6544 18.4693V18.7193H53.9044V18.4693H53.6544ZM53.5851 18.4693L53.3686 18.5944L53.4408 18.7193H53.5851V18.4693ZM51.3317 16.2507L51.2199 16.4743L51.2222 16.4754L51.3317 16.2507ZM44.9184 16.32L44.8066 16.0964L44.8044 16.0975L44.9184 16.32ZM42.5264 18.296L42.7216 18.4522L42.7237 18.4495L42.5264 18.296ZM41.0357 21.1387L40.7976 21.0626L40.7966 21.0659L41.0357 21.1387ZM40.9664 27.968L40.7238 28.0287L40.7255 28.0346L40.9664 27.968ZM42.3531 30.8453L42.1531 30.9953L42.1551 30.998L42.3531 30.8453ZM44.7451 32.7867L44.6332 33.0103L44.6376 33.0124L44.7451 32.7867ZM51.2971 32.8213L51.4001 33.0491L51.4025 33.048L51.2971 32.8213ZM53.5851 30.7067V30.4567H53.4387L53.367 30.5844L53.5851 30.7067ZM53.6544 30.7067H53.9044V30.4567H53.6544V30.7067ZM53.6544 33.064H53.4044L53.4044 33.0685L53.6544 33.064ZM52.7184 36.2187L52.521 36.0652L52.5184 36.0687L52.7184 36.2187ZM47.3797 36.912L47.5006 36.693L47.4946 36.6899L47.3797 36.912ZM46.0277 35.0053L46.2703 34.9447L46.2229 34.7553H46.0277V35.0053ZM41.1397 35.0053V34.7553H40.8721L40.8903 35.0223L41.1397 35.0053ZM41.9717 37.6053L41.7648 37.7455L41.7657 37.747L41.9717 37.6053ZM43.8437 39.408L43.7112 39.62L43.7142 39.6218L43.8437 39.408ZM46.3397 40.4133L46.4004 40.1708L46.396 40.1697L46.3397 40.4133ZM56.7744 37.8827L56.5814 37.7237L56.5792 37.7265L56.7744 37.8827ZM58.0224 35.3173L57.7784 35.2624L57.7773 35.2683L58.0224 35.3173ZM49.4597 29.5207C48.7321 29.5207 48.1462 29.3665 47.6873 29.0744L47.4189 29.4962C47.9768 29.8513 48.6621 30.0207 49.4597 30.0207V29.5207ZM47.6873 29.0744C47.2097 28.7705 46.8199 28.3807 46.516 27.9031L46.0942 28.1716C46.4374 28.7109 46.8795 29.153 47.4189 29.4962L47.6873 29.0744ZM46.5203 27.9102C46.2343 27.4261 46.0239 26.8849 45.8905 26.2844L45.4024 26.3929C45.5463 27.0405 45.775 27.6316 46.0898 28.1645L46.5203 27.9102ZM45.8925 26.2947C45.7795 25.6619 45.7231 25.0295 45.7231 24.3973H45.2231C45.2231 25.0594 45.2822 25.7212 45.4003 26.3826L45.8925 26.2947ZM45.7231 24.3973C45.7231 23.7444 45.7906 23.1278 45.9247 22.5469L45.4375 22.4345C45.2942 23.0553 45.2231 23.7098 45.2231 24.3973H45.7231ZM45.9231 22.5534C46.0784 21.9542 46.3097 21.4393 46.6139 21.0047L46.2043 20.718C45.8613 21.2078 45.6073 21.7791 45.4391 22.4279L45.9231 22.5534ZM46.6125 21.0066C46.9396 20.5487 47.3292 20.1926 47.7811 19.9344L47.533 19.5003C47.0143 19.7967 46.5719 20.2033 46.2056 20.716L46.6125 21.0066ZM47.7768 19.9368C48.2419 19.6831 48.8 19.5513 49.4597 19.5513V19.0513C48.7328 19.0513 48.0891 19.1969 47.5374 19.4979L47.7768 19.9368ZM49.4597 19.5513C50.2391 19.5513 50.8636 19.6962 51.3474 19.9696L51.5934 19.5344C51.0141 19.2069 50.2982 19.0513 49.4597 19.0513V19.5513ZM51.3474 19.9696C51.8437 20.2502 52.2409 20.6262 52.5422 21.0996L52.964 20.8311C52.6181 20.2876 52.1602 19.8547 51.5934 19.5344L51.3474 19.9696ZM52.5422 21.0996C52.8474 21.5792 53.0682 22.1395 53.2016 22.784L53.6912 22.6827C53.5472 21.9868 53.3059 21.3684 52.964 20.8311L52.5422 21.0996ZM53.202 22.7857C53.3365 23.4137 53.4044 24.0894 53.4044 24.8133H53.9044C53.9044 24.0582 53.8336 23.3472 53.6909 22.681L53.202 22.7857ZM53.4044 24.8133C53.4044 25.4363 53.3155 26.0354 53.1381 26.6118L53.616 26.7589C53.8084 26.1335 53.9044 25.4846 53.9044 24.8133H53.4044ZM53.1363 26.6179C52.9826 27.1671 52.7418 27.6588 52.4144 28.0953L52.8144 28.3953C53.1804 27.9074 53.448 27.3592 53.6178 26.7527L53.1363 26.6179ZM52.4144 28.0953C52.091 28.5265 51.6812 28.8723 51.1814 29.133L51.4127 29.5763C51.9761 29.2824 52.4445 28.8886 52.8144 28.3953L52.4144 28.0953ZM51.1814 29.133C50.6908 29.389 50.1191 29.5207 49.4597 29.5207V30.0207C50.187 30.0207 50.8402 29.875 51.4127 29.5763L51.1814 29.133ZM58.5844 32.856V16.0773H58.0844V32.856H58.5844ZM58.3344 15.8273H53.6544V16.3273H58.3344V15.8273ZM53.4044 16.0773V18.4693H53.9044V16.0773H53.4044ZM53.6544 18.2193H53.5851V18.7193H53.6544V18.2193ZM53.8015 18.3443C53.1807 17.2698 52.3956 16.4909 51.4412 16.0259L51.2222 16.4754C52.0705 16.8887 52.7876 17.5889 53.3686 18.5944L53.8015 18.3443ZM51.4435 16.0271C50.5243 15.5674 49.4562 15.342 48.2464 15.342V15.842C49.394 15.842 50.3827 16.0557 51.2199 16.4743L51.4435 16.0271ZM48.2464 15.342C46.9654 15.342 45.8168 15.5913 44.8066 16.0964L45.0302 16.5436C45.9613 16.0781 47.0314 15.842 48.2464 15.842V15.342ZM44.8044 16.0975C43.8247 16.5993 42.9988 17.2814 42.3291 18.1425L42.7237 18.4495C43.3482 17.6466 44.117 17.0114 45.0324 16.5425L44.8044 16.0975ZM42.3312 18.1398C41.6631 18.9749 41.1526 19.9502 40.7976 21.0627L41.2739 21.2147C41.6122 20.1546 42.0954 19.2349 42.7216 18.4522L42.3312 18.1398ZM40.7966 21.0659C40.4655 22.1535 40.3004 23.2874 40.3004 24.4667H40.8004C40.8004 23.3348 40.9588 22.25 41.2749 21.2115L40.7966 21.0659ZM40.3004 24.4667C40.3004 25.7105 40.4412 26.8981 40.7239 28.0286L41.2089 27.9074C40.9369 26.8192 40.8004 25.6726 40.8004 24.4667H40.3004ZM40.7255 28.0346C41.0335 29.1484 41.5088 30.1363 42.1531 30.9953L42.5531 30.6953C41.9493 29.8903 41.5002 28.96 41.2074 27.9014L40.7255 28.0346ZM42.1551 30.998C42.8036 31.8386 43.6311 32.5092 44.6333 33.0103L44.8569 32.5631C43.9177 32.0935 43.1506 31.4699 42.551 30.6926L42.1551 30.998ZM44.6376 33.0124C45.6491 33.494 46.843 33.73 48.2117 33.73V33.23C46.8995 33.23 45.7824 33.0037 44.8526 32.561L44.6376 33.0124ZM48.2117 33.73C49.3328 33.73 50.3964 33.5032 51.4001 33.0491L51.194 32.5936C50.2564 33.0177 49.2631 33.23 48.2117 33.23V33.73ZM51.4025 33.048C52.4434 32.5639 53.2457 31.8227 53.8031 30.829L53.367 30.5844C52.8614 31.4857 52.1383 32.1543 51.1916 32.5947L51.4025 33.048ZM53.5851 30.9567H53.6544V30.4567H53.5851V30.9567ZM53.4044 30.7067V33.064H53.9044V30.7067H53.4044ZM53.4044 33.0685C53.4267 34.2947 53.1263 35.2871 52.5211 36.0652L52.9157 36.3722C53.6048 35.4863 53.9283 34.3755 53.9044 33.0595L53.4044 33.0685ZM52.5184 36.0687C51.9564 36.818 51.0388 37.2167 49.7024 37.2167V37.7167C51.1393 37.7167 52.2324 37.2833 52.9184 36.3687L52.5184 36.0687ZM49.7024 37.2167C48.8601 37.2167 48.1286 37.0396 47.5005 36.6931L47.259 37.1309C47.9713 37.5239 48.7882 37.7167 49.7024 37.7167V37.2167ZM47.4946 36.6899C46.9042 36.3846 46.4889 35.8192 46.2703 34.9447L45.7852 35.066C46.0288 36.0404 46.5149 36.7461 47.2649 37.1341L47.4946 36.6899ZM46.0277 34.7553H41.1397V35.2553H46.0277V34.7553ZM40.8903 35.0223C40.9621 36.0754 41.2505 36.9865 41.7648 37.7455L42.1787 37.4651C41.7223 36.7913 41.456 35.969 41.3892 34.9883L40.8903 35.0223ZM41.7657 37.747C42.293 38.5139 42.9418 39.1391 43.7112 39.62L43.9762 39.196C43.2666 38.7525 42.6674 38.1759 42.1777 37.4637L41.7657 37.747ZM43.7142 39.6218C44.5004 40.0983 45.3573 40.4432 46.2835 40.6569L46.396 40.1697C45.5195 39.9675 44.7124 39.6421 43.9733 39.1942L43.7142 39.6218ZM46.2791 40.6559C47.2217 40.8915 48.1434 41.01 49.0437 41.01V40.51C48.1876 40.51 47.3067 40.3974 46.4004 40.1708L46.2791 40.6559ZM49.0437 41.01C51.1192 41.01 52.7997 40.7308 54.0695 40.1557L53.8633 39.7003C52.6833 40.2346 51.0821 40.51 49.0437 40.51V41.01ZM54.0695 40.1557C55.32 39.5895 56.2917 38.8863 56.9696 38.0388L56.5792 37.7265C55.9629 38.4968 55.0626 39.1572 53.8633 39.7003L54.0695 40.1557ZM56.9674 38.0416C57.6385 37.2266 58.074 36.3344 58.2676 35.3664L57.7773 35.2683C57.6011 36.1492 57.2045 36.9671 56.5814 37.7237L56.9674 38.0416ZM58.2663 35.3722C58.4771 34.4352 58.5844 33.5957 58.5844 32.856H58.0844C58.0844 33.5492 57.9837 34.3506 57.7785 35.2625L58.2663 35.3722ZM62.2978 9.248V8.998H62.0478V9.248H62.2978ZM62.2978 34H62.0478V34.25H62.2978V34ZM67.2204 34V34.25H67.4704V34H67.2204ZM68.1218 20.688L68.3204 20.8399L68.3225 20.8371L68.1218 20.688ZM73.4951 20.584L73.2831 20.7165L73.285 20.7195L73.4951 20.584ZM74.1884 34H73.9384V34.25H74.1884V34ZM79.1111 34V34.25H79.3611V34H79.1111ZM78.7991 19.96L78.5539 20.009L78.5555 20.0162L78.7991 19.96ZM77.7938 17.6373L77.5938 17.7874L77.5964 17.7908L77.7938 17.6373ZM75.7831 16.1467L75.6815 16.3752L75.6892 16.3783L75.7831 16.1467ZM69.7164 16.32L69.824 16.5458L69.8283 16.5436L69.7164 16.32ZM67.3244 18.5733V18.8233H67.466L67.5388 18.702L67.3244 18.5733ZM67.2204 18.5733H66.9704V18.8233H67.2204V18.5733ZM67.2204 9.248H67.4704V8.998H67.2204V9.248ZM62.0478 9.248V34H62.5478V9.248H62.0478ZM62.2978 34.25H67.2204V33.75H62.2978V34.25ZM67.4704 34V24.6053H66.9704V34H67.4704ZM67.4704 24.6053C67.4704 22.794 67.7711 21.5582 68.3204 20.8399L67.9232 20.5361C67.2707 21.3894 66.9704 22.7651 66.9704 24.6053H67.4704ZM68.3225 20.8371C68.8615 20.1115 69.744 19.7247 71.0338 19.7247V19.2247C69.6426 19.2247 68.5838 19.6468 67.9211 20.5389L68.3225 20.8371ZM71.0338 19.7247C72.1601 19.7247 72.882 20.0747 73.2831 20.7165L73.7071 20.4515C73.1838 19.6142 72.2648 19.2247 71.0338 19.2247V19.7247ZM73.285 20.7195C73.7083 21.3756 73.9384 22.4152 73.9384 23.8773H74.4384C74.4384 22.3812 74.2063 21.2253 73.7052 20.4485L73.285 20.7195ZM73.9384 23.8773V34H74.4384V23.8773H73.9384ZM74.1884 34.25H79.1111V33.75H74.1884V34.25ZM79.3611 34V22.976H78.8611V34H79.3611ZM79.3611 22.976C79.3611 21.8514 79.2557 20.8268 79.0427 19.9038L78.5555 20.0162C78.7585 20.8959 78.8611 21.882 78.8611 22.976H79.3611ZM79.0443 19.911C78.8532 18.9557 78.5044 18.1438 77.9911 17.4838L77.5964 17.7908C78.0538 18.3788 78.3752 19.1154 78.554 20.009L79.0443 19.911ZM77.9938 17.4873C77.4775 16.799 76.7682 16.2763 75.877 15.915L75.6892 16.3783C76.5082 16.7104 77.1394 17.1815 77.5938 17.7873L77.9938 17.4873ZM75.8847 15.9182C75.0097 15.5294 73.897 15.342 72.5591 15.342V15.842C73.8559 15.842 74.8925 16.0244 75.6816 16.3751L75.8847 15.9182ZM72.5591 15.342C71.5897 15.342 70.604 15.5967 69.6046 16.0964L69.8283 16.5436C70.7702 16.0726 71.6797 15.842 72.5591 15.842V15.342ZM69.609 16.0943C68.5884 16.5803 67.756 17.3681 67.1101 18.4447L67.5388 18.702C68.1409 17.6985 68.9032 16.9842 69.8239 16.5457L69.609 16.0943ZM67.3244 18.3233H67.2204V18.8233H67.3244V18.3233ZM67.4704 18.5733V9.248H66.9704V18.5733H67.4704ZM67.2204 8.998H62.2978V9.498H67.2204V8.998ZM82.9859 9.248V8.998H82.7359V9.248H82.9859ZM82.9859 34H82.7359V34.25H82.9859V34ZM87.9086 34V34.25H88.1586V34H87.9086ZM87.9086 9.248H88.1586V8.998H87.9086V9.248ZM82.7359 9.248V34H83.2359V9.248H82.7359ZM82.9859 34.25H87.9086V33.75H82.9859V34.25ZM88.1586 34V9.248H87.6586V34H88.1586ZM87.9086 8.998H82.9859V9.498H87.9086V8.998ZM96.8461 13.304V13.554H97.0961V13.304H96.8461ZM96.8461 9.248H97.0961V8.998H96.8461V9.248ZM91.9234 9.248V8.998H91.6734V9.248H91.9234ZM91.9234 13.304H91.6734V13.554H91.9234V13.304ZM91.9234 16.0773V15.8273H91.6734V16.0773H91.9234ZM91.9234 34H91.6734V34.25H91.9234V34ZM96.8461 34V34.25H97.0961V34H96.8461ZM96.8461 16.0773H97.0961V15.8273H96.8461V16.0773ZM97.0961 13.304V9.248H96.5961V13.304H97.0961ZM96.8461 8.998H91.9234V9.498H96.8461V8.998ZM91.6734 9.248V13.304H92.1734V9.248H91.6734ZM91.9234 13.554H96.8461V13.054H91.9234V13.554ZM91.6734 16.0773V34H92.1734V16.0773H91.6734ZM91.9234 34.25H96.8461V33.75H91.9234V34.25ZM97.0961 34V16.0773H96.5961V34H97.0961ZM96.8461 15.8273H91.9234V16.3273H96.8461V15.8273ZM107.17 29.2853L107.036 29.4962L107.036 29.4962L107.17 29.2853ZM105.922 28.0373L105.707 28.1646L105.711 28.1716L105.922 28.0373ZM105.264 26.3387L105.017 26.3827L105.02 26.3929L105.264 26.3387ZM105.298 22.4907L105.056 22.4279L105.055 22.4345L105.298 22.4907ZM106.026 20.8613L105.823 20.716L105.821 20.718L106.026 20.8613ZM107.274 19.7173L107.155 19.4978L107.15 19.5003L107.274 19.7173ZM111.088 19.752L110.965 19.9696L110.965 19.9696L111.088 19.752ZM113.064 22.7333L112.819 22.784L112.819 22.7857L113.064 22.7333ZM112.994 26.6853L112.755 26.6118L112.754 26.6179L112.994 26.6853ZM112.232 28.2453L112.032 28.0953L112.032 28.0953L112.232 28.2453ZM110.914 29.3547L111.03 29.5763L111.03 29.5763L110.914 29.3547ZM117.952 16.0773H118.202V15.8273H117.952V16.0773ZM113.272 16.0773V15.8273H113.022V16.0773H113.272ZM113.272 18.4693V18.7193H113.522V18.4693H113.272ZM113.202 18.4693L112.986 18.5944L113.058 18.7193H113.202V18.4693ZM110.949 16.2507L110.837 16.4743L110.839 16.4754L110.949 16.2507ZM104.536 16.32L104.424 16.0964L104.422 16.0975L104.536 16.32ZM102.144 18.296L102.339 18.4522L102.341 18.4495L102.144 18.296ZM100.653 21.1387L100.415 21.0626L100.414 21.0659L100.653 21.1387ZM100.584 27.968L100.341 28.0287L100.343 28.0346L100.584 27.968ZM101.97 30.8453L101.77 30.9953L101.772 30.998L101.97 30.8453ZM104.362 32.7867L104.25 33.0103L104.255 33.0124L104.362 32.7867ZM110.914 32.8213L111.017 33.0491L111.02 33.048L110.914 32.8213ZM113.202 30.7067V30.4567H113.056L112.984 30.5844L113.202 30.7067ZM113.272 30.7067H113.522V30.4567H113.272V30.7067ZM113.272 33.064H113.022L113.022 33.0685L113.272 33.064ZM112.336 36.2187L112.138 36.0652L112.136 36.0687L112.336 36.2187ZM106.997 36.912L107.118 36.693L107.112 36.6899L106.997 36.912ZM105.645 35.0053L105.887 34.9447L105.84 34.7553H105.645V35.0053ZM100.757 35.0053V34.7553H100.489L100.508 35.0223L100.757 35.0053ZM101.589 37.6053L101.382 37.7455L101.383 37.747L101.589 37.6053ZM103.461 39.408L103.328 39.62L103.331 39.6218L103.461 39.408ZM105.957 40.4133L106.018 40.1708L106.013 40.1697L105.957 40.4133ZM116.392 37.8827L116.199 37.7237L116.196 37.7265L116.392 37.8827ZM117.64 35.3173L117.396 35.2624L117.394 35.2683L117.64 35.3173ZM109.077 29.5207C108.349 29.5207 107.763 29.3665 107.304 29.0744L107.036 29.4962C107.594 29.8513 108.279 30.0207 109.077 30.0207V29.5207ZM107.304 29.0744C106.827 28.7705 106.437 28.3807 106.133 27.9031L105.711 28.1716C106.055 28.7109 106.497 29.153 107.036 29.4962L107.304 29.0744ZM106.137 27.9102C105.851 27.4261 105.641 26.8849 105.508 26.2844L105.02 26.3929C105.163 27.0405 105.392 27.6316 105.707 28.1645L106.137 27.9102ZM105.51 26.2947C105.397 25.6619 105.34 25.0295 105.34 24.3973H104.84C104.84 25.0594 104.899 25.7212 105.017 26.3826L105.51 26.2947ZM105.34 24.3973C105.34 23.7444 105.408 23.1278 105.542 22.5469L105.055 22.4345C104.911 23.0553 104.84 23.7098 104.84 24.3973H105.34ZM105.54 22.5534C105.696 21.9542 105.927 21.4393 106.231 21.0047L105.821 20.718C105.479 21.2078 105.224 21.7791 105.056 22.4279L105.54 22.5534ZM106.23 21.0066C106.557 20.5487 106.946 20.1926 107.398 19.9344L107.15 19.5003C106.631 19.7967 106.189 20.2033 105.823 20.716L106.23 21.0066ZM107.394 19.9368C107.859 19.6831 108.417 19.5513 109.077 19.5513V19.0513C108.35 19.0513 107.706 19.1969 107.155 19.4979L107.394 19.9368ZM109.077 19.5513C109.856 19.5513 110.481 19.6962 110.965 19.9696L111.211 19.5344C110.631 19.2069 109.915 19.0513 109.077 19.0513V19.5513ZM110.965 19.9696C111.461 20.2502 111.858 20.6262 112.159 21.0996L112.581 20.8311C112.235 20.2876 111.777 19.8547 111.211 19.5344L110.965 19.9696ZM112.159 21.0996C112.465 21.5792 112.685 22.1395 112.819 22.784L113.308 22.6827C113.164 21.9868 112.923 21.3684 112.581 20.8311L112.159 21.0996ZM112.819 22.7857C112.954 23.4137 113.022 24.0894 113.022 24.8133H113.522C113.522 24.0582 113.451 23.3472 113.308 22.681L112.819 22.7857ZM113.022 24.8133C113.022 25.4363 112.933 26.0354 112.755 26.6118L113.233 26.7589C113.426 26.1335 113.522 25.4846 113.522 24.8133H113.022ZM112.754 26.6179C112.6 27.1671 112.359 27.6588 112.032 28.0953L112.432 28.3953C112.798 27.9074 113.065 27.3592 113.235 26.7527L112.754 26.6179ZM112.032 28.0953C111.708 28.5265 111.298 28.8723 110.799 29.133L111.03 29.5763C111.593 29.2824 112.062 28.8886 112.432 28.3953L112.032 28.0953ZM110.799 29.133C110.308 29.389 109.736 29.5207 109.077 29.5207V30.0207C109.804 30.0207 110.457 29.875 111.03 29.5763L110.799 29.133ZM118.202 32.856V16.0773H117.702V32.856H118.202ZM117.952 15.8273H113.272V16.3273H117.952V15.8273ZM113.022 16.0773V18.4693H113.522V16.0773H113.022ZM113.272 18.2193H113.202V18.7193H113.272V18.2193ZM113.419 18.3443C112.798 17.2698 112.013 16.4909 111.058 16.0259L110.839 16.4754C111.688 16.8887 112.405 17.5889 112.986 18.5944L113.419 18.3443ZM111.061 16.0271C110.142 15.5674 109.073 15.342 107.864 15.342V15.842C109.011 15.842 110 16.0557 110.837 16.4743L111.061 16.0271ZM107.864 15.342C106.583 15.342 105.434 15.5913 104.424 16.0964L104.647 16.5436C105.578 16.0781 106.649 15.842 107.864 15.842V15.342ZM104.422 16.0975C103.442 16.5993 102.616 17.2814 101.946 18.1425L102.341 18.4495C102.965 17.6466 103.734 17.0114 104.65 16.5425L104.422 16.0975ZM101.948 18.1398C101.28 18.9749 100.77 19.9502 100.415 21.0627L100.891 21.2147C101.229 20.1546 101.713 19.2349 102.339 18.4522L101.948 18.1398ZM100.414 21.0659C100.083 22.1535 99.9176 23.2874 99.9176 24.4667H100.418C100.418 23.3348 100.576 22.25 100.892 21.2115L100.414 21.0659ZM99.9176 24.4667C99.9176 25.7105 100.058 26.8981 100.341 28.0286L100.826 27.9074C100.554 26.8192 100.418 25.6726 100.418 24.4667H99.9176ZM100.343 28.0346C100.651 29.1484 101.126 30.1363 101.77 30.9953L102.17 30.6953C101.567 29.8903 101.117 28.96 100.825 27.9014L100.343 28.0346ZM101.772 30.998C102.421 31.8386 103.248 32.5092 104.25 33.0103L104.474 32.5631C103.535 32.0935 102.768 31.4699 102.168 30.6926L101.772 30.998ZM104.255 33.0124C105.266 33.494 106.46 33.73 107.829 33.73V33.23C106.517 33.23 105.4 33.0037 104.47 32.561L104.255 33.0124ZM107.829 33.73C108.95 33.73 110.014 33.5032 111.017 33.0491L110.811 32.5936C109.874 33.0177 108.88 33.23 107.829 33.23V33.73ZM111.02 33.048C112.061 32.5639 112.863 31.8227 113.42 30.829L112.984 30.5844C112.479 31.4857 111.756 32.1543 110.809 32.5947L111.02 33.048ZM113.202 30.9567H113.272V30.4567H113.202V30.9567ZM113.022 30.7067V33.064H113.522V30.7067H113.022ZM113.022 33.0685C113.044 34.2947 112.743 35.2871 112.138 36.0652L112.533 36.3722C113.222 35.4863 113.545 34.3755 113.522 33.0595L113.022 33.0685ZM112.136 36.0687C111.574 36.818 110.656 37.2167 109.32 37.2167V37.7167C110.757 37.7167 111.85 37.2833 112.536 36.3687L112.136 36.0687ZM109.32 37.2167C108.477 37.2167 107.746 37.0396 107.118 36.6931L106.876 37.1309C107.589 37.5239 108.405 37.7167 109.32 37.7167V37.2167ZM107.112 36.6899C106.521 36.3846 106.106 35.8192 105.887 34.9447L105.402 35.066C105.646 36.0404 106.132 36.7461 106.882 37.1341L107.112 36.6899ZM105.645 34.7553H100.757V35.2553H105.645V34.7553ZM100.508 35.0223C100.579 36.0754 100.868 36.9865 101.382 37.7455L101.796 37.4651C101.339 36.7913 101.073 35.969 101.006 34.9883L100.508 35.0223ZM101.383 37.747C101.91 38.5139 102.559 39.1391 103.328 39.62L103.593 39.196C102.884 38.7525 102.285 38.1759 101.795 37.4637L101.383 37.747ZM103.331 39.6218C104.118 40.0983 104.974 40.4432 105.901 40.6569L106.013 40.1697C105.137 39.9675 104.33 39.6421 103.591 39.1942L103.331 39.6218ZM105.896 40.6559C106.839 40.8915 107.761 41.01 108.661 41.01V40.51C107.805 40.51 106.924 40.3974 106.018 40.1708L105.896 40.6559ZM108.661 41.01C110.736 41.01 112.417 40.7308 113.687 40.1557L113.48 39.7003C112.301 40.2346 110.699 40.51 108.661 40.51V41.01ZM113.687 40.1557C114.937 39.5895 115.909 38.8863 116.587 38.0388L116.196 37.7265C115.58 38.4968 114.68 39.1572 113.48 39.7003L113.687 40.1557ZM116.585 38.0416C117.256 37.2266 117.691 36.3344 117.885 35.3664L117.394 35.2683C117.218 36.1492 116.822 36.9671 116.199 37.7237L116.585 38.0416ZM117.883 35.3722C118.094 34.4352 118.202 33.5957 118.202 32.856H117.702C117.702 33.5492 117.601 34.3506 117.396 35.2625L117.883 35.3722ZM121.915 9.248V8.998H121.665V9.248H121.915ZM121.915 34H121.665V34.25H121.915V34ZM126.838 34V34.25H127.088V34H126.838ZM127.739 20.688L127.938 20.8399L127.94 20.8371L127.739 20.688ZM133.112 20.584L132.9 20.7165L132.902 20.7195L133.112 20.584ZM133.806 34H133.556V34.25H133.806V34ZM138.728 34V34.25H138.978V34H138.728ZM138.416 19.96L138.171 20.009L138.173 20.0162L138.416 19.96ZM137.411 17.6373L137.211 17.7874L137.214 17.7908L137.411 17.6373ZM135.4 16.1467L135.299 16.3752L135.306 16.3783L135.4 16.1467ZM129.334 16.32L129.441 16.5458L129.445 16.5436L129.334 16.32ZM126.942 18.5733V18.8233H127.083L127.156 18.702L126.942 18.5733ZM126.838 18.5733H126.588V18.8233H126.838V18.5733ZM126.838 9.248H127.088V8.998H126.838V9.248ZM121.665 9.248V34H122.165V9.248H121.665ZM121.915 34.25H126.838V33.75H121.915V34.25ZM127.088 34V24.6053H126.588V34H127.088ZM127.088 24.6053C127.088 22.794 127.388 21.5582 127.938 20.8399L127.54 20.5361C126.888 21.3894 126.588 22.7651 126.588 24.6053H127.088ZM127.94 20.8371C128.479 20.1115 129.361 19.7247 130.651 19.7247V19.2247C129.26 19.2247 128.201 19.6468 127.538 20.5389L127.94 20.8371ZM130.651 19.7247C131.777 19.7247 132.499 20.0747 132.9 20.7165L133.324 20.4515C132.801 19.6142 131.882 19.2247 130.651 19.2247V19.7247ZM132.902 20.7195C133.326 21.3756 133.556 22.4152 133.556 23.8773H134.056C134.056 22.3812 133.824 21.2253 133.322 20.4485L132.902 20.7195ZM133.556 23.8773V34H134.056V23.8773H133.556ZM133.806 34.25H138.728V33.75H133.806V34.25ZM138.978 34V22.976H138.478V34H138.978ZM138.978 22.976C138.978 21.8514 138.873 20.8268 138.66 19.9038L138.173 20.0162C138.376 20.8959 138.478 21.882 138.478 22.976H138.978ZM138.661 19.911C138.47 18.9557 138.122 18.1438 137.608 17.4838L137.214 17.7908C137.671 18.3788 137.992 19.1154 138.171 20.009L138.661 19.911ZM137.611 17.4873C137.095 16.799 136.385 16.2763 135.494 15.915L135.306 16.3783C136.125 16.7104 136.757 17.1815 137.211 17.7873L137.611 17.4873ZM135.502 15.9182C134.627 15.5294 133.514 15.342 132.176 15.342V15.842C133.473 15.842 134.51 16.0244 135.299 16.3751L135.502 15.9182ZM132.176 15.342C131.207 15.342 130.221 15.5967 129.222 16.0964L129.445 16.5436C130.387 16.0726 131.297 15.842 132.176 15.842V15.342ZM129.226 16.0943C128.206 16.5803 127.373 17.3681 126.727 18.4447L127.156 18.702C127.758 17.6985 128.52 16.9842 129.441 16.5457L129.226 16.0943ZM126.942 18.3233H126.838V18.8233H126.942V18.3233ZM127.088 18.5733V9.248H126.588V18.5733H127.088ZM126.838 8.998H121.915V9.498H126.838V8.998ZM148.704 16.0773H148.454V16.3273H148.704V16.0773ZM148.704 10.704H148.954V10.454H148.704V10.704ZM143.782 10.704V10.454H143.532V10.704H143.782ZM143.782 16.0773V16.3273H144.032V16.0773H143.782ZM140.8 16.0773V15.8273H140.55V16.0773H140.8ZM140.8 19.3707H140.55V19.6207H140.8V19.3707ZM143.782 19.3707H144.032V19.1207H143.782V19.3707ZM144.232 32.128L144.013 32.2471L144.013 32.2471L144.232 32.128ZM145.446 33.4107L145.319 33.6259L145.323 33.6283L145.446 33.4107ZM147.248 34L147.29 33.7533L147.283 33.7523L147.248 34ZM150.923 34.1387L150.912 33.8889L150.912 33.8889L150.923 34.1387ZM152.31 34L152.351 34.2466L152.56 34.2118V34H152.31ZM152.31 30.1867H152.56V29.8817L152.261 29.9415L152.31 30.1867ZM151.582 30.2907L151.559 30.0417L151.559 30.0417L151.582 30.2907ZM149.12 29.9093L148.944 30.0861L148.944 30.0861L149.12 29.9093ZM148.704 19.3707V19.1207H148.454V19.3707H148.704ZM152.31 19.3707V19.6207H152.56V19.3707H152.31ZM152.31 16.0773H152.56V15.8273H152.31V16.0773ZM148.954 16.0773V10.704H148.454V16.0773H148.954ZM148.704 10.454H143.782V10.954H148.704V10.454ZM143.532 10.704V16.0773H144.032V10.704H143.532ZM143.782 15.8273H140.8V16.3273H143.782V15.8273ZM140.55 16.0773V19.3707H141.05V16.0773H140.55ZM140.8 19.6207H143.782V19.1207H140.8V19.6207ZM143.532 19.3707V29.944H144.032V19.3707H143.532ZM143.532 29.944C143.532 30.8702 143.686 31.6435 144.013 32.2471L144.452 32.0089C144.178 31.5031 144.032 30.8205 144.032 29.944H143.532ZM144.013 32.2471C144.333 32.8388 144.768 33.3008 145.319 33.6259L145.573 33.1954C145.106 32.9196 144.733 32.5266 144.452 32.0089L144.013 32.2471ZM145.323 33.6283C145.885 33.9459 146.516 34.1514 147.214 34.2477L147.283 33.7523C146.64 33.6637 146.07 33.4764 145.569 33.193L145.323 33.6283ZM147.207 34.2466C147.915 34.3646 148.657 34.4233 149.432 34.4233V33.9233C148.682 33.9233 147.968 33.8665 147.29 33.7534L147.207 34.2466ZM149.432 34.4233C149.922 34.4233 150.422 34.4117 150.934 34.3884L150.912 33.8889C150.407 33.9119 149.914 33.9233 149.432 33.9233V34.4233ZM150.934 34.3884C151.451 34.3649 151.923 34.3179 152.351 34.2466L152.269 33.7534C151.864 33.8208 151.412 33.8662 150.912 33.8889L150.934 34.3884ZM152.56 34V30.1867H152.06V34H152.56ZM152.261 29.9415C152.039 29.9859 151.805 30.0193 151.559 30.0417L151.604 30.5396C151.867 30.5158 152.118 30.4799 152.359 30.4318L152.261 29.9415ZM151.559 30.0417C151.313 30.0641 151.055 30.0753 150.784 30.0753V30.5753C151.069 30.5753 151.342 30.5635 151.604 30.5396L151.559 30.0417ZM150.784 30.0753C150.381 30.0753 150.056 30.0415 149.805 29.9788C149.553 29.9157 149.392 29.8278 149.297 29.7326L148.944 30.0861C149.126 30.2682 149.381 30.3883 149.684 30.4639C149.988 30.5398 150.356 30.5753 150.784 30.5753V30.0753ZM149.297 29.7326C149.202 29.6374 149.114 29.477 149.051 29.2247C148.988 28.9739 148.954 28.6493 148.954 28.2453H148.454C148.454 28.6734 148.49 29.0421 148.566 29.346C148.642 29.6484 148.762 29.904 148.944 30.0861L149.297 29.7326ZM148.954 28.2453V19.3707H148.454V28.2453H148.954ZM148.704 19.6207H152.31V19.1207H148.704V19.6207ZM152.56 19.3707V16.0773H152.06V19.3707H152.56ZM152.31 15.8273H148.704V16.3273H152.31V15.8273ZM158.465 28.176H158.715V27.926H158.465V28.176ZM153.785 28.176V27.926H153.525L153.535 28.1856L153.785 28.176ZM154.583 31.192L154.368 31.3207L154.373 31.3278L154.583 31.192ZM156.489 33.0987L156.355 33.3096L156.358 33.3114L156.489 33.0987ZM159.159 34.1387L159.21 33.894L159.21 33.894L159.159 34.1387ZM165.191 34.1387L165.145 33.8928L165.138 33.8942L165.191 34.1387ZM167.825 33.1333L167.959 33.3442L167.959 33.3442L167.825 33.1333ZM169.663 31.2267L169.448 31.098L169.447 31.0999L169.663 31.2267ZM169.905 26.1653L169.687 26.2875L169.689 26.2913L169.905 26.1653ZM168.623 24.744L168.474 24.9451L168.48 24.9492L168.623 24.744ZM166.785 23.808L166.704 24.0444L166.706 24.0452L166.785 23.808ZM164.705 23.2187L164.648 23.4621L164.65 23.4625L164.705 23.2187ZM162.66 22.768L162.609 23.0128L162.609 23.0128L162.66 22.768ZM160.857 22.3173L160.772 22.5526L160.784 22.5565L160.857 22.3173ZM159.401 19.6827L159.588 19.849L159.596 19.8388L159.401 19.6827ZM160.06 19.1627L159.964 18.9318L159.956 18.9351L160.06 19.1627ZM160.961 18.9547L160.979 19.204L160.988 19.2034L160.997 19.2022L160.961 18.9547ZM164.151 19.4053L164.033 19.6258L164.039 19.6289L164.151 19.4053ZM165.225 21.312L164.976 21.3302L164.993 21.562H165.225V21.312ZM169.905 21.312V21.562H170.177L170.154 21.2912L169.905 21.312ZM169.039 18.5733L168.826 18.7059L168.832 18.7135L169.039 18.5733ZM167.271 16.8053L167.14 17.0185L167.14 17.0185L167.271 16.8053ZM164.809 15.8693L164.759 16.1142L164.76 16.1145L164.809 15.8693ZM159.159 15.8693L159.202 16.1157L159.208 16.1145L159.159 15.8693ZM156.663 16.7707L156.785 16.9886L156.79 16.9856L156.663 16.7707ZM154.86 18.504L154.648 18.3715L154.645 18.3764L154.86 18.504ZM154.687 23.3573L154.471 23.4833L154.473 23.4873L154.687 23.3573ZM155.969 24.7093L155.826 24.9147L155.833 24.9187L155.969 24.7093ZM157.772 25.576L157.69 25.8125L157.7 25.8155L157.772 25.576ZM159.887 26.1307L159.832 26.3746L159.835 26.3753L159.887 26.1307ZM163.977 27.24L163.888 27.4736L163.89 27.4743L163.977 27.24ZM165.156 30.0133L165.356 30.1634L165.361 30.1556L165.156 30.0133ZM164.359 30.7067L164.477 30.9269L164.483 30.9237L164.359 30.7067ZM163.319 31.088L163.365 31.334L163.376 31.3314L163.319 31.088ZM160.823 31.0187L160.759 31.2605L160.762 31.2612L160.823 31.0187ZM159.644 30.4987L159.496 30.7005L159.505 30.7067L159.644 30.4987ZM158.777 29.5627L158.556 29.6796L158.561 29.6876L158.565 29.6952L158.777 29.5627ZM158.465 27.926H153.785V28.426H158.465V27.926ZM153.535 28.1856C153.583 29.4181 153.856 30.4671 154.368 31.3206L154.797 31.0634C154.338 30.2991 154.08 29.3374 154.035 28.1664L153.535 28.1856ZM154.373 31.3278C154.9 32.1427 155.561 32.8043 156.355 33.3096L156.623 32.8878C155.892 32.4224 155.282 31.8129 154.792 31.0562L154.373 31.3278ZM156.358 33.3114C157.171 33.8134 158.088 34.17 159.107 34.3834L159.21 33.894C158.242 33.6913 157.379 33.3546 156.621 32.886L156.358 33.3114ZM159.107 34.3834C160.118 34.595 161.152 34.7007 162.209 34.7007V34.2007C161.186 34.2007 160.186 34.0984 159.21 33.894L159.107 34.3834ZM162.209 34.7007C163.243 34.7007 164.255 34.5949 165.243 34.3831L165.138 33.8942C164.185 34.0984 163.209 34.2007 162.209 34.2007V34.7007ZM165.236 34.3844C166.258 34.1944 167.167 33.8487 167.959 33.3442L167.691 32.9224C166.958 33.3887 166.111 33.7132 165.145 33.8929L165.236 34.3844ZM167.959 33.3442C168.756 32.8375 169.396 32.173 169.878 31.3534L169.447 31.0999C169.005 31.8519 168.42 32.4585 167.691 32.9224L167.959 33.3442ZM169.877 31.3553C170.391 30.4989 170.641 29.4581 170.641 28.2453H170.141C170.141 29.3899 169.905 30.3366 169.448 31.098L169.877 31.3553ZM170.641 28.2453C170.641 27.3819 170.473 26.642 170.121 26.0394L169.689 26.2913C169.985 26.798 170.141 27.4448 170.141 28.2453H170.641ZM170.123 26.0432C169.782 25.4331 169.329 24.9307 168.765 24.5388L168.48 24.9492C168.98 25.2969 169.382 25.742 169.687 26.2875L170.123 26.0432ZM168.771 24.543C168.216 24.1329 167.58 23.8094 166.864 23.5708L166.706 24.0452C167.377 24.2688 167.966 24.5693 168.474 24.945L168.771 24.543ZM166.867 23.5717C166.188 23.3375 165.485 23.1385 164.76 22.9748L164.65 23.4625C165.358 23.6224 166.043 23.8163 166.704 24.0443L166.867 23.5717ZM164.762 22.9752C164.067 22.813 163.383 22.6623 162.711 22.5232L162.609 23.0128C163.277 23.151 163.957 23.3008 164.648 23.4621L164.762 22.9752ZM162.711 22.5232C162.046 22.3857 161.453 22.2373 160.93 22.0782L160.784 22.5565C161.325 22.7209 161.933 22.8729 162.609 23.0128L162.711 22.5232ZM160.943 22.0824C160.455 21.9051 160.067 21.6875 159.772 21.4342L159.447 21.8138C159.798 22.1152 160.242 22.3598 160.772 22.5523L160.943 22.0824ZM159.772 21.4342C159.506 21.206 159.374 20.918 159.374 20.5493H158.874C158.874 21.0589 159.066 21.4874 159.447 21.8138L159.772 21.4342ZM159.374 20.5493C159.374 20.2203 159.456 19.9977 159.588 19.8488L159.214 19.5166C158.977 19.7836 158.874 20.1388 158.874 20.5493H159.374ZM159.596 19.8388C159.758 19.6365 159.947 19.4886 160.163 19.3903L159.956 18.9351C159.664 19.0679 159.414 19.2666 159.206 19.5265L159.596 19.8388ZM160.156 19.3934C160.407 19.2891 160.68 19.2254 160.979 19.204L160.943 18.7053C160.595 18.7302 160.268 18.8052 159.964 18.9319L160.156 19.3934ZM160.997 19.2022C161.31 19.1573 161.599 19.1353 161.863 19.1353V18.6353C161.572 18.6353 161.259 18.6596 160.926 18.7072L160.997 19.2022ZM161.863 19.1353C162.708 19.1353 163.428 19.302 164.033 19.6257L164.269 19.185C163.579 18.8154 162.774 18.6353 161.863 18.6353V19.1353ZM164.039 19.6289C164.583 19.9008 164.911 20.4393 164.976 21.3302L165.475 21.2938C165.401 20.2896 165.013 19.557 164.262 19.1817L164.039 19.6289ZM165.225 21.562H169.905V21.062H165.225V21.562ZM170.154 21.2912C170.059 20.1511 169.761 19.1939 169.246 18.4331L168.832 18.7135C169.287 19.3857 169.566 20.2542 169.656 21.3328L170.154 21.2912ZM169.251 18.4408C168.769 17.6697 168.152 17.0523 167.401 16.5922L167.14 17.0185C167.822 17.4366 168.384 17.9978 168.827 18.7058L169.251 18.4408ZM167.401 16.5922C166.657 16.1359 165.808 15.8142 164.858 15.6242L164.76 16.1145C165.659 16.2943 166.451 16.5965 167.14 17.0185L167.401 16.5922ZM164.86 15.6244C163.941 15.436 162.988 15.342 162.001 15.342V15.842C162.956 15.842 163.875 15.9329 164.759 16.1142L164.86 15.6244ZM162.001 15.342C161.015 15.342 160.051 15.436 159.11 15.6242L159.208 16.1145C160.115 15.9329 161.047 15.842 162.001 15.842V15.342ZM159.116 15.6231C158.164 15.7896 157.303 16.0998 156.535 16.5557L156.79 16.9856C157.501 16.5633 158.304 16.2726 159.202 16.1156L159.116 15.6231ZM156.54 16.5528C155.763 16.9899 155.132 17.5975 154.648 18.3715L155.072 18.6365C155.513 17.9314 156.083 17.3834 156.785 16.9886L156.54 16.5528ZM154.645 18.3764C154.176 19.1656 153.951 20.1611 153.951 21.3467H154.451C154.451 20.2211 154.665 19.3215 155.075 18.6316L154.645 18.3764ZM153.951 21.3467C153.951 22.1668 154.12 22.8827 154.471 23.4833L154.903 23.2314C154.606 22.7226 154.451 22.098 154.451 21.3467H153.951ZM154.473 23.4873C154.815 24.0498 155.268 24.5257 155.827 24.9146L156.112 24.5041C155.608 24.1534 155.205 23.728 154.9 23.2273L154.473 23.4873ZM155.833 24.9187C156.383 25.2778 157.003 25.5753 157.69 25.8123L157.853 25.3397C157.2 25.1145 156.618 24.8342 156.106 24.4999L155.833 24.9187ZM157.7 25.8155C158.399 26.0251 159.11 26.2115 159.832 26.3745L159.942 25.8868C159.231 25.7263 158.531 25.5429 157.844 25.3365L157.7 25.8155ZM159.835 26.3753C161.587 26.744 162.935 27.1106 163.888 27.4736L164.066 27.0064C163.078 26.6298 161.7 26.2569 159.938 25.886L159.835 26.3753ZM163.89 27.4743C164.364 27.6507 164.697 27.8631 164.909 28.1001C165.117 28.332 165.218 28.5963 165.218 28.904H165.718C165.718 28.4722 165.571 28.0894 165.281 27.7665C164.997 27.4489 164.584 27.1991 164.064 27.0057L163.89 27.4743ZM165.218 28.904C165.218 29.3027 165.124 29.6202 164.95 29.871L165.361 30.1556C165.604 29.8055 165.718 29.3835 165.718 28.904H165.218ZM164.956 29.8633C164.77 30.1114 164.531 30.3204 164.235 30.4896L164.483 30.9237C164.834 30.7232 165.126 30.47 165.356 30.1633L164.956 29.8633ZM164.24 30.4865C163.962 30.6362 163.637 30.7563 163.261 30.8446L163.376 31.3314C163.786 31.2348 164.154 31.1007 164.477 30.9268L164.24 30.4865ZM163.273 30.8423C162.917 30.909 162.574 30.942 162.244 30.942V31.442C162.607 31.442 162.981 31.4057 163.365 31.3337L163.273 30.8423ZM162.244 30.942C161.779 30.942 161.325 30.8866 160.883 30.7761L160.762 31.2612C161.244 31.3818 161.739 31.442 162.244 31.442V30.942ZM160.886 30.7769C160.471 30.6677 160.104 30.5051 159.783 30.2907L159.505 30.7067C159.877 30.9544 160.296 31.1385 160.759 31.2604L160.886 30.7769ZM159.792 30.2971C159.471 30.0619 159.204 29.7734 158.989 29.4302L158.565 29.6952C158.813 30.0914 159.123 30.427 159.496 30.7003L159.792 30.2971ZM158.998 29.4457C158.813 29.0953 158.715 28.6747 158.715 28.176H158.215C158.215 28.7404 158.326 29.2443 158.556 29.6796L158.998 29.4457Z" fill="white"/>
<path d="M29 49H146" stroke="#FED307" stroke-width="4"/>
</svg>
