<svg width="299" height="51" viewBox="0 0 299 51" fill="none" xmlns="http://www.w3.org/2000/svg">
<rect x="26" y="26" width="248" height="13" fill="#A844AE"/>
<path d="M50.3134 21.728C50.3134 20.6418 50.4289 19.5902 50.6601 18.5733C50.9143 17.5564 51.3072 16.6551 51.8387 15.8693C52.3703 15.0604 53.0636 14.4249 53.9187 13.9627C54.7738 13.4773 55.8138 13.2347 57.0387 13.2347C58.2636 13.2347 59.3036 13.4773 60.1587 13.9627C61.0138 14.4249 61.7072 15.0604 62.2387 15.8693C62.7703 16.6551 63.1516 17.5564 63.3827 18.5733C63.6369 19.5902 63.7641 20.6418 63.7641 21.728C63.7641 22.768 63.6369 23.7849 63.3827 24.7787C63.1516 25.7493 62.7703 26.6276 62.2387 27.4133C61.7072 28.1991 61.0138 28.8347 60.1587 29.32C59.3036 29.7822 58.2636 30.0133 57.0387 30.0133C55.8138 30.0133 54.7738 29.7822 53.9187 29.32C53.0636 28.8347 52.3703 28.1991 51.8387 27.4133C51.3072 26.6276 50.9143 25.7493 50.6601 24.7787C50.4289 23.7849 50.3134 22.768 50.3134 21.728ZM44.8707 21.728C44.8707 23.5307 45.148 25.2178 45.7027 26.7893C46.2574 28.3378 47.0547 29.6898 48.0947 30.8453C49.1347 32.0009 50.4058 32.9138 51.9081 33.584C53.4334 34.2311 55.1436 34.5547 57.0387 34.5547C58.9569 34.5547 60.6672 34.2311 62.1694 33.584C63.6716 32.9138 64.9427 32.0009 65.9827 30.8453C67.0227 29.6898 67.8201 28.3378 68.3747 26.7893C68.9294 25.2178 69.2067 23.5307 69.2067 21.728C69.2067 19.8791 68.9294 18.1689 68.3747 16.5973C67.8201 15.0027 67.0227 13.616 65.9827 12.4373C64.9427 11.2587 63.6716 10.3342 62.1694 9.664C60.6672 8.99378 58.9569 8.65867 57.0387 8.65867C55.1436 8.65867 53.4334 8.99378 51.9081 9.664C50.4058 10.3342 49.1347 11.2587 48.0947 12.4373C47.0547 13.616 46.2574 15.0027 45.7027 16.5973C45.148 18.1689 44.8707 19.8791 44.8707 21.728ZM89.2205 34V16.0773H84.2978V25.472C84.2978 27.2978 83.9974 28.6151 83.3965 29.424C82.7956 30.2098 81.8249 30.6027 80.4845 30.6027C79.3058 30.6027 78.4854 30.2444 78.0232 29.528C77.5609 28.7884 77.3298 27.6791 77.3298 26.2V16.0773H72.4072V27.1013C72.4072 28.2107 72.4996 29.2276 72.6845 30.152C72.8925 31.0533 73.2392 31.8276 73.7245 32.4747C74.2098 33.0987 74.8685 33.584 75.7005 33.9307C76.5556 34.2773 77.6418 34.4507 78.9592 34.4507C79.9992 34.4507 81.016 34.2196 82.0098 33.7573C83.0036 33.2951 83.8125 32.544 84.4365 31.504H84.5405V34H89.2205ZM92.9566 16.0773V34H97.8793V25.9227C97.8793 25.1138 97.9602 24.3627 98.122 23.6693C98.2837 22.976 98.5495 22.3751 98.9193 21.8667C99.3122 21.3351 99.8206 20.9191 100.445 20.6187C101.069 20.3182 101.831 20.168 102.733 20.168C103.033 20.168 103.345 20.1911 103.669 20.2373C103.992 20.2604 104.27 20.2951 104.501 20.3413V15.7653C104.108 15.6498 103.75 15.592 103.426 15.592C102.802 15.592 102.201 15.6844 101.623 15.8693C101.046 16.0542 100.502 16.32 99.994 16.6667C99.4855 16.9902 99.0349 17.3947 98.642 17.88C98.2491 18.3422 97.9371 18.8507 97.706 19.4053H97.6366V16.0773H92.9566ZM122.042 20.896V13.4773H126.271C126.895 13.4773 127.496 13.5236 128.074 13.616C128.651 13.7084 129.16 13.8933 129.599 14.1707C130.038 14.4249 130.385 14.7947 130.639 15.28C130.916 15.7653 131.055 16.4009 131.055 17.1867C131.055 17.9724 130.916 18.608 130.639 19.0933C130.385 19.5787 130.038 19.96 129.599 20.2373C129.16 20.4916 128.651 20.6649 128.074 20.7573C127.496 20.8498 126.895 20.896 126.271 20.896H122.042ZM116.599 9.248V34H122.042V25.1253H127.762C129.31 25.1253 130.627 24.9058 131.714 24.4667C132.8 24.0044 133.678 23.4036 134.348 22.664C135.042 21.9244 135.539 21.0809 135.839 20.1333C136.163 19.1627 136.324 18.1804 136.324 17.1867C136.324 16.1698 136.163 15.1876 135.839 14.24C135.539 13.2924 135.042 12.4489 134.348 11.7093C133.678 10.9698 132.8 10.3804 131.714 9.94133C130.627 9.47911 129.31 9.248 127.762 9.248H116.599ZM138.993 21.5893C139.063 20.4338 139.352 19.4747 139.86 18.712C140.369 17.9493 141.016 17.3369 141.801 16.8747C142.587 16.4124 143.465 16.0889 144.436 15.904C145.43 15.696 146.424 15.592 147.417 15.592C148.319 15.592 149.232 15.6613 150.156 15.8C151.081 15.9156 151.924 16.1582 152.687 16.528C153.449 16.8978 154.073 17.4178 154.559 18.088C155.044 18.7351 155.287 19.6018 155.287 20.688V30.0133C155.287 30.8222 155.333 31.5964 155.425 32.336C155.518 33.0756 155.68 33.6302 155.911 34H150.919C150.826 33.7227 150.745 33.4453 150.676 33.168C150.63 32.8676 150.595 32.5671 150.572 32.2667C149.786 33.0756 148.862 33.6418 147.799 33.9653C146.736 34.2889 145.649 34.4507 144.54 34.4507C143.685 34.4507 142.888 34.3467 142.148 34.1387C141.409 33.9307 140.761 33.6071 140.207 33.168C139.652 32.7289 139.213 32.1742 138.889 31.504C138.589 30.8338 138.439 30.0364 138.439 29.112C138.439 28.0951 138.612 27.2631 138.959 26.616C139.329 25.9458 139.791 25.4142 140.345 25.0213C140.923 24.6284 141.57 24.3396 142.287 24.1547C143.026 23.9467 143.766 23.7849 144.505 23.6693C145.245 23.5538 145.973 23.4613 146.689 23.392C147.406 23.3227 148.041 23.2187 148.596 23.08C149.151 22.9413 149.59 22.7449 149.913 22.4907C150.237 22.2133 150.387 21.8204 150.364 21.312C150.364 20.7804 150.272 20.3644 150.087 20.064C149.925 19.7404 149.694 19.4978 149.393 19.336C149.116 19.1511 148.781 19.0356 148.388 18.9893C148.018 18.92 147.614 18.8853 147.175 18.8853C146.204 18.8853 145.441 19.0933 144.887 19.5093C144.332 19.9253 144.009 20.6187 143.916 21.5893H138.993ZM150.364 25.2293C150.156 25.4142 149.89 25.5644 149.567 25.68C149.266 25.7724 148.931 25.8533 148.561 25.9227C148.215 25.992 147.845 26.0498 147.452 26.096C147.059 26.1422 146.666 26.2 146.273 26.2693C145.904 26.3387 145.534 26.4311 145.164 26.5467C144.817 26.6622 144.505 26.824 144.228 27.032C143.974 27.2169 143.766 27.4596 143.604 27.76C143.442 28.0604 143.361 28.4418 143.361 28.904C143.361 29.3431 143.442 29.7129 143.604 30.0133C143.766 30.3138 143.985 30.5564 144.263 30.7413C144.54 30.9031 144.864 31.0187 145.233 31.088C145.603 31.1573 145.985 31.192 146.377 31.192C147.348 31.192 148.099 31.0302 148.631 30.7067C149.162 30.3831 149.555 30.0018 149.809 29.5627C150.064 29.1004 150.214 28.6382 150.26 28.176C150.329 27.7138 150.364 27.344 150.364 27.0667V25.2293ZM159.108 16.0773V34H164.03V25.9227C164.03 25.1138 164.111 24.3627 164.273 23.6693C164.435 22.976 164.701 22.3751 165.07 21.8667C165.463 21.3351 165.972 20.9191 166.596 20.6187C167.22 20.3182 167.982 20.168 168.884 20.168C169.184 20.168 169.496 20.1911 169.82 20.2373C170.143 20.2604 170.421 20.2951 170.652 20.3413V15.7653C170.259 15.6498 169.901 15.592 169.577 15.592C168.953 15.592 168.352 15.6844 167.774 15.8693C167.197 16.0542 166.653 16.32 166.145 16.6667C165.637 16.9902 165.186 17.3947 164.793 17.88C164.4 18.3422 164.088 18.8507 163.857 19.4053H163.788V16.0773H159.108ZM178.822 16.0773V10.704H173.899V16.0773H170.918V19.3707H173.899V29.944C173.899 30.8453 174.049 31.5733 174.35 32.128C174.65 32.6827 175.055 33.1102 175.563 33.4107C176.095 33.7111 176.695 33.9076 177.366 34C178.059 34.1156 178.787 34.1733 179.55 34.1733C180.035 34.1733 180.532 34.1618 181.04 34.1387C181.549 34.1156 182.011 34.0693 182.427 34V30.1867C182.196 30.2329 181.953 30.2676 181.699 30.2907C181.445 30.3138 181.179 30.3253 180.902 30.3253C180.07 30.3253 179.515 30.1867 179.238 29.9093C178.96 29.632 178.822 29.0773 178.822 28.2453V19.3707H182.427V16.0773H178.822ZM184.769 16.0773V34H189.692V24.6053C189.692 22.7796 189.992 21.4738 190.593 20.688C191.194 19.8791 192.165 19.4747 193.505 19.4747C194.684 19.4747 195.504 19.8444 195.966 20.584C196.429 21.3004 196.66 22.3982 196.66 23.8773V34H201.582V22.976C201.582 21.8667 201.478 20.8613 201.27 19.96C201.086 19.0356 200.75 18.2613 200.265 17.6373C199.78 16.9902 199.11 16.4933 198.254 16.1467C197.422 15.7769 196.348 15.592 195.03 15.592C193.99 15.592 192.974 15.8347 191.98 16.32C190.986 16.7822 190.177 17.5333 189.553 18.5733H189.449V16.0773H184.769ZM217.383 23.1147H209.375C209.398 22.768 209.467 22.3751 209.583 21.936C209.721 21.4969 209.941 21.0809 210.241 20.688C210.565 20.2951 210.981 19.9716 211.489 19.7173C212.021 19.44 212.68 19.3013 213.465 19.3013C214.667 19.3013 215.557 19.6249 216.135 20.272C216.736 20.9191 217.152 21.8667 217.383 23.1147ZM209.375 26.2347H222.305C222.398 24.848 222.282 23.5191 221.959 22.248C221.635 20.9769 221.104 19.8444 220.364 18.8507C219.648 17.8569 218.723 17.0711 217.591 16.4933C216.458 15.8924 215.129 15.592 213.604 15.592C212.24 15.592 210.992 15.8347 209.86 16.32C208.751 16.8053 207.792 17.4756 206.983 18.3307C206.174 19.1627 205.55 20.1564 205.111 21.312C204.672 22.4676 204.452 23.7156 204.452 25.056C204.452 26.4427 204.66 27.7138 205.076 28.8693C205.515 30.0249 206.128 31.0187 206.913 31.8507C207.699 32.6827 208.658 33.3298 209.791 33.792C210.923 34.2311 212.194 34.4507 213.604 34.4507C215.638 34.4507 217.371 33.9884 218.804 33.064C220.237 32.1396 221.3 30.6027 221.993 28.4533H217.66C217.498 29.008 217.059 29.5396 216.343 30.048C215.626 30.5333 214.771 30.776 213.777 30.776C212.391 30.776 211.328 30.4178 210.588 29.7013C209.848 28.9849 209.444 27.8293 209.375 26.2347ZM225.225 16.0773V34H230.148V25.9227C230.148 25.1138 230.228 24.3627 230.39 23.6693C230.552 22.976 230.818 22.3751 231.188 21.8667C231.58 21.3351 232.089 20.9191 232.713 20.6187C233.337 20.3182 234.1 20.168 235.001 20.168C235.301 20.168 235.613 20.1911 235.937 20.2373C236.26 20.2604 236.538 20.2951 236.769 20.3413V15.7653C236.376 15.6498 236.018 15.592 235.694 15.592C235.07 15.592 234.469 15.6844 233.892 15.8693C233.314 16.0542 232.771 16.32 232.262 16.6667C231.754 16.9902 231.303 17.3947 230.91 17.88C230.517 18.3422 230.205 18.8507 229.974 19.4053H229.905V16.0773H225.225ZM242.512 28.176H237.832C237.878 29.3778 238.144 30.3831 238.629 31.192C239.138 31.9778 239.773 32.6133 240.536 33.0987C241.322 33.584 242.212 33.9307 243.205 34.1387C244.199 34.3467 245.216 34.4507 246.256 34.4507C247.273 34.4507 248.267 34.3467 249.237 34.1387C250.231 33.9538 251.109 33.6187 251.872 33.1333C252.635 32.648 253.247 32.0124 253.709 31.2267C254.195 30.4178 254.437 29.424 254.437 28.2453C254.437 27.4133 254.276 26.72 253.952 26.1653C253.629 25.5876 253.201 25.1138 252.669 24.744C252.138 24.3511 251.525 24.0391 250.832 23.808C250.162 23.5769 249.469 23.3804 248.752 23.2187C248.059 23.0569 247.377 22.9067 246.707 22.768C246.037 22.6293 245.436 22.4791 244.904 22.3173C244.396 22.1324 243.98 21.9013 243.656 21.624C243.333 21.3467 243.171 20.9884 243.171 20.5493C243.171 20.1796 243.263 19.8907 243.448 19.6827C243.633 19.4516 243.853 19.2782 244.107 19.1627C244.384 19.0471 244.685 18.9778 245.008 18.9547C245.332 18.9084 245.632 18.8853 245.909 18.8853C246.788 18.8853 247.55 19.0587 248.197 19.4053C248.845 19.7289 249.203 20.3644 249.272 21.312H253.952C253.86 20.2027 253.571 19.2898 253.085 18.5733C252.623 17.8338 252.034 17.2444 251.317 16.8053C250.601 16.3662 249.781 16.0542 248.856 15.8693C247.955 15.6844 247.019 15.592 246.048 15.592C245.077 15.592 244.13 15.6844 243.205 15.8693C242.281 16.0311 241.449 16.3316 240.709 16.7707C239.97 17.1867 239.369 17.7644 238.907 18.504C238.468 19.2436 238.248 20.1911 238.248 21.3467C238.248 22.1324 238.41 22.8027 238.733 23.3573C239.057 23.8889 239.485 24.3396 240.016 24.7093C240.548 25.056 241.149 25.3449 241.819 25.576C242.512 25.784 243.217 25.9689 243.933 26.1307C245.69 26.5004 247.053 26.8702 248.024 27.24C249.018 27.6098 249.515 28.1644 249.515 28.904C249.515 29.3431 249.411 29.7129 249.203 30.0133C248.995 30.2907 248.729 30.5218 248.405 30.7067C248.105 30.8684 247.758 30.9956 247.365 31.088C246.996 31.1573 246.637 31.192 246.291 31.192C245.805 31.192 245.332 31.1342 244.869 31.0187C244.43 30.9031 244.037 30.7298 243.691 30.4987C243.344 30.2444 243.055 29.9324 242.824 29.5627C242.616 29.1698 242.512 28.7076 242.512 28.176Z" fill="white"/>
<path d="M50.6601 18.5733L50.4175 18.5127L50.4163 18.5179L50.6601 18.5733ZM51.8387 15.8693L52.0458 16.0094L52.0476 16.0066L51.8387 15.8693ZM53.9187 13.9627L54.0376 14.1826L54.0421 14.1801L53.9187 13.9627ZM60.1587 13.9627L60.0353 14.1801L60.0398 14.1826L60.1587 13.9627ZM62.2387 15.8693L62.0298 16.0066L62.0316 16.0094L62.2387 15.8693ZM63.3827 18.5733L63.1389 18.6288L63.1402 18.634L63.3827 18.5733ZM63.3827 24.7787L63.1405 24.7167L63.1395 24.7208L63.3827 24.7787ZM62.2387 27.4133L62.0316 27.2733L62.0316 27.2733L62.2387 27.4133ZM60.1587 29.32L60.2776 29.54L60.2821 29.5374L60.1587 29.32ZM53.9187 29.32L53.7953 29.5375L53.7998 29.5399L53.9187 29.32ZM51.8387 27.4133L51.6316 27.5534L51.6316 27.5534L51.8387 27.4133ZM50.6601 24.7787L50.4165 24.8353L50.4182 24.842L50.6601 24.7787ZM45.7027 26.7893L45.467 26.8725L45.4674 26.8736L45.7027 26.7893ZM48.0947 30.8453L48.2805 30.6781L48.2805 30.6781L48.0947 30.8453ZM51.9081 33.584L51.8062 33.8123L51.8104 33.8141L51.9081 33.584ZM62.1694 33.584L62.2683 33.8136L62.2712 33.8123L62.1694 33.584ZM65.9827 30.8453L65.7969 30.6781L65.7969 30.6781L65.9827 30.8453ZM68.3747 26.7893L68.6101 26.8736L68.6105 26.8725L68.3747 26.7893ZM68.3747 16.5973L68.1386 16.6795L68.139 16.6805L68.3747 16.5973ZM65.9827 12.4373L65.7953 12.6027L65.7953 12.6027L65.9827 12.4373ZM62.1694 9.664L62.0675 9.89231L62.0675 9.89231L62.1694 9.664ZM51.9081 9.664L51.8075 9.43511L51.8062 9.43569L51.9081 9.664ZM48.0947 12.4373L48.2822 12.6027L48.2822 12.6027L48.0947 12.4373ZM45.7027 16.5973L45.9385 16.6805L45.9388 16.6795L45.7027 16.5973ZM50.5634 21.728C50.5634 20.6596 50.677 19.6267 50.9038 18.6287L50.4163 18.5179C50.1809 19.5537 50.0634 20.6239 50.0634 21.728H50.5634ZM50.9026 18.634C51.1505 17.6425 51.5322 16.7686 52.0458 16.0094L51.6316 15.7293C51.0821 16.5416 50.6781 17.4704 50.4175 18.5127L50.9026 18.634ZM52.0476 16.0066C52.5564 15.2325 53.2187 14.6252 54.0376 14.1826L53.7998 13.7427C52.9085 14.2245 52.1842 14.8884 51.6298 15.732L52.0476 16.0066ZM54.0421 14.1801C54.8514 13.7208 55.8466 13.4847 57.0387 13.4847V12.9847C55.7811 12.9847 54.6962 13.2339 53.7953 13.7452L54.0421 14.1801ZM57.0387 13.4847C58.2308 13.4847 59.226 13.7208 60.0353 14.1801L60.2821 13.7452C59.3812 13.2339 58.2964 12.9847 57.0387 12.9847V13.4847ZM60.0398 14.1826C60.8587 14.6252 61.5211 15.2325 62.0298 16.0066L62.4476 15.732C61.8933 14.8884 61.1689 14.2245 60.2776 13.7427L60.0398 14.1826ZM62.0316 16.0094C62.5442 16.7671 62.914 17.6391 63.1389 18.6287L63.6265 18.5179C63.3892 17.4738 62.9964 16.5432 62.4458 15.7293L62.0316 16.0094ZM63.1402 18.634C63.3893 19.6303 63.5141 20.6615 63.5141 21.728H64.0141C64.0141 20.6221 63.8846 19.5501 63.6253 18.5127L63.1402 18.634ZM63.5141 21.728C63.5141 22.7474 63.3895 23.7435 63.1405 24.7167L63.6249 24.8406C63.8844 23.8263 64.0141 22.7886 64.0141 21.728H63.5141ZM63.1395 24.7208C62.915 25.6636 62.5454 26.5137 62.0316 27.2733L62.4458 27.5534C62.9951 26.7414 63.3882 25.835 63.6259 24.8366L63.1395 24.7208ZM62.0316 27.2733C61.5225 28.026 60.8582 28.6355 60.0353 29.1026L60.2821 29.5374C61.1694 29.0338 61.8919 28.3722 62.4458 27.5534L62.0316 27.2733ZM60.0398 29.1001C59.2295 29.5381 58.2327 29.7633 57.0387 29.7633V30.2633C58.2945 30.2633 59.3777 30.0264 60.2776 29.5399L60.0398 29.1001ZM57.0387 29.7633C55.8448 29.7633 54.8479 29.5381 54.0376 29.1001L53.7998 29.5399C54.6998 30.0264 55.7829 30.2633 57.0387 30.2633V29.7633ZM54.0421 29.1026C53.2192 28.6355 52.555 28.026 52.0458 27.2733L51.6316 27.5534C52.1856 28.3722 52.908 29.0338 53.7953 29.5374L54.0421 29.1026ZM52.0458 27.2733C51.531 26.5122 51.1494 25.6602 50.9019 24.7153L50.4182 24.842C50.6792 25.8384 51.0833 26.7429 51.6316 27.5534L52.0458 27.2733ZM50.9036 24.722C50.6768 23.7472 50.5634 22.7493 50.5634 21.728H50.0634C50.0634 22.7867 50.181 23.8226 50.4165 24.8353L50.9036 24.722ZM44.6207 21.728C44.6207 23.5567 44.9021 25.2722 45.467 26.8725L45.9385 26.7061C45.394 25.1634 45.1207 23.5046 45.1207 21.728H44.6207ZM45.4674 26.8736C46.0323 28.4509 46.8459 29.8315 47.9089 31.0126L48.2805 30.6781C47.2635 29.5481 46.4824 28.2247 45.9381 26.705L45.4674 26.8736ZM47.9089 31.0126C48.9736 32.1956 50.2739 33.1287 51.8062 33.8123L52.0099 33.3557C50.5378 32.6989 49.2958 31.8061 48.2805 30.6781L47.9089 31.0126ZM51.8104 33.8141C53.3708 34.4761 55.1149 34.8047 57.0387 34.8047V34.3047C55.1724 34.3047 53.496 33.9861 52.0057 33.3539L51.8104 33.8141ZM57.0387 34.8047C58.9852 34.8047 60.7299 34.4763 62.2683 33.8136L62.0705 33.3544C60.6044 33.9859 58.9287 34.3047 57.0387 34.3047V34.8047ZM62.2712 33.8123C63.8035 33.1287 65.1038 32.1956 66.1685 31.0126L65.7969 30.6781C64.7816 31.8061 63.5397 32.6989 62.0675 33.3557L62.2712 33.8123ZM66.1685 31.0126C67.2315 29.8315 68.0451 28.4509 68.6101 26.8736L68.1394 26.705C67.595 28.2247 66.8139 29.5481 65.7969 30.6781L66.1685 31.0126ZM68.6105 26.8725C69.1753 25.2722 69.4567 23.5567 69.4567 21.728H68.9567C68.9567 23.5046 68.6835 25.1634 68.139 26.7061L68.6105 26.8725ZM69.4567 21.728C69.4567 19.8539 69.1755 18.1152 68.6105 16.5141L68.139 16.6805C68.6832 18.2226 68.9567 19.9044 68.9567 21.728H69.4567ZM68.6108 16.5152C68.0463 14.8922 67.2332 13.4767 66.1702 12.2719L65.7953 12.6027C66.8122 13.7553 67.5938 15.1132 68.1386 16.6795L68.6108 16.5152ZM66.1702 12.2719C65.1054 11.0652 63.8046 10.1198 62.2712 9.43569L62.0675 9.89231C63.5386 10.5486 64.7801 11.4522 65.7953 12.6027L66.1702 12.2719ZM62.2712 9.43569C60.7321 8.74899 58.9863 8.40867 57.0387 8.40867V8.90867C58.9276 8.90867 60.6022 9.23857 62.0675 9.89231L62.2712 9.43569ZM57.0387 8.40867C55.1137 8.40867 53.3686 8.74918 51.8075 9.43512L52.0086 9.89288C53.4982 9.23838 55.1735 8.90867 57.0387 8.90867V8.40867ZM51.8062 9.43569C50.2728 10.1198 48.9721 11.0652 47.9073 12.2719L48.2822 12.6027C49.2974 11.4522 50.5388 10.5486 52.0099 9.89231L51.8062 9.43569ZM47.9073 12.2719C46.8442 13.4767 46.0311 14.8922 45.4666 16.5152L45.9388 16.6795C46.4836 15.1132 47.2652 13.7553 48.2822 12.6027L47.9073 12.2719ZM45.467 16.5141C44.9019 18.1152 44.6207 19.8539 44.6207 21.728H45.1207C45.1207 19.9044 45.3942 18.2226 45.9385 16.6805L45.467 16.5141ZM89.2205 34V34.25H89.4705V34H89.2205ZM89.2205 16.0773H89.4705V15.8273H89.2205V16.0773ZM84.2978 16.0773V15.8273H84.0478V16.0773H84.2978ZM83.3965 29.424L83.5951 29.5759L83.5972 29.5731L83.3965 29.424ZM78.0232 29.528L77.8111 29.6605L77.8131 29.6635L78.0232 29.528ZM77.3298 16.0773H77.5798V15.8273H77.3298V16.0773ZM72.4072 16.0773V15.8273H72.1572V16.0773H72.4072ZM72.6845 30.152L72.4392 30.201L72.4409 30.2082L72.6845 30.152ZM73.7245 32.4747L73.5245 32.6247L73.5272 32.6282L73.7245 32.4747ZM75.7005 33.9307L75.6043 34.1614L75.6066 34.1624L75.7005 33.9307ZM82.0098 33.7573L82.1153 33.984L82.1153 33.984L82.0098 33.7573ZM84.4365 31.504V31.254H84.2949L84.2221 31.3754L84.4365 31.504ZM84.5405 31.504H84.7905V31.254H84.5405V31.504ZM84.5405 34H84.2905V34.25H84.5405V34ZM89.4705 34V16.0773H88.9705V34H89.4705ZM89.2205 15.8273H84.2978V16.3273H89.2205V15.8273ZM84.0478 16.0773V25.472H84.5478V16.0773H84.0478ZM84.0478 25.472C84.0478 27.2823 83.7476 28.5321 83.1958 29.2749L83.5972 29.5731C84.2471 28.6981 84.5478 27.3133 84.5478 25.472H84.0478ZM83.1979 29.2721C82.6598 29.9758 81.7768 30.3527 80.4845 30.3527V30.8527C81.8731 30.8527 82.9314 30.4438 83.5951 29.5759L83.1979 29.2721ZM80.4845 30.3527C79.355 30.3527 78.6329 30.012 78.2332 29.3925L77.8131 29.6635C78.3378 30.4769 79.2566 30.8527 80.4845 30.8527V30.3527ZM78.2352 29.3955C77.8096 28.7146 77.5798 27.6612 77.5798 26.2H77.0798C77.0798 27.6971 77.3123 28.8623 77.8112 29.6605L78.2352 29.3955ZM77.5798 26.2V16.0773H77.0798V26.2H77.5798ZM77.3298 15.8273H72.4072V16.3273H77.3298V15.8273ZM72.1572 16.0773V27.1013H72.6572V16.0773H72.1572ZM72.1572 27.1013C72.1572 28.2243 72.2507 29.2579 72.4393 30.201L72.9296 30.103C72.7485 29.1972 72.6572 28.197 72.6572 27.1013H72.1572ZM72.4409 30.2082C72.6556 31.1386 73.0154 31.9459 73.5245 32.6247L73.9245 32.3247C73.4629 31.7092 73.1294 30.968 72.9281 30.0958L72.4409 30.2082ZM73.5272 32.6282C74.0425 33.2908 74.7382 33.8005 75.6043 34.1614L75.7966 33.6999C74.9988 33.3675 74.3771 32.9066 73.9218 32.3212L73.5272 32.6282ZM75.6066 34.1624C76.5014 34.5251 77.6223 34.7007 78.9592 34.7007V34.2007C77.6613 34.2007 76.6098 34.0296 75.7944 33.699L75.6066 34.1624ZM78.9592 34.7007C80.0375 34.7007 81.0903 34.4608 82.1153 33.984L81.9044 33.5307C80.9418 33.9784 79.9608 34.2007 78.9592 34.2007V34.7007ZM82.1153 33.984C83.1591 33.4985 84.004 32.7107 84.6509 31.6326L84.2221 31.3754C83.621 32.3773 82.8481 33.0917 81.9044 33.5307L82.1153 33.984ZM84.4365 31.754H84.5405V31.254H84.4365V31.754ZM84.2905 31.504V34H84.7905V31.504H84.2905ZM84.5405 34.25H89.2205V33.75H84.5405V34.25ZM92.9566 16.0773V15.8273H92.7066V16.0773H92.9566ZM92.9566 34H92.7066V34.25H92.9566V34ZM97.8793 34V34.25H98.1293V34H97.8793ZM98.9193 21.8667L98.7183 21.7181L98.7171 21.7196L98.9193 21.8667ZM100.445 20.6187L100.553 20.8439L100.553 20.8439L100.445 20.6187ZM103.669 20.2373L103.633 20.4848L103.642 20.4861L103.651 20.4867L103.669 20.2373ZM104.501 20.3413L104.452 20.5865L104.751 20.6463V20.3413H104.501ZM104.501 15.7653H104.751V15.5783L104.571 15.5255L104.501 15.7653ZM101.623 15.8693L101.699 16.1074L101.699 16.1074L101.623 15.8693ZM99.994 16.6667L100.128 16.8777L100.135 16.8732L99.994 16.6667ZM98.642 17.88L98.8325 18.042L98.8363 18.0373L98.642 17.88ZM97.706 19.4053V19.6553H97.8726L97.9367 19.5015L97.706 19.4053ZM97.6366 19.4053H97.3866V19.6553H97.6366V19.4053ZM97.6366 16.0773H97.8866V15.8273H97.6366V16.0773ZM92.7066 16.0773V34H93.2066V16.0773H92.7066ZM92.9566 34.25H97.8793V33.75H92.9566V34.25ZM98.1293 34V25.9227H97.6293V34H98.1293ZM98.1293 25.9227C98.1293 25.1304 98.2085 24.3985 98.3654 23.7261L97.8785 23.6125C97.7118 24.3268 97.6293 25.0972 97.6293 25.9227H98.1293ZM98.3654 23.7261C98.5206 23.061 98.7738 22.4918 99.1215 22.0137L98.7171 21.7196C98.3253 22.2584 98.0469 22.891 97.8785 23.6125L98.3654 23.7261ZM99.1203 22.0153C99.4879 21.518 99.9639 21.1276 100.553 20.8439L100.336 20.3934C99.6773 20.7106 99.1365 21.1522 98.7183 21.7181L99.1203 22.0153ZM100.553 20.8439C101.135 20.5639 101.858 20.418 102.733 20.418V19.918C101.805 19.918 101.003 20.0725 100.336 20.3934L100.553 20.8439ZM102.733 20.418C103.02 20.418 103.32 20.4401 103.633 20.4848L103.704 19.9898C103.37 19.9421 103.046 19.918 102.733 19.918V20.418ZM103.651 20.4867C103.967 20.5093 104.234 20.5429 104.452 20.5865L104.55 20.0962C104.305 20.0473 104.017 20.0116 103.686 19.988L103.651 20.4867ZM104.751 20.3413V15.7653H104.251V20.3413H104.751ZM104.571 15.5255C104.161 15.4049 103.779 15.342 103.426 15.342V15.842C103.72 15.842 104.054 15.8947 104.43 16.0052L104.571 15.5255ZM103.426 15.342C102.777 15.342 102.15 15.4382 101.547 15.6312L101.699 16.1074C102.252 15.9307 102.827 15.842 103.426 15.842V15.342ZM101.547 15.6312C100.946 15.8236 100.381 16.1001 99.8531 16.4601L100.135 16.8732C100.624 16.5399 101.145 16.2849 101.699 16.1074L101.547 15.6312ZM99.8597 16.4558C99.3277 16.7943 98.8569 17.2171 98.4477 17.7227L98.8363 18.0373C99.2128 17.5722 99.6434 17.1861 100.128 16.8776L99.8597 16.4558ZM98.4515 17.7181C98.042 18.1998 97.7164 18.7304 97.4752 19.3092L97.9367 19.5015C98.1578 18.9709 98.4561 18.4846 98.8325 18.0419L98.4515 17.7181ZM97.706 19.1553H97.6366V19.6553H97.706V19.1553ZM97.8866 19.4053V16.0773H97.3866V19.4053H97.8866ZM97.6366 15.8273H92.9566V16.3273H97.6366V15.8273ZM122.042 20.896H121.792V21.146H122.042V20.896ZM122.042 13.4773V13.2273H121.792V13.4773H122.042ZM128.074 13.616L128.034 13.8629L128.034 13.8629L128.074 13.616ZM129.599 14.1707L129.465 14.3822L129.474 14.387L129.599 14.1707ZM130.639 15.28L130.417 15.3961L130.422 15.404L130.639 15.28ZM130.639 19.0933L130.422 18.9692L130.418 18.9773L130.639 19.0933ZM129.599 20.2373L129.724 20.4538L129.733 20.4487L129.599 20.2373ZM128.074 20.7573L128.034 20.5105L128.034 20.5105L128.074 20.7573ZM116.599 9.248V8.998H116.349V9.248H116.599ZM116.599 34H116.349V34.25H116.599V34ZM122.042 34V34.25H122.292V34H122.042ZM122.042 25.1253V24.8753H121.792V25.1253H122.042ZM131.714 24.4667L131.807 24.6985L131.812 24.6967L131.714 24.4667ZM134.348 22.664L134.166 22.493L134.163 22.4961L134.348 22.664ZM135.839 20.1333L135.602 20.0543L135.601 20.0578L135.839 20.1333ZM135.839 14.24L135.601 14.3156L135.602 14.3208L135.839 14.24ZM134.348 11.7093L134.163 11.8772L134.166 11.8803L134.348 11.7093ZM131.714 9.94133L131.616 10.1714L131.62 10.1731L131.714 9.94133ZM122.292 20.896V13.4773H121.792V20.896H122.292ZM122.042 13.7273H126.271V13.2273H122.042V13.7273ZM126.271 13.7273C126.883 13.7273 127.47 13.7726 128.034 13.8629L128.113 13.3691C127.522 13.2745 126.907 13.2273 126.271 13.2273V13.7273ZM128.034 13.8629C128.583 13.9506 129.058 14.1249 129.466 14.382L129.733 13.9593C129.261 13.6617 128.72 13.4663 128.113 13.3691L128.034 13.8629ZM129.474 14.387C129.869 14.6157 130.183 14.9491 130.418 15.396L130.86 15.164C130.586 14.6403 130.208 14.2341 129.724 13.9543L129.474 14.387ZM130.422 15.404C130.671 15.8393 130.805 16.4277 130.805 17.1867H131.305C131.305 16.3741 131.162 15.6913 130.856 15.156L130.422 15.404ZM130.805 17.1867C130.805 17.9457 130.671 18.534 130.422 18.9693L130.856 19.2174C131.162 18.682 131.305 17.9992 131.305 17.1867H130.805ZM130.418 18.9773C130.183 19.4259 129.865 19.7734 129.466 20.026L129.733 20.4487C130.211 20.1466 130.587 19.7314 130.86 19.2093L130.418 18.9773ZM129.474 20.021C129.065 20.2577 128.586 20.4221 128.034 20.5105L128.113 21.0042C128.717 20.9076 129.255 20.7254 129.724 20.4537L129.474 20.021ZM128.034 20.5105C127.47 20.6007 126.883 20.646 126.271 20.646V21.146C126.907 21.146 127.522 21.0989 128.113 21.0042L128.034 20.5105ZM126.271 20.646H122.042V21.146H126.271V20.646ZM116.349 9.248V34H116.849V9.248H116.349ZM116.599 34.25H122.042V33.75H116.599V34.25ZM122.292 34V25.1253H121.792V34H122.292ZM122.042 25.3753H127.762V24.8753H122.042V25.3753ZM127.762 25.3753C129.332 25.3753 130.684 25.1528 131.807 24.6984L131.62 24.2349C130.571 24.6588 129.288 24.8753 127.762 24.8753V25.3753ZM131.812 24.6967C132.925 24.2229 133.835 23.6027 134.534 22.8319L134.163 22.4961C133.521 23.2044 132.675 23.786 131.616 24.2366L131.812 24.6967ZM134.531 22.835C135.249 22.0688 135.765 21.1928 136.077 20.2089L135.601 20.0578C135.312 20.969 134.834 21.7801 134.166 22.493L134.531 22.835ZM136.076 20.2124C136.408 19.217 136.574 18.2081 136.574 17.1867H136.074C136.074 18.1528 135.917 19.1083 135.602 20.0543L136.076 20.2124ZM136.574 17.1867C136.574 16.1427 136.408 15.1332 136.076 14.1592L135.602 14.3208C135.917 15.2419 136.074 16.1968 136.074 17.1867H136.574ZM136.077 14.1644C135.765 13.1806 135.249 12.3046 134.531 11.5383L134.166 11.8803C134.834 12.5932 135.312 13.4043 135.601 14.3156L136.077 14.1644ZM134.534 11.5415C133.834 10.7695 132.923 10.1603 131.807 9.70955L131.62 10.1731C132.677 10.6005 133.522 11.17 134.163 11.8772L134.534 11.5415ZM131.812 9.71129C130.686 9.23248 129.334 8.998 127.762 8.998V9.498C129.286 9.498 130.569 9.72573 131.616 10.1714L131.812 9.71129ZM127.762 8.998H116.599V9.498H127.762V8.998ZM138.993 21.5893L138.744 21.5744L138.728 21.8393H138.993V21.5893ZM139.86 18.712L140.068 18.8507L140.068 18.8507L139.86 18.712ZM141.801 16.8747L141.928 17.0901L141.928 17.0901L141.801 16.8747ZM144.436 15.904L144.483 16.1496L144.487 16.1487L144.436 15.904ZM150.156 15.8L150.119 16.0473L150.125 16.0481L150.156 15.8ZM152.687 16.528L152.578 16.753L152.578 16.753L152.687 16.528ZM154.559 18.088L154.356 18.2346L154.359 18.238L154.559 18.088ZM155.425 32.336L155.177 32.367L155.425 32.336ZM155.911 34V34.25H156.362L156.123 33.8675L155.911 34ZM150.919 34L150.682 34.0791L150.739 34.25H150.919V34ZM150.676 33.168L150.429 33.206L150.431 33.2174L150.434 33.2286L150.676 33.168ZM150.572 32.2667L150.821 32.2475L150.779 31.695L150.393 32.0925L150.572 32.2667ZM147.799 33.9653L147.872 34.2045L147.799 33.9653ZM142.148 34.1387L142.216 33.898L142.216 33.898L142.148 34.1387ZM140.207 33.168L140.052 33.364L140.052 33.364L140.207 33.168ZM138.889 31.504L138.661 31.6063L138.664 31.6127L138.889 31.504ZM138.959 26.616L138.74 26.4952L138.738 26.4979L138.959 26.616ZM140.345 25.0213L140.205 24.8146L140.201 24.8173L140.345 25.0213ZM142.287 24.1547L142.349 24.3968L142.354 24.3953L142.287 24.1547ZM144.505 23.6693L144.544 23.9163L144.544 23.9163L144.505 23.6693ZM146.689 23.392L146.665 23.1432L146.665 23.1432L146.689 23.392ZM148.596 23.08L148.535 22.8375L148.535 22.8375L148.596 23.08ZM149.913 22.4907L150.068 22.6874L150.076 22.6805L149.913 22.4907ZM150.364 21.312H150.114L150.114 21.3234L150.364 21.312ZM150.087 20.064L149.863 20.1758L149.868 20.1856L149.874 20.195L150.087 20.064ZM149.393 19.336L149.255 19.544L149.265 19.5505L149.275 19.5561L149.393 19.336ZM148.388 18.9893L148.342 19.235L148.35 19.2366L148.359 19.2376L148.388 18.9893ZM143.916 21.5893V21.8393H144.143L144.165 21.613L143.916 21.5893ZM150.364 25.2293H150.614V24.6726L150.198 25.0425L150.364 25.2293ZM149.567 25.68L149.64 25.9192L149.651 25.9154L149.567 25.68ZM148.561 25.9227L148.515 25.6769L148.512 25.6775L148.561 25.9227ZM147.452 26.096L147.423 25.8477L147.423 25.8477L147.452 26.096ZM146.273 26.2693L146.23 26.0231L146.227 26.0236L146.273 26.2693ZM145.164 26.5467L145.09 26.308L145.085 26.3095L145.164 26.5467ZM144.228 27.032L144.375 27.2342L144.378 27.232L144.228 27.032ZM143.604 30.0133L143.384 30.1319L143.384 30.1319L143.604 30.0133ZM144.263 30.7413L144.124 30.9493L144.13 30.9535L144.137 30.9573L144.263 30.7413ZM145.233 31.088L145.28 30.8423L145.28 30.8423L145.233 31.088ZM148.631 30.7067L148.501 30.4931L148.501 30.4931L148.631 30.7067ZM149.809 29.5627L150.026 29.688L150.028 29.6831L149.809 29.5627ZM150.26 28.176L150.013 28.1389L150.011 28.1511L150.26 28.176ZM139.243 21.6043C139.31 20.4815 139.59 19.568 140.068 18.8507L139.652 18.5733C139.113 19.3813 138.815 20.3861 138.744 21.5744L139.243 21.6043ZM140.068 18.8507C140.556 18.1192 141.175 17.5331 141.928 17.0901L141.675 16.6592C140.856 17.1407 140.181 17.7794 139.652 18.5733L140.068 18.8507ZM141.928 17.0901C142.687 16.6437 143.538 16.3296 144.483 16.1496L144.389 15.6584C143.393 15.8482 142.487 16.1812 141.675 16.6592L141.928 17.0901ZM144.487 16.1487C145.465 15.9441 146.441 15.842 147.417 15.842V15.342C146.406 15.342 145.395 15.4479 144.385 15.6593L144.487 16.1487ZM147.417 15.842C148.306 15.842 149.206 15.9103 150.119 16.0472L150.193 15.5528C149.257 15.4123 148.332 15.342 147.417 15.342V15.842ZM150.125 16.0481C151.025 16.1606 151.842 16.3962 152.578 16.753L152.796 16.303C152.006 15.9202 151.136 15.6705 150.187 15.5519L150.125 16.0481ZM152.578 16.753C153.304 17.1052 153.896 17.5987 154.356 18.2346L154.761 17.9414C154.251 17.2369 153.595 16.6904 152.796 16.303L152.578 16.753ZM154.359 18.238C154.802 18.8291 155.037 19.6375 155.037 20.688H155.537C155.537 19.5661 155.286 18.6411 154.759 17.938L154.359 18.238ZM155.037 20.688V30.0133H155.537V20.688H155.037ZM155.037 30.0133C155.037 30.8317 155.084 31.6163 155.177 32.367L155.674 32.305C155.582 31.5765 155.537 30.8127 155.537 30.0133H155.037ZM155.177 32.367C155.272 33.1205 155.439 33.7174 155.699 34.1325L156.123 33.8675C155.92 33.543 155.764 33.0306 155.674 32.305L155.177 32.367ZM155.911 33.75H150.919V34.25H155.911V33.75ZM151.156 33.9209C151.065 33.6495 150.986 33.3784 150.919 33.1074L150.434 33.2286C150.504 33.5123 150.587 33.7958 150.682 34.0791L151.156 33.9209ZM150.923 33.13C150.878 32.8357 150.844 32.5416 150.821 32.2475L150.323 32.2858C150.346 32.5926 150.382 32.8994 150.429 33.206L150.923 33.13ZM150.393 32.0925C149.636 32.8715 148.748 33.4151 147.726 33.7262L147.872 34.2045C148.976 33.8685 149.937 33.2796 150.751 32.4409L150.393 32.0925ZM147.726 33.7262C146.686 34.0426 145.625 34.2007 144.54 34.2007V34.7007C145.674 34.7007 146.785 34.5352 147.872 34.2045L147.726 33.7262ZM144.54 34.2007C143.705 34.2007 142.931 34.0992 142.216 33.898L142.08 34.3793C142.844 34.5942 143.665 34.7007 144.54 34.7007V34.2007ZM142.216 33.898C141.505 33.6982 140.889 33.3889 140.362 32.972L140.052 33.364C140.634 33.8254 141.312 34.1632 142.08 34.3793L142.216 33.898ZM140.362 32.972C139.838 32.5575 139.423 32.0333 139.115 31.3953L138.664 31.6127C139.003 32.3151 139.466 32.9002 140.052 33.364L140.362 32.972ZM139.118 31.4017C138.835 30.7709 138.689 30.01 138.689 29.112H138.189C138.189 30.0629 138.343 30.8967 138.661 31.6063L139.118 31.4017ZM138.689 29.112C138.689 28.1213 138.858 27.3336 139.179 26.7341L138.738 26.4979C138.366 27.1926 138.189 28.069 138.189 29.112H138.689ZM139.178 26.7368C139.532 26.0954 139.97 25.5938 140.49 25.2253L140.201 24.8173C139.612 25.2346 139.126 25.7962 138.74 26.4952L139.178 26.7368ZM140.486 25.2281C141.039 24.8523 141.659 24.5749 142.349 24.3967L142.224 23.9126C141.482 24.1043 140.808 24.4046 140.205 24.8146L140.486 25.2281ZM142.354 24.3953C143.085 24.1899 143.815 24.0303 144.544 23.9163L144.467 23.4223C143.717 23.5395 142.968 23.7034 142.219 23.914L142.354 24.3953ZM144.544 23.9163C145.279 23.8015 146.002 23.7097 146.714 23.6408L146.665 23.1432C145.944 23.213 145.211 23.3061 144.467 23.4223L144.544 23.9163ZM146.714 23.6408C147.439 23.5706 148.087 23.4649 148.657 23.3225L148.535 22.8375C147.995 22.9725 147.372 23.0747 146.665 23.1432L146.714 23.6408ZM148.657 23.3225C149.233 23.1784 149.708 22.97 150.068 22.6872L149.759 22.2941C149.472 22.5198 149.068 22.7042 148.535 22.8375L148.657 23.3225ZM150.076 22.6805C150.47 22.3431 150.64 21.8693 150.614 21.3006L150.114 21.3234C150.135 21.7716 150.004 22.0836 149.751 22.3009L150.076 22.6805ZM150.614 21.312C150.614 20.756 150.518 20.288 150.3 19.933L149.874 20.195C150.025 20.4409 150.114 20.8049 150.114 21.312H150.614ZM150.31 19.9522C150.127 19.5855 149.861 19.3036 149.512 19.1159L149.275 19.5561C149.527 19.692 149.723 19.8954 149.863 20.1758L150.31 19.9522ZM149.532 19.128C149.216 18.9175 148.842 18.791 148.417 18.741L148.359 19.2376C148.72 19.2801 149.016 19.3847 149.255 19.544L149.532 19.128ZM148.434 18.7436C148.047 18.671 147.627 18.6353 147.175 18.6353V19.1353C147.601 19.1353 147.99 19.169 148.342 19.235L148.434 18.7436ZM147.175 18.6353C146.171 18.6353 145.349 18.8502 144.737 19.3093L145.037 19.7093C145.534 19.3365 146.237 19.1353 147.175 19.1353V18.6353ZM144.737 19.3093C144.106 19.7825 143.764 20.5542 143.667 21.5656L144.165 21.613C144.254 20.6832 144.558 20.0682 145.037 19.7093L144.737 19.3093ZM143.916 21.3393H138.993V21.8393H143.916V21.3393ZM150.198 25.0425C150.019 25.2017 149.783 25.3373 149.483 25.4446L149.651 25.9154C149.998 25.7915 150.293 25.6267 150.53 25.4162L150.198 25.0425ZM149.493 25.4411C149.203 25.5302 148.878 25.609 148.515 25.6769L148.608 26.1684C148.985 26.0976 149.329 26.0146 149.64 25.9189L149.493 25.4411ZM148.512 25.6775C148.173 25.7454 147.81 25.8022 147.423 25.8477L147.481 26.3443C147.88 26.2974 148.257 26.2386 148.61 26.1678L148.512 25.6775ZM147.423 25.8477C147.025 25.8945 146.628 25.953 146.23 26.0231L146.317 26.5155C146.705 26.447 147.093 26.3899 147.481 26.3443L147.423 25.8477ZM146.227 26.0236C145.848 26.0948 145.468 26.1897 145.09 26.308L145.239 26.7853C145.599 26.6726 145.96 26.5825 146.32 26.5151L146.227 26.0236ZM145.085 26.3095C144.714 26.4331 144.378 26.607 144.078 26.832L144.378 27.232C144.633 27.041 144.921 26.8914 145.243 26.7838L145.085 26.3095ZM144.081 26.8298C143.794 27.0386 143.562 27.3109 143.384 27.6415L143.824 27.8785C143.97 27.6082 144.154 27.3952 144.375 27.2342L144.081 26.8298ZM143.384 27.6415C143.197 27.989 143.111 28.4144 143.111 28.904H143.611C143.611 28.4691 143.688 28.1319 143.824 27.8785L143.384 27.6415ZM143.111 28.904C143.111 29.3729 143.198 29.786 143.384 30.1319L143.824 29.8948C143.687 29.6398 143.611 29.3133 143.611 28.904H143.111ZM143.384 30.1319C143.565 30.4675 143.812 30.7412 144.124 30.9493L144.401 30.5333C144.159 30.3717 143.967 30.1601 143.824 29.8948L143.384 30.1319ZM144.137 30.9573C144.443 31.1357 144.794 31.26 145.187 31.3337L145.28 30.8423C144.933 30.7773 144.638 30.6705 144.389 30.5254L144.137 30.9573ZM145.187 31.3337C145.573 31.406 145.97 31.442 146.377 31.442V30.942C145.999 30.942 145.633 30.9086 145.28 30.8423L145.187 31.3337ZM146.377 31.442C147.37 31.442 148.174 31.2774 148.761 30.9202L148.501 30.4931C148.025 30.783 147.326 30.942 146.377 30.942V31.442ZM148.761 30.9202C149.32 30.5798 149.746 30.1706 150.026 29.6879L149.593 29.4374C149.364 29.833 149.005 30.1864 148.501 30.4931L148.761 30.9202ZM150.028 29.6831C150.297 29.1954 150.459 28.7009 150.509 28.2009L150.011 28.1511C149.969 28.5755 149.831 29.0055 149.59 29.4422L150.028 29.6831ZM150.507 28.2131C150.577 27.7457 150.614 27.362 150.614 27.0667H150.114C150.114 27.326 150.081 27.6819 150.013 28.1389L150.507 28.2131ZM150.614 27.0667V25.2293H150.114V27.0667H150.614ZM159.108 16.0773V15.8273H158.858V16.0773H159.108ZM159.108 34H158.858V34.25H159.108V34ZM164.03 34V34.25H164.28V34H164.03ZM165.07 21.8667L164.869 21.7181L164.868 21.7196L165.07 21.8667ZM166.596 20.6187L166.704 20.8439L166.704 20.8439L166.596 20.6187ZM169.82 20.2373L169.784 20.4848L169.793 20.4861L169.802 20.4867L169.82 20.2373ZM170.652 20.3413L170.603 20.5865L170.902 20.6463V20.3413H170.652ZM170.652 15.7653H170.902V15.5783L170.722 15.5255L170.652 15.7653ZM167.774 15.8693L167.851 16.1074L167.851 16.1074L167.774 15.8693ZM166.145 16.6667L166.279 16.8777L166.286 16.8732L166.145 16.6667ZM164.793 17.88L164.984 18.042L164.987 18.0373L164.793 17.88ZM163.857 19.4053V19.6553H164.024L164.088 19.5015L163.857 19.4053ZM163.788 19.4053H163.538V19.6553H163.788V19.4053ZM163.788 16.0773H164.038V15.8273H163.788V16.0773ZM158.858 16.0773V34H159.358V16.0773H158.858ZM159.108 34.25H164.03V33.75H159.108V34.25ZM164.28 34V25.9227H163.78V34H164.28ZM164.28 25.9227C164.28 25.1304 164.36 24.3985 164.516 23.7261L164.03 23.6125C163.863 24.3268 163.78 25.0972 163.78 25.9227H164.28ZM164.516 23.7261C164.672 23.061 164.925 22.4918 165.273 22.0137L164.868 21.7196C164.476 22.2584 164.198 22.891 164.03 23.6125L164.516 23.7261ZM165.271 22.0153C165.639 21.518 166.115 21.1276 166.704 20.8439L166.487 20.3934C165.828 20.7106 165.288 21.1522 164.869 21.7181L165.271 22.0153ZM166.704 20.8439C167.286 20.5639 168.009 20.418 168.884 20.418V19.918C167.956 19.918 167.154 20.0725 166.487 20.3934L166.704 20.8439ZM168.884 20.418C169.171 20.418 169.471 20.4401 169.784 20.4848L169.855 19.9898C169.521 19.9421 169.197 19.918 168.884 19.918V20.418ZM169.802 20.4867C170.119 20.5093 170.385 20.5429 170.603 20.5865L170.701 20.0962C170.456 20.0473 170.168 20.0116 169.837 19.988L169.802 20.4867ZM170.902 20.3413V15.7653H170.402V20.3413H170.902ZM170.722 15.5255C170.312 15.4049 169.93 15.342 169.577 15.342V15.842C169.871 15.842 170.205 15.8947 170.581 16.0052L170.722 15.5255ZM169.577 15.342C168.928 15.342 168.301 15.4382 167.698 15.6312L167.851 16.1074C168.403 15.9307 168.978 15.842 169.577 15.842V15.342ZM167.698 15.6312C167.097 15.8236 166.532 16.1001 166.004 16.4601L166.286 16.8732C166.775 16.5399 167.296 16.2849 167.851 16.1074L167.698 15.6312ZM166.011 16.4558C165.479 16.7943 165.008 17.2171 164.599 17.7227L164.987 18.0373C165.364 17.5722 165.794 17.1861 166.279 16.8776L166.011 16.4558ZM164.603 17.7181C164.193 18.1998 163.867 18.7304 163.626 19.3092L164.088 19.5015C164.309 18.9709 164.607 18.4846 164.984 18.0419L164.603 17.7181ZM163.857 19.1553H163.788V19.6553H163.857V19.1553ZM164.038 19.4053V16.0773H163.538V19.4053H164.038ZM163.788 15.8273H159.108V16.3273H163.788V15.8273ZM178.822 16.0773H178.572V16.3273H178.822V16.0773ZM178.822 10.704H179.072V10.454H178.822V10.704ZM173.899 10.704V10.454H173.649V10.704H173.899ZM173.899 16.0773V16.3273H174.149V16.0773H173.899ZM170.918 16.0773V15.8273H170.668V16.0773H170.918ZM170.918 19.3707H170.668V19.6207H170.918V19.3707ZM173.899 19.3707H174.149V19.1207H173.899V19.3707ZM174.35 32.128L174.13 32.2471L174.13 32.2471L174.35 32.128ZM175.563 33.4107L175.436 33.6259L175.44 33.6283L175.563 33.4107ZM177.366 34L177.407 33.7533L177.4 33.7523L177.366 34ZM181.04 34.1387L181.029 33.8889L181.029 33.8889L181.04 34.1387ZM182.427 34L182.468 34.2466L182.677 34.2118V34H182.427ZM182.427 30.1867H182.677V29.8817L182.378 29.9415L182.427 30.1867ZM181.699 30.2907L181.676 30.0417L181.676 30.0417L181.699 30.2907ZM179.238 29.9093L179.061 30.0861L179.061 30.0861L179.238 29.9093ZM178.822 19.3707V19.1207H178.572V19.3707H178.822ZM182.427 19.3707V19.6207H182.677V19.3707H182.427ZM182.427 16.0773H182.677V15.8273H182.427V16.0773ZM179.072 16.0773V10.704H178.572V16.0773H179.072ZM178.822 10.454H173.899V10.954H178.822V10.454ZM173.649 10.704V16.0773H174.149V10.704H173.649ZM173.899 15.8273H170.918V16.3273H173.899V15.8273ZM170.668 16.0773V19.3707H171.168V16.0773H170.668ZM170.918 19.6207H173.899V19.1207H170.918V19.6207ZM173.649 19.3707V29.944H174.149V19.3707H173.649ZM173.649 29.944C173.649 30.8702 173.803 31.6435 174.13 32.2471L174.569 32.0089C174.295 31.5031 174.149 30.8205 174.149 29.944H173.649ZM174.13 32.2471C174.45 32.8388 174.886 33.3008 175.436 33.6259L175.69 33.1954C175.223 32.9196 174.85 32.5266 174.569 32.0089L174.13 32.2471ZM175.44 33.6283C176.002 33.9459 176.633 34.1514 177.331 34.2477L177.4 33.7523C176.757 33.6637 176.187 33.4764 175.686 33.193L175.44 33.6283ZM177.325 34.2466C178.033 34.3646 178.774 34.4233 179.55 34.4233V33.9233C178.8 33.9233 178.085 33.8665 177.407 33.7534L177.325 34.2466ZM179.55 34.4233C180.039 34.4233 180.54 34.4117 181.052 34.3884L181.029 33.8889C180.524 33.9119 180.031 33.9233 179.55 33.9233V34.4233ZM181.052 34.3884C181.568 34.3649 182.04 34.3179 182.468 34.2466L182.386 33.7534C181.981 33.8208 181.529 33.8662 181.029 33.8889L181.052 34.3884ZM182.677 34V30.1867H182.177V34H182.677ZM182.378 29.9415C182.156 29.9859 181.922 30.0193 181.676 30.0417L181.722 30.5396C181.984 30.5158 182.235 30.4799 182.476 30.4318L182.378 29.9415ZM181.676 30.0417C181.43 30.0641 181.172 30.0753 180.902 30.0753V30.5753C181.186 30.5753 181.459 30.5635 181.722 30.5396L181.676 30.0417ZM180.902 30.0753C180.498 30.0753 180.173 30.0415 179.922 29.9788C179.67 29.9157 179.51 29.8278 179.414 29.7326L179.061 30.0861C179.243 30.2682 179.499 30.3883 179.801 30.4639C180.105 30.5398 180.474 30.5753 180.902 30.5753V30.0753ZM179.414 29.7326C179.319 29.6374 179.231 29.477 179.168 29.2247C179.105 28.9739 179.072 28.6493 179.072 28.2453H178.572C178.572 28.6734 178.607 29.0421 178.683 29.346C178.759 29.6484 178.879 29.904 179.061 30.0861L179.414 29.7326ZM179.072 28.2453V19.3707H178.572V28.2453H179.072ZM178.822 19.6207H182.427V19.1207H178.822V19.6207ZM182.677 19.3707V16.0773H182.177V19.3707H182.677ZM182.427 15.8273H178.822V16.3273H182.427V15.8273ZM184.769 16.0773V15.8273H184.519V16.0773H184.769ZM184.769 34H184.519V34.25H184.769V34ZM189.692 34V34.25H189.942V34H189.692ZM190.593 20.688L190.792 20.8399L190.794 20.8371L190.593 20.688ZM195.966 20.584L195.754 20.7165L195.756 20.7195L195.966 20.584ZM196.66 34H196.41V34.25H196.66V34ZM201.582 34V34.25H201.832V34H201.582ZM201.27 19.96L201.025 20.009L201.027 20.0162L201.27 19.96ZM200.265 17.6373L200.065 17.7874L200.068 17.7908L200.265 17.6373ZM198.254 16.1467L198.153 16.3752L198.161 16.3783L198.254 16.1467ZM191.98 16.32L192.085 16.5467L192.09 16.5446L191.98 16.32ZM189.553 18.5733V18.8233H189.695L189.767 18.702L189.553 18.5733ZM189.449 18.5733H189.199V18.8233H189.449V18.5733ZM189.449 16.0773H189.699V15.8273H189.449V16.0773ZM184.519 16.0773V34H185.019V16.0773H184.519ZM184.769 34.25H189.692V33.75H184.769V34.25ZM189.942 34V24.6053H189.442V34H189.942ZM189.942 24.6053C189.942 22.794 190.242 21.5582 190.792 20.8399L190.395 20.5361C189.742 21.3894 189.442 22.7651 189.442 24.6053H189.942ZM190.794 20.8371C191.333 20.1115 192.215 19.7247 193.505 19.7247V19.2247C192.114 19.2247 191.055 19.6468 190.392 20.5389L190.794 20.8371ZM193.505 19.7247C194.631 19.7247 195.353 20.0747 195.754 20.7165L196.178 20.4515C195.655 19.6142 194.736 19.2247 193.505 19.2247V19.7247ZM195.756 20.7195C196.18 21.3756 196.41 22.4152 196.41 23.8773H196.91C196.91 22.3812 196.678 21.2253 196.177 20.4485L195.756 20.7195ZM196.41 23.8773V34H196.91V23.8773H196.41ZM196.66 34.25H201.582V33.75H196.66V34.25ZM201.832 34V22.976H201.332V34H201.832ZM201.832 22.976C201.832 21.8514 201.727 20.8268 201.514 19.9038L201.027 20.0162C201.23 20.8959 201.332 21.882 201.332 22.976H201.832ZM201.516 19.911C201.325 18.9557 200.976 18.1438 200.462 17.4838L200.068 17.7908C200.525 18.3788 200.847 19.1154 201.025 20.009L201.516 19.911ZM200.465 17.4873C199.949 16.799 199.24 16.2763 198.348 15.915L198.161 16.3783C198.98 16.7104 199.611 17.1815 200.065 17.7873L200.465 17.4873ZM198.356 15.9182C197.481 15.5294 196.368 15.342 195.03 15.342V15.842C196.327 15.842 197.364 16.0244 198.153 16.3751L198.356 15.9182ZM195.03 15.342C193.95 15.342 192.896 15.5944 191.87 16.0954L192.09 16.5446C193.051 16.0749 194.031 15.842 195.03 15.842V15.342ZM191.874 16.0933C190.831 16.5788 189.986 17.3666 189.339 18.4447L189.767 18.702C190.369 17.7 191.142 16.9856 192.085 16.5467L191.874 16.0933ZM189.553 18.3233H189.449V18.8233H189.553V18.3233ZM189.699 18.5733V16.0773H189.199V18.5733H189.699ZM189.449 15.8273H184.769V16.3273H189.449V15.8273ZM217.383 23.1147V23.3647H217.683L217.628 23.0691L217.383 23.1147ZM209.375 23.1147L209.125 23.098L209.107 23.3647H209.375V23.1147ZM209.583 21.936L209.344 21.8606L209.341 21.8724L209.583 21.936ZM210.241 20.688L210.048 20.529L210.043 20.5361L210.241 20.688ZM211.489 19.7173L211.601 19.941L211.605 19.939L211.489 19.7173ZM216.135 20.272L215.948 20.4385L215.951 20.4421L216.135 20.272ZM209.375 26.2347V25.9847H209.114L209.125 26.2455L209.375 26.2347ZM222.305 26.2347V26.4847H222.539L222.555 26.2513L222.305 26.2347ZM220.364 18.8507L220.161 18.9969L220.163 18.9999L220.364 18.8507ZM217.591 16.4933L217.473 16.7142L217.477 16.716L217.591 16.4933ZM209.86 16.32L209.761 16.0902L209.76 16.091L209.86 16.32ZM206.983 18.3307L207.162 18.505L207.164 18.5025L206.983 18.3307ZM205.111 21.312L204.877 21.2232L204.877 21.2232L205.111 21.312ZM205.076 28.8693L204.841 28.954L204.842 28.9581L205.076 28.8693ZM209.791 33.792L209.696 34.0235L209.7 34.0251L209.791 33.792ZM218.804 33.064L218.939 33.2741L218.939 33.2741L218.804 33.064ZM221.993 28.4533L222.231 28.5301L222.337 28.2033H221.993V28.4533ZM217.66 28.4533V28.2033H217.472L217.42 28.3833L217.66 28.4533ZM216.343 30.048L216.483 30.255L216.487 30.2519L216.343 30.048ZM210.588 29.7013L210.762 29.5218L210.762 29.5218L210.588 29.7013ZM217.383 22.8647H209.375V23.3647H217.383V22.8647ZM209.624 23.1313C209.646 22.8045 209.712 22.4277 209.824 21.9996L209.341 21.8724C209.222 22.3225 209.15 22.7315 209.125 23.098L209.624 23.1313ZM209.821 22.0113C209.95 21.6018 210.156 21.2114 210.44 20.8399L210.043 20.5361C209.726 20.9503 209.492 21.392 209.344 21.8607L209.821 22.0113ZM210.434 20.8469C210.733 20.484 211.12 20.1814 211.601 19.9409L211.377 19.4937C210.841 19.7618 210.397 20.1062 210.048 20.5291L210.434 20.8469ZM211.605 19.939C212.091 19.6851 212.708 19.5513 213.465 19.5513V19.0513C212.651 19.0513 211.95 19.1948 211.374 19.4957L211.605 19.939ZM213.465 19.5513C214.624 19.5513 215.434 19.8626 215.948 20.4385L216.321 20.1055C215.68 19.3872 214.71 19.0513 213.465 19.0513V19.5513ZM215.951 20.4421C216.509 21.0424 216.911 21.9395 217.137 23.1602L217.628 23.0691C217.392 21.7939 216.962 20.7958 216.318 20.1019L215.951 20.4421ZM209.375 26.4847H222.305V25.9847H209.375V26.4847ZM222.555 26.2513C222.649 24.8399 222.531 23.4845 222.201 22.1863L221.716 22.3097C222.033 23.5537 222.147 24.8561 222.056 26.218L222.555 26.2513ZM222.201 22.1863C221.87 20.8855 221.325 19.7229 220.565 18.7014L220.163 18.9999C220.882 19.966 221.4 21.0683 221.716 22.3097L222.201 22.1863ZM220.567 18.7045C219.826 17.6772 218.871 16.8658 217.704 16.2706L217.477 16.716C218.575 17.2765 219.469 18.0365 220.161 18.9969L220.567 18.7045ZM217.708 16.2725C216.533 15.6491 215.162 15.342 213.604 15.342V15.842C215.096 15.842 216.383 16.1358 217.473 16.7142L217.708 16.2725ZM213.604 15.342C212.21 15.342 210.928 15.5902 209.761 16.0902L209.958 16.5498C211.057 16.0791 212.271 15.842 213.604 15.842V15.342ZM209.76 16.091C208.621 16.5893 207.634 17.2787 206.801 18.1589L207.164 18.5025C207.949 17.6724 208.881 17.0213 209.96 16.549L209.76 16.091ZM206.803 18.1564C205.969 19.0144 205.327 20.0378 204.877 21.2232L205.344 21.4008C205.772 20.275 206.378 19.3109 207.162 18.5049L206.803 18.1564ZM204.877 21.2232C204.426 22.4094 204.202 23.6878 204.202 25.056H204.702C204.702 23.7433 204.917 22.5257 205.344 21.4008L204.877 21.2232ZM204.202 25.056C204.202 26.4678 204.414 27.768 204.841 28.954L205.311 28.7847C204.906 27.6595 204.702 26.4175 204.702 25.056H204.202ZM204.842 28.9581C205.292 30.142 205.921 31.1645 206.732 32.0223L207.095 31.679C206.334 30.8728 205.738 29.9078 205.31 28.7805L204.842 28.9581ZM206.732 32.0223C207.543 32.882 208.533 33.5487 209.696 34.0235L209.885 33.5605C208.783 33.1109 207.855 32.4833 207.095 31.679L206.732 32.0223ZM209.7 34.0251C210.866 34.477 212.168 34.7007 213.604 34.7007V34.2007C212.22 34.2007 210.98 33.9852 209.881 33.5589L209.7 34.0251ZM213.604 34.7007C215.676 34.7007 217.459 34.2292 218.939 33.2741L218.668 32.8539C217.283 33.7476 215.599 34.2007 213.604 34.2007V34.7007ZM218.939 33.2741C220.435 32.3095 221.526 30.7164 222.231 28.5301L221.755 28.3766C221.074 30.4889 220.039 31.9697 218.668 32.8539L218.939 33.2741ZM221.993 28.2033H217.66V28.7033H221.993V28.2033ZM217.42 28.3833C217.28 28.8621 216.891 29.3521 216.198 29.8441L216.487 30.2519C217.227 29.727 217.716 29.1539 217.9 28.5233L217.42 28.3833ZM216.202 29.841C215.533 30.2943 214.729 30.526 213.777 30.526V31.026C214.813 31.026 215.719 30.7723 216.483 30.255L216.202 29.841ZM213.777 30.526C212.432 30.526 211.441 30.1792 210.762 29.5218L210.414 29.8809C211.214 30.6564 212.349 31.026 213.777 31.026V30.526ZM210.762 29.5218C210.088 28.8689 209.692 27.7886 209.624 26.2238L209.125 26.2455C209.195 27.8701 209.609 29.1009 210.414 29.8809L210.762 29.5218ZM225.225 16.0773V15.8273H224.975V16.0773H225.225ZM225.225 34H224.975V34.25H225.225V34ZM230.148 34V34.25H230.398V34H230.148ZM231.188 21.8667L230.986 21.7181L230.985 21.7196L231.188 21.8667ZM232.713 20.6187L232.821 20.8439L232.821 20.8439L232.713 20.6187ZM235.937 20.2373L235.902 20.4848L235.91 20.4861L235.919 20.4867L235.937 20.2373ZM236.769 20.3413L236.72 20.5865L237.019 20.6463V20.3413H236.769ZM236.769 15.7653H237.019V15.5783L236.839 15.5255L236.769 15.7653ZM233.892 15.8693L233.968 16.1074L233.968 16.1074L233.892 15.8693ZM232.262 16.6667L232.396 16.8777L232.403 16.8732L232.262 16.6667ZM230.91 17.88L231.101 18.042L231.105 18.0373L230.91 17.88ZM229.974 19.4053V19.6553H230.141L230.205 19.5015L229.974 19.4053ZM229.905 19.4053H229.655V19.6553H229.905V19.4053ZM229.905 16.0773H230.155V15.8273H229.905V16.0773ZM224.975 16.0773V34H225.475V16.0773H224.975ZM225.225 34.25H230.148V33.75H225.225V34.25ZM230.398 34V25.9227H229.898V34H230.398ZM230.398 25.9227C230.398 25.1304 230.477 24.3985 230.634 23.7261L230.147 23.6125C229.98 24.3268 229.898 25.0972 229.898 25.9227H230.398ZM230.634 23.7261C230.789 23.061 231.042 22.4918 231.39 22.0137L230.985 21.7196C230.593 22.2584 230.315 22.891 230.147 23.6125L230.634 23.7261ZM231.389 22.0153C231.756 21.518 232.232 21.1276 232.821 20.8439L232.604 20.3934C231.946 20.7106 231.405 21.1522 230.986 21.7181L231.389 22.0153ZM232.821 20.8439C233.403 20.5639 234.126 20.418 235.001 20.418V19.918C234.073 19.918 233.271 20.0725 232.604 20.3934L232.821 20.8439ZM235.001 20.418C235.289 20.418 235.589 20.4401 235.902 20.4848L235.972 19.9898C235.638 19.9421 235.314 19.918 235.001 19.918V20.418ZM235.919 20.4867C236.236 20.5093 236.502 20.5429 236.72 20.5865L236.818 20.0962C236.573 20.0473 236.285 20.0116 235.955 19.988L235.919 20.4867ZM237.019 20.3413V15.7653H236.519V20.3413H237.019ZM236.839 15.5255C236.429 15.4049 236.047 15.342 235.694 15.342V15.842C235.989 15.842 236.323 15.8947 236.698 16.0052L236.839 15.5255ZM235.694 15.342C235.045 15.342 234.418 15.4382 233.815 15.6312L233.968 16.1074C234.52 15.9307 235.095 15.842 235.694 15.842V15.342ZM233.815 15.6312C233.214 15.8236 232.649 16.1001 232.121 16.4601L232.403 16.8732C232.892 16.5399 233.413 16.2849 233.968 16.1074L233.815 15.6312ZM232.128 16.4558C231.596 16.7943 231.125 17.2171 230.716 17.7227L231.105 18.0373C231.481 17.5722 231.912 17.1861 232.396 16.8776L232.128 16.4558ZM230.72 17.7181C230.31 18.1998 229.985 18.7304 229.743 19.3092L230.205 19.5015C230.426 18.9709 230.724 18.4846 231.101 18.0419L230.72 17.7181ZM229.974 19.1553H229.905V19.6553H229.974V19.1553ZM230.155 19.4053V16.0773H229.655V19.4053H230.155ZM229.905 15.8273H225.225V16.3273H229.905V15.8273ZM242.512 28.176H242.762V27.926H242.512V28.176ZM237.832 28.176V27.926H237.572L237.582 28.1856L237.832 28.176ZM238.629 31.192L238.415 31.3207L238.42 31.3278L238.629 31.192ZM240.536 33.0987L240.402 33.3096L240.405 33.3114L240.536 33.0987ZM243.205 34.1387L243.257 33.894L243.257 33.894L243.205 34.1387ZM249.237 34.1387L249.192 33.8928L249.185 33.8942L249.237 34.1387ZM251.872 33.1333L252.006 33.3442L252.006 33.3442L251.872 33.1333ZM253.709 31.2267L253.495 31.098L253.494 31.0999L253.709 31.2267ZM253.952 26.1653L253.734 26.2875L253.736 26.2913L253.952 26.1653ZM252.669 24.744L252.521 24.9451L252.527 24.9492L252.669 24.744ZM250.832 23.808L250.751 24.0444L250.753 24.0452L250.832 23.808ZM248.752 23.2187L248.695 23.4621L248.697 23.4625L248.752 23.2187ZM246.707 22.768L246.656 23.0128L246.656 23.0128L246.707 22.768ZM244.904 22.3173L244.819 22.5526L244.831 22.5565L244.904 22.3173ZM243.448 19.6827L243.635 19.849L243.643 19.8388L243.448 19.6827ZM244.107 19.1627L244.011 18.9318L244.003 18.9351L244.107 19.1627ZM245.008 18.9547L245.026 19.204L245.035 19.2034L245.044 19.2022L245.008 18.9547ZM248.197 19.4053L248.079 19.6258L248.086 19.6289L248.197 19.4053ZM249.272 21.312L249.023 21.3302L249.04 21.562H249.272V21.312ZM253.952 21.312V21.562H254.224L254.201 21.2912L253.952 21.312ZM253.085 18.5733L252.873 18.7059L252.879 18.7135L253.085 18.5733ZM251.317 16.8053L251.187 17.0185L251.187 17.0185L251.317 16.8053ZM248.856 15.8693L248.806 16.1142L248.807 16.1145L248.856 15.8693ZM243.205 15.8693L243.249 16.1157L243.255 16.1145L243.205 15.8693ZM240.709 16.7707L240.832 16.9886L240.837 16.9856L240.709 16.7707ZM238.907 18.504L238.695 18.3715L238.692 18.3764L238.907 18.504ZM238.733 23.3573L238.517 23.4833L238.52 23.4873L238.733 23.3573ZM240.016 24.7093L239.873 24.9147L239.88 24.9187L240.016 24.7093ZM241.819 25.576L241.737 25.8125L241.747 25.8155L241.819 25.576ZM243.933 26.1307L243.878 26.3746L243.882 26.3753L243.933 26.1307ZM248.024 27.24L247.935 27.4736L247.937 27.4743L248.024 27.24ZM249.203 30.0133L249.403 30.1634L249.408 30.1556L249.203 30.0133ZM248.405 30.7067L248.524 30.9269L248.53 30.9237L248.405 30.7067ZM247.365 31.088L247.412 31.334L247.423 31.3314L247.365 31.088ZM244.869 31.0187L244.806 31.2605L244.809 31.2612L244.869 31.0187ZM243.691 30.4987L243.543 30.7005L243.552 30.7067L243.691 30.4987ZM242.824 29.5627L242.603 29.6796L242.607 29.6876L242.612 29.6952L242.824 29.5627ZM242.512 27.926H237.832V28.426H242.512V27.926ZM237.582 28.1856C237.63 29.4181 237.903 30.4671 238.415 31.3206L238.844 31.0634C238.385 30.2991 238.127 29.3374 238.082 28.1664L237.582 28.1856ZM238.42 31.3278C238.947 32.1427 239.608 32.8043 240.402 33.3096L240.67 32.8878C239.939 32.4224 239.329 31.8129 238.839 31.0562L238.42 31.3278ZM240.405 33.3114C241.218 33.8134 242.135 34.17 243.154 34.3834L243.257 33.894C242.288 33.6913 241.426 33.3546 240.668 32.886L240.405 33.3114ZM243.154 34.3834C244.165 34.595 245.199 34.7007 246.256 34.7007V34.2007C245.233 34.2007 244.233 34.0984 243.257 33.894L243.154 34.3834ZM246.256 34.7007C247.29 34.7007 248.302 34.5949 249.29 34.3831L249.185 33.8942C248.232 34.0984 247.256 34.2007 246.256 34.2007V34.7007ZM249.283 34.3844C250.305 34.1944 251.214 33.8487 252.006 33.3442L251.738 32.9224C251.005 33.3887 250.158 33.7132 249.192 33.8929L249.283 34.3844ZM252.006 33.3442C252.803 32.8375 253.443 32.173 253.925 31.3534L253.494 31.0999C253.052 31.8519 252.467 32.4585 251.738 32.9224L252.006 33.3442ZM253.924 31.3553C254.438 30.4989 254.687 29.4581 254.687 28.2453H254.187C254.187 29.3899 253.952 30.3366 253.495 31.098L253.924 31.3553ZM254.687 28.2453C254.687 27.3819 254.52 26.642 254.168 26.0394L253.736 26.2913C254.032 26.798 254.187 27.4448 254.187 28.2453H254.687ZM254.17 26.0432C253.829 25.4331 253.376 24.9307 252.812 24.5388L252.527 24.9492C253.026 25.2969 253.429 25.742 253.734 26.2875L254.17 26.0432ZM252.818 24.543C252.263 24.1329 251.627 23.8094 250.911 23.5708L250.753 24.0452C251.424 24.2688 252.013 24.5693 252.521 24.945L252.818 24.543ZM250.914 23.5717C250.234 23.3375 249.532 23.1385 248.807 22.9748L248.697 23.4625C249.405 23.6224 250.089 23.8163 250.751 24.0443L250.914 23.5717ZM248.809 22.9752C248.114 22.813 247.43 22.6623 246.757 22.5232L246.656 23.0128C247.324 23.151 248.004 23.3008 248.695 23.4621L248.809 22.9752ZM246.757 22.5232C246.093 22.3857 245.5 22.2373 244.977 22.0782L244.831 22.5565C245.372 22.7209 245.98 22.8729 246.656 23.0128L246.757 22.5232ZM244.99 22.0824C244.502 21.9051 244.114 21.6875 243.819 21.4342L243.493 21.8138C243.845 22.1152 244.289 22.3598 244.819 22.5523L244.99 22.0824ZM243.819 21.4342C243.553 21.206 243.421 20.918 243.421 20.5493H242.921C242.921 21.0589 243.113 21.4874 243.493 21.8138L243.819 21.4342ZM243.421 20.5493C243.421 20.2203 243.503 19.9977 243.635 19.8488L243.261 19.5166C243.024 19.7836 242.921 20.1388 242.921 20.5493H243.421ZM243.643 19.8388C243.805 19.6365 243.994 19.4886 244.21 19.3903L244.003 18.9351C243.711 19.0679 243.461 19.2666 243.253 19.5265L243.643 19.8388ZM244.203 19.3934C244.453 19.2891 244.727 19.2254 245.026 19.204L244.99 18.7053C244.642 18.7302 244.315 18.8052 244.011 18.9319L244.203 19.3934ZM245.044 19.2022C245.357 19.1573 245.646 19.1353 245.909 19.1353V18.6353C245.618 18.6353 245.306 18.6596 244.973 18.7072L245.044 19.2022ZM245.909 19.1353C246.755 19.1353 247.475 19.302 248.079 19.6257L248.316 19.185C247.626 18.8154 246.821 18.6353 245.909 18.6353V19.1353ZM248.086 19.6289C248.629 19.9008 248.958 20.4393 249.023 21.3302L249.521 21.2938C249.448 20.2896 249.06 19.557 248.309 19.1817L248.086 19.6289ZM249.272 21.562H253.952V21.062H249.272V21.562ZM254.201 21.2912C254.106 20.1511 253.808 19.1939 253.292 18.4331L252.879 18.7135C253.334 19.3857 253.613 20.2542 253.703 21.3328L254.201 21.2912ZM253.297 18.4408C252.816 17.6697 252.199 17.0523 251.448 16.5922L251.187 17.0185C251.869 17.4366 252.431 17.9978 252.873 18.7058L253.297 18.4408ZM251.448 16.5922C250.704 16.1359 249.855 15.8142 248.905 15.6242L248.807 16.1145C249.706 16.2943 250.498 16.5965 251.187 17.0185L251.448 16.5922ZM248.906 15.6244C247.988 15.436 247.035 15.342 246.048 15.342V15.842C247.003 15.842 247.922 15.9329 248.806 16.1142L248.906 15.6244ZM246.048 15.342C245.062 15.342 244.098 15.436 243.156 15.6242L243.255 16.1145C244.162 15.9329 245.093 15.842 246.048 15.842V15.342ZM243.162 15.6231C242.211 15.7896 241.35 16.0998 240.582 16.5557L240.837 16.9856C241.548 16.5633 242.351 16.2726 243.249 16.1156L243.162 15.6231ZM240.587 16.5528C239.81 16.9899 239.179 17.5975 238.695 18.3715L239.119 18.6365C239.559 17.9314 240.13 17.3834 240.832 16.9886L240.587 16.5528ZM238.692 18.3764C238.223 19.1656 237.998 20.1611 237.998 21.3467H238.498C238.498 20.2211 238.712 19.3215 239.122 18.6316L238.692 18.3764ZM237.998 21.3467C237.998 22.1668 238.167 22.8827 238.518 23.4833L238.949 23.2314C238.653 22.7226 238.498 22.098 238.498 21.3467H237.998ZM238.52 23.4873C238.862 24.0498 239.314 24.5257 239.873 24.9146L240.159 24.5041C239.655 24.1534 239.252 23.728 238.947 23.2273L238.52 23.4873ZM239.88 24.9187C240.43 25.2778 241.05 25.5753 241.737 25.8123L241.9 25.3397C241.247 25.1145 240.665 24.8342 240.153 24.4999L239.88 24.9187ZM241.747 25.8155C242.446 26.0251 243.156 26.2115 243.878 26.3745L243.989 25.8868C243.278 25.7263 242.578 25.5429 241.891 25.3365L241.747 25.8155ZM243.882 26.3753C245.633 26.744 246.982 27.1106 247.935 27.4736L248.113 27.0064C247.125 26.6298 245.746 26.2569 243.985 25.886L243.882 26.3753ZM247.937 27.4743C248.411 27.6507 248.744 27.8631 248.956 28.1001C249.164 28.332 249.265 28.5963 249.265 28.904H249.765C249.765 28.4722 249.618 28.0894 249.328 27.7665C249.044 27.4489 248.631 27.1991 248.111 27.0057L247.937 27.4743ZM249.265 28.904C249.265 29.3027 249.171 29.6202 248.997 29.871L249.408 30.1556C249.651 29.8055 249.765 29.3835 249.765 28.904H249.265ZM249.003 29.8633C248.817 30.1114 248.578 30.3204 248.281 30.4896L248.53 30.9237C248.88 30.7232 249.173 30.47 249.403 30.1633L249.003 29.8633ZM248.287 30.4865C248.009 30.6362 247.684 30.7563 247.308 30.8446L247.423 31.3314C247.833 31.2348 248.201 31.1007 248.524 30.9268L248.287 30.4865ZM247.319 30.8423C246.964 30.909 246.621 30.942 246.291 30.942V31.442C246.654 31.442 247.028 31.4057 247.412 31.3337L247.319 30.8423ZM246.291 30.942C245.826 30.942 245.372 30.8866 244.93 30.7761L244.809 31.2612C245.291 31.3818 245.785 31.442 246.291 31.442V30.942ZM244.933 30.7769C244.518 30.6677 244.151 30.5051 243.829 30.2907L243.552 30.7067C243.924 30.9544 244.342 31.1385 244.806 31.2604L244.933 30.7769ZM243.839 30.2971C243.518 30.0619 243.251 29.7734 243.036 29.4302L242.612 29.6952C242.86 30.0914 243.17 30.427 243.543 30.7003L243.839 30.2971ZM243.045 29.4457C242.86 29.0953 242.762 28.6747 242.762 28.176H242.262C242.262 28.7404 242.373 29.2443 242.603 29.6796L243.045 29.4457Z" fill="white"/>
<path d="M45 49L255 49" stroke="#FED307" stroke-width="4"/>
</svg>
