<svg width="172" height="51" viewBox="0 0 172 51" fill="none" xmlns="http://www.w3.org/2000/svg">
<rect x="14" y="26" width="143" height="13" fill="#A844AE"/>
<path d="M39.2964 13.824V34H44.7391V13.824H52.1578V9.248H31.8777V13.824H39.2964ZM62.6964 23.1147H54.6884C54.7115 22.768 54.7809 22.3751 54.8964 21.936C55.0351 21.4969 55.2546 21.0809 55.5551 20.688C55.8786 20.2951 56.2946 19.9716 56.8031 19.7173C57.3346 19.44 57.9933 19.3013 58.7791 19.3013C59.9809 19.3013 60.8706 19.6249 61.4484 20.272C62.0493 20.9191 62.4653 21.8667 62.6964 23.1147ZM54.6884 26.2347H67.6191C67.7115 24.848 67.596 23.5191 67.2724 22.248C66.9489 20.9769 66.4173 19.8444 65.6777 18.8507C64.9613 17.8569 64.0369 17.0711 62.9044 16.4933C61.772 15.8924 60.4431 15.592 58.9177 15.592C57.5542 15.592 56.3062 15.8347 55.1737 16.32C54.0644 16.8053 53.1053 17.4756 52.2964 18.3307C51.4875 19.1627 50.8635 20.1564 50.4244 21.312C49.9853 22.4676 49.7657 23.7156 49.7657 25.056C49.7657 26.4427 49.9737 27.7138 50.3897 28.8693C50.8289 30.0249 51.4413 31.0187 52.2271 31.8507C53.0129 32.6827 53.972 33.3298 55.1044 33.792C56.2369 34.2311 57.508 34.4507 58.9177 34.4507C60.9515 34.4507 62.6849 33.9884 64.1177 33.064C65.5506 32.1396 66.6137 30.6027 67.3071 28.4533H62.9737C62.812 29.008 62.3729 29.5396 61.6564 30.048C60.94 30.5333 60.0849 30.776 59.0911 30.776C57.7044 30.776 56.6413 30.4178 55.9017 29.7013C55.1622 28.9849 54.7577 27.8293 54.6884 26.2347ZM70.3307 21.5893C70.4 20.4338 70.6889 19.4747 71.1973 18.712C71.7058 17.9493 72.3529 17.3369 73.1387 16.8747C73.9244 16.4124 74.8027 16.0889 75.7733 15.904C76.7671 15.696 77.7609 15.592 78.7547 15.592C79.656 15.592 80.5689 15.6613 81.4933 15.8C82.4178 15.9156 83.2613 16.1582 84.024 16.528C84.7867 16.8978 85.4107 17.4178 85.896 18.088C86.3813 18.7351 86.624 19.6018 86.624 20.688V30.0133C86.624 30.8222 86.6702 31.5964 86.7627 32.336C86.8551 33.0756 87.0169 33.6302 87.248 34H82.256C82.1636 33.7227 82.0827 33.4453 82.0133 33.168C81.9671 32.8676 81.9325 32.5671 81.9093 32.2667C81.1236 33.0756 80.1991 33.6418 79.136 33.9653C78.0729 34.2889 76.9867 34.4507 75.8773 34.4507C75.0222 34.4507 74.2249 34.3467 73.4853 34.1387C72.7458 33.9307 72.0987 33.6071 71.544 33.168C70.9893 32.7289 70.5502 32.1742 70.2267 31.504C69.9262 30.8338 69.776 30.0364 69.776 29.112C69.776 28.0951 69.9493 27.2631 70.296 26.616C70.6658 25.9458 71.128 25.4142 71.6827 25.0213C72.2604 24.6284 72.9076 24.3396 73.624 24.1547C74.3636 23.9467 75.1031 23.7849 75.8427 23.6693C76.5822 23.5538 77.3102 23.4613 78.0267 23.392C78.7431 23.3227 79.3787 23.2187 79.9333 23.08C80.488 22.9413 80.9271 22.7449 81.2507 22.4907C81.5742 22.2133 81.7245 21.8204 81.7013 21.312C81.7013 20.7804 81.6089 20.3644 81.424 20.064C81.2622 19.7404 81.0311 19.4978 80.7307 19.336C80.4533 19.1511 80.1182 19.0356 79.7253 18.9893C79.3556 18.92 78.9511 18.8853 78.512 18.8853C77.5413 18.8853 76.7787 19.0933 76.224 19.5093C75.6693 19.9253 75.3458 20.6187 75.2533 21.5893H70.3307ZM81.7013 25.2293C81.4933 25.4142 81.2276 25.5644 80.904 25.68C80.6036 25.7724 80.2685 25.8533 79.8987 25.9227C79.552 25.992 79.1822 26.0498 78.7893 26.096C78.3965 26.1422 78.0036 26.2 77.6107 26.2693C77.2409 26.3387 76.8711 26.4311 76.5013 26.5467C76.1547 26.6622 75.8427 26.824 75.5653 27.032C75.3111 27.2169 75.1031 27.4596 74.9413 27.76C74.7796 28.0604 74.6987 28.4418 74.6987 28.904C74.6987 29.3431 74.7796 29.7129 74.9413 30.0133C75.1031 30.3138 75.3227 30.5564 75.6 30.7413C75.8773 30.9031 76.2009 31.0187 76.5707 31.088C76.9405 31.1573 77.3218 31.192 77.7147 31.192C78.6853 31.192 79.4365 31.0302 79.968 30.7067C80.4996 30.3831 80.8925 30.0018 81.1467 29.5627C81.4009 29.1004 81.5511 28.6382 81.5973 28.176C81.6667 27.7138 81.7013 27.344 81.7013 27.0667V25.2293ZM94.2583 28.176H89.5783C89.6245 29.3778 89.8903 30.3831 90.3756 31.192C90.884 31.9778 91.5196 32.6133 92.2823 33.0987C93.068 33.584 93.9578 33.9307 94.9516 34.1387C95.9454 34.3467 96.9623 34.4507 98.0023 34.4507C99.0191 34.4507 100.013 34.3467 100.984 34.1387C101.977 33.9538 102.856 33.6187 103.618 33.1333C104.381 32.648 104.993 32.0124 105.456 31.2267C105.941 30.4178 106.184 29.424 106.184 28.2453C106.184 27.4133 106.022 26.72 105.698 26.1653C105.375 25.5876 104.947 25.1138 104.416 24.744C103.884 24.3511 103.272 24.0391 102.578 23.808C101.908 23.5769 101.215 23.3804 100.498 23.2187C99.8049 23.0569 99.1231 22.9067 98.4529 22.768C97.7827 22.6293 97.1818 22.4791 96.6503 22.3173C96.1418 22.1324 95.7258 21.9013 95.4023 21.624C95.0787 21.3467 94.9169 20.9884 94.9169 20.5493C94.9169 20.1796 95.0094 19.8907 95.1943 19.6827C95.3791 19.4516 95.5987 19.2782 95.8529 19.1627C96.1303 19.0471 96.4307 18.9778 96.7543 18.9547C97.0778 18.9084 97.3783 18.8853 97.6556 18.8853C98.5338 18.8853 99.2965 19.0587 99.9436 19.4053C100.591 19.7289 100.949 20.3644 101.018 21.312H105.698C105.606 20.2027 105.317 19.2898 104.832 18.5733C104.369 17.8338 103.78 17.2444 103.064 16.8053C102.347 16.3662 101.527 16.0542 100.602 15.8693C99.7009 15.6844 98.7649 15.592 97.7943 15.592C96.8236 15.592 95.876 15.6844 94.9516 15.8693C94.0271 16.0311 93.1951 16.3316 92.4556 16.7707C91.716 17.1867 91.1151 17.7644 90.6529 18.504C90.2138 19.2436 89.9943 20.1911 89.9943 21.3467C89.9943 22.1324 90.156 22.8027 90.4796 23.3573C90.8031 23.8889 91.2307 24.3396 91.7623 24.7093C92.2938 25.056 92.8947 25.3449 93.5649 25.576C94.2583 25.784 94.9631 25.9689 95.6796 26.1307C97.436 26.5004 98.7996 26.8702 99.7703 27.24C100.764 27.6098 101.261 28.1644 101.261 28.904C101.261 29.3431 101.157 29.7129 100.949 30.0133C100.741 30.2907 100.475 30.5218 100.152 30.7067C99.8511 30.8684 99.5045 30.9956 99.1116 31.088C98.7418 31.1573 98.3836 31.192 98.0369 31.192C97.5516 31.192 97.0778 31.1342 96.6156 31.0187C96.1765 30.9031 95.7836 30.7298 95.4369 30.4987C95.0903 30.2444 94.8014 29.9324 94.5703 29.5627C94.3623 29.1698 94.2583 28.7076 94.2583 28.176ZM121.129 23.1147H113.121C113.144 22.768 113.213 22.3751 113.329 21.936C113.467 21.4969 113.687 21.0809 113.987 20.688C114.311 20.2951 114.727 19.9716 115.235 19.7173C115.767 19.44 116.426 19.3013 117.211 19.3013C118.413 19.3013 119.303 19.6249 119.881 20.272C120.482 20.9191 120.898 21.8667 121.129 23.1147ZM113.121 26.2347H126.051C126.144 24.848 126.028 23.5191 125.705 22.248C125.381 20.9769 124.85 19.8444 124.11 18.8507C123.394 17.8569 122.469 17.0711 121.337 16.4933C120.204 15.8924 118.875 15.592 117.35 15.592C115.986 15.592 114.738 15.8347 113.606 16.32C112.497 16.8053 111.538 17.4756 110.729 18.3307C109.92 19.1627 109.296 20.1564 108.857 21.312C108.418 22.4676 108.198 23.7156 108.198 25.056C108.198 26.4427 108.406 27.7138 108.822 28.8693C109.261 30.0249 109.874 31.0187 110.659 31.8507C111.445 32.6827 112.404 33.3298 113.537 33.792C114.669 34.2311 115.94 34.4507 117.35 34.4507C119.384 34.4507 121.117 33.9884 122.55 33.064C123.983 32.1396 125.046 30.6027 125.739 28.4533H121.406C121.244 29.008 120.805 29.5396 120.089 30.048C119.372 30.5333 118.517 30.776 117.523 30.776C116.137 30.776 115.074 30.4178 114.334 29.7013C113.594 28.9849 113.19 27.8293 113.121 26.2347ZM128.971 16.0773V34H133.894V25.9227C133.894 25.1138 133.975 24.3627 134.136 23.6693C134.298 22.976 134.564 22.3751 134.934 21.8667C135.327 21.3351 135.835 20.9191 136.459 20.6187C137.083 20.3182 137.846 20.168 138.747 20.168C139.047 20.168 139.359 20.1911 139.683 20.2373C140.007 20.2604 140.284 20.2951 140.515 20.3413V15.7653C140.122 15.6498 139.764 15.592 139.44 15.592C138.816 15.592 138.215 15.6844 137.638 15.8693C137.06 16.0542 136.517 16.32 136.008 16.6667C135.5 16.9902 135.049 17.3947 134.656 17.88C134.263 18.3422 133.951 18.8507 133.72 19.4053H133.651V16.0773H128.971Z" fill="white"/>
<path d="M39.2964 13.824H39.5464V13.574H39.2964V13.824ZM39.2964 34H39.0464V34.25H39.2964V34ZM44.7391 34V34.25H44.9891V34H44.7391ZM44.7391 13.824V13.574H44.4891V13.824H44.7391ZM52.1578 13.824V14.074H52.4078V13.824H52.1578ZM52.1578 9.248H52.4078V8.998H52.1578V9.248ZM31.8777 9.248V8.998H31.6277V9.248H31.8777ZM31.8777 13.824H31.6277V14.074H31.8777V13.824ZM39.0464 13.824V34H39.5464V13.824H39.0464ZM39.2964 34.25H44.7391V33.75H39.2964V34.25ZM44.9891 34V13.824H44.4891V34H44.9891ZM44.7391 14.074H52.1578V13.574H44.7391V14.074ZM52.4078 13.824V9.248H51.9078V13.824H52.4078ZM52.1578 8.998H31.8777V9.498H52.1578V8.998ZM31.6277 9.248V13.824H32.1277V9.248H31.6277ZM31.8777 14.074H39.2964V13.574H31.8777V14.074ZM62.6964 23.1147V23.3647H62.997L62.9422 23.0691L62.6964 23.1147ZM54.6884 23.1147L54.439 23.098L54.4212 23.3647H54.6884V23.1147ZM54.8964 21.936L54.6577 21.8606L54.6546 21.8724L54.8964 21.936ZM55.5551 20.688L55.362 20.529L55.3565 20.5361L55.5551 20.688ZM56.8031 19.7173L56.9149 19.941L56.9187 19.939L56.8031 19.7173ZM61.4484 20.272L61.2619 20.4385L61.2652 20.4421L61.4484 20.272ZM54.6884 26.2347V25.9847H54.4273L54.4387 26.2455L54.6884 26.2347ZM67.6191 26.2347V26.4847H67.853L67.8685 26.2513L67.6191 26.2347ZM65.6777 18.8507L65.4749 18.9969L65.4772 18.9999L65.6777 18.8507ZM62.9044 16.4933L62.7872 16.7142L62.7908 16.716L62.9044 16.4933ZM55.1737 16.32L55.0753 16.0902L55.0735 16.091L55.1737 16.32ZM52.2964 18.3307L52.4757 18.505L52.478 18.5025L52.2964 18.3307ZM50.4244 21.312L50.1907 21.2232L50.1907 21.2232L50.4244 21.312ZM50.3897 28.8693L50.1545 28.954L50.1561 28.9581L50.3897 28.8693ZM55.1044 33.792L55.0099 34.0235L55.014 34.0251L55.1044 33.792ZM64.1177 33.064L64.2533 33.2741L64.2533 33.2741L64.1177 33.064ZM67.3071 28.4533L67.545 28.5301L67.6504 28.2033H67.3071V28.4533ZM62.9737 28.4533V28.2033H62.7862L62.7337 28.3833L62.9737 28.4533ZM61.6564 30.048L61.7967 30.255L61.8011 30.2519L61.6564 30.048ZM55.9017 29.7013L56.0757 29.5218L56.0757 29.5218L55.9017 29.7013ZM62.6964 22.8647H54.6884V23.3647H62.6964V22.8647ZM54.9379 23.1313C54.9596 22.8045 55.0255 22.4277 55.1382 21.9996L54.6546 21.8724C54.5362 22.3225 54.4634 22.7315 54.439 23.098L54.9379 23.1313ZM55.1348 22.0113C55.2641 21.6018 55.4695 21.2114 55.7537 20.8399L55.3565 20.5361C55.0397 20.9503 54.806 21.392 54.658 21.8607L55.1348 22.0113ZM55.7481 20.8469C56.0469 20.484 56.4341 20.1814 56.9149 19.9409L56.6913 19.4937C56.1552 19.7618 55.7104 20.1062 55.3621 20.5291L55.7481 20.8469ZM56.9187 19.939C57.4052 19.6851 58.0215 19.5513 58.7791 19.5513V19.0513C57.9651 19.0513 57.264 19.1948 56.6874 19.4957L56.9187 19.939ZM58.7791 19.5513C59.9381 19.5513 60.7477 19.8626 61.2619 20.4385L61.6349 20.1055C60.9936 19.3872 60.0236 19.0513 58.7791 19.0513V19.5513ZM61.2652 20.4421C61.8227 21.0424 62.2245 21.9395 62.4506 23.1602L62.9422 23.0691C62.7061 21.7939 62.276 20.7958 61.6316 20.1019L61.2652 20.4421ZM54.6884 26.4847H67.6191V25.9847H54.6884V26.4847ZM67.8685 26.2513C67.9626 24.8399 67.8451 23.4845 67.5147 22.1863L67.0301 22.3097C67.3468 23.5537 67.4604 24.8561 67.3696 26.218L67.8685 26.2513ZM67.5147 22.1863C67.1836 20.8855 66.6385 19.7229 65.8783 18.7014L65.4772 18.9999C66.1961 19.966 66.7142 21.0683 67.0301 22.3097L67.5147 22.1863ZM65.8805 18.7045C65.14 17.6772 64.1845 16.8658 63.018 16.2706L62.7908 16.716C63.8892 17.2765 64.7826 18.0365 65.475 18.9969L65.8805 18.7045ZM63.0216 16.2725C61.8468 15.6491 60.4762 15.342 58.9177 15.342V15.842C60.41 15.842 61.6971 16.1358 62.7872 16.7142L63.0216 16.2725ZM58.9177 15.342C57.524 15.342 56.242 15.5902 55.0753 16.0902L55.2722 16.5498C56.3704 16.0791 57.5844 15.842 58.9177 15.842V15.342ZM55.0735 16.091C53.9344 16.5893 52.9474 17.2787 52.1148 18.1589L52.478 18.5025C53.2632 17.6724 54.1944 17.0213 55.274 16.549L55.0735 16.091ZM52.1172 18.1564C51.283 19.0144 50.6412 20.0378 50.1907 21.2232L50.6581 21.4008C51.0859 20.275 51.6921 19.3109 52.4757 18.5049L52.1172 18.1564ZM50.1907 21.2232C49.74 22.4094 49.5157 23.6878 49.5157 25.056H50.0157C50.0157 23.7433 50.2307 22.5257 50.6581 21.4008L50.1907 21.2232ZM49.5157 25.056C49.5157 26.4678 49.7276 27.768 50.1545 28.954L50.625 28.7847C50.2199 27.6595 50.0157 26.4175 50.0157 25.056H49.5157ZM50.1561 28.9581C50.6059 30.142 51.2352 31.1645 52.0453 32.0223L52.4088 31.679C51.6474 30.8728 51.0518 29.9078 50.6234 28.7805L50.1561 28.9581ZM52.0453 32.0223C52.8573 32.882 53.8468 33.5487 55.0099 34.0235L55.1989 33.5605C54.0972 33.1109 53.1685 32.4833 52.4088 31.679L52.0453 32.0223ZM55.014 34.0251C56.1795 34.477 57.482 34.7007 58.9177 34.7007V34.2007C57.534 34.2007 56.2942 33.9852 55.1948 33.5589L55.014 34.0251ZM58.9177 34.7007C60.9902 34.7007 62.7728 34.2292 64.2533 33.2741L63.9822 32.8539C62.597 33.7476 60.9128 34.2007 58.9177 34.2007V34.7007ZM64.2533 33.2741C65.7484 32.3095 66.8397 30.7164 67.545 28.5301L67.0692 28.3766C66.3878 30.4889 65.3528 31.9697 63.9822 32.8539L64.2533 33.2741ZM67.3071 28.2033H62.9737V28.7033H67.3071V28.2033ZM62.7337 28.3833C62.5941 28.8621 62.205 29.3521 61.5117 29.8441L61.8011 30.2519C62.5407 29.727 63.0298 29.1539 63.2137 28.5233L62.7337 28.3833ZM61.5162 29.841C60.847 30.2943 60.0425 30.526 59.0911 30.526V31.026C60.1272 31.026 61.0329 30.7723 61.7966 30.255L61.5162 29.841ZM59.0911 30.526C57.7463 30.526 56.7543 30.1792 56.0757 29.5218L55.7278 29.8809C56.5283 30.6564 57.6625 31.026 59.0911 31.026V30.526ZM56.0757 29.5218C55.4017 28.8689 55.0062 27.7886 54.9382 26.2238L54.4387 26.2455C54.5093 27.8701 54.9227 29.1009 55.7278 29.8809L56.0757 29.5218ZM70.3307 21.5893L70.0811 21.5744L70.0652 21.8393H70.3307V21.5893ZM71.1973 18.712L71.4054 18.8507L71.4054 18.8507L71.1973 18.712ZM73.1387 16.8747L73.2654 17.0901L73.2654 17.0901L73.1387 16.8747ZM75.7733 15.904L75.8201 16.1496L75.8246 16.1487L75.7733 15.904ZM81.4933 15.8L81.4562 16.0473L81.4623 16.0481L81.4933 15.8ZM84.024 16.528L83.9149 16.753L83.9149 16.753L84.024 16.528ZM85.896 18.088L85.6935 18.2346L85.696 18.238L85.896 18.088ZM86.7627 32.336L86.5146 32.367L86.7627 32.336ZM87.248 34V34.25H87.6991L87.46 33.8675L87.248 34ZM82.256 34L82.0188 34.0791L82.0758 34.25H82.256V34ZM82.0133 33.168L81.7662 33.206L81.768 33.2174L81.7708 33.2286L82.0133 33.168ZM81.9093 32.2667L82.1586 32.2475L82.1161 31.695L81.73 32.0925L81.9093 32.2667ZM79.136 33.9653L79.2088 34.2045L79.136 33.9653ZM73.4853 34.1387L73.553 33.898L73.553 33.898L73.4853 34.1387ZM71.544 33.168L71.3888 33.364L71.3888 33.364L71.544 33.168ZM70.2267 31.504L69.9985 31.6063L70.0015 31.6127L70.2267 31.504ZM70.296 26.616L70.0771 26.4952L70.0756 26.4979L70.296 26.616ZM71.6827 25.0213L71.5421 24.8146L71.5382 24.8173L71.6827 25.0213ZM73.624 24.1547L73.6865 24.3968L73.6917 24.3953L73.624 24.1547ZM75.8427 23.6693L75.8813 23.9163L75.8813 23.9163L75.8427 23.6693ZM78.0267 23.392L78.0026 23.1432L78.0026 23.1432L78.0267 23.392ZM79.9333 23.08L79.8727 22.8375L79.8727 22.8375L79.9333 23.08ZM81.2507 22.4907L81.4053 22.6874L81.4134 22.6805L81.2507 22.4907ZM81.7013 21.312H81.4511L81.4516 21.3234L81.7013 21.312ZM81.424 20.064L81.2004 20.1758L81.2053 20.1856L81.2111 20.195L81.424 20.064ZM80.7307 19.336L80.592 19.544L80.6018 19.5505L80.6121 19.5561L80.7307 19.336ZM79.7253 18.9893L79.6793 19.235L79.6877 19.2366L79.6961 19.2376L79.7253 18.9893ZM75.2533 21.5893V21.8393H75.4807L75.5022 21.613L75.2533 21.5893ZM81.7013 25.2293H81.9513V24.6726L81.5352 25.0425L81.7013 25.2293ZM80.904 25.68L80.9776 25.9192L80.9881 25.9154L80.904 25.68ZM79.8987 25.9227L79.8526 25.6769L79.8496 25.6775L79.8987 25.9227ZM78.7893 26.096L78.7601 25.8477L78.7601 25.8477L78.7893 26.096ZM77.6107 26.2693L77.5672 26.0231L77.5646 26.0236L77.6107 26.2693ZM76.5013 26.5467L76.4268 26.308L76.4223 26.3095L76.5013 26.5467ZM75.5653 27.032L75.7124 27.2342L75.7153 27.232L75.5653 27.032ZM74.9413 30.0133L74.7212 30.1319L74.7212 30.1319L74.9413 30.0133ZM75.6 30.7413L75.4613 30.9493L75.4676 30.9535L75.474 30.9573L75.6 30.7413ZM76.5707 31.088L76.6167 30.8423L76.6167 30.8423L76.5707 31.088ZM79.968 30.7067L79.838 30.4931L79.838 30.4931L79.968 30.7067ZM81.1467 29.5627L81.3631 29.688L81.3657 29.6831L81.1467 29.5627ZM81.5973 28.176L81.3498 28.1389L81.3486 28.1511L81.5973 28.176ZM70.5802 21.6043C70.6476 20.4815 70.9271 19.568 71.4054 18.8507L70.9893 18.5733C70.4507 19.3813 70.1524 20.3861 70.0811 21.5744L70.5802 21.6043ZM71.4054 18.8507C71.893 18.1192 72.5124 17.5331 73.2654 17.0901L73.0119 16.6592C72.1934 17.1407 71.5186 17.7794 70.9893 18.5733L71.4054 18.8507ZM73.2654 17.0901C74.0245 16.6437 74.8753 16.3296 75.8201 16.1496L75.7266 15.6584C74.7301 15.8482 73.8244 16.1812 73.0119 16.6592L73.2654 17.0901ZM75.8246 16.1487C76.8019 15.9441 77.7785 15.842 78.7547 15.842V15.342C77.7433 15.342 76.7324 15.4479 75.7221 15.6593L75.8246 16.1487ZM78.7547 15.842C79.6431 15.842 80.5436 15.9103 81.4563 16.0472L81.5304 15.5528C80.5942 15.4123 79.6689 15.342 78.7547 15.342V15.842ZM81.4623 16.0481C82.3623 16.1606 83.1792 16.3962 83.9149 16.753L84.1331 16.303C83.3435 15.9202 82.4732 15.6705 81.5243 15.5519L81.4623 16.0481ZM83.9149 16.753C84.6414 17.1052 85.233 17.5987 85.6935 18.2346L86.0985 17.9414C85.5884 17.2369 84.9319 16.6904 84.1331 16.303L83.9149 16.753ZM85.696 18.238C86.1394 18.8291 86.374 19.6375 86.374 20.688H86.874C86.874 19.5661 86.6233 18.6411 86.096 17.938L85.696 18.238ZM86.374 20.688V30.0133H86.874V20.688H86.374ZM86.374 30.0133C86.374 30.8317 86.4208 31.6163 86.5146 32.367L87.0107 32.305C86.9197 31.5765 86.874 30.8127 86.874 30.0133H86.374ZM86.5146 32.367C86.6088 33.1205 86.7766 33.7174 87.036 34.1325L87.46 33.8675C87.2572 33.543 87.1014 33.0306 87.0107 32.305L86.5146 32.367ZM87.248 33.75H82.256V34.25H87.248V33.75ZM82.4932 33.9209C82.4027 33.6495 82.3236 33.3784 82.2559 33.1074L81.7708 33.2286C81.8417 33.5123 81.9244 33.7958 82.0188 34.0791L82.4932 33.9209ZM82.2604 33.13C82.2152 32.8357 82.1812 32.5416 82.1586 32.2475L81.6601 32.2858C81.6837 32.5926 81.7191 32.8994 81.7662 33.206L82.2604 33.13ZM81.73 32.0925C80.9732 32.8715 80.0853 33.4151 79.0632 33.7262L79.2088 34.2045C80.313 33.8685 81.2739 33.2796 82.0887 32.4409L81.73 32.0925ZM79.0632 33.7262C78.0237 34.0426 76.962 34.2007 75.8773 34.2007V34.7007C77.0114 34.7007 78.1221 34.5352 79.2088 34.2045L79.0632 33.7262ZM75.8773 34.2007C75.0426 34.2007 74.2682 34.0992 73.553 33.898L73.4177 34.3793C74.1816 34.5942 75.0019 34.7007 75.8773 34.7007V34.2007ZM73.553 33.898C72.8425 33.6982 72.2258 33.3889 71.6992 32.972L71.3888 33.364C71.9716 33.8254 72.649 34.1632 73.4177 34.3793L73.553 33.898ZM71.6992 32.972C71.1757 32.5575 70.7598 32.0333 70.4518 31.3953L70.0015 31.6127C70.3406 32.3151 70.803 32.9002 71.3888 33.364L71.6992 32.972ZM70.4548 31.4017C70.172 30.7709 70.026 30.01 70.026 29.112H69.526C69.526 30.0629 69.6805 30.8967 69.9985 31.6063L70.4548 31.4017ZM70.026 29.112C70.026 28.1213 70.1952 27.3336 70.5164 26.7341L70.0756 26.4979C69.7035 27.1926 69.526 28.069 69.526 29.112H70.026ZM70.5149 26.7368C70.8688 26.0954 71.3069 25.5938 71.8272 25.2253L71.5382 24.8173C70.9491 25.2346 70.4628 25.7962 70.0771 26.4952L70.5149 26.7368ZM71.8232 25.2281C72.3758 24.8523 72.9963 24.5749 73.6865 24.3967L73.5615 23.9126C72.8189 24.1043 72.1451 24.4046 71.5421 24.8146L71.8232 25.2281ZM73.6917 24.3953C74.4219 24.1899 75.1518 24.0303 75.8813 23.9163L75.8041 23.4223C75.0545 23.5395 74.3052 23.7034 73.5563 23.914L73.6917 24.3953ZM75.8813 23.9163C76.6162 23.8015 77.3394 23.7097 78.0508 23.6408L78.0026 23.1432C77.2811 23.213 76.5483 23.3061 75.8041 23.4223L75.8813 23.9163ZM78.0508 23.6408C78.7765 23.5706 79.4247 23.4649 79.994 23.3225L79.8727 22.8375C79.3327 22.9725 78.7097 23.0747 78.0026 23.1432L78.0508 23.6408ZM79.994 23.3225C80.5704 23.1784 81.0453 22.97 81.4051 22.6872L81.0962 22.2941C80.8089 22.5198 80.4057 22.7042 79.8727 22.8375L79.994 23.3225ZM81.4134 22.6805C81.807 22.3431 81.9769 21.8693 81.9511 21.3006L81.4516 21.3234C81.472 21.7716 81.3415 22.0836 81.088 22.3009L81.4134 22.6805ZM81.9513 21.312C81.9513 20.756 81.8554 20.288 81.6369 19.933L81.2111 20.195C81.3624 20.4409 81.4513 20.8049 81.4513 21.312H81.9513ZM81.6476 19.9522C81.4643 19.5855 81.1978 19.3036 80.8492 19.1159L80.6121 19.5561C80.8644 19.692 81.0602 19.8954 81.2004 20.1758L81.6476 19.9522ZM80.8693 19.128C80.5536 18.9175 80.1793 18.791 79.7545 18.741L79.6961 19.2376C80.0571 19.2801 80.3531 19.3847 80.592 19.544L80.8693 19.128ZM79.7714 18.7436C79.3842 18.671 78.9641 18.6353 78.512 18.6353V19.1353C78.9382 19.1353 79.3269 19.169 79.6793 19.235L79.7714 18.7436ZM78.512 18.6353C77.5084 18.6353 76.6862 18.8502 76.074 19.3093L76.374 19.7093C76.8711 19.3365 77.5743 19.1353 78.512 19.1353V18.6353ZM76.074 19.3093C75.4432 19.7825 75.1008 20.5542 75.0045 21.5656L75.5022 21.613C75.5908 20.6832 75.8955 20.0682 76.374 19.7093L76.074 19.3093ZM75.2533 21.3393H70.3307V21.8393H75.2533V21.3393ZM81.5352 25.0425C81.3561 25.2017 81.1201 25.3373 80.8199 25.4446L80.9881 25.9154C81.335 25.7915 81.6306 25.6267 81.8674 25.4162L81.5352 25.0425ZM80.8305 25.4411C80.5406 25.5302 80.2148 25.609 79.8526 25.6769L79.9447 26.1684C80.3221 26.0976 80.6665 26.0146 80.9775 25.9189L80.8305 25.4411ZM79.8496 25.6775C79.5103 25.7454 79.1471 25.8022 78.7601 25.8477L78.8185 26.3443C79.2173 26.2974 79.5938 26.2386 79.9477 26.1678L79.8496 25.6775ZM78.7601 25.8477C78.3624 25.8945 77.9648 25.953 77.5672 26.0231L77.6541 26.5155C78.0423 26.447 78.4305 26.3899 78.8186 26.3443L78.7601 25.8477ZM77.5646 26.0236C77.1849 26.0948 76.8056 26.1897 76.4268 26.308L76.5759 26.7853C76.9366 26.6726 77.2969 26.5825 77.6567 26.5151L77.5646 26.0236ZM76.4223 26.3095C76.0515 26.4331 75.7153 26.607 75.4153 26.832L75.7153 27.232C75.97 27.041 76.2578 26.8914 76.5804 26.7838L76.4223 26.3095ZM75.4183 26.8298C75.1312 27.0386 74.8992 27.3109 74.7212 27.6415L75.1615 27.8785C75.307 27.6082 75.491 27.3952 75.7124 27.2342L75.4183 26.8298ZM74.7212 27.6415C74.5341 27.989 74.4487 28.4144 74.4487 28.904H74.9487C74.9487 28.4691 75.025 28.1319 75.1615 27.8785L74.7212 27.6415ZM74.4487 28.904C74.4487 29.3729 74.535 29.786 74.7212 30.1319L75.1615 29.8948C75.0241 29.6398 74.9487 29.3133 74.9487 28.904H74.4487ZM74.7212 30.1319C74.9019 30.4675 75.1491 30.7412 75.4613 30.9493L75.7387 30.5333C75.4962 30.3717 75.3043 30.1601 75.1615 29.8948L74.7212 30.1319ZM75.474 30.9573C75.7799 31.1357 76.1314 31.26 76.5246 31.3337L76.6167 30.8423C76.2704 30.7773 75.9747 30.6705 75.726 30.5254L75.474 30.9573ZM76.5246 31.3337C76.9102 31.406 77.307 31.442 77.7147 31.442V30.942C77.3366 30.942 76.9707 30.9086 76.6167 30.8423L76.5246 31.3337ZM77.7147 31.442C78.7077 31.442 79.5111 31.2774 80.098 30.9202L79.838 30.4931C79.3618 30.783 78.663 30.942 77.7147 30.942V31.442ZM80.098 30.9202C80.6573 30.5798 81.0836 30.1706 81.363 29.6879L80.9303 29.4374C80.7013 29.833 80.3419 30.1864 79.838 30.4931L80.098 30.9202ZM81.3657 29.6831C81.634 29.1954 81.7961 28.7009 81.8461 28.2009L81.3486 28.1511C81.3061 28.5755 81.1678 29.0055 80.9276 29.4422L81.3657 29.6831ZM81.8446 28.2131C81.9147 27.7457 81.9513 27.362 81.9513 27.0667H81.4513C81.4513 27.326 81.4187 27.6819 81.3501 28.1389L81.8446 28.2131ZM81.9513 27.0667V25.2293H81.4513V27.0667H81.9513ZM94.2583 28.176H94.5083V27.926H94.2583V28.176ZM89.5783 28.176V27.926H89.3185L89.3284 28.1856L89.5783 28.176ZM90.3756 31.192L90.1611 31.3207L90.1657 31.3278L90.3756 31.192ZM92.2823 33.0987L92.148 33.3096L92.1509 33.3114L92.2823 33.0987ZM94.9516 34.1387L95.0028 33.894L95.0028 33.894L94.9516 34.1387ZM100.984 34.1387L100.938 33.8928L100.931 33.8942L100.984 34.1387ZM103.618 33.1333L103.752 33.3442L103.752 33.3442L103.618 33.1333ZM105.456 31.2267L105.241 31.098L105.24 31.0999L105.456 31.2267ZM105.698 26.1653L105.48 26.2875L105.482 26.2913L105.698 26.1653ZM104.416 24.744L104.267 24.9451L104.273 24.9492L104.416 24.744ZM102.578 23.808L102.497 24.0444L102.499 24.0452L102.578 23.808ZM100.498 23.2187L100.441 23.4621L100.443 23.4625L100.498 23.2187ZM98.4529 22.768L98.4023 23.0128L98.4023 23.0128L98.4529 22.768ZM96.6503 22.3173L96.5647 22.5526L96.5775 22.5565L96.6503 22.3173ZM95.1943 19.6827L95.3814 19.849L95.3895 19.8388L95.1943 19.6827ZM95.8529 19.1627L95.7567 18.9318L95.7495 18.9351L95.8529 19.1627ZM96.7543 18.9547L96.7721 19.204L96.7809 19.2034L96.7896 19.2022L96.7543 18.9547ZM99.9436 19.4053L99.8255 19.6258L99.8318 19.6289L99.9436 19.4053ZM101.018 21.312L100.769 21.3302L100.786 21.562H101.018V21.312ZM105.698 21.312V21.562H105.97L105.947 21.2912L105.698 21.312ZM104.832 18.5733L104.619 18.7059L104.625 18.7135L104.832 18.5733ZM103.064 16.8053L102.933 17.0185L102.933 17.0185L103.064 16.8053ZM100.602 15.8693L100.552 16.1142L100.553 16.1145L100.602 15.8693ZM94.9516 15.8693L94.9947 16.1157L95.0006 16.1145L94.9516 15.8693ZM92.4556 16.7707L92.5782 16.9886L92.5832 16.9856L92.4556 16.7707ZM90.6529 18.504L90.4409 18.3715L90.438 18.3764L90.6529 18.504ZM90.4796 23.3573L90.2636 23.4833L90.266 23.4873L90.4796 23.3573ZM91.7623 24.7093L91.6194 24.9147L91.6257 24.9187L91.7623 24.7093ZM93.5649 25.576L93.4834 25.8125L93.4931 25.8155L93.5649 25.576ZM95.6796 26.1307L95.6245 26.3746L95.6281 26.3753L95.6796 26.1307ZM99.7703 27.24L99.6813 27.4736L99.6831 27.4743L99.7703 27.24ZM100.949 30.0133L101.149 30.1634L101.154 30.1556L100.949 30.0133ZM100.152 30.7067L100.27 30.9269L100.276 30.9237L100.152 30.7067ZM99.1116 31.088L99.1577 31.334L99.1688 31.3314L99.1116 31.088ZM96.6156 31.0187L96.552 31.2605L96.555 31.2612L96.6156 31.0187ZM95.4369 30.4987L95.2889 30.7005L95.2982 30.7067L95.4369 30.4987ZM94.5703 29.5627L94.3493 29.6796L94.3535 29.6876L94.3583 29.6952L94.5703 29.5627ZM94.2583 27.926H89.5783V28.426H94.2583V27.926ZM89.3284 28.1856C89.3758 29.4181 89.6491 30.4671 90.1612 31.3206L90.59 31.0634C90.1314 30.2991 89.8731 29.3374 89.8281 28.1664L89.3284 28.1856ZM90.1657 31.3278C90.693 32.1427 91.354 32.8043 92.148 33.3096L92.4165 32.8878C91.6852 32.4224 91.0751 31.8129 90.5855 31.0562L90.1657 31.3278ZM92.1509 33.3114C92.9637 33.8134 93.881 34.17 94.9004 34.3834L95.0028 33.894C94.0346 33.6913 93.1724 33.3546 92.4136 32.886L92.1509 33.3114ZM94.9004 34.3834C95.9114 34.595 96.9455 34.7007 98.0023 34.7007V34.2007C96.979 34.2007 95.9793 34.0984 95.0028 33.894L94.9004 34.3834ZM98.0023 34.7007C99.0363 34.7007 100.048 34.5949 101.036 34.3831L100.931 33.8942C99.9782 34.0984 99.002 34.2007 98.0023 34.2007V34.7007ZM101.029 34.3844C102.051 34.1944 102.96 33.8487 103.752 33.3442L103.484 32.9224C102.751 33.3887 101.904 33.7132 100.938 33.8929L101.029 34.3844ZM103.752 33.3442C104.549 32.8375 105.189 32.173 105.671 31.3534L105.24 31.0999C104.798 31.8519 104.213 32.4585 103.484 32.9224L103.752 33.3442ZM105.67 31.3553C106.184 30.4989 106.434 29.4581 106.434 28.2453H105.934C105.934 29.3899 105.698 30.3366 105.241 31.098L105.67 31.3553ZM106.434 28.2453C106.434 27.3819 106.266 26.642 105.914 26.0394L105.482 26.2913C105.778 26.798 105.934 27.4448 105.934 28.2453H106.434ZM105.916 26.0432C105.575 25.4331 105.122 24.9307 104.558 24.5388L104.273 24.9492C104.773 25.2969 105.175 25.742 105.48 26.2875L105.916 26.0432ZM104.564 24.543C104.009 24.1329 103.373 23.8094 102.657 23.5708L102.499 24.0452C103.17 24.2688 103.759 24.5693 104.267 24.945L104.564 24.543ZM102.66 23.5717C101.981 23.3375 101.278 23.1385 100.553 22.9748L100.443 23.4625C101.151 23.6224 101.836 23.8163 102.497 24.0443L102.66 23.5717ZM100.555 22.9752C99.8598 22.813 99.1759 22.6623 98.5036 22.5232L98.4023 23.0128C99.0704 23.151 99.7501 23.3008 100.441 23.4621L100.555 22.9752ZM98.5036 22.5232C97.8392 22.3857 97.2459 22.2373 96.723 22.0782L96.5775 22.5565C97.1177 22.7209 97.7262 22.8729 98.4023 23.0128L98.5036 22.5232ZM96.7357 22.0824C96.2482 21.9051 95.8605 21.6875 95.565 21.4342L95.2396 21.8138C95.5912 22.1152 96.0354 22.3598 96.5648 22.5523L96.7357 22.0824ZM95.565 21.4342C95.2987 21.206 95.1669 20.918 95.1669 20.5493H94.6669C94.6669 21.0589 94.8587 21.4874 95.2396 21.8138L95.565 21.4342ZM95.1669 20.5493C95.1669 20.2203 95.2487 19.9977 95.3811 19.8488L95.0074 19.5166C94.77 19.7836 94.6669 20.1388 94.6669 20.5493H95.1669ZM95.3895 19.8388C95.5513 19.6365 95.7401 19.4886 95.9564 19.3903L95.7495 18.9351C95.4573 19.0679 95.207 19.2666 94.999 19.5265L95.3895 19.8388ZM95.9491 19.3934C96.1996 19.2891 96.4733 19.2254 96.7721 19.204L96.7364 18.7053C96.3881 18.7302 96.061 18.8052 95.7568 18.9319L95.9491 19.3934ZM96.7896 19.2022C97.1035 19.1573 97.392 19.1353 97.6556 19.1353V18.6353C97.3646 18.6353 97.0522 18.6596 96.7189 18.7072L96.7896 19.2022ZM97.6556 19.1353C98.5007 19.1353 99.2212 19.302 99.8255 19.6257L100.062 19.185C99.3717 18.8154 98.567 18.6353 97.6556 18.6353V19.1353ZM99.8318 19.6289C100.376 19.9008 100.704 20.4393 100.769 21.3302L101.268 21.2938C101.194 20.2896 100.806 19.557 100.055 19.1817L99.8318 19.6289ZM101.018 21.562H105.698V21.062H101.018V21.562ZM105.947 21.2912C105.852 20.1511 105.554 19.1939 105.039 18.4331L104.625 18.7135C105.08 19.3857 105.359 20.2542 105.449 21.3328L105.947 21.2912ZM105.044 18.4408C104.562 17.6697 103.945 17.0523 103.194 16.5922L102.933 17.0185C103.615 17.4366 104.177 17.9978 104.62 18.7058L105.044 18.4408ZM103.194 16.5922C102.45 16.1359 101.601 15.8142 100.651 15.6242L100.553 16.1145C101.452 16.2943 102.244 16.5965 102.933 17.0185L103.194 16.5922ZM100.652 15.6244C99.7337 15.436 98.7809 15.342 97.7943 15.342V15.842C98.749 15.842 99.6681 15.9329 100.552 16.1142L100.652 15.6244ZM97.7943 15.342C96.8076 15.342 95.8436 15.436 94.9026 15.6242L95.0006 16.1145C95.9084 15.9329 96.8396 15.842 97.7943 15.842V15.342ZM94.9085 15.6231C93.9569 15.7896 93.0958 16.0998 92.328 16.5557L92.5832 16.9856C93.2945 16.5633 94.0974 16.2726 94.9947 16.1156L94.9085 15.6231ZM92.333 16.5528C91.5559 16.9899 90.9247 17.5975 90.4409 18.3715L90.8649 18.6365C91.3056 17.9314 91.8761 17.3834 92.5782 16.9886L92.333 16.5528ZM90.438 18.3764C89.9693 19.1656 89.7443 20.1611 89.7443 21.3467H90.2443C90.2443 20.2211 90.4583 19.3215 90.8679 18.6316L90.438 18.3764ZM89.7443 21.3467C89.7443 22.1668 89.9133 22.8827 90.2636 23.4833L90.6955 23.2314C90.3988 22.7226 90.2443 22.098 90.2443 21.3467H89.7443ZM90.266 23.4873C90.6084 24.0498 91.0605 24.5257 91.6195 24.9146L91.905 24.5041C91.4009 24.1534 90.9979 23.728 90.6931 23.2273L90.266 23.4873ZM91.6257 24.9187C92.1763 25.2778 92.796 25.5753 93.4834 25.8123L93.6464 25.3397C92.9934 25.1145 92.4113 24.8342 91.8988 24.4999L91.6257 24.9187ZM93.4931 25.8155C94.192 26.0251 94.9025 26.2115 95.6245 26.3745L95.7347 25.8868C95.0238 25.7263 94.3245 25.5429 93.6368 25.3365L93.4931 25.8155ZM95.6281 26.3753C97.3795 26.744 98.7284 27.1106 99.6813 27.4736L99.8593 27.0064C98.8707 26.6298 97.4925 26.2569 95.7311 25.886L95.6281 26.3753ZM99.6831 27.4743C100.157 27.6507 100.49 27.8631 100.702 28.1001C100.91 28.332 101.011 28.5963 101.011 28.904H101.511C101.511 28.4722 101.364 28.0894 101.074 27.7665C100.79 27.4489 100.377 27.1991 99.8574 27.0057L99.6831 27.4743ZM101.011 28.904C101.011 29.3027 100.917 29.6202 100.743 29.871L101.154 30.1556C101.397 29.8055 101.511 29.3835 101.511 28.904H101.011ZM100.749 29.8633C100.563 30.1114 100.324 30.3204 100.028 30.4896L100.276 30.9237C100.627 30.7232 100.919 30.47 101.149 30.1633L100.749 29.8633ZM100.033 30.4865C99.7551 30.6362 99.4296 30.7563 99.0543 30.8446L99.1688 31.3314C99.5793 31.2348 99.9472 31.1007 100.27 30.9268L100.033 30.4865ZM99.0655 30.8423C98.7097 30.909 98.3669 30.942 98.0369 30.942V31.442C98.4003 31.442 98.774 31.4057 99.1577 31.3337L99.0655 30.8423ZM98.0369 30.942C97.5716 30.942 97.1182 30.8866 96.6762 30.7761L96.555 31.2612C97.0374 31.3818 97.5315 31.442 98.0369 31.442V30.942ZM96.6792 30.7769C96.2644 30.6677 95.8973 30.5051 95.5756 30.2907L95.2982 30.7067C95.6699 30.9544 96.0885 31.1385 96.552 31.2604L96.6792 30.7769ZM95.5848 30.2971C95.264 30.0619 94.9968 29.7734 94.7823 29.4302L94.3583 29.6952C94.6059 30.0914 94.9165 30.427 95.2891 30.7003L95.5848 30.2971ZM94.7912 29.4457C94.6057 29.0953 94.5083 28.6747 94.5083 28.176H94.0083C94.0083 28.7404 94.1188 29.2443 94.3493 29.6796L94.7912 29.4457ZM121.129 23.1147V23.3647H121.429L121.375 23.0691L121.129 23.1147ZM113.121 23.1147L112.871 23.098L112.853 23.3647H113.121V23.1147ZM113.329 21.936L113.09 21.8606L113.087 21.8724L113.329 21.936ZM113.987 20.688L113.794 20.529L113.789 20.5361L113.987 20.688ZM115.235 19.7173L115.347 19.941L115.351 19.939L115.235 19.7173ZM119.881 20.272L119.694 20.4385L119.698 20.4421L119.881 20.272ZM113.121 26.2347V25.9847H112.86L112.871 26.2455L113.121 26.2347ZM126.051 26.2347V26.4847H126.285L126.301 26.2513L126.051 26.2347ZM124.11 18.8507L123.907 18.9969L123.909 18.9999L124.11 18.8507ZM121.337 16.4933L121.22 16.7142L121.223 16.716L121.337 16.4933ZM113.606 16.32L113.508 16.0902L113.506 16.091L113.606 16.32ZM110.729 18.3307L110.908 18.505L110.91 18.5025L110.729 18.3307ZM108.857 21.312L108.623 21.2232L108.623 21.2232L108.857 21.312ZM108.822 28.8693L108.587 28.954L108.588 28.9581L108.822 28.8693ZM113.537 33.792L113.442 34.0235L113.446 34.0251L113.537 33.792ZM122.55 33.064L122.686 33.2741L122.686 33.2741L122.55 33.064ZM125.739 28.4533L125.977 28.5301L126.083 28.2033H125.739V28.4533ZM121.406 28.4533V28.2033H121.219L121.166 28.3833L121.406 28.4533ZM120.089 30.048L120.229 30.255L120.233 30.2519L120.089 30.048ZM114.334 29.7013L114.508 29.5218L114.508 29.5218L114.334 29.7013ZM121.129 22.8647H113.121V23.3647H121.129V22.8647ZM113.37 23.1313C113.392 22.8045 113.458 22.4277 113.57 21.9996L113.087 21.8724C112.968 22.3225 112.896 22.7315 112.871 23.098L113.37 23.1313ZM113.567 22.0113C113.696 21.6018 113.902 21.2114 114.186 20.8399L113.789 20.5361C113.472 20.9503 113.238 21.392 113.09 21.8607L113.567 22.0113ZM114.18 20.8469C114.479 20.484 114.866 20.1814 115.347 19.9409L115.124 19.4937C114.588 19.7618 114.143 20.1062 113.794 20.5291L114.18 20.8469ZM115.351 19.939C115.838 19.6851 116.454 19.5513 117.211 19.5513V19.0513C116.397 19.0513 115.696 19.1948 115.12 19.4957L115.351 19.939ZM117.211 19.5513C118.37 19.5513 119.18 19.8626 119.694 20.4385L120.067 20.1055C119.426 19.3872 118.456 19.0513 117.211 19.0513V19.5513ZM119.698 20.4421C120.255 21.0424 120.657 21.9395 120.883 23.1602L121.375 23.0691C121.138 21.7939 120.708 20.7958 120.064 20.1019L119.698 20.4421ZM113.121 26.4847H126.051V25.9847H113.121V26.4847ZM126.301 26.2513C126.395 24.8399 126.277 23.4845 125.947 22.1863L125.462 22.3097C125.779 23.5537 125.893 24.8561 125.802 26.218L126.301 26.2513ZM125.947 22.1863C125.616 20.8855 125.071 19.7229 124.311 18.7014L123.909 18.9999C124.628 19.966 125.146 21.0683 125.462 22.3097L125.947 22.1863ZM124.313 18.7045C123.572 17.6772 122.617 16.8658 121.45 16.2706L121.223 16.716C122.322 17.2765 123.215 18.0365 123.907 18.9969L124.313 18.7045ZM121.454 16.2725C120.279 15.6491 118.908 15.342 117.35 15.342V15.842C118.842 15.842 120.129 16.1358 121.22 16.7142L121.454 16.2725ZM117.35 15.342C115.956 15.342 114.674 15.5902 113.508 16.0902L113.705 16.5498C114.803 16.0791 116.017 15.842 117.35 15.842V15.342ZM113.506 16.091C112.367 16.5893 111.38 17.2787 110.547 18.1589L110.91 18.5025C111.696 17.6724 112.627 17.0213 113.706 16.549L113.506 16.091ZM110.549 18.1564C109.715 19.0144 109.073 20.0378 108.623 21.2232L109.09 21.4008C109.518 20.275 110.124 19.3109 110.908 18.5049L110.549 18.1564ZM108.623 21.2232C108.172 22.4094 107.948 23.6878 107.948 25.056H108.448C108.448 23.7433 108.663 22.5257 109.09 21.4008L108.623 21.2232ZM107.948 25.056C107.948 26.4678 108.16 27.768 108.587 28.954L109.057 28.7847C108.652 27.6595 108.448 26.4175 108.448 25.056H107.948ZM108.588 28.9581C109.038 30.142 109.667 31.1645 110.478 32.0223L110.841 31.679C110.08 30.8728 109.484 29.9078 109.056 28.7805L108.588 28.9581ZM110.478 32.0223C111.29 32.882 112.279 33.5487 113.442 34.0235L113.631 33.5605C112.529 33.1109 111.601 32.4833 110.841 31.679L110.478 32.0223ZM113.446 34.0251C114.612 34.477 115.914 34.7007 117.35 34.7007V34.2007C115.966 34.2007 114.726 33.9852 113.627 33.5589L113.446 34.0251ZM117.35 34.7007C119.423 34.7007 121.205 34.2292 122.686 33.2741L122.415 32.8539C121.029 33.7476 119.345 34.2007 117.35 34.2007V34.7007ZM122.686 33.2741C124.181 32.3095 125.272 30.7164 125.977 28.5301L125.501 28.3766C124.82 30.4889 123.785 31.9697 122.415 32.8539L122.686 33.2741ZM125.739 28.2033H121.406V28.7033H125.739V28.2033ZM121.166 28.3833C121.026 28.8621 120.637 29.3521 119.944 29.8441L120.233 30.2519C120.973 29.727 121.462 29.1539 121.646 28.5233L121.166 28.3833ZM119.948 29.841C119.279 30.2943 118.475 30.526 117.523 30.526V31.026C118.559 31.026 119.465 30.7723 120.229 30.255L119.948 29.841ZM117.523 30.526C116.179 30.526 115.187 30.1792 114.508 29.5218L114.16 29.8809C114.961 30.6564 116.095 31.026 117.523 31.026V30.526ZM114.508 29.5218C113.834 28.8689 113.439 27.7886 113.37 26.2238L112.871 26.2455C112.942 27.8701 113.355 29.1009 114.16 29.8809L114.508 29.5218ZM128.971 16.0773V15.8273H128.721V16.0773H128.971ZM128.971 34H128.721V34.25H128.971V34ZM133.894 34V34.25H134.144V34H133.894ZM134.934 21.8667L134.733 21.7181L134.731 21.7196L134.934 21.8667ZM136.459 20.6187L136.567 20.8439L136.567 20.8439L136.459 20.6187ZM139.683 20.2373L139.648 20.4848L139.656 20.4861L139.665 20.4867L139.683 20.2373ZM140.515 20.3413L140.466 20.5865L140.765 20.6463V20.3413H140.515ZM140.515 15.7653H140.765V15.5783L140.585 15.5255L140.515 15.7653ZM137.638 15.8693L137.714 16.1074L137.714 16.1074L137.638 15.8693ZM136.008 16.6667L136.143 16.8777L136.149 16.8732L136.008 16.6667ZM134.656 17.88L134.847 18.042L134.851 18.0373L134.656 17.88ZM133.72 19.4053V19.6553H133.887L133.951 19.5015L133.72 19.4053ZM133.651 19.4053H133.401V19.6553H133.651V19.4053ZM133.651 16.0773H133.901V15.8273H133.651V16.0773ZM128.721 16.0773V34H129.221V16.0773H128.721ZM128.971 34.25H133.894V33.75H128.971V34.25ZM134.144 34V25.9227H133.644V34H134.144ZM134.144 25.9227C134.144 25.1304 134.223 24.3985 134.38 23.7261L133.893 23.6125C133.726 24.3268 133.644 25.0972 133.644 25.9227H134.144ZM134.38 23.7261C134.535 23.061 134.788 22.4918 135.136 22.0137L134.731 21.7196C134.34 22.2584 134.061 22.891 133.893 23.6125L134.38 23.7261ZM135.135 22.0153C135.502 21.518 135.978 21.1276 136.567 20.8439L136.351 20.3934C135.692 20.7106 135.151 21.1522 134.733 21.7181L135.135 22.0153ZM136.567 20.8439C137.149 20.5639 137.872 20.418 138.747 20.418V19.918C137.819 19.918 137.017 20.0725 136.351 20.3934L136.567 20.8439ZM138.747 20.418C139.035 20.418 139.335 20.4401 139.648 20.4848L139.718 19.9898C139.384 19.9421 139.06 19.918 138.747 19.918V20.418ZM139.665 20.4867C139.982 20.5093 140.248 20.5429 140.466 20.5865L140.564 20.0962C140.32 20.0473 140.031 20.0116 139.701 19.988L139.665 20.4867ZM140.765 20.3413V15.7653H140.265V20.3413H140.765ZM140.585 15.5255C140.175 15.4049 139.793 15.342 139.44 15.342V15.842C139.735 15.842 140.069 15.8947 140.444 16.0052L140.585 15.5255ZM139.44 15.342C138.791 15.342 138.165 15.4382 137.561 15.6312L137.714 16.1074C138.266 15.9307 138.841 15.842 139.44 15.842V15.342ZM137.561 15.6312C136.96 15.8236 136.396 16.1001 135.867 16.4601L136.149 16.8732C136.638 16.5399 137.159 16.2849 137.714 16.1074L137.561 15.6312ZM135.874 16.4558C135.342 16.7943 134.871 17.2171 134.462 17.7227L134.851 18.0373C135.227 17.5722 135.658 17.1861 136.143 16.8776L135.874 16.4558ZM134.466 17.7181C134.056 18.1998 133.731 18.7304 133.49 19.3092L133.951 19.5015C134.172 18.9709 134.47 18.4846 134.847 18.0419L134.466 17.7181ZM133.72 19.1553H133.651V19.6553H133.72V19.1553ZM133.901 19.4053V16.0773H133.401V19.4053H133.901ZM133.651 15.8273H128.971V16.3273H133.651V15.8273Z" fill="white"/>
<path d="M27 49H144" stroke="#FED307" stroke-width="4"/>
</svg>
