<svg width="299" height="51" viewBox="0 0 299 51" fill="none" xmlns="http://www.w3.org/2000/svg">
<rect x="34" y="26" width="232" height="13" fill="#A844AE"/>
<path d="M71.8766 34L80.0926 9.248H74.4766L68.8953 26.6507H68.8259L63.3139 9.248H57.7326L65.7406 34H71.8766ZM91.8514 23.1147H83.8434C83.8665 22.768 83.9358 22.3751 84.0514 21.936C84.19 21.4969 84.4096 21.0809 84.71 20.688C85.0336 20.2951 85.4496 19.9716 85.958 19.7173C86.4896 19.44 87.1482 19.3013 87.934 19.3013C89.1358 19.3013 90.0256 19.6249 90.6034 20.272C91.2042 20.9191 91.6202 21.8667 91.8514 23.1147ZM83.8434 26.2347H96.774C96.8665 24.848 96.7509 23.5191 96.4274 22.248C96.1038 20.9769 95.5723 19.8444 94.8327 18.8507C94.1162 17.8569 93.1918 17.0711 92.0594 16.4933C90.9269 15.8924 89.598 15.592 88.0727 15.592C86.7091 15.592 85.4611 15.8347 84.3287 16.32C83.2194 16.8053 82.2602 17.4756 81.4514 18.3307C80.6425 19.1627 80.0185 20.1564 79.5794 21.312C79.1402 22.4676 78.9207 23.7156 78.9207 25.056C78.9207 26.4427 79.1287 27.7138 79.5447 28.8693C79.9838 30.0249 80.5962 31.0187 81.382 31.8507C82.1678 32.6827 83.1269 33.3298 84.2594 33.792C85.3918 34.2311 86.6629 34.4507 88.0727 34.4507C90.1065 34.4507 91.8398 33.9884 93.2727 33.064C94.7056 32.1396 95.7687 30.6027 96.462 28.4533H92.1287C91.9669 29.008 91.5278 29.5396 90.8114 30.048C90.0949 30.5333 89.2398 30.776 88.246 30.776C86.8594 30.776 85.7962 30.4178 85.0567 29.7013C84.3171 28.9849 83.9127 27.8293 83.8434 26.2347ZM99.6936 16.0773V34H104.616V24.6053C104.616 22.7796 104.917 21.4738 105.518 20.688C106.118 19.8791 107.089 19.4747 108.43 19.4747C109.608 19.4747 110.429 19.8444 110.891 20.584C111.353 21.3004 111.584 22.3982 111.584 23.8773V34H116.507V22.976C116.507 21.8667 116.403 20.8613 116.195 19.96C116.01 19.0356 115.675 18.2613 115.19 17.6373C114.704 16.9902 114.034 16.4933 113.179 16.1467C112.347 15.7769 111.272 15.592 109.955 15.592C108.915 15.592 107.898 15.8347 106.904 16.32C105.91 16.7822 105.102 17.5333 104.478 18.5733H104.374V16.0773H99.6936ZM137.056 34V16.0773H132.134V25.472C132.134 27.2978 131.833 28.6151 131.232 29.424C130.632 30.2098 129.661 30.6027 128.32 30.6027C127.142 30.6027 126.321 30.2444 125.859 29.528C125.397 28.7884 125.166 27.6791 125.166 26.2V16.0773H120.243V27.1013C120.243 28.2107 120.336 29.2276 120.52 30.152C120.728 31.0533 121.075 31.8276 121.56 32.4747C122.046 33.0987 122.704 33.584 123.536 33.9307C124.392 34.2773 125.478 34.4507 126.795 34.4507C127.835 34.4507 128.852 34.2196 129.846 33.7573C130.84 33.2951 131.648 32.544 132.272 31.504H132.376V34H137.056ZM152.857 23.1147H144.849C144.872 22.768 144.941 22.3751 145.057 21.936C145.195 21.4969 145.415 21.0809 145.715 20.688C146.039 20.2951 146.455 19.9716 146.963 19.7173C147.495 19.44 148.153 19.3013 148.939 19.3013C150.141 19.3013 151.031 19.6249 151.609 20.272C152.209 20.9191 152.625 21.8667 152.857 23.1147ZM144.849 26.2347H157.779C157.872 24.848 157.756 23.5191 157.433 22.248C157.109 20.9769 156.577 19.8444 155.838 18.8507C155.121 17.8569 154.197 17.0711 153.065 16.4933C151.932 15.8924 150.603 15.592 149.078 15.592C147.714 15.592 146.466 15.8347 145.334 16.32C144.225 16.8053 143.265 17.4756 142.457 18.3307C141.648 19.1627 141.024 20.1564 140.585 21.312C140.145 22.4676 139.926 23.7156 139.926 25.056C139.926 26.4427 140.134 27.7138 140.55 28.8693C140.989 30.0249 141.601 31.0187 142.387 31.8507C143.173 32.6827 144.132 33.3298 145.265 33.792C146.397 34.2311 147.668 34.4507 149.078 34.4507C151.112 34.4507 152.845 33.9884 154.278 33.064C155.711 32.1396 156.774 30.6027 157.467 28.4533H153.134C152.972 29.008 152.533 29.5396 151.817 30.048C151.1 30.5333 150.245 30.776 149.251 30.776C147.865 30.776 146.801 30.4178 146.062 29.7013C145.322 28.9849 144.918 27.8293 144.849 26.2347ZM170.867 9.248V34H175.963V16.632H176.033L182.099 34H186.294L192.361 16.4587H192.43V34H197.526V9.248H189.865L184.387 26.2693H184.318L178.529 9.248H170.867ZM201.59 21.5893C201.659 20.4338 201.948 19.4747 202.456 18.712C202.965 17.9493 203.612 17.3369 204.398 16.8747C205.184 16.4124 206.062 16.0889 207.032 15.904C208.026 15.696 209.02 15.592 210.014 15.592C210.915 15.592 211.828 15.6613 212.752 15.8C213.677 15.9156 214.52 16.1582 215.283 16.528C216.046 16.8978 216.67 17.4178 217.155 18.088C217.64 18.7351 217.883 19.6018 217.883 20.688V30.0133C217.883 30.8222 217.929 31.5964 218.022 32.336C218.114 33.0756 218.276 33.6302 218.507 34H213.515C213.423 33.7227 213.342 33.4453 213.272 33.168C213.226 32.8676 213.192 32.5671 213.168 32.2667C212.383 33.0756 211.458 33.6418 210.395 33.9653C209.332 34.2889 208.246 34.4507 207.136 34.4507C206.281 34.4507 205.484 34.3467 204.744 34.1387C204.005 33.9307 203.358 33.6071 202.803 33.168C202.248 32.7289 201.809 32.1742 201.486 31.504C201.185 30.8338 201.035 30.0364 201.035 29.112C201.035 28.0951 201.208 27.2631 201.555 26.616C201.925 25.9458 202.387 25.4142 202.942 25.0213C203.52 24.6284 204.167 24.3396 204.883 24.1547C205.623 23.9467 206.362 23.7849 207.102 23.6693C207.841 23.5538 208.569 23.4613 209.286 23.392C210.002 23.3227 210.638 23.2187 211.192 23.08C211.747 22.9413 212.186 22.7449 212.51 22.4907C212.833 22.2133 212.984 21.8204 212.96 21.312C212.96 20.7804 212.868 20.3644 212.683 20.064C212.521 19.7404 212.29 19.4978 211.99 19.336C211.712 19.1511 211.377 19.0356 210.984 18.9893C210.615 18.92 210.21 18.8853 209.771 18.8853C208.8 18.8853 208.038 19.0933 207.483 19.5093C206.928 19.9253 206.605 20.6187 206.512 21.5893H201.59ZM212.96 25.2293C212.752 25.4142 212.487 25.5644 212.163 25.68C211.863 25.7724 211.528 25.8533 211.158 25.9227C210.811 25.992 210.441 26.0498 210.048 26.096C209.656 26.1422 209.263 26.2 208.87 26.2693C208.5 26.3387 208.13 26.4311 207.76 26.5467C207.414 26.6622 207.102 26.824 206.824 27.032C206.57 27.2169 206.362 27.4596 206.2 27.76C206.039 28.0604 205.958 28.4418 205.958 28.904C205.958 29.3431 206.039 29.7129 206.2 30.0133C206.362 30.3138 206.582 30.5564 206.859 30.7413C207.136 30.9031 207.46 31.0187 207.83 31.088C208.2 31.1573 208.581 31.192 208.974 31.192C209.944 31.192 210.696 31.0302 211.227 30.7067C211.759 30.3831 212.152 30.0018 212.406 29.5627C212.66 29.1004 212.81 28.6382 212.856 28.176C212.926 27.7138 212.96 27.344 212.96 27.0667V25.2293ZM230.752 30.776C229.966 30.776 229.296 30.6142 228.741 30.2907C228.187 29.9671 227.736 29.5511 227.389 29.0427C227.066 28.5111 226.823 27.8987 226.661 27.2053C226.523 26.512 226.453 25.8071 226.453 25.0907C226.453 24.3511 226.523 23.6347 226.661 22.9413C226.8 22.248 227.031 21.6356 227.355 21.104C227.701 20.5724 228.14 20.1449 228.672 19.8213C229.227 19.4747 229.908 19.3013 230.717 19.3013C231.503 19.3013 232.162 19.4747 232.693 19.8213C233.248 20.1449 233.699 20.584 234.045 21.1387C234.392 21.6702 234.635 22.2827 234.773 22.976C234.935 23.6693 235.016 24.3742 235.016 25.0907C235.016 25.8071 234.947 26.512 234.808 27.2053C234.669 27.8987 234.427 28.5111 234.08 29.0427C233.756 29.5511 233.317 29.9671 232.763 30.2907C232.231 30.6142 231.561 30.776 230.752 30.776ZM221.704 16.0773V40.2747H226.627V31.7813H226.696C227.297 32.6596 228.06 33.3298 228.984 33.792C229.932 34.2311 230.96 34.4507 232.069 34.4507C233.387 34.4507 234.531 34.1964 235.501 33.688C236.495 33.1796 237.316 32.4978 237.963 31.6427C238.633 30.7876 239.13 29.8053 239.453 28.696C239.777 27.5867 239.939 26.4311 239.939 25.2293C239.939 23.9582 239.777 22.7449 239.453 21.5893C239.13 20.4107 238.633 19.3822 237.963 18.504C237.292 17.6258 236.449 16.9209 235.432 16.3893C234.415 15.8578 233.202 15.592 231.792 15.592C230.683 15.592 229.666 15.8116 228.741 16.2507C227.817 16.6898 227.054 17.3947 226.453 18.3653H226.384V16.0773H221.704Z" fill="white"/>
<path d="M71.8766 34V34.25H72.057L72.1139 34.0788L71.8766 34ZM80.0926 9.248L80.3299 9.32676L80.439 8.998H80.0926V9.248ZM74.4766 9.248V8.998H74.2942L74.2385 9.17165L74.4766 9.248ZM68.8953 26.6507V26.9007H69.0776L69.1333 26.727L68.8953 26.6507ZM68.8259 26.6507L68.5876 26.7262L68.6429 26.9007H68.8259V26.6507ZM63.3139 9.248L63.5523 9.17251L63.497 8.998H63.3139V9.248ZM57.7326 9.248V8.998H57.389L57.4947 9.32495L57.7326 9.248ZM65.7406 34L65.5027 34.077L65.5587 34.25H65.7406V34ZM72.1139 34.0788L80.3299 9.32676L79.8553 9.16924L71.6393 33.9212L72.1139 34.0788ZM80.0926 8.998H74.4766V9.498H80.0926V8.998ZM74.2385 9.17165L68.6572 26.5743L69.1333 26.727L74.7146 9.32435L74.2385 9.17165ZM68.8953 26.4007H68.8259V26.9007H68.8953V26.4007ZM69.0643 26.5752L63.5523 9.17251L63.0756 9.32348L68.5876 26.7262L69.0643 26.5752ZM63.3139 8.998H57.7326V9.498H63.3139V8.998ZM57.4947 9.32495L65.5027 34.077L65.9785 33.923L57.9705 9.17104L57.4947 9.32495ZM65.7406 34.25H71.8766V33.75H65.7406V34.25ZM91.8514 23.1147V23.3647H92.1519L92.0972 23.0691L91.8514 23.1147ZM83.8434 23.1147L83.5939 23.098L83.5761 23.3647H83.8434V23.1147ZM84.0514 21.936L83.8127 21.8606L83.8096 21.8724L84.0514 21.936ZM84.71 20.688L84.5169 20.529L84.5114 20.5361L84.71 20.688ZM85.958 19.7173L86.0698 19.941L86.0737 19.939L85.958 19.7173ZM90.6034 20.272L90.4168 20.4385L90.4202 20.4421L90.6034 20.272ZM83.8434 26.2347V25.9847H83.5823L83.5936 26.2455L83.8434 26.2347ZM96.774 26.2347V26.4847H97.0079L97.0235 26.2513L96.774 26.2347ZM94.8327 18.8507L94.6299 18.9969L94.6321 18.9999L94.8327 18.8507ZM92.0594 16.4933L91.9422 16.7142L91.9457 16.716L92.0594 16.4933ZM84.3287 16.32L84.2302 16.0902L84.2285 16.091L84.3287 16.32ZM81.4514 18.3307L81.6306 18.505L81.633 18.5025L81.4514 18.3307ZM79.5794 21.312L79.3457 21.2232L79.3457 21.2232L79.5794 21.312ZM79.5447 28.8693L79.3094 28.954L79.311 28.9581L79.5447 28.8693ZM84.2594 33.792L84.1649 34.0235L84.169 34.0251L84.2594 33.792ZM93.2727 33.064L93.4082 33.2741L93.4082 33.2741L93.2727 33.064ZM96.462 28.4533L96.7 28.5301L96.8054 28.2033H96.462V28.4533ZM92.1287 28.4533V28.2033H91.9412L91.8887 28.3833L92.1287 28.4533ZM90.8114 30.048L90.9516 30.255L90.956 30.2519L90.8114 30.048ZM85.0567 29.7013L85.2306 29.5218L85.2306 29.5218L85.0567 29.7013ZM91.8514 22.8647H83.8434V23.3647H91.8514V22.8647ZM84.0928 23.1313C84.1146 22.8045 84.1805 22.4277 84.2931 21.9996L83.8096 21.8724C83.6911 22.3225 83.6183 22.7315 83.5939 23.098L84.0928 23.1313ZM84.2898 22.0113C84.4191 21.6018 84.6245 21.2114 84.9086 20.8399L84.5114 20.5361C84.1947 20.9503 83.961 21.392 83.813 21.8607L84.2898 22.0113ZM84.903 20.8469C85.2019 20.484 85.589 20.1814 86.0698 19.9409L85.8462 19.4937C85.3102 19.7618 84.8653 20.1062 84.517 20.5291L84.903 20.8469ZM86.0737 19.939C86.5602 19.6851 87.1765 19.5513 87.934 19.5513V19.0513C87.12 19.0513 86.419 19.1948 85.8424 19.4957L86.0737 19.939ZM87.934 19.5513C89.0931 19.5513 89.9027 19.8626 90.4169 20.4385L90.7898 20.1055C90.1485 19.3872 89.1786 19.0513 87.934 19.0513V19.5513ZM90.4202 20.4421C90.9776 21.0424 91.3795 21.9395 91.6055 23.1602L92.0972 23.0691C91.861 21.7939 91.4309 20.7958 90.7866 20.1019L90.4202 20.4421ZM83.8434 26.4847H96.774V25.9847H83.8434V26.4847ZM97.0235 26.2513C97.1176 24.8399 97.0001 23.4845 96.6696 22.1863L96.1851 22.3097C96.5018 23.5537 96.6154 24.8561 96.5246 26.218L97.0235 26.2513ZM96.6696 22.1863C96.3385 20.8855 95.7934 19.7229 95.0333 18.7014L94.6321 18.9999C95.3511 19.966 95.8691 21.0683 96.1851 22.3097L96.6696 22.1863ZM95.0355 18.7045C94.2949 17.6772 93.3394 16.8658 92.173 16.2706L91.9457 16.716C93.0442 17.2765 93.9376 18.0365 94.6299 18.9969L95.0355 18.7045ZM92.1765 16.2725C91.0017 15.6491 89.6312 15.342 88.0727 15.342V15.842C89.5649 15.842 90.8521 16.1358 91.9422 16.7142L92.1765 16.2725ZM88.0727 15.342C86.6789 15.342 85.3969 15.5902 84.2302 16.0902L84.4272 16.5498C85.5253 16.0791 86.7394 15.842 88.0727 15.842V15.342ZM84.2285 16.091C83.0894 16.5893 82.1023 17.2787 81.2697 18.1589L81.633 18.5025C82.4182 17.6724 83.3494 17.0213 84.4289 16.549L84.2285 16.091ZM81.2721 18.1564C80.4379 19.0144 79.7961 20.0378 79.3457 21.2232L79.8131 21.4008C80.2408 20.275 80.847 19.3109 81.6306 18.5049L81.2721 18.1564ZM79.3457 21.2232C78.8949 22.4094 78.6707 23.6878 78.6707 25.056H79.1707C79.1707 23.7433 79.3856 22.5257 79.8131 21.4008L79.3457 21.2232ZM78.6707 25.056C78.6707 26.4678 78.8825 27.768 79.3095 28.954L79.7799 28.7847C79.3749 27.6595 79.1707 26.4175 79.1707 25.056H78.6707ZM79.311 28.9581C79.7609 30.142 80.3901 31.1645 81.2003 32.0223L81.5638 31.679C80.8024 30.8728 80.2068 29.9078 79.7784 28.7805L79.311 28.9581ZM81.2003 32.0223C82.0122 32.882 83.0017 33.5487 84.1649 34.0235L84.3538 33.5605C83.2521 33.1109 82.3234 32.4833 81.5638 31.679L81.2003 32.0223ZM84.169 34.0251C85.3345 34.477 86.6369 34.7007 88.0727 34.7007V34.2007C86.6889 34.2007 85.4491 33.9852 84.3497 33.5589L84.169 34.0251ZM88.0727 34.7007C90.1452 34.7007 91.9277 34.2292 93.4082 33.2741L93.1372 32.8539C91.7519 33.7476 90.0678 34.2007 88.0727 34.2007V34.7007ZM93.4082 33.2741C94.9034 32.3095 95.9947 30.7164 96.7 28.5301L96.2241 28.3766C95.5427 30.4889 94.5078 31.9697 93.1372 32.8539L93.4082 33.2741ZM96.462 28.2033H92.1287V28.7033H96.462V28.2033ZM91.8887 28.3833C91.749 28.8621 91.3599 29.3521 90.6667 29.8441L90.956 30.2519C91.6957 29.727 92.1848 29.1539 92.3687 28.5233L91.8887 28.3833ZM90.6711 29.841C90.002 30.2943 89.1975 30.526 88.246 30.526V31.026C89.2821 31.026 90.1878 30.7723 90.9516 30.255L90.6711 29.841ZM88.246 30.526C86.9012 30.526 85.9093 30.1792 85.2306 29.5218L84.8827 29.8809C85.6832 30.6564 86.8175 31.026 88.246 31.026V30.526ZM85.2306 29.5218C84.5567 28.8689 84.1612 27.7886 84.0931 26.2238L83.5936 26.2455C83.6642 27.8701 84.0776 29.1009 84.8827 29.8809L85.2306 29.5218ZM99.6936 16.0773V15.8273H99.4436V16.0773H99.6936ZM99.6936 34H99.4436V34.25H99.6936V34ZM104.616 34V34.25H104.866V34H104.616ZM105.518 20.688L105.716 20.8399L105.718 20.8371L105.518 20.688ZM110.891 20.584L110.679 20.7165L110.681 20.7195L110.891 20.584ZM111.584 34H111.334V34.25H111.584V34ZM116.507 34V34.25H116.757V34H116.507ZM116.195 19.96L115.95 20.009L115.951 20.0162L116.195 19.96ZM115.19 17.6373L114.99 17.7874L114.992 17.7908L115.19 17.6373ZM113.179 16.1467L113.077 16.3752L113.085 16.3783L113.179 16.1467ZM106.904 16.32L107.01 16.5467L107.014 16.5446L106.904 16.32ZM104.478 18.5733V18.8233H104.619L104.692 18.702L104.478 18.5733ZM104.374 18.5733H104.124V18.8233H104.374V18.5733ZM104.374 16.0773H104.624V15.8273H104.374V16.0773ZM99.4436 16.0773V34H99.9436V16.0773H99.4436ZM99.6936 34.25H104.616V33.75H99.6936V34.25ZM104.866 34V24.6053H104.366V34H104.866ZM104.866 24.6053C104.866 22.794 105.167 21.5582 105.716 20.8399L105.319 20.5361C104.667 21.3894 104.366 22.7651 104.366 24.6053H104.866ZM105.718 20.8371C106.257 20.1115 107.14 19.7247 108.43 19.7247V19.2247C107.038 19.2247 105.98 19.6468 105.317 20.5389L105.718 20.8371ZM108.43 19.7247C109.556 19.7247 110.278 20.0747 110.679 20.7165L111.103 20.4515C110.58 19.6142 109.661 19.2247 108.43 19.2247V19.7247ZM110.681 20.7195C111.104 21.3756 111.334 22.4152 111.334 23.8773H111.834C111.834 22.3812 111.602 21.2253 111.101 20.4485L110.681 20.7195ZM111.334 23.8773V34H111.834V23.8773H111.334ZM111.584 34.25H116.507V33.75H111.584V34.25ZM116.757 34V22.976H116.257V34H116.757ZM116.757 22.976C116.757 21.8514 116.652 20.8268 116.439 19.9038L115.951 20.0162C116.154 20.8959 116.257 21.882 116.257 22.976H116.757ZM116.44 19.911C116.249 18.9557 115.9 18.1438 115.387 17.4838L114.992 17.7908C115.45 18.3788 115.771 19.1154 115.95 20.009L116.44 19.911ZM115.39 17.4873C114.873 16.799 114.164 16.2763 113.273 15.915L113.085 16.3783C113.904 16.7104 114.535 17.1815 114.99 17.7873L115.39 17.4873ZM113.28 15.9182C112.406 15.5294 111.293 15.342 109.955 15.342V15.842C111.252 15.842 112.288 16.0244 113.077 16.3751L113.28 15.9182ZM109.955 15.342C108.875 15.342 107.82 15.5944 106.795 16.0954L107.014 16.5446C107.976 16.0749 108.955 15.842 109.955 15.842V15.342ZM106.799 16.0933C105.755 16.5788 104.91 17.3666 104.263 18.4447L104.692 18.702C105.293 17.7 106.066 16.9856 107.01 16.5467L106.799 16.0933ZM104.478 18.3233H104.374V18.8233H104.478V18.3233ZM104.624 18.5733V16.0773H104.124V18.5733H104.624ZM104.374 15.8273H99.6936V16.3273H104.374V15.8273ZM137.056 34V34.25H137.306V34H137.056ZM137.056 16.0773H137.306V15.8273H137.056V16.0773ZM132.134 16.0773V15.8273H131.884V16.0773H132.134ZM131.232 29.424L131.431 29.5759L131.433 29.5731L131.232 29.424ZM125.859 29.528L125.647 29.6605L125.649 29.6635L125.859 29.528ZM125.166 16.0773H125.416V15.8273H125.166V16.0773ZM120.243 16.0773V15.8273H119.993V16.0773H120.243ZM120.52 30.152L120.275 30.201L120.277 30.2082L120.52 30.152ZM121.56 32.4747L121.36 32.6247L121.363 32.6282L121.56 32.4747ZM123.536 33.9307L123.44 34.1614L123.443 34.1624L123.536 33.9307ZM129.846 33.7573L129.951 33.984L129.951 33.984L129.846 33.7573ZM132.272 31.504V31.254H132.131L132.058 31.3754L132.272 31.504ZM132.376 31.504H132.626V31.254H132.376V31.504ZM132.376 34H132.126V34.25H132.376V34ZM137.306 34V16.0773H136.806V34H137.306ZM137.056 15.8273H132.134V16.3273H137.056V15.8273ZM131.884 16.0773V25.472H132.384V16.0773H131.884ZM131.884 25.472C131.884 27.2823 131.584 28.5321 131.032 29.2749L131.433 29.5731C132.083 28.6981 132.384 27.3133 132.384 25.472H131.884ZM131.034 29.2721C130.496 29.9758 129.613 30.3527 128.32 30.3527V30.8527C129.709 30.8527 130.767 30.4438 131.431 29.5759L131.034 29.2721ZM128.32 30.3527C127.191 30.3527 126.469 30.012 126.069 29.3925L125.649 29.6635C126.174 30.4769 127.093 30.8527 128.32 30.8527V30.3527ZM126.071 29.3955C125.646 28.7146 125.416 27.6612 125.416 26.2H124.916C124.916 27.6971 125.148 28.8623 125.647 29.6605L126.071 29.3955ZM125.416 26.2V16.0773H124.916V26.2H125.416ZM125.166 15.8273H120.243V16.3273H125.166V15.8273ZM119.993 16.0773V27.1013H120.493V16.0773H119.993ZM119.993 27.1013C119.993 28.2243 120.087 29.2579 120.275 30.201L120.766 30.103C120.584 29.1972 120.493 28.197 120.493 27.1013H119.993ZM120.277 30.2082C120.492 31.1386 120.851 31.9459 121.36 32.6247L121.76 32.3247C121.299 31.7092 120.965 30.968 120.764 30.0958L120.277 30.2082ZM121.363 32.6282C121.878 33.2908 122.574 33.8005 123.44 34.1614L123.633 33.6999C122.835 33.3675 122.213 32.9066 121.758 32.3212L121.363 32.6282ZM123.443 34.1624C124.337 34.5251 125.458 34.7007 126.795 34.7007V34.2007C125.497 34.2007 124.446 34.0296 123.63 33.699L123.443 34.1624ZM126.795 34.7007C127.873 34.7007 128.926 34.4608 129.951 33.984L129.74 33.5307C128.778 33.9784 127.797 34.2007 126.795 34.2007V34.7007ZM129.951 33.984C130.995 33.4985 131.84 32.7107 132.487 31.6326L132.058 31.3754C131.457 32.3773 130.684 33.0917 129.74 33.5307L129.951 33.984ZM132.272 31.754H132.376V31.254H132.272V31.754ZM132.126 31.504V34H132.626V31.504H132.126ZM132.376 34.25H137.056V33.75H132.376V34.25ZM152.857 23.1147V23.3647H153.157L153.102 23.0691L152.857 23.1147ZM144.849 23.1147L144.599 23.098L144.581 23.3647H144.849V23.1147ZM145.057 21.936L144.818 21.8606L144.815 21.8724L145.057 21.936ZM145.715 20.688L145.522 20.529L145.517 20.5361L145.715 20.688ZM146.963 19.7173L147.075 19.941L147.079 19.939L146.963 19.7173ZM151.609 20.272L151.422 20.4385L151.425 20.4421L151.609 20.272ZM144.849 26.2347V25.9847H144.587L144.599 26.2455L144.849 26.2347ZM157.779 26.2347V26.4847H158.013L158.029 26.2513L157.779 26.2347ZM155.838 18.8507L155.635 18.9969L155.637 18.9999L155.838 18.8507ZM153.065 16.4933L152.947 16.7142L152.951 16.716L153.065 16.4933ZM145.334 16.32L145.235 16.0902L145.234 16.091L145.334 16.32ZM142.457 18.3307L142.636 18.505L142.638 18.5025L142.457 18.3307ZM140.585 21.312L140.351 21.2232L140.351 21.2232L140.585 21.312ZM140.55 28.8693L140.315 28.954L140.316 28.9581L140.55 28.8693ZM145.265 33.792L145.17 34.0235L145.174 34.0251L145.265 33.792ZM154.278 33.064L154.413 33.2741L154.413 33.2741L154.278 33.064ZM157.467 28.4533L157.705 28.5301L157.811 28.2033H157.467V28.4533ZM153.134 28.4533V28.2033H152.946L152.894 28.3833L153.134 28.4533ZM151.817 30.048L151.957 30.255L151.961 30.2519L151.817 30.048ZM146.062 29.7013L146.236 29.5218L146.236 29.5218L146.062 29.7013ZM152.857 22.8647H144.849V23.3647H152.857V22.8647ZM145.098 23.1313C145.12 22.8045 145.186 22.4277 145.298 21.9996L144.815 21.8724C144.696 22.3225 144.624 22.7315 144.599 23.098L145.098 23.1313ZM145.295 22.0113C145.424 21.6018 145.63 21.2114 145.914 20.8399L145.517 20.5361C145.2 20.9503 144.966 21.392 144.818 21.8607L145.295 22.0113ZM145.908 20.8469C146.207 20.484 146.594 20.1814 147.075 19.9409L146.851 19.4937C146.315 19.7618 145.871 20.1062 145.522 20.5291L145.908 20.8469ZM147.079 19.939C147.565 19.6851 148.182 19.5513 148.939 19.5513V19.0513C148.125 19.0513 147.424 19.1948 146.848 19.4957L147.079 19.939ZM148.939 19.5513C150.098 19.5513 150.908 19.8626 151.422 20.4385L151.795 20.1055C151.154 19.3872 150.184 19.0513 148.939 19.0513V19.5513ZM151.425 20.4421C151.983 21.0424 152.385 21.9395 152.611 23.1602L153.102 23.0691C152.866 21.7939 152.436 20.7958 151.792 20.1019L151.425 20.4421ZM144.849 26.4847H157.779V25.9847H144.849V26.4847ZM158.029 26.2513C158.123 24.8399 158.005 23.4845 157.675 22.1863L157.19 22.3097C157.507 23.5537 157.621 24.8561 157.53 26.218L158.029 26.2513ZM157.675 22.1863C157.344 20.8855 156.799 19.7229 156.038 18.7014L155.637 18.9999C156.356 19.966 156.874 21.0683 157.19 22.3097L157.675 22.1863ZM156.041 18.7045C155.3 17.6772 154.345 16.8658 153.178 16.2706L152.951 16.716C154.049 17.2765 154.943 18.0365 155.635 18.9969L156.041 18.7045ZM153.182 16.2725C152.007 15.6491 150.636 15.342 149.078 15.342V15.842C150.57 15.842 151.857 16.1358 152.947 16.7142L153.182 16.2725ZM149.078 15.342C147.684 15.342 146.402 15.5902 145.235 16.0902L145.432 16.5498C146.531 16.0791 147.745 15.842 149.078 15.842V15.342ZM145.234 16.091C144.095 16.5893 143.108 17.2787 142.275 18.1589L142.638 18.5025C143.423 17.6724 144.355 17.0213 145.434 16.549L145.234 16.091ZM142.277 18.1564C141.443 19.0144 140.801 20.0378 140.351 21.2232L140.818 21.4008C141.246 20.275 141.852 19.3109 142.636 18.5049L142.277 18.1564ZM140.351 21.2232C139.9 22.4094 139.676 23.6878 139.676 25.056H140.176C140.176 23.7433 140.391 22.5257 140.818 21.4008L140.351 21.2232ZM139.676 25.056C139.676 26.4678 139.888 27.768 140.315 28.954L140.785 28.7847C140.38 27.6595 140.176 26.4175 140.176 25.056H139.676ZM140.316 28.9581C140.766 30.142 141.395 31.1645 142.205 32.0223L142.569 31.679C141.808 30.8728 141.212 29.9078 140.784 28.7805L140.316 28.9581ZM142.205 32.0223C143.017 32.882 144.007 33.5487 145.17 34.0235L145.359 33.5605C144.257 33.1109 143.329 32.4833 142.569 31.679L142.205 32.0223ZM145.174 34.0251C146.34 34.477 147.642 34.7007 149.078 34.7007V34.2007C147.694 34.2007 146.454 33.9852 145.355 33.5589L145.174 34.0251ZM149.078 34.7007C151.15 34.7007 152.933 34.2292 154.413 33.2741L154.142 32.8539C152.757 33.7476 151.073 34.2007 149.078 34.2007V34.7007ZM154.413 33.2741C155.909 32.3095 157 30.7164 157.705 28.5301L157.229 28.3766C156.548 30.4889 155.513 31.9697 154.142 32.8539L154.413 33.2741ZM157.467 28.2033H153.134V28.7033H157.467V28.2033ZM152.894 28.3833C152.754 28.8621 152.365 29.3521 151.672 29.8441L151.961 30.2519C152.701 29.727 153.19 29.1539 153.374 28.5233L152.894 28.3833ZM151.676 29.841C151.007 30.2943 150.203 30.526 149.251 30.526V31.026C150.287 31.026 151.193 30.7723 151.957 30.255L151.676 29.841ZM149.251 30.526C147.906 30.526 146.914 30.1792 146.236 29.5218L145.888 29.8809C146.688 30.6564 147.823 31.026 149.251 31.026V30.526ZM146.236 29.5218C145.562 28.8689 145.166 27.7886 145.098 26.2238L144.599 26.2455C144.669 27.8701 145.083 29.1009 145.888 29.8809L146.236 29.5218ZM170.867 9.248V8.998H170.617V9.248H170.867ZM170.867 34H170.617V34.25H170.867V34ZM175.963 34V34.25H176.213V34H175.963ZM175.963 16.632V16.382H175.713V16.632H175.963ZM176.033 16.632L176.269 16.5496L176.21 16.382H176.033V16.632ZM182.099 34L181.863 34.0824L181.922 34.25H182.099V34ZM186.294 34V34.25H186.472L186.53 34.0817L186.294 34ZM192.361 16.4587V16.2087H192.183L192.124 16.377L192.361 16.4587ZM192.43 16.4587H192.68V16.2087H192.43V16.4587ZM192.43 34H192.18V34.25H192.43V34ZM197.526 34V34.25H197.776V34H197.526ZM197.526 9.248H197.776V8.998H197.526V9.248ZM189.865 9.248V8.998H189.682L189.627 9.17142L189.865 9.248ZM184.387 26.2693V26.5193H184.569L184.625 26.3459L184.387 26.2693ZM184.318 26.2693L184.081 26.3498L184.139 26.5193H184.318V26.2693ZM178.529 9.248L178.765 9.1675L178.708 8.998H178.529V9.248ZM170.617 9.248V34H171.117V9.248H170.617ZM170.867 34.25H175.963V33.75H170.867V34.25ZM176.213 34V16.632H175.713V34H176.213ZM175.963 16.882H176.033V16.382H175.963V16.882ZM175.797 16.7144L181.863 34.0824L182.335 33.9176L176.269 16.5496L175.797 16.7144ZM182.099 34.25H186.294V33.75H182.099V34.25ZM186.53 34.0817L192.597 16.5404L192.124 16.377L186.058 33.9183L186.53 34.0817ZM192.361 16.7087H192.43V16.2087H192.361V16.7087ZM192.18 16.4587V34H192.68V16.4587H192.18ZM192.43 34.25H197.526V33.75H192.43V34.25ZM197.776 34V9.248H197.276V34H197.776ZM197.526 8.998H189.865V9.498H197.526V8.998ZM189.627 9.17142L184.149 26.1928L184.625 26.3459L190.103 9.32458L189.627 9.17142ZM184.387 26.0193H184.318V26.5193H184.387V26.0193ZM184.555 26.1888L178.765 9.1675L178.292 9.3285L184.081 26.3498L184.555 26.1888ZM178.529 8.998H170.867V9.498H178.529V8.998ZM201.59 21.5893L201.34 21.5744L201.324 21.8393H201.59V21.5893ZM202.456 18.712L202.664 18.8507L202.664 18.8507L202.456 18.712ZM204.398 16.8747L204.525 17.0901L204.525 17.0901L204.398 16.8747ZM207.032 15.904L207.079 16.1496L207.084 16.1487L207.032 15.904ZM212.752 15.8L212.715 16.0473L212.721 16.0481L212.752 15.8ZM215.283 16.528L215.174 16.753L215.174 16.753L215.283 16.528ZM217.155 18.088L216.953 18.2346L216.955 18.238L217.155 18.088ZM218.022 32.336L217.774 32.367L218.022 32.336ZM218.507 34V34.25H218.958L218.719 33.8675L218.507 34ZM213.515 34L213.278 34.0791L213.335 34.25H213.515V34ZM213.272 33.168L213.025 33.206L213.027 33.2174L213.03 33.2286L213.272 33.168ZM213.168 32.2667L213.418 32.2475L213.375 31.695L212.989 32.0925L213.168 32.2667ZM210.395 33.9653L210.468 34.2045L210.395 33.9653ZM204.744 34.1387L204.812 33.898L204.812 33.898L204.744 34.1387ZM202.803 33.168L202.648 33.364L202.648 33.364L202.803 33.168ZM201.486 31.504L201.258 31.6063L201.261 31.6127L201.486 31.504ZM201.555 26.616L201.336 26.4952L201.335 26.4979L201.555 26.616ZM202.942 25.0213L202.801 24.8146L202.797 24.8173L202.942 25.0213ZM204.883 24.1547L204.946 24.3968L204.951 24.3953L204.883 24.1547ZM207.102 23.6693L207.14 23.9163L207.14 23.9163L207.102 23.6693ZM209.286 23.392L209.262 23.1432L209.262 23.1432L209.286 23.392ZM211.192 23.08L211.132 22.8375L211.132 22.8375L211.192 23.08ZM212.51 22.4907L212.664 22.6874L212.672 22.6805L212.51 22.4907ZM212.96 21.312H212.71L212.711 21.3234L212.96 21.312ZM212.683 20.064L212.46 20.1758L212.464 20.1856L212.47 20.195L212.683 20.064ZM211.99 19.336L211.851 19.544L211.861 19.5505L211.871 19.5561L211.99 19.336ZM210.984 18.9893L210.938 19.235L210.947 19.2366L210.955 19.2376L210.984 18.9893ZM206.512 21.5893V21.8393H206.74L206.761 21.613L206.512 21.5893ZM212.96 25.2293H213.21V24.6726L212.794 25.0425L212.96 25.2293ZM212.163 25.68L212.237 25.9192L212.247 25.9154L212.163 25.68ZM211.158 25.9227L211.112 25.6769L211.109 25.6775L211.158 25.9227ZM210.048 26.096L210.019 25.8477L210.019 25.8477L210.048 26.096ZM208.87 26.2693L208.826 26.0231L208.824 26.0236L208.87 26.2693ZM207.76 26.5467L207.686 26.308L207.681 26.3095L207.76 26.5467ZM206.824 27.032L206.972 27.2342L206.974 27.232L206.824 27.032ZM206.2 30.0133L205.98 30.1319L205.98 30.1319L206.2 30.0133ZM206.859 30.7413L206.72 30.9493L206.727 30.9535L206.733 30.9573L206.859 30.7413ZM207.83 31.088L207.876 30.8423L207.876 30.8423L207.83 31.088ZM211.227 30.7067L211.097 30.4931L211.097 30.4931L211.227 30.7067ZM212.406 29.5627L212.622 29.688L212.625 29.6831L212.406 29.5627ZM212.856 28.176L212.609 28.1389L212.608 28.1511L212.856 28.176ZM201.839 21.6043C201.907 20.4815 202.186 19.568 202.664 18.8507L202.248 18.5733C201.71 19.3813 201.412 20.3861 201.34 21.5744L201.839 21.6043ZM202.664 18.8507C203.152 18.1192 203.771 17.5331 204.525 17.0901L204.271 16.6592C203.453 17.1407 202.778 17.7794 202.248 18.5733L202.664 18.8507ZM204.525 17.0901C205.284 16.6437 206.134 16.3296 207.079 16.1496L206.986 15.6584C205.989 15.8482 205.084 16.1812 204.271 16.6592L204.525 17.0901ZM207.084 16.1487C208.061 15.9441 209.038 15.842 210.014 15.842V15.342C209.002 15.342 207.991 15.4479 206.981 15.6593L207.084 16.1487ZM210.014 15.842C210.902 15.842 211.803 15.9103 212.715 16.0472L212.79 15.5528C211.853 15.4123 210.928 15.342 210.014 15.342V15.842ZM212.721 16.0481C213.621 16.1606 214.438 16.3962 215.174 16.753L215.392 16.303C214.603 15.9202 213.732 15.6705 212.783 15.5519L212.721 16.0481ZM215.174 16.753C215.901 17.1052 216.492 17.5987 216.953 18.2346L217.358 17.9414C216.847 17.2369 216.191 16.6904 215.392 16.303L215.174 16.753ZM216.955 18.238C217.398 18.8291 217.633 19.6375 217.633 20.688H218.133C218.133 19.5661 217.882 18.6411 217.355 17.938L216.955 18.238ZM217.633 20.688V30.0133H218.133V20.688H217.633ZM217.633 30.0133C217.633 30.8317 217.68 31.6163 217.774 32.367L218.27 32.305C218.179 31.5765 218.133 30.8127 218.133 30.0133H217.633ZM217.774 32.367C217.868 33.1205 218.036 33.7174 218.295 34.1325L218.719 33.8675C218.516 33.543 218.361 33.0306 218.27 32.305L217.774 32.367ZM218.507 33.75H213.515V34.25H218.507V33.75ZM213.752 33.9209C213.662 33.6495 213.583 33.3784 213.515 33.1074L213.03 33.2286C213.101 33.5123 213.184 33.7958 213.278 34.0791L213.752 33.9209ZM213.52 33.13C213.474 32.8357 213.44 32.5416 213.418 32.2475L212.919 32.2858C212.943 32.5926 212.978 32.8994 213.025 33.206L213.52 33.13ZM212.989 32.0925C212.232 32.8715 211.344 33.4151 210.322 33.7262L210.468 34.2045C211.572 33.8685 212.533 33.2796 213.348 32.4409L212.989 32.0925ZM210.322 33.7262C209.283 34.0426 208.221 34.2007 207.136 34.2007V34.7007C208.27 34.7007 209.381 34.5352 210.468 34.2045L210.322 33.7262ZM207.136 34.2007C206.302 34.2007 205.527 34.0992 204.812 33.898L204.677 34.3793C205.441 34.5942 206.261 34.7007 207.136 34.7007V34.2007ZM204.812 33.898C204.102 33.6982 203.485 33.3889 202.958 32.972L202.648 33.364C203.231 33.8254 203.908 34.1632 204.677 34.3793L204.812 33.898ZM202.958 32.972C202.435 32.5575 202.019 32.0333 201.711 31.3953L201.261 31.6127C201.6 32.3151 202.062 32.9002 202.648 33.364L202.958 32.972ZM201.714 31.4017C201.431 30.7709 201.285 30.01 201.285 29.112H200.785C200.785 30.0629 200.94 30.8967 201.258 31.6063L201.714 31.4017ZM201.285 29.112C201.285 28.1213 201.454 27.3336 201.775 26.7341L201.335 26.4979C200.963 27.1926 200.785 28.069 200.785 29.112H201.285ZM201.774 26.7368C202.128 26.0954 202.566 25.5938 203.086 25.2253L202.797 24.8173C202.208 25.2346 201.722 25.7962 201.336 26.4952L201.774 26.7368ZM203.082 25.2281C203.635 24.8523 204.255 24.5749 204.946 24.3967L204.821 23.9126C204.078 24.1043 203.404 24.4046 202.801 24.8146L203.082 25.2281ZM204.951 24.3953C205.681 24.1899 206.411 24.0303 207.14 23.9163L207.063 23.4223C206.314 23.5395 205.564 23.7034 204.815 23.914L204.951 24.3953ZM207.14 23.9163C207.875 23.8015 208.598 23.7097 209.31 23.6408L209.262 23.1432C208.54 23.213 207.807 23.3061 207.063 23.4223L207.14 23.9163ZM209.31 23.6408C210.036 23.5706 210.684 23.4649 211.253 23.3225L211.132 22.8375C210.592 22.9725 209.969 23.0747 209.262 23.1432L209.31 23.6408ZM211.253 23.3225C211.829 23.1784 212.304 22.97 212.664 22.6872L212.355 22.2941C212.068 22.5198 211.665 22.7042 211.132 22.8375L211.253 23.3225ZM212.672 22.6805C213.066 22.3431 213.236 21.8693 213.21 21.3006L212.711 21.3234C212.731 21.7716 212.601 22.0836 212.347 22.3009L212.672 22.6805ZM213.21 21.312C213.21 20.756 213.114 20.288 212.896 19.933L212.47 20.195C212.622 20.4409 212.71 20.8049 212.71 21.312H213.21ZM212.907 19.9522C212.723 19.5855 212.457 19.3036 212.108 19.1159L211.871 19.5561C212.124 19.692 212.319 19.8954 212.46 20.1758L212.907 19.9522ZM212.128 19.128C211.813 18.9175 211.438 18.791 211.014 18.741L210.955 19.2376C211.316 19.2801 211.612 19.3847 211.851 19.544L212.128 19.128ZM211.031 18.7436C210.643 18.671 210.223 18.6353 209.771 18.6353V19.1353C210.197 19.1353 210.586 19.169 210.938 19.235L211.031 18.7436ZM209.771 18.6353C208.767 18.6353 207.945 18.8502 207.333 19.3093L207.633 19.7093C208.13 19.3365 208.833 19.1353 209.771 19.1353V18.6353ZM207.333 19.3093C206.702 19.7825 206.36 20.5542 206.264 21.5656L206.761 21.613C206.85 20.6832 207.155 20.0682 207.633 19.7093L207.333 19.3093ZM206.512 21.3393H201.59V21.8393H206.512V21.3393ZM212.794 25.0425C212.615 25.2017 212.379 25.3373 212.079 25.4446L212.247 25.9154C212.594 25.7915 212.89 25.6267 213.127 25.4162L212.794 25.0425ZM212.09 25.4411C211.8 25.5302 211.474 25.609 211.112 25.6769L211.204 26.1684C211.581 26.0976 211.926 26.0146 212.237 25.9189L212.09 25.4411ZM211.109 25.6775C210.769 25.7454 210.406 25.8022 210.019 25.8477L210.078 26.3443C210.476 26.2974 210.853 26.2386 211.207 26.1678L211.109 25.6775ZM210.019 25.8477C209.622 25.8945 209.224 25.953 208.826 26.0231L208.913 26.5155C209.301 26.447 209.69 26.3899 210.078 26.3443L210.019 25.8477ZM208.824 26.0236C208.444 26.0948 208.065 26.1897 207.686 26.308L207.835 26.7853C208.196 26.6726 208.556 26.5825 208.916 26.5151L208.824 26.0236ZM207.681 26.3095C207.311 26.4331 206.974 26.607 206.674 26.832L206.974 27.232C207.229 27.041 207.517 26.8914 207.84 26.7838L207.681 26.3095ZM206.677 26.8298C206.39 27.0386 206.158 27.3109 205.98 27.6415L206.421 27.8785C206.566 27.6082 206.75 27.3952 206.971 27.2342L206.677 26.8298ZM205.98 27.6415C205.793 27.989 205.708 28.4144 205.708 28.904H206.208C206.208 28.4691 206.284 28.1319 206.421 27.8785L205.98 27.6415ZM205.708 28.904C205.708 29.3729 205.794 29.786 205.98 30.1319L206.421 29.8948C206.283 29.6398 206.208 29.3133 206.208 28.904H205.708ZM205.98 30.1319C206.161 30.4675 206.408 30.7412 206.72 30.9493L206.998 30.5333C206.755 30.3717 206.563 30.1601 206.421 29.8948L205.98 30.1319ZM206.733 30.9573C207.039 31.1357 207.391 31.26 207.784 31.3337L207.876 30.8423C207.529 30.7773 207.234 30.6705 206.985 30.5254L206.733 30.9573ZM207.784 31.3337C208.169 31.406 208.566 31.442 208.974 31.442V30.942C208.596 30.942 208.23 30.9086 207.876 30.8423L207.784 31.3337ZM208.974 31.442C209.967 31.442 210.77 31.2774 211.357 30.9202L211.097 30.4931C210.621 30.783 209.922 30.942 208.974 30.942V31.442ZM211.357 30.9202C211.916 30.5798 212.343 30.1706 212.622 29.6879L212.189 29.4374C211.96 29.833 211.601 30.1864 211.097 30.4931L211.357 30.9202ZM212.625 29.6831C212.893 29.1954 213.055 28.7009 213.105 28.2009L212.608 28.1511C212.565 28.5755 212.427 29.0055 212.187 29.4422L212.625 29.6831ZM213.104 28.2131C213.174 27.7457 213.21 27.362 213.21 27.0667H212.71C212.71 27.326 212.678 27.6819 212.609 28.1389L213.104 28.2131ZM213.21 27.0667V25.2293H212.71V27.0667H213.21ZM228.741 30.2907L228.615 30.5066L228.615 30.5066L228.741 30.2907ZM227.389 29.0427L227.176 29.1728L227.183 29.1835L227.389 29.0427ZM226.661 27.2053L226.416 27.2544L226.418 27.2621L226.661 27.2053ZM227.355 21.104L227.145 20.9674L227.141 20.974L227.355 21.104ZM228.672 19.8213L228.802 20.0349L228.805 20.0333L228.672 19.8213ZM232.693 19.8213L232.557 20.031L232.567 20.0373L232.693 19.8213ZM234.045 21.1387L233.833 21.2712L233.836 21.2752L234.045 21.1387ZM234.773 22.976L234.528 23.0251L234.53 23.0328L234.773 22.976ZM234.808 27.2053L234.563 27.1563L234.563 27.1563L234.808 27.2053ZM234.08 29.0427L233.871 28.9061L233.869 28.9084L234.08 29.0427ZM232.763 30.2907L232.637 30.0747L232.633 30.0771L232.763 30.2907ZM221.704 16.0773V15.8273H221.454V16.0773H221.704ZM221.704 40.2747H221.454V40.5247H221.704V40.2747ZM226.627 40.2747V40.5247H226.877V40.2747H226.627ZM226.627 31.7813V31.5313H226.377V31.7813H226.627ZM226.696 31.7813L226.902 31.6402L226.828 31.5313H226.696V31.7813ZM228.984 33.792L228.872 34.0157L228.879 34.0188L228.984 33.792ZM235.501 33.688L235.387 33.4654L235.385 33.4665L235.501 33.688ZM237.963 31.6427L237.766 31.4884L237.763 31.4918L237.963 31.6427ZM239.453 28.696L239.213 28.626L239.213 28.626L239.453 28.696ZM239.453 21.5893L239.212 21.6555L239.213 21.6567L239.453 21.5893ZM237.963 18.504L237.764 18.6557L237.764 18.6557L237.963 18.504ZM235.432 16.3893L235.548 16.1678L235.432 16.3893ZM228.741 16.2507L228.634 16.0248L228.634 16.0248L228.741 16.2507ZM226.453 18.3653V18.6153H226.593L226.666 18.4969L226.453 18.3653ZM226.384 18.3653H226.134V18.6153H226.384V18.3653ZM226.384 16.0773H226.634V15.8273H226.384V16.0773ZM230.752 30.526C230.001 30.526 229.376 30.3715 228.867 30.0747L228.615 30.5066C229.216 30.857 229.932 31.026 230.752 31.026V30.526ZM228.867 30.0747C228.343 29.7691 227.921 29.3782 227.596 28.9018L227.183 29.1835C227.551 29.724 228.03 30.1652 228.615 30.5066L228.867 30.0747ZM227.603 28.9127C227.295 28.4068 227.061 27.8197 226.905 27.1485L226.418 27.2621C226.585 27.9776 226.837 28.6154 227.176 29.1727L227.603 28.9127ZM226.907 27.1563C226.771 26.4793 226.703 25.7909 226.703 25.0907H226.203C226.203 25.8234 226.274 26.5447 226.416 27.2544L226.907 27.1563ZM226.703 25.0907C226.703 24.3668 226.771 23.6668 226.907 22.9904L226.416 22.8923C226.274 23.6025 226.203 24.3354 226.203 25.0907H226.703ZM226.907 22.9904C227.04 22.3218 227.262 21.7375 227.568 21.234L227.141 20.974C226.8 21.5337 226.56 22.1742 226.416 22.8923L226.907 22.9904ZM227.564 21.2406C227.891 20.7396 228.303 20.3386 228.802 20.0349L228.542 19.6078C227.978 19.9511 227.512 20.4052 227.145 20.9674L227.564 21.2406ZM228.805 20.0333C229.311 19.7168 229.944 19.5513 230.717 19.5513V19.0513C229.873 19.0513 229.142 19.2326 228.54 19.6093L228.805 20.0333ZM230.717 19.5513C231.466 19.5513 232.075 19.7162 232.557 20.0307L232.83 19.6119C232.249 19.2331 231.54 19.0513 230.717 19.0513V19.5513ZM232.567 20.0373C233.086 20.34 233.508 20.7502 233.833 21.2712L234.257 21.0062C233.89 20.4178 233.41 19.9498 232.819 19.6054L232.567 20.0373ZM233.836 21.2752C234.163 21.7773 234.395 22.3593 234.528 23.025L235.019 22.927C234.874 22.206 234.621 21.5632 234.255 21.0021L233.836 21.2752ZM234.53 23.0328C234.687 23.7074 234.766 24.3932 234.766 25.0907H235.266C235.266 24.3552 235.183 23.6313 235.017 22.9192L234.53 23.0328ZM234.766 25.0907C234.766 25.7909 234.698 26.4793 234.563 27.1563L235.053 27.2544C235.195 26.5447 235.266 25.8234 235.266 25.0907H234.766ZM234.563 27.1563C234.43 27.822 234.198 28.4041 233.871 28.9061L234.289 29.1792C234.655 28.6182 234.909 27.9753 235.053 27.2544L234.563 27.1563ZM233.869 28.9084C233.568 29.3811 233.159 29.7699 232.637 30.0747L232.889 30.5066C233.475 30.1643 233.945 29.7211 234.291 29.1769L233.869 28.9084ZM232.633 30.0771C232.15 30.3707 231.529 30.526 230.752 30.526V31.026C231.593 31.026 232.312 30.8578 232.893 30.5042L232.633 30.0771ZM221.454 16.0773V40.2747H221.954V16.0773H221.454ZM221.704 40.5247H226.627V40.0247H221.704V40.5247ZM226.877 40.2747V31.7813H226.377V40.2747H226.877ZM226.627 32.0313H226.696V31.5313H226.627V32.0313ZM226.49 31.9225C227.114 32.8347 227.909 33.5338 228.872 34.0156L229.096 33.5684C228.211 33.1257 227.48 32.4844 226.902 31.6402L226.49 31.9225ZM228.879 34.0188C229.861 34.4741 230.926 34.7007 232.069 34.7007V34.2007C230.994 34.2007 230.002 33.9881 229.089 33.5652L228.879 34.0188ZM232.069 34.7007C233.419 34.7007 234.604 34.4401 235.617 33.9095L235.385 33.4665C234.457 33.9528 233.354 34.2007 232.069 34.2007V34.7007ZM235.615 33.9106C236.641 33.3857 237.491 32.6799 238.162 31.7935L237.763 31.4918C237.14 32.3156 236.349 32.9734 235.387 33.4654L235.615 33.9106ZM238.159 31.7969C238.851 30.9151 239.361 29.9039 239.693 28.766L239.213 28.626C238.898 29.7067 238.415 30.66 237.766 31.4884L238.159 31.7969ZM239.693 28.766C240.024 27.633 240.189 26.4538 240.189 25.2293H239.689C239.689 26.4084 239.53 27.5403 239.213 28.626L239.693 28.766ZM240.189 25.2293C240.189 23.9368 240.024 22.7007 239.694 21.5219L239.213 21.6567C239.53 22.7891 239.689 23.9797 239.689 25.2293H240.189ZM239.694 21.5232C239.363 20.3168 238.853 19.2586 238.161 18.3523L237.764 18.6557C238.413 19.5058 238.896 20.5045 239.212 21.6555L239.694 21.5232ZM238.161 18.3523C237.468 17.4439 236.596 16.7156 235.548 16.1678L235.316 16.6109C236.302 17.1262 237.117 17.8077 237.764 18.6557L238.161 18.3523ZM235.548 16.1678C234.488 15.6137 233.233 15.342 231.792 15.342V15.842C233.171 15.842 234.342 16.1018 235.316 16.6109L235.548 16.1678ZM231.792 15.342C230.649 15.342 229.595 15.5685 228.634 16.0248L228.849 16.4765C229.737 16.0546 230.717 15.842 231.792 15.842V15.342ZM228.634 16.0248C227.661 16.4869 226.864 17.2271 226.241 18.2337L226.666 18.4969C227.245 17.5623 227.973 16.8926 228.849 16.4765L228.634 16.0248ZM226.453 18.1153H226.384V18.6153H226.453V18.1153ZM226.634 18.3653V16.0773H226.134V18.3653H226.634ZM226.384 15.8273H221.704V16.3273H226.384V15.8273Z" fill="white"/>
<path d="M51 49L249 49" stroke="#FED307" stroke-width="4"/>
</svg>
